%TF.GenerationSoftware,KiCad,Pcbnew,(5.1.6-0-10_14)*%
%TF.CreationDate,2020-05-27T15:33:41+01:00*%
%TF.ProjectId,Plotyx,506c6f74-7978-42e6-9b69-6361645f7063,rev?*%
%TF.SameCoordinates,Original*%
%TF.FileFunction,Legend,Top*%
%TF.FilePolarity,Positive*%
%FSLAX46Y46*%
G04 Gerber Fmt 4.6, Leading zero omitted, Abs format (unit mm)*
G04 Created by KiCad (PCBNEW (5.1.6-0-10_14)) date 2020-05-27 15:33:41*
%MOMM*%
%LPD*%
G01*
G04 APERTURE LIST*
%ADD10C,0.150000*%
%ADD11C,0.120000*%
%ADD12C,0.010000*%
%ADD13C,0.100000*%
G04 APERTURE END LIST*
D10*
X152413333Y-123435714D02*
X152413333Y-123911904D01*
X152127619Y-123340476D02*
X153127619Y-123673809D01*
X152127619Y-124007142D01*
X153127619Y-124245238D02*
X153127619Y-124911904D01*
X152127619Y-124483333D01*
X149943333Y-123435714D02*
X149943333Y-123911904D01*
X149657619Y-123340476D02*
X150657619Y-123673809D01*
X149657619Y-124007142D01*
X150657619Y-124769047D02*
X150657619Y-124578571D01*
X150610000Y-124483333D01*
X150562380Y-124435714D01*
X150419523Y-124340476D01*
X150229047Y-124292857D01*
X149848095Y-124292857D01*
X149752857Y-124340476D01*
X149705238Y-124388095D01*
X149657619Y-124483333D01*
X149657619Y-124673809D01*
X149705238Y-124769047D01*
X149752857Y-124816666D01*
X149848095Y-124864285D01*
X150086190Y-124864285D01*
X150181428Y-124816666D01*
X150229047Y-124769047D01*
X150276666Y-124673809D01*
X150276666Y-124483333D01*
X150229047Y-124388095D01*
X150181428Y-124340476D01*
X150086190Y-124292857D01*
X147433333Y-123465714D02*
X147433333Y-123941904D01*
X147147619Y-123370476D02*
X148147619Y-123703809D01*
X147147619Y-124037142D01*
X148147619Y-124846666D02*
X148147619Y-124370476D01*
X147671428Y-124322857D01*
X147719047Y-124370476D01*
X147766666Y-124465714D01*
X147766666Y-124703809D01*
X147719047Y-124799047D01*
X147671428Y-124846666D01*
X147576190Y-124894285D01*
X147338095Y-124894285D01*
X147242857Y-124846666D01*
X147195238Y-124799047D01*
X147147619Y-124703809D01*
X147147619Y-124465714D01*
X147195238Y-124370476D01*
X147242857Y-124322857D01*
X144863333Y-123435714D02*
X144863333Y-123911904D01*
X144577619Y-123340476D02*
X145577619Y-123673809D01*
X144577619Y-124007142D01*
X145244285Y-124769047D02*
X144577619Y-124769047D01*
X145625238Y-124530952D02*
X144910952Y-124292857D01*
X144910952Y-124911904D01*
X142363333Y-123435714D02*
X142363333Y-123911904D01*
X142077619Y-123340476D02*
X143077619Y-123673809D01*
X142077619Y-124007142D01*
X143077619Y-124245238D02*
X143077619Y-124864285D01*
X142696666Y-124530952D01*
X142696666Y-124673809D01*
X142649047Y-124769047D01*
X142601428Y-124816666D01*
X142506190Y-124864285D01*
X142268095Y-124864285D01*
X142172857Y-124816666D01*
X142125238Y-124769047D01*
X142077619Y-124673809D01*
X142077619Y-124388095D01*
X142125238Y-124292857D01*
X142172857Y-124245238D01*
X139793333Y-123435714D02*
X139793333Y-123911904D01*
X139507619Y-123340476D02*
X140507619Y-123673809D01*
X139507619Y-124007142D01*
X140412380Y-124292857D02*
X140460000Y-124340476D01*
X140507619Y-124435714D01*
X140507619Y-124673809D01*
X140460000Y-124769047D01*
X140412380Y-124816666D01*
X140317142Y-124864285D01*
X140221904Y-124864285D01*
X140079047Y-124816666D01*
X139507619Y-124245238D01*
X139507619Y-124864285D01*
X137323333Y-123465714D02*
X137323333Y-123941904D01*
X137037619Y-123370476D02*
X138037619Y-123703809D01*
X137037619Y-124037142D01*
X137037619Y-124894285D02*
X137037619Y-124322857D01*
X137037619Y-124608571D02*
X138037619Y-124608571D01*
X137894761Y-124513333D01*
X137799523Y-124418095D01*
X137751904Y-124322857D01*
X134713333Y-123405714D02*
X134713333Y-123881904D01*
X134427619Y-123310476D02*
X135427619Y-123643809D01*
X134427619Y-123977142D01*
X135427619Y-124500952D02*
X135427619Y-124596190D01*
X135380000Y-124691428D01*
X135332380Y-124739047D01*
X135237142Y-124786666D01*
X135046666Y-124834285D01*
X134808571Y-124834285D01*
X134618095Y-124786666D01*
X134522857Y-124739047D01*
X134475238Y-124691428D01*
X134427619Y-124596190D01*
X134427619Y-124500952D01*
X134475238Y-124405714D01*
X134522857Y-124358095D01*
X134618095Y-124310476D01*
X134808571Y-124262857D01*
X135046666Y-124262857D01*
X135237142Y-124310476D01*
X135332380Y-124358095D01*
X135380000Y-124405714D01*
X135427619Y-124500952D01*
X131837619Y-123331904D02*
X132837619Y-123331904D01*
X132837619Y-123570000D01*
X132790000Y-123712857D01*
X132694761Y-123808095D01*
X132599523Y-123855714D01*
X132409047Y-123903333D01*
X132266190Y-123903333D01*
X132075714Y-123855714D01*
X131980476Y-123808095D01*
X131885238Y-123712857D01*
X131837619Y-123570000D01*
X131837619Y-123331904D01*
X132409047Y-124474761D02*
X132456666Y-124379523D01*
X132504285Y-124331904D01*
X132599523Y-124284285D01*
X132647142Y-124284285D01*
X132742380Y-124331904D01*
X132790000Y-124379523D01*
X132837619Y-124474761D01*
X132837619Y-124665238D01*
X132790000Y-124760476D01*
X132742380Y-124808095D01*
X132647142Y-124855714D01*
X132599523Y-124855714D01*
X132504285Y-124808095D01*
X132456666Y-124760476D01*
X132409047Y-124665238D01*
X132409047Y-124474761D01*
X132361428Y-124379523D01*
X132313809Y-124331904D01*
X132218571Y-124284285D01*
X132028095Y-124284285D01*
X131932857Y-124331904D01*
X131885238Y-124379523D01*
X131837619Y-124474761D01*
X131837619Y-124665238D01*
X131885238Y-124760476D01*
X131932857Y-124808095D01*
X132028095Y-124855714D01*
X132218571Y-124855714D01*
X132313809Y-124808095D01*
X132361428Y-124760476D01*
X132409047Y-124665238D01*
X129367619Y-123311904D02*
X130367619Y-123311904D01*
X130367619Y-123550000D01*
X130320000Y-123692857D01*
X130224761Y-123788095D01*
X130129523Y-123835714D01*
X129939047Y-123883333D01*
X129796190Y-123883333D01*
X129605714Y-123835714D01*
X129510476Y-123788095D01*
X129415238Y-123692857D01*
X129367619Y-123550000D01*
X129367619Y-123311904D01*
X129367619Y-124359523D02*
X129367619Y-124550000D01*
X129415238Y-124645238D01*
X129462857Y-124692857D01*
X129605714Y-124788095D01*
X129796190Y-124835714D01*
X130177142Y-124835714D01*
X130272380Y-124788095D01*
X130320000Y-124740476D01*
X130367619Y-124645238D01*
X130367619Y-124454761D01*
X130320000Y-124359523D01*
X130272380Y-124311904D01*
X130177142Y-124264285D01*
X129939047Y-124264285D01*
X129843809Y-124311904D01*
X129796190Y-124359523D01*
X129748571Y-124454761D01*
X129748571Y-124645238D01*
X129796190Y-124740476D01*
X129843809Y-124788095D01*
X129939047Y-124835714D01*
X126847619Y-122355714D02*
X127847619Y-122355714D01*
X127847619Y-122593809D01*
X127800000Y-122736666D01*
X127704761Y-122831904D01*
X127609523Y-122879523D01*
X127419047Y-122927142D01*
X127276190Y-122927142D01*
X127085714Y-122879523D01*
X126990476Y-122831904D01*
X126895238Y-122736666D01*
X126847619Y-122593809D01*
X126847619Y-122355714D01*
X126847619Y-123879523D02*
X126847619Y-123308095D01*
X126847619Y-123593809D02*
X127847619Y-123593809D01*
X127704761Y-123498571D01*
X127609523Y-123403333D01*
X127561904Y-123308095D01*
X127847619Y-124498571D02*
X127847619Y-124593809D01*
X127800000Y-124689047D01*
X127752380Y-124736666D01*
X127657142Y-124784285D01*
X127466666Y-124831904D01*
X127228571Y-124831904D01*
X127038095Y-124784285D01*
X126942857Y-124736666D01*
X126895238Y-124689047D01*
X126847619Y-124593809D01*
X126847619Y-124498571D01*
X126895238Y-124403333D01*
X126942857Y-124355714D01*
X127038095Y-124308095D01*
X127228571Y-124260476D01*
X127466666Y-124260476D01*
X127657142Y-124308095D01*
X127752380Y-124355714D01*
X127800000Y-124403333D01*
X127847619Y-124498571D01*
X124287619Y-122385714D02*
X125287619Y-122385714D01*
X125287619Y-122623809D01*
X125240000Y-122766666D01*
X125144761Y-122861904D01*
X125049523Y-122909523D01*
X124859047Y-122957142D01*
X124716190Y-122957142D01*
X124525714Y-122909523D01*
X124430476Y-122861904D01*
X124335238Y-122766666D01*
X124287619Y-122623809D01*
X124287619Y-122385714D01*
X124287619Y-123909523D02*
X124287619Y-123338095D01*
X124287619Y-123623809D02*
X125287619Y-123623809D01*
X125144761Y-123528571D01*
X125049523Y-123433333D01*
X125001904Y-123338095D01*
X124287619Y-124861904D02*
X124287619Y-124290476D01*
X124287619Y-124576190D02*
X125287619Y-124576190D01*
X125144761Y-124480952D01*
X125049523Y-124385714D01*
X125001904Y-124290476D01*
X121747619Y-122385714D02*
X122747619Y-122385714D01*
X122747619Y-122623809D01*
X122700000Y-122766666D01*
X122604761Y-122861904D01*
X122509523Y-122909523D01*
X122319047Y-122957142D01*
X122176190Y-122957142D01*
X121985714Y-122909523D01*
X121890476Y-122861904D01*
X121795238Y-122766666D01*
X121747619Y-122623809D01*
X121747619Y-122385714D01*
X121747619Y-123909523D02*
X121747619Y-123338095D01*
X121747619Y-123623809D02*
X122747619Y-123623809D01*
X122604761Y-123528571D01*
X122509523Y-123433333D01*
X122461904Y-123338095D01*
X122652380Y-124290476D02*
X122700000Y-124338095D01*
X122747619Y-124433333D01*
X122747619Y-124671428D01*
X122700000Y-124766666D01*
X122652380Y-124814285D01*
X122557142Y-124861904D01*
X122461904Y-124861904D01*
X122319047Y-124814285D01*
X121747619Y-124242857D01*
X121747619Y-124861904D01*
X119197619Y-122385714D02*
X120197619Y-122385714D01*
X120197619Y-122623809D01*
X120150000Y-122766666D01*
X120054761Y-122861904D01*
X119959523Y-122909523D01*
X119769047Y-122957142D01*
X119626190Y-122957142D01*
X119435714Y-122909523D01*
X119340476Y-122861904D01*
X119245238Y-122766666D01*
X119197619Y-122623809D01*
X119197619Y-122385714D01*
X119197619Y-123909523D02*
X119197619Y-123338095D01*
X119197619Y-123623809D02*
X120197619Y-123623809D01*
X120054761Y-123528571D01*
X119959523Y-123433333D01*
X119911904Y-123338095D01*
X120197619Y-124242857D02*
X120197619Y-124861904D01*
X119816666Y-124528571D01*
X119816666Y-124671428D01*
X119769047Y-124766666D01*
X119721428Y-124814285D01*
X119626190Y-124861904D01*
X119388095Y-124861904D01*
X119292857Y-124814285D01*
X119245238Y-124766666D01*
X119197619Y-124671428D01*
X119197619Y-124385714D01*
X119245238Y-124290476D01*
X119292857Y-124242857D01*
X160628571Y-118952380D02*
X160295238Y-118476190D01*
X160057142Y-118952380D02*
X160057142Y-117952380D01*
X160438095Y-117952380D01*
X160533333Y-118000000D01*
X160580952Y-118047619D01*
X160628571Y-118142857D01*
X160628571Y-118285714D01*
X160580952Y-118380952D01*
X160533333Y-118428571D01*
X160438095Y-118476190D01*
X160057142Y-118476190D01*
X161057142Y-118428571D02*
X161390476Y-118428571D01*
X161533333Y-118952380D02*
X161057142Y-118952380D01*
X161057142Y-117952380D01*
X161533333Y-117952380D01*
X162295238Y-118428571D02*
X161961904Y-118428571D01*
X161961904Y-118952380D02*
X161961904Y-117952380D01*
X162438095Y-117952380D01*
X159961904Y-115452380D02*
X160580952Y-115452380D01*
X160247619Y-115833333D01*
X160390476Y-115833333D01*
X160485714Y-115880952D01*
X160533333Y-115928571D01*
X160580952Y-116023809D01*
X160580952Y-116261904D01*
X160533333Y-116357142D01*
X160485714Y-116404761D01*
X160390476Y-116452380D01*
X160104761Y-116452380D01*
X160009523Y-116404761D01*
X159961904Y-116357142D01*
X160866666Y-115452380D02*
X161200000Y-116452380D01*
X161533333Y-115452380D01*
X161771428Y-115452380D02*
X162390476Y-115452380D01*
X162057142Y-115833333D01*
X162200000Y-115833333D01*
X162295238Y-115880952D01*
X162342857Y-115928571D01*
X162390476Y-116023809D01*
X162390476Y-116261904D01*
X162342857Y-116357142D01*
X162295238Y-116404761D01*
X162200000Y-116452380D01*
X161914285Y-116452380D01*
X161819047Y-116404761D01*
X161771428Y-116357142D01*
X160338095Y-113000000D02*
X160242857Y-112952380D01*
X160100000Y-112952380D01*
X159957142Y-113000000D01*
X159861904Y-113095238D01*
X159814285Y-113190476D01*
X159766666Y-113380952D01*
X159766666Y-113523809D01*
X159814285Y-113714285D01*
X159861904Y-113809523D01*
X159957142Y-113904761D01*
X160100000Y-113952380D01*
X160195238Y-113952380D01*
X160338095Y-113904761D01*
X160385714Y-113857142D01*
X160385714Y-113523809D01*
X160195238Y-113523809D01*
X160814285Y-113952380D02*
X160814285Y-112952380D01*
X161385714Y-113952380D01*
X161385714Y-112952380D01*
X161861904Y-113952380D02*
X161861904Y-112952380D01*
X162100000Y-112952380D01*
X162242857Y-113000000D01*
X162338095Y-113095238D01*
X162385714Y-113190476D01*
X162433333Y-113380952D01*
X162433333Y-113523809D01*
X162385714Y-113714285D01*
X162338095Y-113809523D01*
X162242857Y-113904761D01*
X162100000Y-113952380D01*
X161861904Y-113952380D01*
X160577380Y-111452380D02*
X160244047Y-110976190D01*
X160005952Y-111452380D02*
X160005952Y-110452380D01*
X160386904Y-110452380D01*
X160482142Y-110500000D01*
X160529761Y-110547619D01*
X160577380Y-110642857D01*
X160577380Y-110785714D01*
X160529761Y-110880952D01*
X160482142Y-110928571D01*
X160386904Y-110976190D01*
X160005952Y-110976190D01*
X160958333Y-111404761D02*
X161101190Y-111452380D01*
X161339285Y-111452380D01*
X161434523Y-111404761D01*
X161482142Y-111357142D01*
X161529761Y-111261904D01*
X161529761Y-111166666D01*
X161482142Y-111071428D01*
X161434523Y-111023809D01*
X161339285Y-110976190D01*
X161148809Y-110928571D01*
X161053571Y-110880952D01*
X161005952Y-110833333D01*
X160958333Y-110738095D01*
X160958333Y-110642857D01*
X161005952Y-110547619D01*
X161053571Y-110500000D01*
X161148809Y-110452380D01*
X161386904Y-110452380D01*
X161529761Y-110500000D01*
X161815476Y-110452380D02*
X162386904Y-110452380D01*
X162101190Y-111452380D02*
X162101190Y-110452380D01*
X160338095Y-107775000D02*
X160242857Y-107727380D01*
X160100000Y-107727380D01*
X159957142Y-107775000D01*
X159861904Y-107870238D01*
X159814285Y-107965476D01*
X159766666Y-108155952D01*
X159766666Y-108298809D01*
X159814285Y-108489285D01*
X159861904Y-108584523D01*
X159957142Y-108679761D01*
X160100000Y-108727380D01*
X160195238Y-108727380D01*
X160338095Y-108679761D01*
X160385714Y-108632142D01*
X160385714Y-108298809D01*
X160195238Y-108298809D01*
X160814285Y-108727380D02*
X160814285Y-107727380D01*
X161385714Y-108727380D01*
X161385714Y-107727380D01*
X161861904Y-108727380D02*
X161861904Y-107727380D01*
X162100000Y-107727380D01*
X162242857Y-107775000D01*
X162338095Y-107870238D01*
X162385714Y-107965476D01*
X162433333Y-108155952D01*
X162433333Y-108298809D01*
X162385714Y-108489285D01*
X162338095Y-108584523D01*
X162242857Y-108679761D01*
X162100000Y-108727380D01*
X161861904Y-108727380D01*
X160552380Y-106227380D02*
X160219047Y-105751190D01*
X159980952Y-106227380D02*
X159980952Y-105227380D01*
X160361904Y-105227380D01*
X160457142Y-105275000D01*
X160504761Y-105322619D01*
X160552380Y-105417857D01*
X160552380Y-105560714D01*
X160504761Y-105655952D01*
X160457142Y-105703571D01*
X160361904Y-105751190D01*
X159980952Y-105751190D01*
X160933333Y-106179761D02*
X161076190Y-106227380D01*
X161314285Y-106227380D01*
X161409523Y-106179761D01*
X161457142Y-106132142D01*
X161504761Y-106036904D01*
X161504761Y-105941666D01*
X161457142Y-105846428D01*
X161409523Y-105798809D01*
X161314285Y-105751190D01*
X161123809Y-105703571D01*
X161028571Y-105655952D01*
X160980952Y-105608333D01*
X160933333Y-105513095D01*
X160933333Y-105417857D01*
X160980952Y-105322619D01*
X161028571Y-105275000D01*
X161123809Y-105227380D01*
X161361904Y-105227380D01*
X161504761Y-105275000D01*
X161790476Y-105227380D02*
X162361904Y-105227380D01*
X162076190Y-106227380D02*
X162076190Y-105227380D01*
X160036904Y-102702380D02*
X160608333Y-102702380D01*
X160322619Y-103702380D02*
X160322619Y-102702380D01*
X160846428Y-102702380D02*
X161513095Y-103702380D01*
X161513095Y-102702380D02*
X160846428Y-103702380D01*
X162417857Y-103702380D02*
X161846428Y-103702380D01*
X162132142Y-103702380D02*
X162132142Y-102702380D01*
X162036904Y-102845238D01*
X161941666Y-102940476D01*
X161846428Y-102988095D01*
X160507142Y-101152380D02*
X160173809Y-100676190D01*
X159935714Y-101152380D02*
X159935714Y-100152380D01*
X160316666Y-100152380D01*
X160411904Y-100200000D01*
X160459523Y-100247619D01*
X160507142Y-100342857D01*
X160507142Y-100485714D01*
X160459523Y-100580952D01*
X160411904Y-100628571D01*
X160316666Y-100676190D01*
X159935714Y-100676190D01*
X160840476Y-100152380D02*
X161507142Y-101152380D01*
X161507142Y-100152380D02*
X160840476Y-101152380D01*
X162078571Y-100152380D02*
X162173809Y-100152380D01*
X162269047Y-100200000D01*
X162316666Y-100247619D01*
X162364285Y-100342857D01*
X162411904Y-100533333D01*
X162411904Y-100771428D01*
X162364285Y-100961904D01*
X162316666Y-101057142D01*
X162269047Y-101104761D01*
X162173809Y-101152380D01*
X162078571Y-101152380D01*
X161983333Y-101104761D01*
X161935714Y-101057142D01*
X161888095Y-100961904D01*
X161840476Y-100771428D01*
X161840476Y-100533333D01*
X161888095Y-100342857D01*
X161935714Y-100247619D01*
X161983333Y-100200000D01*
X162078571Y-100152380D01*
X160254761Y-97527380D02*
X160588095Y-98527380D01*
X160921428Y-97527380D01*
X161254761Y-98527380D02*
X161254761Y-97527380D01*
X161730952Y-98527380D02*
X161730952Y-97527380D01*
X162302380Y-98527380D01*
X162302380Y-97527380D01*
X150272797Y-79239285D02*
X149849464Y-79239285D01*
X149766309Y-79904523D02*
X149925059Y-78634523D01*
X150529821Y-78634523D01*
X151399166Y-79904523D02*
X151482321Y-79239285D01*
X151436964Y-79118333D01*
X151323571Y-79057857D01*
X151081666Y-79057857D01*
X150953154Y-79118333D01*
X151406726Y-79844047D02*
X151278214Y-79904523D01*
X150975833Y-79904523D01*
X150862440Y-79844047D01*
X150817083Y-79723095D01*
X150832202Y-79602142D01*
X150907797Y-79481190D01*
X151036309Y-79420714D01*
X151338690Y-79420714D01*
X151467202Y-79360238D01*
X152109761Y-79057857D02*
X152003928Y-79904523D01*
X152094642Y-79178809D02*
X152162678Y-79118333D01*
X152291190Y-79057857D01*
X152472619Y-79057857D01*
X152586011Y-79118333D01*
X152631369Y-79239285D01*
X152548214Y-79904523D01*
X153916488Y-78634523D02*
X153311726Y-78634523D01*
X153175654Y-79239285D01*
X153243690Y-79178809D01*
X153372202Y-79118333D01*
X153674583Y-79118333D01*
X153787976Y-79178809D01*
X153840892Y-79239285D01*
X153886250Y-79360238D01*
X153848452Y-79662619D01*
X153772857Y-79783571D01*
X153704821Y-79844047D01*
X153576309Y-79904523D01*
X153273928Y-79904523D01*
X153160535Y-79844047D01*
X153107619Y-79783571D01*
X154339821Y-78634523D02*
X154604404Y-79904523D01*
X155186488Y-78634523D01*
X149754523Y-96546547D02*
X149928392Y-96607023D01*
X150230773Y-96607023D01*
X150359285Y-96546547D01*
X150427321Y-96486071D01*
X150502916Y-96365119D01*
X150518035Y-96244166D01*
X150472678Y-96123214D01*
X150419761Y-96062738D01*
X150306369Y-96002261D01*
X150072023Y-95941785D01*
X149958630Y-95881309D01*
X149905714Y-95820833D01*
X149860357Y-95699880D01*
X149875476Y-95578928D01*
X149951071Y-95457976D01*
X150019107Y-95397500D01*
X150147619Y-95337023D01*
X150450000Y-95337023D01*
X150623869Y-95397500D01*
X150941369Y-95760357D02*
X151425178Y-95760357D01*
X151175714Y-95337023D02*
X151039642Y-96425595D01*
X151085000Y-96546547D01*
X151198392Y-96607023D01*
X151319345Y-96607023D01*
X152234047Y-96546547D02*
X152105535Y-96607023D01*
X151863630Y-96607023D01*
X151750238Y-96546547D01*
X151704880Y-96425595D01*
X151765357Y-95941785D01*
X151840952Y-95820833D01*
X151969464Y-95760357D01*
X152211369Y-95760357D01*
X152324761Y-95820833D01*
X152370119Y-95941785D01*
X152355000Y-96062738D01*
X151735119Y-96183690D01*
X152937083Y-95760357D02*
X152778333Y-97030357D01*
X152929523Y-95820833D02*
X153058035Y-95760357D01*
X153299940Y-95760357D01*
X153413333Y-95820833D01*
X153466250Y-95881309D01*
X153511607Y-96002261D01*
X153466250Y-96365119D01*
X153390654Y-96486071D01*
X153322619Y-96546547D01*
X153194107Y-96607023D01*
X152952202Y-96607023D01*
X152838809Y-96546547D01*
X154086130Y-95760357D02*
X153927380Y-97030357D01*
X154078571Y-95820833D02*
X154207083Y-95760357D01*
X154448988Y-95760357D01*
X154562380Y-95820833D01*
X154615297Y-95881309D01*
X154660654Y-96002261D01*
X154615297Y-96365119D01*
X154539702Y-96486071D01*
X154471666Y-96546547D01*
X154343154Y-96607023D01*
X154101250Y-96607023D01*
X153987857Y-96546547D01*
X155620714Y-96546547D02*
X155492202Y-96607023D01*
X155250297Y-96607023D01*
X155136904Y-96546547D01*
X155091547Y-96425595D01*
X155152023Y-95941785D01*
X155227619Y-95820833D01*
X155356130Y-95760357D01*
X155598035Y-95760357D01*
X155711428Y-95820833D01*
X155756785Y-95941785D01*
X155741666Y-96062738D01*
X155121785Y-96183690D01*
X156217916Y-96607023D02*
X156323750Y-95760357D01*
X156293511Y-96002261D02*
X156369107Y-95881309D01*
X156437142Y-95820833D01*
X156565654Y-95760357D01*
X156686607Y-95760357D01*
X157087261Y-95457976D02*
X157155297Y-95397500D01*
X157283809Y-95337023D01*
X157586190Y-95337023D01*
X157699583Y-95397500D01*
X157752500Y-95457976D01*
X157797857Y-95578928D01*
X157782738Y-95699880D01*
X157699583Y-95881309D01*
X156883154Y-96607023D01*
X157669345Y-96607023D01*
X149807440Y-98662023D02*
X149966190Y-97392023D01*
X150268571Y-97392023D01*
X150442440Y-97452500D01*
X150548273Y-97573452D01*
X150593630Y-97694404D01*
X150623869Y-97936309D01*
X150601190Y-98117738D01*
X150510476Y-98359642D01*
X150434880Y-98480595D01*
X150298809Y-98601547D01*
X150109821Y-98662023D01*
X149807440Y-98662023D01*
X151077440Y-98662023D02*
X151183273Y-97815357D01*
X151153035Y-98057261D02*
X151228630Y-97936309D01*
X151296666Y-97875833D01*
X151425178Y-97815357D01*
X151546130Y-97815357D01*
X151863630Y-98662023D02*
X151969464Y-97815357D01*
X152022380Y-97392023D02*
X151954345Y-97452500D01*
X152007261Y-97512976D01*
X152075297Y-97452500D01*
X152022380Y-97392023D01*
X152007261Y-97512976D01*
X152453273Y-97815357D02*
X152649821Y-98662023D01*
X153058035Y-97815357D01*
X153927380Y-98601547D02*
X153798869Y-98662023D01*
X153556964Y-98662023D01*
X153443571Y-98601547D01*
X153398214Y-98480595D01*
X153458690Y-97996785D01*
X153534285Y-97875833D01*
X153662797Y-97815357D01*
X153904702Y-97815357D01*
X154018095Y-97875833D01*
X154063452Y-97996785D01*
X154048333Y-98117738D01*
X153428452Y-98238690D01*
X154524583Y-98662023D02*
X154630416Y-97815357D01*
X154600178Y-98057261D02*
X154675773Y-97936309D01*
X154743809Y-97875833D01*
X154872321Y-97815357D01*
X154993273Y-97815357D01*
X121580952Y-114912380D02*
X121580952Y-113912380D01*
X122009523Y-114912380D02*
X122009523Y-114388571D01*
X121961904Y-114293333D01*
X121866666Y-114245714D01*
X121723809Y-114245714D01*
X121628571Y-114293333D01*
X121580952Y-114340952D01*
X122342857Y-114245714D02*
X122723809Y-114245714D01*
X122485714Y-113912380D02*
X122485714Y-114769523D01*
X122533333Y-114864761D01*
X122628571Y-114912380D01*
X122723809Y-114912380D01*
X122914285Y-114245714D02*
X123295238Y-114245714D01*
X123057142Y-113912380D02*
X123057142Y-114769523D01*
X123104761Y-114864761D01*
X123199999Y-114912380D01*
X123295238Y-114912380D01*
X123628571Y-114245714D02*
X123628571Y-115245714D01*
X123628571Y-114293333D02*
X123723809Y-114245714D01*
X123914285Y-114245714D01*
X124009523Y-114293333D01*
X124057142Y-114340952D01*
X124104761Y-114436190D01*
X124104761Y-114721904D01*
X124057142Y-114817142D01*
X124009523Y-114864761D01*
X123914285Y-114912380D01*
X123723809Y-114912380D01*
X123628571Y-114864761D01*
X124485714Y-114864761D02*
X124580952Y-114912380D01*
X124771428Y-114912380D01*
X124866666Y-114864761D01*
X124914285Y-114769523D01*
X124914285Y-114721904D01*
X124866666Y-114626666D01*
X124771428Y-114579047D01*
X124628571Y-114579047D01*
X124533333Y-114531428D01*
X124485714Y-114436190D01*
X124485714Y-114388571D01*
X124533333Y-114293333D01*
X124628571Y-114245714D01*
X124771428Y-114245714D01*
X124866666Y-114293333D01*
X125342857Y-114817142D02*
X125390476Y-114864761D01*
X125342857Y-114912380D01*
X125295238Y-114864761D01*
X125342857Y-114817142D01*
X125342857Y-114912380D01*
X125342857Y-114293333D02*
X125390476Y-114340952D01*
X125342857Y-114388571D01*
X125295238Y-114340952D01*
X125342857Y-114293333D01*
X125342857Y-114388571D01*
X126533333Y-113864761D02*
X125676190Y-115150476D01*
X127580952Y-113864761D02*
X126723809Y-115150476D01*
X128342857Y-114245714D02*
X128342857Y-115055238D01*
X128295238Y-115150476D01*
X128247619Y-115198095D01*
X128152380Y-115245714D01*
X128009523Y-115245714D01*
X127914285Y-115198095D01*
X128342857Y-114864761D02*
X128247619Y-114912380D01*
X128057142Y-114912380D01*
X127961904Y-114864761D01*
X127914285Y-114817142D01*
X127866666Y-114721904D01*
X127866666Y-114436190D01*
X127914285Y-114340952D01*
X127961904Y-114293333D01*
X128057142Y-114245714D01*
X128247619Y-114245714D01*
X128342857Y-114293333D01*
X128819047Y-114912380D02*
X128819047Y-114245714D01*
X128819047Y-113912380D02*
X128771428Y-113960000D01*
X128819047Y-114007619D01*
X128866666Y-113960000D01*
X128819047Y-113912380D01*
X128819047Y-114007619D01*
X129152380Y-114245714D02*
X129533333Y-114245714D01*
X129295238Y-113912380D02*
X129295238Y-114769523D01*
X129342857Y-114864761D01*
X129438095Y-114912380D01*
X129533333Y-114912380D01*
X129866666Y-114912380D02*
X129866666Y-113912380D01*
X130295238Y-114912380D02*
X130295238Y-114388571D01*
X130247619Y-114293333D01*
X130152380Y-114245714D01*
X130009523Y-114245714D01*
X129914285Y-114293333D01*
X129866666Y-114340952D01*
X131199999Y-114245714D02*
X131199999Y-114912380D01*
X130771428Y-114245714D02*
X130771428Y-114769523D01*
X130819047Y-114864761D01*
X130914285Y-114912380D01*
X131057142Y-114912380D01*
X131152380Y-114864761D01*
X131199999Y-114817142D01*
X131676190Y-114912380D02*
X131676190Y-113912380D01*
X131676190Y-114293333D02*
X131771428Y-114245714D01*
X131961904Y-114245714D01*
X132057142Y-114293333D01*
X132104761Y-114340952D01*
X132152380Y-114436190D01*
X132152380Y-114721904D01*
X132104761Y-114817142D01*
X132057142Y-114864761D01*
X131961904Y-114912380D01*
X131771428Y-114912380D01*
X131676190Y-114864761D01*
X132580952Y-114817142D02*
X132628571Y-114864761D01*
X132580952Y-114912380D01*
X132533333Y-114864761D01*
X132580952Y-114817142D01*
X132580952Y-114912380D01*
X133485714Y-114864761D02*
X133390476Y-114912380D01*
X133199999Y-114912380D01*
X133104761Y-114864761D01*
X133057142Y-114817142D01*
X133009523Y-114721904D01*
X133009523Y-114436190D01*
X133057142Y-114340952D01*
X133104761Y-114293333D01*
X133199999Y-114245714D01*
X133390476Y-114245714D01*
X133485714Y-114293333D01*
X134057142Y-114912380D02*
X133961904Y-114864761D01*
X133914285Y-114817142D01*
X133866666Y-114721904D01*
X133866666Y-114436190D01*
X133914285Y-114340952D01*
X133961904Y-114293333D01*
X134057142Y-114245714D01*
X134199999Y-114245714D01*
X134295238Y-114293333D01*
X134342857Y-114340952D01*
X134390476Y-114436190D01*
X134390476Y-114721904D01*
X134342857Y-114817142D01*
X134295238Y-114864761D01*
X134199999Y-114912380D01*
X134057142Y-114912380D01*
X134819047Y-114912380D02*
X134819047Y-114245714D01*
X134819047Y-114340952D02*
X134866666Y-114293333D01*
X134961904Y-114245714D01*
X135104761Y-114245714D01*
X135200000Y-114293333D01*
X135247619Y-114388571D01*
X135247619Y-114912380D01*
X135247619Y-114388571D02*
X135295238Y-114293333D01*
X135390476Y-114245714D01*
X135533333Y-114245714D01*
X135628571Y-114293333D01*
X135676190Y-114388571D01*
X135676190Y-114912380D01*
X136866666Y-113864761D02*
X136009523Y-115150476D01*
X137200000Y-114912380D02*
X137200000Y-113912380D01*
X137580952Y-113912380D01*
X137676190Y-113960000D01*
X137723809Y-114007619D01*
X137771428Y-114102857D01*
X137771428Y-114245714D01*
X137723809Y-114340952D01*
X137676190Y-114388571D01*
X137580952Y-114436190D01*
X137200000Y-114436190D01*
X138342857Y-114912380D02*
X138247619Y-114864761D01*
X138200000Y-114769523D01*
X138200000Y-113912380D01*
X138866666Y-114912380D02*
X138771428Y-114864761D01*
X138723809Y-114817142D01*
X138676190Y-114721904D01*
X138676190Y-114436190D01*
X138723809Y-114340952D01*
X138771428Y-114293333D01*
X138866666Y-114245714D01*
X139009523Y-114245714D01*
X139104761Y-114293333D01*
X139152380Y-114340952D01*
X139200000Y-114436190D01*
X139200000Y-114721904D01*
X139152380Y-114817142D01*
X139104761Y-114864761D01*
X139009523Y-114912380D01*
X138866666Y-114912380D01*
X139485714Y-114245714D02*
X139866666Y-114245714D01*
X139628571Y-113912380D02*
X139628571Y-114769523D01*
X139676190Y-114864761D01*
X139771428Y-114912380D01*
X139866666Y-114912380D01*
X140104761Y-114245714D02*
X140342857Y-114912380D01*
X140580952Y-114245714D02*
X140342857Y-114912380D01*
X140247619Y-115150476D01*
X140200000Y-115198095D01*
X140104761Y-115245714D01*
X140866666Y-114912380D02*
X141390476Y-114245714D01*
X140866666Y-114245714D02*
X141390476Y-114912380D01*
X142485714Y-113864761D02*
X141628571Y-115150476D01*
X142819047Y-114245714D02*
X142819047Y-115245714D01*
X142819047Y-114293333D02*
X142914285Y-114245714D01*
X143104761Y-114245714D01*
X143200000Y-114293333D01*
X143247619Y-114340952D01*
X143295238Y-114436190D01*
X143295238Y-114721904D01*
X143247619Y-114817142D01*
X143200000Y-114864761D01*
X143104761Y-114912380D01*
X142914285Y-114912380D01*
X142819047Y-114864761D01*
X143866666Y-114912380D02*
X143771428Y-114864761D01*
X143723809Y-114769523D01*
X143723809Y-113912380D01*
X144390476Y-114912380D02*
X144295238Y-114864761D01*
X144247619Y-114817142D01*
X144200000Y-114721904D01*
X144200000Y-114436190D01*
X144247619Y-114340952D01*
X144295238Y-114293333D01*
X144390476Y-114245714D01*
X144533333Y-114245714D01*
X144628571Y-114293333D01*
X144676190Y-114340952D01*
X144723809Y-114436190D01*
X144723809Y-114721904D01*
X144676190Y-114817142D01*
X144628571Y-114864761D01*
X144533333Y-114912380D01*
X144390476Y-114912380D01*
X145009523Y-114245714D02*
X145390476Y-114245714D01*
X145152380Y-113912380D02*
X145152380Y-114769523D01*
X145200000Y-114864761D01*
X145295238Y-114912380D01*
X145390476Y-114912380D01*
X145628571Y-114245714D02*
X145866666Y-114912380D01*
X146104761Y-114245714D02*
X145866666Y-114912380D01*
X145771428Y-115150476D01*
X145723809Y-115198095D01*
X145628571Y-115245714D01*
X146390476Y-114912380D02*
X146914285Y-114245714D01*
X146390476Y-114245714D02*
X146914285Y-114912380D01*
D11*
X148800000Y-94150000D02*
X158900000Y-94150000D01*
X158910000Y-100250000D02*
X158910000Y-90060000D01*
X138470000Y-100250000D02*
X138470000Y-90160000D01*
X123400000Y-94140000D02*
X133500000Y-94140000D01*
X113090000Y-100240000D02*
X113090000Y-90160000D01*
X133530000Y-100240000D02*
X133530000Y-90160000D01*
D10*
X124354523Y-96546547D02*
X124528392Y-96607023D01*
X124830773Y-96607023D01*
X124959285Y-96546547D01*
X125027321Y-96486071D01*
X125102916Y-96365119D01*
X125118035Y-96244166D01*
X125072678Y-96123214D01*
X125019761Y-96062738D01*
X124906369Y-96002261D01*
X124672023Y-95941785D01*
X124558630Y-95881309D01*
X124505714Y-95820833D01*
X124460357Y-95699880D01*
X124475476Y-95578928D01*
X124551071Y-95457976D01*
X124619107Y-95397500D01*
X124747619Y-95337023D01*
X125050000Y-95337023D01*
X125223869Y-95397500D01*
X125541369Y-95760357D02*
X126025178Y-95760357D01*
X125775714Y-95337023D02*
X125639642Y-96425595D01*
X125685000Y-96546547D01*
X125798392Y-96607023D01*
X125919345Y-96607023D01*
X126834047Y-96546547D02*
X126705535Y-96607023D01*
X126463630Y-96607023D01*
X126350238Y-96546547D01*
X126304880Y-96425595D01*
X126365357Y-95941785D01*
X126440952Y-95820833D01*
X126569464Y-95760357D01*
X126811369Y-95760357D01*
X126924761Y-95820833D01*
X126970119Y-95941785D01*
X126955000Y-96062738D01*
X126335119Y-96183690D01*
X127537083Y-95760357D02*
X127378333Y-97030357D01*
X127529523Y-95820833D02*
X127658035Y-95760357D01*
X127899940Y-95760357D01*
X128013333Y-95820833D01*
X128066250Y-95881309D01*
X128111607Y-96002261D01*
X128066250Y-96365119D01*
X127990654Y-96486071D01*
X127922619Y-96546547D01*
X127794107Y-96607023D01*
X127552202Y-96607023D01*
X127438809Y-96546547D01*
X128686130Y-95760357D02*
X128527380Y-97030357D01*
X128678571Y-95820833D02*
X128807083Y-95760357D01*
X129048988Y-95760357D01*
X129162380Y-95820833D01*
X129215297Y-95881309D01*
X129260654Y-96002261D01*
X129215297Y-96365119D01*
X129139702Y-96486071D01*
X129071666Y-96546547D01*
X128943154Y-96607023D01*
X128701250Y-96607023D01*
X128587857Y-96546547D01*
X130220714Y-96546547D02*
X130092202Y-96607023D01*
X129850297Y-96607023D01*
X129736904Y-96546547D01*
X129691547Y-96425595D01*
X129752023Y-95941785D01*
X129827619Y-95820833D01*
X129956130Y-95760357D01*
X130198035Y-95760357D01*
X130311428Y-95820833D01*
X130356785Y-95941785D01*
X130341666Y-96062738D01*
X129721785Y-96183690D01*
X130817916Y-96607023D02*
X130923750Y-95760357D01*
X130893511Y-96002261D02*
X130969107Y-95881309D01*
X131037142Y-95820833D01*
X131165654Y-95760357D01*
X131286607Y-95760357D01*
X132269345Y-96607023D02*
X131543630Y-96607023D01*
X131906488Y-96607023D02*
X132065238Y-95337023D01*
X131921607Y-95518452D01*
X131785535Y-95639404D01*
X131657023Y-95699880D01*
X124407440Y-98662023D02*
X124566190Y-97392023D01*
X124868571Y-97392023D01*
X125042440Y-97452500D01*
X125148273Y-97573452D01*
X125193630Y-97694404D01*
X125223869Y-97936309D01*
X125201190Y-98117738D01*
X125110476Y-98359642D01*
X125034880Y-98480595D01*
X124898809Y-98601547D01*
X124709821Y-98662023D01*
X124407440Y-98662023D01*
X125677440Y-98662023D02*
X125783273Y-97815357D01*
X125753035Y-98057261D02*
X125828630Y-97936309D01*
X125896666Y-97875833D01*
X126025178Y-97815357D01*
X126146130Y-97815357D01*
X126463630Y-98662023D02*
X126569464Y-97815357D01*
X126622380Y-97392023D02*
X126554345Y-97452500D01*
X126607261Y-97512976D01*
X126675297Y-97452500D01*
X126622380Y-97392023D01*
X126607261Y-97512976D01*
X127053273Y-97815357D02*
X127249821Y-98662023D01*
X127658035Y-97815357D01*
X128527380Y-98601547D02*
X128398869Y-98662023D01*
X128156964Y-98662023D01*
X128043571Y-98601547D01*
X127998214Y-98480595D01*
X128058690Y-97996785D01*
X128134285Y-97875833D01*
X128262797Y-97815357D01*
X128504702Y-97815357D01*
X128618095Y-97875833D01*
X128663452Y-97996785D01*
X128648333Y-98117738D01*
X128028452Y-98238690D01*
X129124583Y-98662023D02*
X129230416Y-97815357D01*
X129200178Y-98057261D02*
X129275773Y-97936309D01*
X129343809Y-97875833D01*
X129472321Y-97815357D01*
X129593273Y-97815357D01*
D11*
X129955000Y-71790000D02*
X130525000Y-71790000D01*
X129955000Y-80490000D02*
X129955000Y-71790000D01*
X141655000Y-80490000D02*
X129955000Y-80490000D01*
X141655000Y-71790000D02*
X141655000Y-80490000D01*
X130455000Y-71790000D02*
X141655000Y-71790000D01*
X156450000Y-122070000D02*
X158900000Y-122070000D01*
X158900000Y-104170000D02*
X158900000Y-122060000D01*
X156450000Y-104170000D02*
X158900000Y-104170000D01*
D10*
X157488333Y-107013095D02*
X157488333Y-107617857D01*
X157125476Y-106846785D02*
X158395476Y-107428869D01*
X157125476Y-107693452D01*
X157125476Y-108116785D02*
X157972142Y-108222619D01*
X157730238Y-108192380D02*
X157851190Y-108267976D01*
X157911666Y-108336011D01*
X157972142Y-108464523D01*
X157972142Y-108585476D01*
X157125476Y-109447261D02*
X158395476Y-109606011D01*
X157185952Y-109454821D02*
X157125476Y-109326309D01*
X157125476Y-109084404D01*
X157185952Y-108971011D01*
X157246428Y-108918095D01*
X157367380Y-108872738D01*
X157730238Y-108918095D01*
X157851190Y-108993690D01*
X157911666Y-109061726D01*
X157972142Y-109190238D01*
X157972142Y-109432142D01*
X157911666Y-109545535D01*
X157972142Y-110702142D02*
X157125476Y-110596309D01*
X157972142Y-110157857D02*
X157306904Y-110074702D01*
X157185952Y-110120059D01*
X157125476Y-110233452D01*
X157125476Y-110414880D01*
X157185952Y-110543392D01*
X157246428Y-110611428D01*
X157125476Y-111201071D02*
X157972142Y-111306904D01*
X158395476Y-111359821D02*
X158335000Y-111291785D01*
X158274523Y-111344702D01*
X158335000Y-111412738D01*
X158395476Y-111359821D01*
X158274523Y-111344702D01*
X157972142Y-111911666D02*
X157125476Y-111805833D01*
X157851190Y-111896547D02*
X157911666Y-111964583D01*
X157972142Y-112093095D01*
X157972142Y-112274523D01*
X157911666Y-112387916D01*
X157790714Y-112433273D01*
X157125476Y-112350119D01*
X157125476Y-113136309D02*
X157185952Y-113022916D01*
X157246428Y-112970000D01*
X157367380Y-112924642D01*
X157730238Y-112970000D01*
X157851190Y-113045595D01*
X157911666Y-113113630D01*
X157972142Y-113242142D01*
X157972142Y-113423571D01*
X157911666Y-113536964D01*
X157851190Y-113589880D01*
X157730238Y-113635238D01*
X157367380Y-113589880D01*
X157246428Y-113514285D01*
X157185952Y-113446250D01*
X157125476Y-113317738D01*
X157125476Y-113136309D01*
X157125476Y-115071547D02*
X158395476Y-115230297D01*
X157125476Y-115797261D01*
X158395476Y-115956011D01*
X157125476Y-116946309D02*
X157790714Y-117029464D01*
X157911666Y-116984107D01*
X157972142Y-116870714D01*
X157972142Y-116628809D01*
X157911666Y-116500297D01*
X157185952Y-116953869D02*
X157125476Y-116825357D01*
X157125476Y-116522976D01*
X157185952Y-116409583D01*
X157306904Y-116364226D01*
X157427857Y-116379345D01*
X157548809Y-116454940D01*
X157609285Y-116583452D01*
X157609285Y-116885833D01*
X157669761Y-117014345D01*
X157972142Y-117656904D02*
X157125476Y-117551071D01*
X157851190Y-117641785D02*
X157911666Y-117709821D01*
X157972142Y-117838333D01*
X157972142Y-118019761D01*
X157911666Y-118133154D01*
X157790714Y-118178511D01*
X157125476Y-118095357D01*
X157125476Y-118881547D02*
X157185952Y-118768154D01*
X157246428Y-118715238D01*
X157367380Y-118669880D01*
X157730238Y-118715238D01*
X157851190Y-118790833D01*
X157911666Y-118858869D01*
X157972142Y-118987380D01*
X157972142Y-119168809D01*
X157911666Y-119282202D01*
X157851190Y-119335119D01*
X157730238Y-119380476D01*
X157367380Y-119335119D01*
X157246428Y-119259523D01*
X157185952Y-119191488D01*
X157125476Y-119062976D01*
X157125476Y-118881547D01*
D11*
X115620000Y-104170000D02*
X113100000Y-104170000D01*
X113100000Y-122070000D02*
X113100000Y-104160000D01*
X115620000Y-122070000D02*
X113100000Y-122070000D01*
X153840000Y-122070000D02*
X156450000Y-122070000D01*
X156450000Y-104170000D02*
X156450000Y-122040000D01*
X151240000Y-104170000D02*
X156450000Y-104170000D01*
D10*
X160659256Y-87057584D02*
X161929256Y-87216334D01*
X161929256Y-87700144D01*
X161868780Y-87813537D01*
X161808303Y-87866453D01*
X161687351Y-87911810D01*
X161505922Y-87889132D01*
X161384970Y-87813537D01*
X161324494Y-87745501D01*
X161264018Y-87616989D01*
X161264018Y-87133180D01*
X160719732Y-88818953D02*
X160659256Y-88690441D01*
X160659256Y-88448537D01*
X160719732Y-88335144D01*
X160840684Y-88289787D01*
X161324494Y-88350263D01*
X161445446Y-88425858D01*
X161505922Y-88554370D01*
X161505922Y-88796275D01*
X161445446Y-88909668D01*
X161324494Y-88955025D01*
X161203541Y-88939906D01*
X161082589Y-88320025D01*
X161505922Y-89521989D02*
X160659256Y-89416156D01*
X161384970Y-89506870D02*
X161445446Y-89574906D01*
X161505922Y-89703418D01*
X161505922Y-89884846D01*
X161445446Y-89998239D01*
X161324494Y-90043596D01*
X160659256Y-89960441D01*
X160719732Y-90512287D02*
X160659256Y-90686156D01*
X160659256Y-90988537D01*
X160719732Y-91117049D01*
X160780208Y-91185084D01*
X160901160Y-91260680D01*
X161022113Y-91275799D01*
X161143065Y-91230441D01*
X161203541Y-91177525D01*
X161264018Y-91064132D01*
X161324494Y-90829787D01*
X161384970Y-90716394D01*
X161445446Y-90663477D01*
X161566399Y-90618120D01*
X161687351Y-90633239D01*
X161808303Y-90708834D01*
X161868780Y-90776870D01*
X161929256Y-90905382D01*
X161929256Y-91207763D01*
X161868780Y-91381632D01*
X160719732Y-92266096D02*
X160659256Y-92137584D01*
X160659256Y-91895680D01*
X160719732Y-91782287D01*
X160840684Y-91736930D01*
X161324494Y-91797406D01*
X161445446Y-91873001D01*
X161505922Y-92001513D01*
X161505922Y-92243418D01*
X161445446Y-92356810D01*
X161324494Y-92402168D01*
X161203541Y-92387049D01*
X161082589Y-91767168D01*
X160659256Y-92863299D02*
X161505922Y-92969132D01*
X161264018Y-92938894D02*
X161384970Y-93014489D01*
X161445446Y-93082525D01*
X161505922Y-93211037D01*
X161505922Y-93331989D01*
X161505922Y-93634370D02*
X160659256Y-93830918D01*
X161505922Y-94239132D01*
X160659256Y-94798537D02*
X160719732Y-94685144D01*
X160780208Y-94632227D01*
X160901160Y-94586870D01*
X161264018Y-94632227D01*
X161384970Y-94707822D01*
X161445446Y-94775858D01*
X161505922Y-94904370D01*
X161505922Y-95085799D01*
X161445446Y-95199191D01*
X161384970Y-95252108D01*
X161264018Y-95297465D01*
X160901160Y-95252108D01*
X160780208Y-95176513D01*
X160719732Y-95108477D01*
X160659256Y-94979965D01*
X160659256Y-94798537D01*
X113047678Y-83014047D02*
X113221547Y-83074523D01*
X113523928Y-83074523D01*
X113652440Y-83014047D01*
X113720476Y-82953571D01*
X113796071Y-82832619D01*
X113811190Y-82711666D01*
X113765833Y-82590714D01*
X113712916Y-82530238D01*
X113599523Y-82469761D01*
X113365178Y-82409285D01*
X113251785Y-82348809D01*
X113198869Y-82288333D01*
X113153511Y-82167380D01*
X113168630Y-82046428D01*
X113244226Y-81925476D01*
X113312261Y-81865000D01*
X113440773Y-81804523D01*
X113743154Y-81804523D01*
X113917023Y-81865000D01*
X114234523Y-82227857D02*
X114718333Y-82227857D01*
X114468869Y-81804523D02*
X114332797Y-82893095D01*
X114378154Y-83014047D01*
X114491547Y-83074523D01*
X114612500Y-83074523D01*
X115527202Y-83014047D02*
X115398690Y-83074523D01*
X115156785Y-83074523D01*
X115043392Y-83014047D01*
X114998035Y-82893095D01*
X115058511Y-82409285D01*
X115134107Y-82288333D01*
X115262619Y-82227857D01*
X115504523Y-82227857D01*
X115617916Y-82288333D01*
X115663273Y-82409285D01*
X115648154Y-82530238D01*
X115028273Y-82651190D01*
X116230238Y-82227857D02*
X116071488Y-83497857D01*
X116222678Y-82288333D02*
X116351190Y-82227857D01*
X116593095Y-82227857D01*
X116706488Y-82288333D01*
X116759404Y-82348809D01*
X116804761Y-82469761D01*
X116759404Y-82832619D01*
X116683809Y-82953571D01*
X116615773Y-83014047D01*
X116487261Y-83074523D01*
X116245357Y-83074523D01*
X116131964Y-83014047D01*
X117379285Y-82227857D02*
X117220535Y-83497857D01*
X117371726Y-82288333D02*
X117500238Y-82227857D01*
X117742142Y-82227857D01*
X117855535Y-82288333D01*
X117908452Y-82348809D01*
X117953809Y-82469761D01*
X117908452Y-82832619D01*
X117832857Y-82953571D01*
X117764821Y-83014047D01*
X117636309Y-83074523D01*
X117394404Y-83074523D01*
X117281011Y-83014047D01*
X118913869Y-83014047D02*
X118785357Y-83074523D01*
X118543452Y-83074523D01*
X118430059Y-83014047D01*
X118384702Y-82893095D01*
X118445178Y-82409285D01*
X118520773Y-82288333D01*
X118649285Y-82227857D01*
X118891190Y-82227857D01*
X119004583Y-82288333D01*
X119049940Y-82409285D01*
X119034821Y-82530238D01*
X118414940Y-82651190D01*
X119511071Y-83074523D02*
X119616904Y-82227857D01*
X119586666Y-82469761D02*
X119662261Y-82348809D01*
X119730297Y-82288333D01*
X119858809Y-82227857D01*
X119979761Y-82227857D01*
X120962500Y-83074523D02*
X120236785Y-83074523D01*
X120599642Y-83074523D02*
X120758392Y-81804523D01*
X120614761Y-81985952D01*
X120478690Y-82106904D01*
X120350178Y-82167380D01*
X138372678Y-83039047D02*
X138546547Y-83099523D01*
X138848928Y-83099523D01*
X138977440Y-83039047D01*
X139045476Y-82978571D01*
X139121071Y-82857619D01*
X139136190Y-82736666D01*
X139090833Y-82615714D01*
X139037916Y-82555238D01*
X138924523Y-82494761D01*
X138690178Y-82434285D01*
X138576785Y-82373809D01*
X138523869Y-82313333D01*
X138478511Y-82192380D01*
X138493630Y-82071428D01*
X138569226Y-81950476D01*
X138637261Y-81890000D01*
X138765773Y-81829523D01*
X139068154Y-81829523D01*
X139242023Y-81890000D01*
X139559523Y-82252857D02*
X140043333Y-82252857D01*
X139793869Y-81829523D02*
X139657797Y-82918095D01*
X139703154Y-83039047D01*
X139816547Y-83099523D01*
X139937500Y-83099523D01*
X140852202Y-83039047D02*
X140723690Y-83099523D01*
X140481785Y-83099523D01*
X140368392Y-83039047D01*
X140323035Y-82918095D01*
X140383511Y-82434285D01*
X140459107Y-82313333D01*
X140587619Y-82252857D01*
X140829523Y-82252857D01*
X140942916Y-82313333D01*
X140988273Y-82434285D01*
X140973154Y-82555238D01*
X140353273Y-82676190D01*
X141555238Y-82252857D02*
X141396488Y-83522857D01*
X141547678Y-82313333D02*
X141676190Y-82252857D01*
X141918095Y-82252857D01*
X142031488Y-82313333D01*
X142084404Y-82373809D01*
X142129761Y-82494761D01*
X142084404Y-82857619D01*
X142008809Y-82978571D01*
X141940773Y-83039047D01*
X141812261Y-83099523D01*
X141570357Y-83099523D01*
X141456964Y-83039047D01*
X142704285Y-82252857D02*
X142545535Y-83522857D01*
X142696726Y-82313333D02*
X142825238Y-82252857D01*
X143067142Y-82252857D01*
X143180535Y-82313333D01*
X143233452Y-82373809D01*
X143278809Y-82494761D01*
X143233452Y-82857619D01*
X143157857Y-82978571D01*
X143089821Y-83039047D01*
X142961309Y-83099523D01*
X142719404Y-83099523D01*
X142606011Y-83039047D01*
X144238869Y-83039047D02*
X144110357Y-83099523D01*
X143868452Y-83099523D01*
X143755059Y-83039047D01*
X143709702Y-82918095D01*
X143770178Y-82434285D01*
X143845773Y-82313333D01*
X143974285Y-82252857D01*
X144216190Y-82252857D01*
X144329583Y-82313333D01*
X144374940Y-82434285D01*
X144359821Y-82555238D01*
X143739940Y-82676190D01*
X144836071Y-83099523D02*
X144941904Y-82252857D01*
X144911666Y-82494761D02*
X144987261Y-82373809D01*
X145055297Y-82313333D01*
X145183809Y-82252857D01*
X145304761Y-82252857D01*
X145705416Y-81950476D02*
X145773452Y-81890000D01*
X145901964Y-81829523D01*
X146204345Y-81829523D01*
X146317738Y-81890000D01*
X146370654Y-81950476D01*
X146416011Y-82071428D01*
X146400892Y-82192380D01*
X146317738Y-82373809D01*
X145501309Y-83099523D01*
X146287500Y-83099523D01*
D11*
%TO.C,J18*%
X162920000Y-99395000D02*
X165580000Y-99395000D01*
X162920000Y-99395000D02*
X162920000Y-119775000D01*
X162920000Y-119775000D02*
X165580000Y-119775000D01*
X165580000Y-99395000D02*
X165580000Y-119775000D01*
X165580000Y-96795000D02*
X165580000Y-98125000D01*
X164250000Y-96795000D02*
X165580000Y-96795000D01*
D12*
%TO.C,G\u002A\u002A\u002A*%
G36*
X145580750Y-113287125D02*
G01*
X145421501Y-113287125D01*
X145339803Y-113285637D01*
X145286787Y-113280943D01*
X145259516Y-113272693D01*
X145254674Y-113267281D01*
X145253469Y-113248465D01*
X145252439Y-113200500D01*
X145251590Y-113125988D01*
X145250932Y-113027530D01*
X145250472Y-112907726D01*
X145250218Y-112769178D01*
X145250178Y-112614487D01*
X145250360Y-112446254D01*
X145250772Y-112267079D01*
X145251203Y-112136187D01*
X145255312Y-111024937D01*
X145580750Y-111015889D01*
X145580750Y-113287125D01*
G37*
X145580750Y-113287125D02*
X145421501Y-113287125D01*
X145339803Y-113285637D01*
X145286787Y-113280943D01*
X145259516Y-113272693D01*
X145254674Y-113267281D01*
X145253469Y-113248465D01*
X145252439Y-113200500D01*
X145251590Y-113125988D01*
X145250932Y-113027530D01*
X145250472Y-112907726D01*
X145250218Y-112769178D01*
X145250178Y-112614487D01*
X145250360Y-112446254D01*
X145250772Y-112267079D01*
X145251203Y-112136187D01*
X145255312Y-111024937D01*
X145580750Y-111015889D01*
X145580750Y-113287125D01*
G36*
X142893906Y-111019594D02*
G01*
X143007870Y-111021629D01*
X143095075Y-111023829D01*
X143160512Y-111026734D01*
X143209171Y-111030882D01*
X143246040Y-111036811D01*
X143276109Y-111045061D01*
X143304369Y-111056169D01*
X143326500Y-111066288D01*
X143424772Y-111125663D01*
X143502000Y-111203685D01*
X143563751Y-111306035D01*
X143565964Y-111310687D01*
X143606190Y-111425915D01*
X143629226Y-111558962D01*
X143634796Y-111700779D01*
X143622628Y-111842319D01*
X143592446Y-111974532D01*
X143586610Y-111992240D01*
X143563679Y-112038931D01*
X143526705Y-112093964D01*
X143482192Y-112149589D01*
X143436643Y-112198060D01*
X143396560Y-112231629D01*
X143377377Y-112241537D01*
X143374545Y-112253072D01*
X143379826Y-112284736D01*
X143393723Y-112338246D01*
X143416742Y-112415323D01*
X143449385Y-112517684D01*
X143492157Y-112647049D01*
X143524443Y-112742927D01*
X143565092Y-112862900D01*
X143602756Y-112973877D01*
X143636159Y-113072114D01*
X143664024Y-113153865D01*
X143685077Y-113215387D01*
X143698042Y-113252934D01*
X143701483Y-113262594D01*
X143701849Y-113273394D01*
X143689798Y-113280522D01*
X143660426Y-113284703D01*
X143608832Y-113286662D01*
X143535534Y-113287125D01*
X143360171Y-113287125D01*
X143319925Y-113156156D01*
X143303097Y-113101646D01*
X143278851Y-113023454D01*
X143249244Y-112928196D01*
X143216336Y-112822495D01*
X143182183Y-112712968D01*
X143170623Y-112675937D01*
X143061566Y-112326687D01*
X142963845Y-112321961D01*
X142866125Y-112317234D01*
X142866125Y-113287125D01*
X142548625Y-113287125D01*
X142548625Y-111334500D01*
X142866125Y-111334500D01*
X142866125Y-112037326D01*
X143013875Y-112029597D01*
X143101162Y-112022539D01*
X143162211Y-112011378D01*
X143202382Y-111995098D01*
X143205186Y-111993327D01*
X143243813Y-111962349D01*
X143270988Y-111924465D01*
X143288527Y-111873880D01*
X143298246Y-111804799D01*
X143301960Y-111711426D01*
X143302163Y-111683750D01*
X143300565Y-111585555D01*
X143293807Y-111512839D01*
X143279915Y-111459491D01*
X143256918Y-111419399D01*
X143222840Y-111386453D01*
X143201121Y-111370811D01*
X143169516Y-111352644D01*
X143134990Y-111341671D01*
X143088464Y-111336197D01*
X143020859Y-111334527D01*
X143006652Y-111334500D01*
X142866125Y-111334500D01*
X142548625Y-111334500D01*
X142548625Y-111013890D01*
X142893906Y-111019594D01*
G37*
X142893906Y-111019594D02*
X143007870Y-111021629D01*
X143095075Y-111023829D01*
X143160512Y-111026734D01*
X143209171Y-111030882D01*
X143246040Y-111036811D01*
X143276109Y-111045061D01*
X143304369Y-111056169D01*
X143326500Y-111066288D01*
X143424772Y-111125663D01*
X143502000Y-111203685D01*
X143563751Y-111306035D01*
X143565964Y-111310687D01*
X143606190Y-111425915D01*
X143629226Y-111558962D01*
X143634796Y-111700779D01*
X143622628Y-111842319D01*
X143592446Y-111974532D01*
X143586610Y-111992240D01*
X143563679Y-112038931D01*
X143526705Y-112093964D01*
X143482192Y-112149589D01*
X143436643Y-112198060D01*
X143396560Y-112231629D01*
X143377377Y-112241537D01*
X143374545Y-112253072D01*
X143379826Y-112284736D01*
X143393723Y-112338246D01*
X143416742Y-112415323D01*
X143449385Y-112517684D01*
X143492157Y-112647049D01*
X143524443Y-112742927D01*
X143565092Y-112862900D01*
X143602756Y-112973877D01*
X143636159Y-113072114D01*
X143664024Y-113153865D01*
X143685077Y-113215387D01*
X143698042Y-113252934D01*
X143701483Y-113262594D01*
X143701849Y-113273394D01*
X143689798Y-113280522D01*
X143660426Y-113284703D01*
X143608832Y-113286662D01*
X143535534Y-113287125D01*
X143360171Y-113287125D01*
X143319925Y-113156156D01*
X143303097Y-113101646D01*
X143278851Y-113023454D01*
X143249244Y-112928196D01*
X143216336Y-112822495D01*
X143182183Y-112712968D01*
X143170623Y-112675937D01*
X143061566Y-112326687D01*
X142963845Y-112321961D01*
X142866125Y-112317234D01*
X142866125Y-113287125D01*
X142548625Y-113287125D01*
X142548625Y-111334500D01*
X142866125Y-111334500D01*
X142866125Y-112037326D01*
X143013875Y-112029597D01*
X143101162Y-112022539D01*
X143162211Y-112011378D01*
X143202382Y-111995098D01*
X143205186Y-111993327D01*
X143243813Y-111962349D01*
X143270988Y-111924465D01*
X143288527Y-111873880D01*
X143298246Y-111804799D01*
X143301960Y-111711426D01*
X143302163Y-111683750D01*
X143300565Y-111585555D01*
X143293807Y-111512839D01*
X143279915Y-111459491D01*
X143256918Y-111419399D01*
X143222840Y-111386453D01*
X143201121Y-111370811D01*
X143169516Y-111352644D01*
X143134990Y-111341671D01*
X143088464Y-111336197D01*
X143020859Y-111334527D01*
X143006652Y-111334500D01*
X142866125Y-111334500D01*
X142548625Y-111334500D01*
X142548625Y-111013890D01*
X142893906Y-111019594D01*
G36*
X142338856Y-111171781D02*
G01*
X142334312Y-111326562D01*
X142012843Y-111330859D01*
X141691375Y-111335157D01*
X141691375Y-111985375D01*
X142247000Y-111985375D01*
X142247000Y-112302875D01*
X141691375Y-112302875D01*
X141691375Y-112953092D01*
X142012843Y-112957390D01*
X142334312Y-112961687D01*
X142343360Y-113287125D01*
X141373875Y-113287125D01*
X141373875Y-111017000D01*
X142343399Y-111017000D01*
X142338856Y-111171781D01*
G37*
X142338856Y-111171781D02*
X142334312Y-111326562D01*
X142012843Y-111330859D01*
X141691375Y-111335157D01*
X141691375Y-111985375D01*
X142247000Y-111985375D01*
X142247000Y-112302875D01*
X141691375Y-112302875D01*
X141691375Y-112953092D01*
X142012843Y-112957390D01*
X142334312Y-112961687D01*
X142343360Y-113287125D01*
X141373875Y-113287125D01*
X141373875Y-111017000D01*
X142343399Y-111017000D01*
X142338856Y-111171781D01*
G36*
X135706500Y-113287125D02*
G01*
X135389000Y-113287125D01*
X135389000Y-111017000D01*
X135706500Y-111017000D01*
X135706500Y-113287125D01*
G37*
X135706500Y-113287125D02*
X135389000Y-113287125D01*
X135389000Y-111017000D01*
X135706500Y-111017000D01*
X135706500Y-113287125D01*
G36*
X134683286Y-111024937D02*
G01*
X134790132Y-111077551D01*
X134888680Y-111139535D01*
X134963650Y-111218609D01*
X135018811Y-111319313D01*
X135039862Y-111378290D01*
X135047756Y-111405646D01*
X135054222Y-111433909D01*
X135059401Y-111466434D01*
X135063434Y-111506574D01*
X135066464Y-111557684D01*
X135068630Y-111623119D01*
X135070076Y-111706232D01*
X135070941Y-111810379D01*
X135071368Y-111938913D01*
X135071497Y-112095189D01*
X135071500Y-112129140D01*
X135071015Y-112318740D01*
X135069580Y-112482379D01*
X135067220Y-112618950D01*
X135063963Y-112727346D01*
X135059837Y-112806459D01*
X135054867Y-112855182D01*
X135053669Y-112861687D01*
X135013014Y-112988795D01*
X134949718Y-113093647D01*
X134863910Y-113176115D01*
X134755718Y-113236070D01*
X134646062Y-113269275D01*
X134601368Y-113275342D01*
X134532476Y-113280525D01*
X134446933Y-113284442D01*
X134352286Y-113286712D01*
X134292843Y-113287125D01*
X134023750Y-113287125D01*
X134023750Y-112969625D01*
X134357125Y-112969625D01*
X134469819Y-112969625D01*
X134551182Y-112964989D01*
X134615657Y-112952096D01*
X134635280Y-112944585D01*
X134659121Y-112932670D01*
X134678960Y-112919667D01*
X134695165Y-112902729D01*
X134708103Y-112879008D01*
X134718142Y-112845657D01*
X134725649Y-112799828D01*
X134730993Y-112738673D01*
X134734541Y-112659346D01*
X134736660Y-112558998D01*
X134737719Y-112434782D01*
X134738084Y-112283850D01*
X134738125Y-112148042D01*
X134738125Y-111482070D01*
X134701929Y-111428360D01*
X134664568Y-111383235D01*
X134620687Y-111354748D01*
X134562372Y-111339674D01*
X134481707Y-111334786D01*
X134472218Y-111334734D01*
X134357125Y-111334500D01*
X134357125Y-112969625D01*
X134023750Y-112969625D01*
X134023750Y-111013791D01*
X134683286Y-111024937D01*
G37*
X134683286Y-111024937D02*
X134790132Y-111077551D01*
X134888680Y-111139535D01*
X134963650Y-111218609D01*
X135018811Y-111319313D01*
X135039862Y-111378290D01*
X135047756Y-111405646D01*
X135054222Y-111433909D01*
X135059401Y-111466434D01*
X135063434Y-111506574D01*
X135066464Y-111557684D01*
X135068630Y-111623119D01*
X135070076Y-111706232D01*
X135070941Y-111810379D01*
X135071368Y-111938913D01*
X135071497Y-112095189D01*
X135071500Y-112129140D01*
X135071015Y-112318740D01*
X135069580Y-112482379D01*
X135067220Y-112618950D01*
X135063963Y-112727346D01*
X135059837Y-112806459D01*
X135054867Y-112855182D01*
X135053669Y-112861687D01*
X135013014Y-112988795D01*
X134949718Y-113093647D01*
X134863910Y-113176115D01*
X134755718Y-113236070D01*
X134646062Y-113269275D01*
X134601368Y-113275342D01*
X134532476Y-113280525D01*
X134446933Y-113284442D01*
X134352286Y-113286712D01*
X134292843Y-113287125D01*
X134023750Y-113287125D01*
X134023750Y-112969625D01*
X134357125Y-112969625D01*
X134469819Y-112969625D01*
X134551182Y-112964989D01*
X134615657Y-112952096D01*
X134635280Y-112944585D01*
X134659121Y-112932670D01*
X134678960Y-112919667D01*
X134695165Y-112902729D01*
X134708103Y-112879008D01*
X134718142Y-112845657D01*
X134725649Y-112799828D01*
X134730993Y-112738673D01*
X134734541Y-112659346D01*
X134736660Y-112558998D01*
X134737719Y-112434782D01*
X134738084Y-112283850D01*
X134738125Y-112148042D01*
X134738125Y-111482070D01*
X134701929Y-111428360D01*
X134664568Y-111383235D01*
X134620687Y-111354748D01*
X134562372Y-111339674D01*
X134481707Y-111334786D01*
X134472218Y-111334734D01*
X134357125Y-111334500D01*
X134357125Y-112969625D01*
X134023750Y-112969625D01*
X134023750Y-111013791D01*
X134683286Y-111024937D01*
G36*
X146508581Y-111009864D02*
G01*
X146632075Y-111043405D01*
X146742274Y-111103277D01*
X146835537Y-111187392D01*
X146908222Y-111293661D01*
X146919783Y-111316991D01*
X146927639Y-111334574D01*
X146934188Y-111352680D01*
X146939548Y-111374216D01*
X146943839Y-111402089D01*
X146947180Y-111439204D01*
X146949689Y-111488468D01*
X146951485Y-111552788D01*
X146952688Y-111635070D01*
X146953415Y-111738220D01*
X146953786Y-111865145D01*
X146953921Y-112018752D01*
X146953937Y-112152062D01*
X146953937Y-112914062D01*
X146909808Y-113003923D01*
X146841169Y-113109085D01*
X146750474Y-113193181D01*
X146641161Y-113254068D01*
X146516669Y-113289604D01*
X146438314Y-113297776D01*
X146356115Y-113297086D01*
X146284396Y-113288873D01*
X146252646Y-113281087D01*
X146155039Y-113238495D01*
X146067833Y-113175737D01*
X146003589Y-113111540D01*
X145973939Y-113078023D01*
X145949326Y-113047234D01*
X145929245Y-113015922D01*
X145913195Y-112980836D01*
X145900671Y-112938723D01*
X145891171Y-112886333D01*
X145884191Y-112820414D01*
X145879228Y-112737714D01*
X145875779Y-112634982D01*
X145873341Y-112508967D01*
X145871410Y-112356417D01*
X145870279Y-112250161D01*
X145868692Y-112061388D01*
X145868399Y-111934472D01*
X146201919Y-111934472D01*
X146202430Y-112108739D01*
X146202938Y-112186636D01*
X146204190Y-112347974D01*
X146205420Y-112480621D01*
X146206796Y-112587633D01*
X146208486Y-112672070D01*
X146210656Y-112736987D01*
X146213472Y-112785444D01*
X146217103Y-112820497D01*
X146221715Y-112845205D01*
X146227476Y-112862625D01*
X146234551Y-112875815D01*
X146241092Y-112885136D01*
X146275639Y-112922387D01*
X146312260Y-112949407D01*
X146312530Y-112949547D01*
X146368648Y-112965512D01*
X146437709Y-112967925D01*
X146504080Y-112957067D01*
X146533769Y-112945543D01*
X146555768Y-112933666D01*
X146574066Y-112920916D01*
X146589005Y-112904437D01*
X146600926Y-112881378D01*
X146610168Y-112848883D01*
X146617073Y-112804099D01*
X146621982Y-112744173D01*
X146625234Y-112666250D01*
X146627172Y-112567477D01*
X146628134Y-112444999D01*
X146628464Y-112295964D01*
X146628500Y-112152062D01*
X146628443Y-111979170D01*
X146628040Y-111835168D01*
X146626937Y-111717200D01*
X146624781Y-111622405D01*
X146621219Y-111547924D01*
X146615900Y-111490900D01*
X146608469Y-111448473D01*
X146598575Y-111417784D01*
X146585865Y-111395976D01*
X146569985Y-111380188D01*
X146550584Y-111367562D01*
X146530384Y-111356830D01*
X146471188Y-111338756D01*
X146395593Y-111338034D01*
X146315479Y-111355898D01*
X146257901Y-111395339D01*
X146220645Y-111458052D01*
X146214578Y-111476424D01*
X146210080Y-111509125D01*
X146206546Y-111572421D01*
X146203995Y-111665172D01*
X146202447Y-111786235D01*
X146201919Y-111934472D01*
X145868399Y-111934472D01*
X145868322Y-111901345D01*
X145869377Y-111767026D01*
X145872064Y-111655429D01*
X145876587Y-111563548D01*
X145883153Y-111488380D01*
X145891970Y-111426919D01*
X145903241Y-111376162D01*
X145917175Y-111333105D01*
X145933977Y-111294742D01*
X145936150Y-111290400D01*
X145989603Y-111210492D01*
X146063401Y-111134198D01*
X146146814Y-111071624D01*
X146196830Y-111044950D01*
X146254228Y-111025882D01*
X146325116Y-111010848D01*
X146375434Y-111004742D01*
X146508581Y-111009864D01*
G37*
X146508581Y-111009864D02*
X146632075Y-111043405D01*
X146742274Y-111103277D01*
X146835537Y-111187392D01*
X146908222Y-111293661D01*
X146919783Y-111316991D01*
X146927639Y-111334574D01*
X146934188Y-111352680D01*
X146939548Y-111374216D01*
X146943839Y-111402089D01*
X146947180Y-111439204D01*
X146949689Y-111488468D01*
X146951485Y-111552788D01*
X146952688Y-111635070D01*
X146953415Y-111738220D01*
X146953786Y-111865145D01*
X146953921Y-112018752D01*
X146953937Y-112152062D01*
X146953937Y-112914062D01*
X146909808Y-113003923D01*
X146841169Y-113109085D01*
X146750474Y-113193181D01*
X146641161Y-113254068D01*
X146516669Y-113289604D01*
X146438314Y-113297776D01*
X146356115Y-113297086D01*
X146284396Y-113288873D01*
X146252646Y-113281087D01*
X146155039Y-113238495D01*
X146067833Y-113175737D01*
X146003589Y-113111540D01*
X145973939Y-113078023D01*
X145949326Y-113047234D01*
X145929245Y-113015922D01*
X145913195Y-112980836D01*
X145900671Y-112938723D01*
X145891171Y-112886333D01*
X145884191Y-112820414D01*
X145879228Y-112737714D01*
X145875779Y-112634982D01*
X145873341Y-112508967D01*
X145871410Y-112356417D01*
X145870279Y-112250161D01*
X145868692Y-112061388D01*
X145868399Y-111934472D01*
X146201919Y-111934472D01*
X146202430Y-112108739D01*
X146202938Y-112186636D01*
X146204190Y-112347974D01*
X146205420Y-112480621D01*
X146206796Y-112587633D01*
X146208486Y-112672070D01*
X146210656Y-112736987D01*
X146213472Y-112785444D01*
X146217103Y-112820497D01*
X146221715Y-112845205D01*
X146227476Y-112862625D01*
X146234551Y-112875815D01*
X146241092Y-112885136D01*
X146275639Y-112922387D01*
X146312260Y-112949407D01*
X146312530Y-112949547D01*
X146368648Y-112965512D01*
X146437709Y-112967925D01*
X146504080Y-112957067D01*
X146533769Y-112945543D01*
X146555768Y-112933666D01*
X146574066Y-112920916D01*
X146589005Y-112904437D01*
X146600926Y-112881378D01*
X146610168Y-112848883D01*
X146617073Y-112804099D01*
X146621982Y-112744173D01*
X146625234Y-112666250D01*
X146627172Y-112567477D01*
X146628134Y-112444999D01*
X146628464Y-112295964D01*
X146628500Y-112152062D01*
X146628443Y-111979170D01*
X146628040Y-111835168D01*
X146626937Y-111717200D01*
X146624781Y-111622405D01*
X146621219Y-111547924D01*
X146615900Y-111490900D01*
X146608469Y-111448473D01*
X146598575Y-111417784D01*
X146585865Y-111395976D01*
X146569985Y-111380188D01*
X146550584Y-111367562D01*
X146530384Y-111356830D01*
X146471188Y-111338756D01*
X146395593Y-111338034D01*
X146315479Y-111355898D01*
X146257901Y-111395339D01*
X146220645Y-111458052D01*
X146214578Y-111476424D01*
X146210080Y-111509125D01*
X146206546Y-111572421D01*
X146203995Y-111665172D01*
X146202447Y-111786235D01*
X146201919Y-111934472D01*
X145868399Y-111934472D01*
X145868322Y-111901345D01*
X145869377Y-111767026D01*
X145872064Y-111655429D01*
X145876587Y-111563548D01*
X145883153Y-111488380D01*
X145891970Y-111426919D01*
X145903241Y-111376162D01*
X145917175Y-111333105D01*
X145933977Y-111294742D01*
X145936150Y-111290400D01*
X145989603Y-111210492D01*
X146063401Y-111134198D01*
X146146814Y-111071624D01*
X146196830Y-111044950D01*
X146254228Y-111025882D01*
X146325116Y-111010848D01*
X146375434Y-111004742D01*
X146508581Y-111009864D01*
G36*
X144558358Y-111021290D02*
G01*
X144674428Y-111064389D01*
X144777262Y-111130567D01*
X144833619Y-111184967D01*
X144891568Y-111263790D01*
X144929869Y-111349267D01*
X144951667Y-111450059D01*
X144958530Y-111528968D01*
X144965508Y-111667875D01*
X144628250Y-111667875D01*
X144628250Y-111571836D01*
X144619858Y-111480892D01*
X144593669Y-111413873D01*
X144548159Y-111367440D01*
X144530134Y-111356830D01*
X144474207Y-111340102D01*
X144406826Y-111336879D01*
X144340573Y-111346236D01*
X144288031Y-111367244D01*
X144277055Y-111375473D01*
X144258614Y-111392918D01*
X144243358Y-111411389D01*
X144230985Y-111433909D01*
X144221194Y-111463500D01*
X144213684Y-111503187D01*
X144208152Y-111555992D01*
X144204298Y-111624939D01*
X144201820Y-111713052D01*
X144200416Y-111823354D01*
X144199785Y-111958868D01*
X144199626Y-112122617D01*
X144199625Y-112152062D01*
X144199735Y-112320679D01*
X144200269Y-112460570D01*
X144201527Y-112574758D01*
X144203810Y-112666267D01*
X144207421Y-112738119D01*
X144212659Y-112793339D01*
X144219828Y-112834949D01*
X144229229Y-112865973D01*
X144241162Y-112889435D01*
X144255929Y-112908357D01*
X144273833Y-112925764D01*
X144277055Y-112928651D01*
X144323196Y-112952898D01*
X144386735Y-112965765D01*
X144455089Y-112966324D01*
X144515675Y-112953649D01*
X144530134Y-112947294D01*
X144563879Y-112926624D01*
X144588984Y-112901270D01*
X144606687Y-112866520D01*
X144618224Y-112817667D01*
X144624831Y-112750000D01*
X144627745Y-112658811D01*
X144628250Y-112573538D01*
X144628250Y-112318750D01*
X144374250Y-112318750D01*
X144374250Y-112033000D01*
X144963464Y-112033000D01*
X144958575Y-112473531D01*
X144956727Y-112615130D01*
X144954125Y-112729133D01*
X144949966Y-112819696D01*
X144943445Y-112890973D01*
X144933758Y-112947118D01*
X144920102Y-112992287D01*
X144901672Y-113030633D01*
X144877663Y-113066312D01*
X144847273Y-113103478D01*
X144833619Y-113119157D01*
X144742922Y-113199417D01*
X144634240Y-113258054D01*
X144514478Y-113293156D01*
X144390542Y-113302809D01*
X144269337Y-113285101D01*
X144252396Y-113280148D01*
X144142634Y-113230161D01*
X144043520Y-113154771D01*
X143962290Y-113060144D01*
X143929205Y-113004771D01*
X143914265Y-112971379D01*
X143901869Y-112932454D01*
X143891793Y-112884915D01*
X143883814Y-112825680D01*
X143877709Y-112751667D01*
X143873254Y-112659795D01*
X143870227Y-112546981D01*
X143868403Y-112410145D01*
X143867560Y-112246205D01*
X143867437Y-112152062D01*
X143867776Y-111973888D01*
X143869105Y-111824262D01*
X143871679Y-111699992D01*
X143875750Y-111597884D01*
X143881572Y-111514746D01*
X143889397Y-111447385D01*
X143899480Y-111392606D01*
X143912074Y-111347219D01*
X143927431Y-111308029D01*
X143935776Y-111290646D01*
X143989398Y-111210465D01*
X144063375Y-111134000D01*
X144146967Y-111071372D01*
X144196580Y-111044950D01*
X144312850Y-111010124D01*
X144435637Y-111002719D01*
X144558358Y-111021290D01*
G37*
X144558358Y-111021290D02*
X144674428Y-111064389D01*
X144777262Y-111130567D01*
X144833619Y-111184967D01*
X144891568Y-111263790D01*
X144929869Y-111349267D01*
X144951667Y-111450059D01*
X144958530Y-111528968D01*
X144965508Y-111667875D01*
X144628250Y-111667875D01*
X144628250Y-111571836D01*
X144619858Y-111480892D01*
X144593669Y-111413873D01*
X144548159Y-111367440D01*
X144530134Y-111356830D01*
X144474207Y-111340102D01*
X144406826Y-111336879D01*
X144340573Y-111346236D01*
X144288031Y-111367244D01*
X144277055Y-111375473D01*
X144258614Y-111392918D01*
X144243358Y-111411389D01*
X144230985Y-111433909D01*
X144221194Y-111463500D01*
X144213684Y-111503187D01*
X144208152Y-111555992D01*
X144204298Y-111624939D01*
X144201820Y-111713052D01*
X144200416Y-111823354D01*
X144199785Y-111958868D01*
X144199626Y-112122617D01*
X144199625Y-112152062D01*
X144199735Y-112320679D01*
X144200269Y-112460570D01*
X144201527Y-112574758D01*
X144203810Y-112666267D01*
X144207421Y-112738119D01*
X144212659Y-112793339D01*
X144219828Y-112834949D01*
X144229229Y-112865973D01*
X144241162Y-112889435D01*
X144255929Y-112908357D01*
X144273833Y-112925764D01*
X144277055Y-112928651D01*
X144323196Y-112952898D01*
X144386735Y-112965765D01*
X144455089Y-112966324D01*
X144515675Y-112953649D01*
X144530134Y-112947294D01*
X144563879Y-112926624D01*
X144588984Y-112901270D01*
X144606687Y-112866520D01*
X144618224Y-112817667D01*
X144624831Y-112750000D01*
X144627745Y-112658811D01*
X144628250Y-112573538D01*
X144628250Y-112318750D01*
X144374250Y-112318750D01*
X144374250Y-112033000D01*
X144963464Y-112033000D01*
X144958575Y-112473531D01*
X144956727Y-112615130D01*
X144954125Y-112729133D01*
X144949966Y-112819696D01*
X144943445Y-112890973D01*
X144933758Y-112947118D01*
X144920102Y-112992287D01*
X144901672Y-113030633D01*
X144877663Y-113066312D01*
X144847273Y-113103478D01*
X144833619Y-113119157D01*
X144742922Y-113199417D01*
X144634240Y-113258054D01*
X144514478Y-113293156D01*
X144390542Y-113302809D01*
X144269337Y-113285101D01*
X144252396Y-113280148D01*
X144142634Y-113230161D01*
X144043520Y-113154771D01*
X143962290Y-113060144D01*
X143929205Y-113004771D01*
X143914265Y-112971379D01*
X143901869Y-112932454D01*
X143891793Y-112884915D01*
X143883814Y-112825680D01*
X143877709Y-112751667D01*
X143873254Y-112659795D01*
X143870227Y-112546981D01*
X143868403Y-112410145D01*
X143867560Y-112246205D01*
X143867437Y-112152062D01*
X143867776Y-111973888D01*
X143869105Y-111824262D01*
X143871679Y-111699992D01*
X143875750Y-111597884D01*
X143881572Y-111514746D01*
X143889397Y-111447385D01*
X143899480Y-111392606D01*
X143912074Y-111347219D01*
X143927431Y-111308029D01*
X143935776Y-111290646D01*
X143989398Y-111210465D01*
X144063375Y-111134000D01*
X144146967Y-111071372D01*
X144196580Y-111044950D01*
X144312850Y-111010124D01*
X144435637Y-111002719D01*
X144558358Y-111021290D01*
G36*
X140619420Y-111004565D02*
G01*
X140752561Y-111027311D01*
X140868942Y-111076130D01*
X140966622Y-111149013D01*
X141043659Y-111243954D01*
X141098111Y-111358944D01*
X141128037Y-111491977D01*
X141131900Y-111534437D01*
X141140225Y-111667875D01*
X140806784Y-111667875D01*
X140798381Y-111575199D01*
X140780674Y-111477399D01*
X140746834Y-111406362D01*
X140695413Y-111360699D01*
X140624959Y-111339021D01*
X140551025Y-111338247D01*
X140476602Y-111354277D01*
X140423539Y-111390651D01*
X140387185Y-111451351D01*
X140374577Y-111489307D01*
X140361974Y-111561141D01*
X140358720Y-111642816D01*
X140364543Y-111721211D01*
X140379172Y-111783202D01*
X140380732Y-111787099D01*
X140397624Y-111818595D01*
X140422740Y-111846707D01*
X140460464Y-111874139D01*
X140515180Y-111903593D01*
X140591273Y-111937772D01*
X140691888Y-111978885D01*
X140807296Y-112027832D01*
X140896349Y-112073311D01*
X140963707Y-112118647D01*
X141014027Y-112167164D01*
X141051971Y-112222187D01*
X141063341Y-112243907D01*
X141095625Y-112334747D01*
X141116721Y-112447012D01*
X141126532Y-112572377D01*
X141124963Y-112702516D01*
X141111917Y-112829104D01*
X141087296Y-112943817D01*
X141071997Y-112990468D01*
X141016701Y-113099318D01*
X140941022Y-113184214D01*
X140844544Y-113245427D01*
X140726855Y-113283229D01*
X140603937Y-113297401D01*
X140501623Y-113297212D01*
X140422463Y-113288263D01*
X140394771Y-113281163D01*
X140276084Y-113226495D01*
X140177061Y-113148440D01*
X140100066Y-113050236D01*
X140047464Y-112935120D01*
X140021622Y-112806330D01*
X140019484Y-112767475D01*
X140016562Y-112644187D01*
X140342000Y-112635139D01*
X140342000Y-112715579D01*
X140353575Y-112813136D01*
X140387830Y-112890406D01*
X140429529Y-112935209D01*
X140464427Y-112956067D01*
X140508198Y-112966646D01*
X140572012Y-112969624D01*
X140573110Y-112969625D01*
X140652953Y-112962067D01*
X140713524Y-112937554D01*
X140756767Y-112893326D01*
X140784623Y-112826623D01*
X140799037Y-112734685D01*
X140802197Y-112644187D01*
X140798088Y-112539418D01*
X140785007Y-112460817D01*
X140761825Y-112403788D01*
X140734930Y-112370307D01*
X140707393Y-112351862D01*
X140657059Y-112324787D01*
X140590542Y-112292407D01*
X140514457Y-112258053D01*
X140496082Y-112250129D01*
X140415742Y-112214612D01*
X140340514Y-112179215D01*
X140278055Y-112147682D01*
X140236024Y-112123759D01*
X140231433Y-112120699D01*
X140152124Y-112046529D01*
X140093139Y-111948181D01*
X140054605Y-111825975D01*
X140036651Y-111680232D01*
X140035273Y-111628753D01*
X140046574Y-111477436D01*
X140081344Y-111343928D01*
X140137976Y-111229946D01*
X140214867Y-111137203D01*
X140310411Y-111067415D01*
X140423004Y-111022297D01*
X140551041Y-111003562D01*
X140619420Y-111004565D01*
G37*
X140619420Y-111004565D02*
X140752561Y-111027311D01*
X140868942Y-111076130D01*
X140966622Y-111149013D01*
X141043659Y-111243954D01*
X141098111Y-111358944D01*
X141128037Y-111491977D01*
X141131900Y-111534437D01*
X141140225Y-111667875D01*
X140806784Y-111667875D01*
X140798381Y-111575199D01*
X140780674Y-111477399D01*
X140746834Y-111406362D01*
X140695413Y-111360699D01*
X140624959Y-111339021D01*
X140551025Y-111338247D01*
X140476602Y-111354277D01*
X140423539Y-111390651D01*
X140387185Y-111451351D01*
X140374577Y-111489307D01*
X140361974Y-111561141D01*
X140358720Y-111642816D01*
X140364543Y-111721211D01*
X140379172Y-111783202D01*
X140380732Y-111787099D01*
X140397624Y-111818595D01*
X140422740Y-111846707D01*
X140460464Y-111874139D01*
X140515180Y-111903593D01*
X140591273Y-111937772D01*
X140691888Y-111978885D01*
X140807296Y-112027832D01*
X140896349Y-112073311D01*
X140963707Y-112118647D01*
X141014027Y-112167164D01*
X141051971Y-112222187D01*
X141063341Y-112243907D01*
X141095625Y-112334747D01*
X141116721Y-112447012D01*
X141126532Y-112572377D01*
X141124963Y-112702516D01*
X141111917Y-112829104D01*
X141087296Y-112943817D01*
X141071997Y-112990468D01*
X141016701Y-113099318D01*
X140941022Y-113184214D01*
X140844544Y-113245427D01*
X140726855Y-113283229D01*
X140603937Y-113297401D01*
X140501623Y-113297212D01*
X140422463Y-113288263D01*
X140394771Y-113281163D01*
X140276084Y-113226495D01*
X140177061Y-113148440D01*
X140100066Y-113050236D01*
X140047464Y-112935120D01*
X140021622Y-112806330D01*
X140019484Y-112767475D01*
X140016562Y-112644187D01*
X140342000Y-112635139D01*
X140342000Y-112715579D01*
X140353575Y-112813136D01*
X140387830Y-112890406D01*
X140429529Y-112935209D01*
X140464427Y-112956067D01*
X140508198Y-112966646D01*
X140572012Y-112969624D01*
X140573110Y-112969625D01*
X140652953Y-112962067D01*
X140713524Y-112937554D01*
X140756767Y-112893326D01*
X140784623Y-112826623D01*
X140799037Y-112734685D01*
X140802197Y-112644187D01*
X140798088Y-112539418D01*
X140785007Y-112460817D01*
X140761825Y-112403788D01*
X140734930Y-112370307D01*
X140707393Y-112351862D01*
X140657059Y-112324787D01*
X140590542Y-112292407D01*
X140514457Y-112258053D01*
X140496082Y-112250129D01*
X140415742Y-112214612D01*
X140340514Y-112179215D01*
X140278055Y-112147682D01*
X140236024Y-112123759D01*
X140231433Y-112120699D01*
X140152124Y-112046529D01*
X140093139Y-111948181D01*
X140054605Y-111825975D01*
X140036651Y-111680232D01*
X140035273Y-111628753D01*
X140046574Y-111477436D01*
X140081344Y-111343928D01*
X140137976Y-111229946D01*
X140214867Y-111137203D01*
X140310411Y-111067415D01*
X140423004Y-111022297D01*
X140551041Y-111003562D01*
X140619420Y-111004565D01*
G36*
X139330362Y-111010558D02*
G01*
X139386351Y-111016434D01*
X139433717Y-111028769D01*
X139483983Y-111049643D01*
X139487098Y-111051098D01*
X139597535Y-111119368D01*
X139685047Y-111209242D01*
X139748508Y-111319236D01*
X139786138Y-111444377D01*
X139789944Y-111480521D01*
X139793388Y-111544748D01*
X139796386Y-111633395D01*
X139798854Y-111742794D01*
X139800710Y-111869282D01*
X139801869Y-112009193D01*
X139802250Y-112152062D01*
X139801834Y-112301376D01*
X139800642Y-112440769D01*
X139798757Y-112566576D01*
X139796264Y-112675132D01*
X139793244Y-112762772D01*
X139789782Y-112825830D01*
X139786138Y-112859747D01*
X139747816Y-112987617D01*
X139685007Y-113095322D01*
X139597373Y-113183309D01*
X139493206Y-113247879D01*
X139388330Y-113284467D01*
X139272671Y-113300229D01*
X139158010Y-113294416D01*
X139076759Y-113274390D01*
X138953739Y-113214999D01*
X138851946Y-113132067D01*
X138770867Y-113025128D01*
X138741277Y-112969625D01*
X138735087Y-112953927D01*
X138729931Y-112933244D01*
X138725716Y-112904754D01*
X138722351Y-112865636D01*
X138719743Y-112813070D01*
X138717800Y-112744233D01*
X138716430Y-112656305D01*
X138715540Y-112546464D01*
X138715038Y-112411890D01*
X138714833Y-112249761D01*
X138714812Y-112160000D01*
X138714812Y-112152062D01*
X139040250Y-112152062D01*
X139040318Y-112324829D01*
X139040742Y-112468706D01*
X139041852Y-112586553D01*
X139043978Y-112681230D01*
X139047450Y-112755597D01*
X139052599Y-112812514D01*
X139059754Y-112854842D01*
X139069246Y-112885439D01*
X139081403Y-112907166D01*
X139096558Y-112922884D01*
X139115038Y-112935451D01*
X139131730Y-112944774D01*
X139191679Y-112964527D01*
X139261795Y-112969247D01*
X139329168Y-112959429D01*
X139380885Y-112935568D01*
X139381345Y-112935209D01*
X139402083Y-112918080D01*
X139419257Y-112900295D01*
X139433204Y-112878850D01*
X139444259Y-112850741D01*
X139452757Y-112812965D01*
X139459035Y-112762518D01*
X139463428Y-112696396D01*
X139466272Y-112611596D01*
X139467903Y-112505114D01*
X139468656Y-112373945D01*
X139468867Y-112215087D01*
X139468875Y-112152062D01*
X139468774Y-111982749D01*
X139468251Y-111842183D01*
X139466967Y-111727359D01*
X139464588Y-111635274D01*
X139460778Y-111562924D01*
X139455202Y-111507306D01*
X139447522Y-111465415D01*
X139437405Y-111434248D01*
X139424514Y-111410801D01*
X139408513Y-111392071D01*
X139389067Y-111375054D01*
X139381345Y-111368915D01*
X139328319Y-111344024D01*
X139259877Y-111334313D01*
X139188773Y-111340318D01*
X139134980Y-111358581D01*
X139112981Y-111370458D01*
X139094683Y-111383208D01*
X139079744Y-111399687D01*
X139067823Y-111422746D01*
X139058581Y-111455241D01*
X139051676Y-111500025D01*
X139046767Y-111559951D01*
X139043515Y-111637874D01*
X139041577Y-111736647D01*
X139040615Y-111859125D01*
X139040285Y-112008160D01*
X139040250Y-112152062D01*
X138714812Y-112152062D01*
X138714812Y-111405937D01*
X138756105Y-111317900D01*
X138815305Y-111215219D01*
X138887970Y-111136217D01*
X138981336Y-111073444D01*
X139005555Y-111060982D01*
X139060707Y-111035387D01*
X139106228Y-111019892D01*
X139153995Y-111012015D01*
X139215883Y-111009278D01*
X139254228Y-111009062D01*
X139330362Y-111010558D01*
G37*
X139330362Y-111010558D02*
X139386351Y-111016434D01*
X139433717Y-111028769D01*
X139483983Y-111049643D01*
X139487098Y-111051098D01*
X139597535Y-111119368D01*
X139685047Y-111209242D01*
X139748508Y-111319236D01*
X139786138Y-111444377D01*
X139789944Y-111480521D01*
X139793388Y-111544748D01*
X139796386Y-111633395D01*
X139798854Y-111742794D01*
X139800710Y-111869282D01*
X139801869Y-112009193D01*
X139802250Y-112152062D01*
X139801834Y-112301376D01*
X139800642Y-112440769D01*
X139798757Y-112566576D01*
X139796264Y-112675132D01*
X139793244Y-112762772D01*
X139789782Y-112825830D01*
X139786138Y-112859747D01*
X139747816Y-112987617D01*
X139685007Y-113095322D01*
X139597373Y-113183309D01*
X139493206Y-113247879D01*
X139388330Y-113284467D01*
X139272671Y-113300229D01*
X139158010Y-113294416D01*
X139076759Y-113274390D01*
X138953739Y-113214999D01*
X138851946Y-113132067D01*
X138770867Y-113025128D01*
X138741277Y-112969625D01*
X138735087Y-112953927D01*
X138729931Y-112933244D01*
X138725716Y-112904754D01*
X138722351Y-112865636D01*
X138719743Y-112813070D01*
X138717800Y-112744233D01*
X138716430Y-112656305D01*
X138715540Y-112546464D01*
X138715038Y-112411890D01*
X138714833Y-112249761D01*
X138714812Y-112160000D01*
X138714812Y-112152062D01*
X139040250Y-112152062D01*
X139040318Y-112324829D01*
X139040742Y-112468706D01*
X139041852Y-112586553D01*
X139043978Y-112681230D01*
X139047450Y-112755597D01*
X139052599Y-112812514D01*
X139059754Y-112854842D01*
X139069246Y-112885439D01*
X139081403Y-112907166D01*
X139096558Y-112922884D01*
X139115038Y-112935451D01*
X139131730Y-112944774D01*
X139191679Y-112964527D01*
X139261795Y-112969247D01*
X139329168Y-112959429D01*
X139380885Y-112935568D01*
X139381345Y-112935209D01*
X139402083Y-112918080D01*
X139419257Y-112900295D01*
X139433204Y-112878850D01*
X139444259Y-112850741D01*
X139452757Y-112812965D01*
X139459035Y-112762518D01*
X139463428Y-112696396D01*
X139466272Y-112611596D01*
X139467903Y-112505114D01*
X139468656Y-112373945D01*
X139468867Y-112215087D01*
X139468875Y-112152062D01*
X139468774Y-111982749D01*
X139468251Y-111842183D01*
X139466967Y-111727359D01*
X139464588Y-111635274D01*
X139460778Y-111562924D01*
X139455202Y-111507306D01*
X139447522Y-111465415D01*
X139437405Y-111434248D01*
X139424514Y-111410801D01*
X139408513Y-111392071D01*
X139389067Y-111375054D01*
X139381345Y-111368915D01*
X139328319Y-111344024D01*
X139259877Y-111334313D01*
X139188773Y-111340318D01*
X139134980Y-111358581D01*
X139112981Y-111370458D01*
X139094683Y-111383208D01*
X139079744Y-111399687D01*
X139067823Y-111422746D01*
X139058581Y-111455241D01*
X139051676Y-111500025D01*
X139046767Y-111559951D01*
X139043515Y-111637874D01*
X139041577Y-111736647D01*
X139040615Y-111859125D01*
X139040285Y-112008160D01*
X139040250Y-112152062D01*
X138714812Y-112152062D01*
X138714812Y-111405937D01*
X138756105Y-111317900D01*
X138815305Y-111215219D01*
X138887970Y-111136217D01*
X138981336Y-111073444D01*
X139005555Y-111060982D01*
X139060707Y-111035387D01*
X139106228Y-111019892D01*
X139153995Y-111012015D01*
X139215883Y-111009278D01*
X139254228Y-111009062D01*
X139330362Y-111010558D01*
G36*
X137947039Y-111004964D02*
G01*
X138075932Y-111029031D01*
X138190689Y-111080697D01*
X138288532Y-111158141D01*
X138366684Y-111259546D01*
X138384346Y-111291374D01*
X138406789Y-111341235D01*
X138421082Y-111391957D01*
X138429596Y-111454538D01*
X138433863Y-111521031D01*
X138440787Y-111667875D01*
X138119500Y-111667875D01*
X138119500Y-111587990D01*
X138109393Y-111491036D01*
X138078769Y-111418110D01*
X138027174Y-111368633D01*
X137954151Y-111342024D01*
X137923413Y-111338003D01*
X137835125Y-111342006D01*
X137766506Y-111370606D01*
X137716660Y-111424206D01*
X137710987Y-111433987D01*
X137704077Y-111448831D01*
X137698395Y-111467707D01*
X137693822Y-111493646D01*
X137690242Y-111529685D01*
X137687534Y-111578856D01*
X137685580Y-111644194D01*
X137684262Y-111728732D01*
X137683462Y-111835506D01*
X137683060Y-111967548D01*
X137682938Y-112127893D01*
X137682937Y-112152062D01*
X137683000Y-112324444D01*
X137683446Y-112467960D01*
X137684660Y-112585490D01*
X137687025Y-112679920D01*
X137690927Y-112754131D01*
X137696749Y-112811007D01*
X137704876Y-112853429D01*
X137715693Y-112884282D01*
X137729584Y-112906448D01*
X137746934Y-112922810D01*
X137768127Y-112936250D01*
X137788990Y-112947294D01*
X137850347Y-112965620D01*
X137921540Y-112967345D01*
X137990102Y-112953703D01*
X138043572Y-112925924D01*
X138048451Y-112921634D01*
X138075852Y-112889701D01*
X138095540Y-112849857D01*
X138108432Y-112797083D01*
X138115442Y-112726363D01*
X138117485Y-112632676D01*
X138116411Y-112548937D01*
X138111562Y-112326687D01*
X137988531Y-112322050D01*
X137865500Y-112317414D01*
X137865500Y-112033000D01*
X138438813Y-112033000D01*
X138433938Y-112481468D01*
X138432436Y-112612677D01*
X138430889Y-112716189D01*
X138428958Y-112796059D01*
X138426304Y-112856338D01*
X138422589Y-112901080D01*
X138417473Y-112934337D01*
X138410620Y-112960162D01*
X138401689Y-112982608D01*
X138390343Y-113005727D01*
X138390098Y-113006206D01*
X138337386Y-113085087D01*
X138264710Y-113161706D01*
X138182845Y-113225859D01*
X138122948Y-113259190D01*
X138035752Y-113285676D01*
X137933202Y-113297961D01*
X137828604Y-113295506D01*
X137735263Y-113277774D01*
X137727208Y-113275189D01*
X137619946Y-113225752D01*
X137523658Y-113155742D01*
X137453021Y-113078605D01*
X137431416Y-113047883D01*
X137413290Y-113018453D01*
X137398360Y-112987342D01*
X137386339Y-112951581D01*
X137376943Y-112908196D01*
X137369887Y-112854217D01*
X137364885Y-112786671D01*
X137361653Y-112702586D01*
X137359904Y-112598992D01*
X137359355Y-112472916D01*
X137359719Y-112321387D01*
X137360712Y-112141432D01*
X137360858Y-112118119D01*
X137361984Y-111946794D01*
X137363109Y-111804233D01*
X137364374Y-111687449D01*
X137365921Y-111593457D01*
X137367892Y-111519270D01*
X137370429Y-111461903D01*
X137373674Y-111418369D01*
X137377768Y-111385683D01*
X137382853Y-111360857D01*
X137389071Y-111340907D01*
X137396564Y-111322845D01*
X137398864Y-111317818D01*
X137466403Y-111207715D01*
X137555395Y-111119198D01*
X137662279Y-111054300D01*
X137783494Y-111015054D01*
X137915479Y-111003490D01*
X137947039Y-111004964D01*
G37*
X137947039Y-111004964D02*
X138075932Y-111029031D01*
X138190689Y-111080697D01*
X138288532Y-111158141D01*
X138366684Y-111259546D01*
X138384346Y-111291374D01*
X138406789Y-111341235D01*
X138421082Y-111391957D01*
X138429596Y-111454538D01*
X138433863Y-111521031D01*
X138440787Y-111667875D01*
X138119500Y-111667875D01*
X138119500Y-111587990D01*
X138109393Y-111491036D01*
X138078769Y-111418110D01*
X138027174Y-111368633D01*
X137954151Y-111342024D01*
X137923413Y-111338003D01*
X137835125Y-111342006D01*
X137766506Y-111370606D01*
X137716660Y-111424206D01*
X137710987Y-111433987D01*
X137704077Y-111448831D01*
X137698395Y-111467707D01*
X137693822Y-111493646D01*
X137690242Y-111529685D01*
X137687534Y-111578856D01*
X137685580Y-111644194D01*
X137684262Y-111728732D01*
X137683462Y-111835506D01*
X137683060Y-111967548D01*
X137682938Y-112127893D01*
X137682937Y-112152062D01*
X137683000Y-112324444D01*
X137683446Y-112467960D01*
X137684660Y-112585490D01*
X137687025Y-112679920D01*
X137690927Y-112754131D01*
X137696749Y-112811007D01*
X137704876Y-112853429D01*
X137715693Y-112884282D01*
X137729584Y-112906448D01*
X137746934Y-112922810D01*
X137768127Y-112936250D01*
X137788990Y-112947294D01*
X137850347Y-112965620D01*
X137921540Y-112967345D01*
X137990102Y-112953703D01*
X138043572Y-112925924D01*
X138048451Y-112921634D01*
X138075852Y-112889701D01*
X138095540Y-112849857D01*
X138108432Y-112797083D01*
X138115442Y-112726363D01*
X138117485Y-112632676D01*
X138116411Y-112548937D01*
X138111562Y-112326687D01*
X137988531Y-112322050D01*
X137865500Y-112317414D01*
X137865500Y-112033000D01*
X138438813Y-112033000D01*
X138433938Y-112481468D01*
X138432436Y-112612677D01*
X138430889Y-112716189D01*
X138428958Y-112796059D01*
X138426304Y-112856338D01*
X138422589Y-112901080D01*
X138417473Y-112934337D01*
X138410620Y-112960162D01*
X138401689Y-112982608D01*
X138390343Y-113005727D01*
X138390098Y-113006206D01*
X138337386Y-113085087D01*
X138264710Y-113161706D01*
X138182845Y-113225859D01*
X138122948Y-113259190D01*
X138035752Y-113285676D01*
X137933202Y-113297961D01*
X137828604Y-113295506D01*
X137735263Y-113277774D01*
X137727208Y-113275189D01*
X137619946Y-113225752D01*
X137523658Y-113155742D01*
X137453021Y-113078605D01*
X137431416Y-113047883D01*
X137413290Y-113018453D01*
X137398360Y-112987342D01*
X137386339Y-112951581D01*
X137376943Y-112908196D01*
X137369887Y-112854217D01*
X137364885Y-112786671D01*
X137361653Y-112702586D01*
X137359904Y-112598992D01*
X137359355Y-112472916D01*
X137359719Y-112321387D01*
X137360712Y-112141432D01*
X137360858Y-112118119D01*
X137361984Y-111946794D01*
X137363109Y-111804233D01*
X137364374Y-111687449D01*
X137365921Y-111593457D01*
X137367892Y-111519270D01*
X137370429Y-111461903D01*
X137373674Y-111418369D01*
X137377768Y-111385683D01*
X137382853Y-111360857D01*
X137389071Y-111340907D01*
X137396564Y-111322845D01*
X137398864Y-111317818D01*
X137466403Y-111207715D01*
X137555395Y-111119198D01*
X137662279Y-111054300D01*
X137783494Y-111015054D01*
X137915479Y-111003490D01*
X137947039Y-111004964D01*
G36*
X136623648Y-111010331D02*
G01*
X136678314Y-111015029D01*
X136722477Y-111025227D01*
X136766738Y-111042864D01*
X136788267Y-111053133D01*
X136883364Y-111114742D01*
X136968469Y-111197936D01*
X137033859Y-111292779D01*
X137045383Y-111315836D01*
X137053235Y-111333574D01*
X137059788Y-111351755D01*
X137065158Y-111373272D01*
X137069464Y-111401016D01*
X137072822Y-111437880D01*
X137075351Y-111486756D01*
X137077168Y-111550537D01*
X137078391Y-111632115D01*
X137079136Y-111734383D01*
X137079522Y-111860233D01*
X137079667Y-112012557D01*
X137079687Y-112160000D01*
X137079687Y-112929937D01*
X137042840Y-112998984D01*
X136975963Y-113097882D01*
X136891005Y-113182979D01*
X136796693Y-113245678D01*
X136788267Y-113249822D01*
X136685667Y-113284611D01*
X136571235Y-113300062D01*
X136457001Y-113295548D01*
X136359751Y-113272240D01*
X136307865Y-113251304D01*
X136265505Y-113231238D01*
X136248626Y-113221135D01*
X136165182Y-113148212D01*
X136094947Y-113066688D01*
X136058347Y-113009312D01*
X136016062Y-112929937D01*
X136011509Y-112181999D01*
X136011053Y-112103909D01*
X136326373Y-112103909D01*
X136326474Y-112236353D01*
X136327314Y-112366052D01*
X136328894Y-112488695D01*
X136331213Y-112599972D01*
X136334271Y-112695571D01*
X136338068Y-112771182D01*
X136342605Y-112822494D01*
X136346364Y-112842075D01*
X136382046Y-112900703D01*
X136438399Y-112942867D01*
X136507669Y-112966254D01*
X136582106Y-112968548D01*
X136653955Y-112947435D01*
X136669893Y-112938665D01*
X136691502Y-112925327D01*
X136709446Y-112912105D01*
X136724064Y-112896094D01*
X136735697Y-112874393D01*
X136744686Y-112844097D01*
X136751371Y-112802304D01*
X136756094Y-112746110D01*
X136759194Y-112672611D01*
X136761013Y-112578905D01*
X136761891Y-112462088D01*
X136762169Y-112319256D01*
X136762187Y-112152062D01*
X136762167Y-111981053D01*
X136761878Y-111838891D01*
X136760981Y-111722671D01*
X136759135Y-111629492D01*
X136755999Y-111556450D01*
X136751233Y-111500641D01*
X136744495Y-111459163D01*
X136735446Y-111429111D01*
X136723744Y-111407583D01*
X136709049Y-111391676D01*
X136691020Y-111378485D01*
X136669893Y-111365459D01*
X136599810Y-111338408D01*
X136525286Y-111335316D01*
X136454076Y-111353871D01*
X136393930Y-111391756D01*
X136352601Y-111446659D01*
X136346364Y-111462049D01*
X136341291Y-111493006D01*
X136336956Y-111551393D01*
X136333361Y-111632900D01*
X136330505Y-111733216D01*
X136328388Y-111848030D01*
X136327011Y-111973031D01*
X136326373Y-112103909D01*
X136011053Y-112103909D01*
X136010494Y-112008200D01*
X136009821Y-111863150D01*
X136009591Y-111743849D01*
X136009907Y-111647299D01*
X136010873Y-111570500D01*
X136012591Y-111510451D01*
X136015164Y-111464154D01*
X136018694Y-111428609D01*
X136023284Y-111400815D01*
X136029036Y-111377774D01*
X136036053Y-111356486D01*
X136040144Y-111345361D01*
X136091972Y-111246465D01*
X136167196Y-111155527D01*
X136257484Y-111081673D01*
X136306537Y-111053580D01*
X136354402Y-111031985D01*
X136397341Y-111018724D01*
X136445991Y-111011842D01*
X136510990Y-111009381D01*
X136547875Y-111009195D01*
X136623648Y-111010331D01*
G37*
X136623648Y-111010331D02*
X136678314Y-111015029D01*
X136722477Y-111025227D01*
X136766738Y-111042864D01*
X136788267Y-111053133D01*
X136883364Y-111114742D01*
X136968469Y-111197936D01*
X137033859Y-111292779D01*
X137045383Y-111315836D01*
X137053235Y-111333574D01*
X137059788Y-111351755D01*
X137065158Y-111373272D01*
X137069464Y-111401016D01*
X137072822Y-111437880D01*
X137075351Y-111486756D01*
X137077168Y-111550537D01*
X137078391Y-111632115D01*
X137079136Y-111734383D01*
X137079522Y-111860233D01*
X137079667Y-112012557D01*
X137079687Y-112160000D01*
X137079687Y-112929937D01*
X137042840Y-112998984D01*
X136975963Y-113097882D01*
X136891005Y-113182979D01*
X136796693Y-113245678D01*
X136788267Y-113249822D01*
X136685667Y-113284611D01*
X136571235Y-113300062D01*
X136457001Y-113295548D01*
X136359751Y-113272240D01*
X136307865Y-113251304D01*
X136265505Y-113231238D01*
X136248626Y-113221135D01*
X136165182Y-113148212D01*
X136094947Y-113066688D01*
X136058347Y-113009312D01*
X136016062Y-112929937D01*
X136011509Y-112181999D01*
X136011053Y-112103909D01*
X136326373Y-112103909D01*
X136326474Y-112236353D01*
X136327314Y-112366052D01*
X136328894Y-112488695D01*
X136331213Y-112599972D01*
X136334271Y-112695571D01*
X136338068Y-112771182D01*
X136342605Y-112822494D01*
X136346364Y-112842075D01*
X136382046Y-112900703D01*
X136438399Y-112942867D01*
X136507669Y-112966254D01*
X136582106Y-112968548D01*
X136653955Y-112947435D01*
X136669893Y-112938665D01*
X136691502Y-112925327D01*
X136709446Y-112912105D01*
X136724064Y-112896094D01*
X136735697Y-112874393D01*
X136744686Y-112844097D01*
X136751371Y-112802304D01*
X136756094Y-112746110D01*
X136759194Y-112672611D01*
X136761013Y-112578905D01*
X136761891Y-112462088D01*
X136762169Y-112319256D01*
X136762187Y-112152062D01*
X136762167Y-111981053D01*
X136761878Y-111838891D01*
X136760981Y-111722671D01*
X136759135Y-111629492D01*
X136755999Y-111556450D01*
X136751233Y-111500641D01*
X136744495Y-111459163D01*
X136735446Y-111429111D01*
X136723744Y-111407583D01*
X136709049Y-111391676D01*
X136691020Y-111378485D01*
X136669893Y-111365459D01*
X136599810Y-111338408D01*
X136525286Y-111335316D01*
X136454076Y-111353871D01*
X136393930Y-111391756D01*
X136352601Y-111446659D01*
X136346364Y-111462049D01*
X136341291Y-111493006D01*
X136336956Y-111551393D01*
X136333361Y-111632900D01*
X136330505Y-111733216D01*
X136328388Y-111848030D01*
X136327011Y-111973031D01*
X136326373Y-112103909D01*
X136011053Y-112103909D01*
X136010494Y-112008200D01*
X136009821Y-111863150D01*
X136009591Y-111743849D01*
X136009907Y-111647299D01*
X136010873Y-111570500D01*
X136012591Y-111510451D01*
X136015164Y-111464154D01*
X136018694Y-111428609D01*
X136023284Y-111400815D01*
X136029036Y-111377774D01*
X136036053Y-111356486D01*
X136040144Y-111345361D01*
X136091972Y-111246465D01*
X136167196Y-111155527D01*
X136257484Y-111081673D01*
X136306537Y-111053580D01*
X136354402Y-111031985D01*
X136397341Y-111018724D01*
X136445991Y-111011842D01*
X136510990Y-111009381D01*
X136547875Y-111009195D01*
X136623648Y-111010331D01*
G36*
X133190944Y-111049183D02*
G01*
X133247081Y-111050357D01*
X133283256Y-111052084D01*
X133293500Y-111053794D01*
X133288556Y-111069395D01*
X133274418Y-111111969D01*
X133252125Y-111178437D01*
X133222717Y-111265714D01*
X133187232Y-111370721D01*
X133146712Y-111490375D01*
X133102194Y-111621596D01*
X133071250Y-111712681D01*
X132849000Y-112366524D01*
X132849000Y-113318875D01*
X132692895Y-113318875D01*
X132625390Y-113317860D01*
X132570264Y-113315131D01*
X132534921Y-113311156D01*
X132526208Y-113308291D01*
X132523558Y-113290338D01*
X132521151Y-113244618D01*
X132519073Y-113175115D01*
X132517410Y-113085810D01*
X132516247Y-112980687D01*
X132515672Y-112863729D01*
X132515625Y-112818473D01*
X132515625Y-112339238D01*
X132301312Y-111708440D01*
X132255538Y-111573363D01*
X132213107Y-111447484D01*
X132175082Y-111334005D01*
X132142527Y-111236131D01*
X132116504Y-111157062D01*
X132098076Y-111100004D01*
X132088306Y-111068157D01*
X132087000Y-111062658D01*
X132101979Y-111056526D01*
X132143454Y-111052675D01*
X132206234Y-111051426D01*
X132256771Y-111052181D01*
X132426543Y-111056687D01*
X132539306Y-111445625D01*
X132579072Y-111582817D01*
X132610898Y-111692436D01*
X132635735Y-111777388D01*
X132654534Y-111840581D01*
X132668248Y-111884921D01*
X132677827Y-111913313D01*
X132684222Y-111928666D01*
X132688386Y-111933884D01*
X132691269Y-111931875D01*
X132693823Y-111925546D01*
X132695192Y-111921875D01*
X132701910Y-111900857D01*
X132716149Y-111853486D01*
X132736687Y-111783930D01*
X132762298Y-111696356D01*
X132791761Y-111594932D01*
X132823850Y-111483826D01*
X132826850Y-111473406D01*
X132949098Y-111048749D01*
X133121299Y-111048749D01*
X133190944Y-111049183D01*
G37*
X133190944Y-111049183D02*
X133247081Y-111050357D01*
X133283256Y-111052084D01*
X133293500Y-111053794D01*
X133288556Y-111069395D01*
X133274418Y-111111969D01*
X133252125Y-111178437D01*
X133222717Y-111265714D01*
X133187232Y-111370721D01*
X133146712Y-111490375D01*
X133102194Y-111621596D01*
X133071250Y-111712681D01*
X132849000Y-112366524D01*
X132849000Y-113318875D01*
X132692895Y-113318875D01*
X132625390Y-113317860D01*
X132570264Y-113315131D01*
X132534921Y-113311156D01*
X132526208Y-113308291D01*
X132523558Y-113290338D01*
X132521151Y-113244618D01*
X132519073Y-113175115D01*
X132517410Y-113085810D01*
X132516247Y-112980687D01*
X132515672Y-112863729D01*
X132515625Y-112818473D01*
X132515625Y-112339238D01*
X132301312Y-111708440D01*
X132255538Y-111573363D01*
X132213107Y-111447484D01*
X132175082Y-111334005D01*
X132142527Y-111236131D01*
X132116504Y-111157062D01*
X132098076Y-111100004D01*
X132088306Y-111068157D01*
X132087000Y-111062658D01*
X132101979Y-111056526D01*
X132143454Y-111052675D01*
X132206234Y-111051426D01*
X132256771Y-111052181D01*
X132426543Y-111056687D01*
X132539306Y-111445625D01*
X132579072Y-111582817D01*
X132610898Y-111692436D01*
X132635735Y-111777388D01*
X132654534Y-111840581D01*
X132668248Y-111884921D01*
X132677827Y-111913313D01*
X132684222Y-111928666D01*
X132688386Y-111933884D01*
X132691269Y-111931875D01*
X132693823Y-111925546D01*
X132695192Y-111921875D01*
X132701910Y-111900857D01*
X132716149Y-111853486D01*
X132736687Y-111783930D01*
X132762298Y-111696356D01*
X132791761Y-111594932D01*
X132823850Y-111483826D01*
X132826850Y-111473406D01*
X132949098Y-111048749D01*
X133121299Y-111048749D01*
X133190944Y-111049183D01*
G36*
X131282148Y-111050285D02*
G01*
X131391025Y-111055537D01*
X131479070Y-111065473D01*
X131551682Y-111081060D01*
X131614260Y-111103266D01*
X131672205Y-111133059D01*
X131694609Y-111146877D01*
X131774313Y-111214070D01*
X131841261Y-111301556D01*
X131877834Y-111374187D01*
X131896556Y-111441315D01*
X131909185Y-111526953D01*
X131915680Y-111622748D01*
X131915997Y-111720350D01*
X131910094Y-111811407D01*
X131897928Y-111887568D01*
X131880713Y-111938173D01*
X131813820Y-112034079D01*
X131753620Y-112088565D01*
X131706494Y-112123333D01*
X131769847Y-112174245D01*
X131815604Y-112219025D01*
X131855374Y-112271108D01*
X131865976Y-112289404D01*
X131892147Y-112363250D01*
X131909575Y-112459645D01*
X131918345Y-112570638D01*
X131918538Y-112688279D01*
X131910239Y-112804619D01*
X131893532Y-112911706D01*
X131868498Y-113001592D01*
X131858244Y-113026519D01*
X131794573Y-113129328D01*
X131708595Y-113212164D01*
X131604983Y-113270567D01*
X131600666Y-113272282D01*
X131565601Y-113284942D01*
X131530344Y-113294519D01*
X131489460Y-113301577D01*
X131437515Y-113306683D01*
X131369075Y-113310401D01*
X131278704Y-113313298D01*
X131186093Y-113315422D01*
X130864625Y-113322134D01*
X130864625Y-112985500D01*
X131198000Y-112985500D01*
X131313093Y-112985475D01*
X131406948Y-112979630D01*
X131474454Y-112961789D01*
X131483209Y-112957694D01*
X131528258Y-112929649D01*
X131560816Y-112894420D01*
X131582706Y-112846818D01*
X131595755Y-112781653D01*
X131601787Y-112693733D01*
X131602812Y-112617570D01*
X131602279Y-112532043D01*
X131600106Y-112471839D01*
X131595438Y-112430537D01*
X131587415Y-112401720D01*
X131575181Y-112378969D01*
X131569934Y-112371507D01*
X131518299Y-112319936D01*
X131450820Y-112287671D01*
X131362451Y-112272740D01*
X131313093Y-112271149D01*
X131198000Y-112271125D01*
X131198000Y-112985500D01*
X130864625Y-112985500D01*
X130864625Y-111366250D01*
X131198000Y-111366250D01*
X131198000Y-111989754D01*
X131319736Y-111978722D01*
X131386411Y-111970527D01*
X131447221Y-111959352D01*
X131489683Y-111947520D01*
X131491626Y-111946736D01*
X131541508Y-111912564D01*
X131575979Y-111856769D01*
X131596045Y-111776830D01*
X131602709Y-111670224D01*
X131602713Y-111667875D01*
X131599024Y-111576082D01*
X131586082Y-111508390D01*
X131561225Y-111457841D01*
X131521793Y-111417478D01*
X131501246Y-111402561D01*
X131466652Y-111383131D01*
X131428187Y-111371997D01*
X131375678Y-111367089D01*
X131322652Y-111366250D01*
X131198000Y-111366250D01*
X130864625Y-111366250D01*
X130864625Y-111048750D01*
X131147039Y-111048750D01*
X131282148Y-111050285D01*
G37*
X131282148Y-111050285D02*
X131391025Y-111055537D01*
X131479070Y-111065473D01*
X131551682Y-111081060D01*
X131614260Y-111103266D01*
X131672205Y-111133059D01*
X131694609Y-111146877D01*
X131774313Y-111214070D01*
X131841261Y-111301556D01*
X131877834Y-111374187D01*
X131896556Y-111441315D01*
X131909185Y-111526953D01*
X131915680Y-111622748D01*
X131915997Y-111720350D01*
X131910094Y-111811407D01*
X131897928Y-111887568D01*
X131880713Y-111938173D01*
X131813820Y-112034079D01*
X131753620Y-112088565D01*
X131706494Y-112123333D01*
X131769847Y-112174245D01*
X131815604Y-112219025D01*
X131855374Y-112271108D01*
X131865976Y-112289404D01*
X131892147Y-112363250D01*
X131909575Y-112459645D01*
X131918345Y-112570638D01*
X131918538Y-112688279D01*
X131910239Y-112804619D01*
X131893532Y-112911706D01*
X131868498Y-113001592D01*
X131858244Y-113026519D01*
X131794573Y-113129328D01*
X131708595Y-113212164D01*
X131604983Y-113270567D01*
X131600666Y-113272282D01*
X131565601Y-113284942D01*
X131530344Y-113294519D01*
X131489460Y-113301577D01*
X131437515Y-113306683D01*
X131369075Y-113310401D01*
X131278704Y-113313298D01*
X131186093Y-113315422D01*
X130864625Y-113322134D01*
X130864625Y-112985500D01*
X131198000Y-112985500D01*
X131313093Y-112985475D01*
X131406948Y-112979630D01*
X131474454Y-112961789D01*
X131483209Y-112957694D01*
X131528258Y-112929649D01*
X131560816Y-112894420D01*
X131582706Y-112846818D01*
X131595755Y-112781653D01*
X131601787Y-112693733D01*
X131602812Y-112617570D01*
X131602279Y-112532043D01*
X131600106Y-112471839D01*
X131595438Y-112430537D01*
X131587415Y-112401720D01*
X131575181Y-112378969D01*
X131569934Y-112371507D01*
X131518299Y-112319936D01*
X131450820Y-112287671D01*
X131362451Y-112272740D01*
X131313093Y-112271149D01*
X131198000Y-112271125D01*
X131198000Y-112985500D01*
X130864625Y-112985500D01*
X130864625Y-111366250D01*
X131198000Y-111366250D01*
X131198000Y-111989754D01*
X131319736Y-111978722D01*
X131386411Y-111970527D01*
X131447221Y-111959352D01*
X131489683Y-111947520D01*
X131491626Y-111946736D01*
X131541508Y-111912564D01*
X131575979Y-111856769D01*
X131596045Y-111776830D01*
X131602709Y-111670224D01*
X131602713Y-111667875D01*
X131599024Y-111576082D01*
X131586082Y-111508390D01*
X131561225Y-111457841D01*
X131521793Y-111417478D01*
X131501246Y-111402561D01*
X131466652Y-111383131D01*
X131428187Y-111371997D01*
X131375678Y-111367089D01*
X131322652Y-111366250D01*
X131198000Y-111366250D01*
X130864625Y-111366250D01*
X130864625Y-111048750D01*
X131147039Y-111048750D01*
X131282148Y-111050285D01*
G36*
X129340996Y-111050230D02*
G01*
X129450505Y-111055111D01*
X129538481Y-111064055D01*
X129609974Y-111077720D01*
X129670033Y-111096767D01*
X129710373Y-111114862D01*
X129791326Y-111170665D01*
X129864164Y-111248485D01*
X129920244Y-111338591D01*
X129931278Y-111363483D01*
X129939854Y-111385288D01*
X129946965Y-111406456D01*
X129952748Y-111430049D01*
X129957341Y-111459127D01*
X129960881Y-111496752D01*
X129963504Y-111545984D01*
X129965349Y-111609885D01*
X129966551Y-111691515D01*
X129967249Y-111793935D01*
X129967580Y-111920206D01*
X129967680Y-112073390D01*
X129967687Y-112175875D01*
X129967651Y-112346198D01*
X129967456Y-112487826D01*
X129966967Y-112603812D01*
X129966050Y-112697211D01*
X129964574Y-112771076D01*
X129962403Y-112828462D01*
X129959404Y-112872423D01*
X129955444Y-112906014D01*
X129950389Y-112932287D01*
X129944106Y-112954298D01*
X129936461Y-112975100D01*
X129932291Y-112985500D01*
X129870948Y-113099429D01*
X129788893Y-113189338D01*
X129685811Y-113255495D01*
X129565215Y-113297277D01*
X129506869Y-113306381D01*
X129421384Y-113313151D01*
X129313301Y-113317320D01*
X129201718Y-113318627D01*
X128927875Y-113318875D01*
X128927875Y-113004534D01*
X129245375Y-113004534D01*
X129386606Y-112998985D01*
X129460153Y-112994690D01*
X129509563Y-112987663D01*
X129542427Y-112976302D01*
X129563422Y-112961687D01*
X129582191Y-112943980D01*
X129597720Y-112925409D01*
X129610314Y-112902946D01*
X129620280Y-112873561D01*
X129627925Y-112834227D01*
X129633556Y-112781915D01*
X129637481Y-112713597D01*
X129640005Y-112626244D01*
X129641436Y-112516827D01*
X129642081Y-112382318D01*
X129642247Y-112219689D01*
X129642250Y-112183812D01*
X129642143Y-112015243D01*
X129641617Y-111875395D01*
X129640366Y-111761241D01*
X129638083Y-111669750D01*
X129634461Y-111597896D01*
X129629193Y-111542648D01*
X129621971Y-111500980D01*
X129612490Y-111469862D01*
X129600442Y-111446266D01*
X129585521Y-111427164D01*
X129567419Y-111409526D01*
X129563422Y-111405937D01*
X129538765Y-111389516D01*
X129504151Y-111378819D01*
X129451989Y-111372245D01*
X129386606Y-111368639D01*
X129245375Y-111363090D01*
X129245375Y-113004534D01*
X128927875Y-113004534D01*
X128927875Y-111048750D01*
X129204906Y-111048750D01*
X129340996Y-111050230D01*
G37*
X129340996Y-111050230D02*
X129450505Y-111055111D01*
X129538481Y-111064055D01*
X129609974Y-111077720D01*
X129670033Y-111096767D01*
X129710373Y-111114862D01*
X129791326Y-111170665D01*
X129864164Y-111248485D01*
X129920244Y-111338591D01*
X129931278Y-111363483D01*
X129939854Y-111385288D01*
X129946965Y-111406456D01*
X129952748Y-111430049D01*
X129957341Y-111459127D01*
X129960881Y-111496752D01*
X129963504Y-111545984D01*
X129965349Y-111609885D01*
X129966551Y-111691515D01*
X129967249Y-111793935D01*
X129967580Y-111920206D01*
X129967680Y-112073390D01*
X129967687Y-112175875D01*
X129967651Y-112346198D01*
X129967456Y-112487826D01*
X129966967Y-112603812D01*
X129966050Y-112697211D01*
X129964574Y-112771076D01*
X129962403Y-112828462D01*
X129959404Y-112872423D01*
X129955444Y-112906014D01*
X129950389Y-112932287D01*
X129944106Y-112954298D01*
X129936461Y-112975100D01*
X129932291Y-112985500D01*
X129870948Y-113099429D01*
X129788893Y-113189338D01*
X129685811Y-113255495D01*
X129565215Y-113297277D01*
X129506869Y-113306381D01*
X129421384Y-113313151D01*
X129313301Y-113317320D01*
X129201718Y-113318627D01*
X128927875Y-113318875D01*
X128927875Y-113004534D01*
X129245375Y-113004534D01*
X129386606Y-112998985D01*
X129460153Y-112994690D01*
X129509563Y-112987663D01*
X129542427Y-112976302D01*
X129563422Y-112961687D01*
X129582191Y-112943980D01*
X129597720Y-112925409D01*
X129610314Y-112902946D01*
X129620280Y-112873561D01*
X129627925Y-112834227D01*
X129633556Y-112781915D01*
X129637481Y-112713597D01*
X129640005Y-112626244D01*
X129641436Y-112516827D01*
X129642081Y-112382318D01*
X129642247Y-112219689D01*
X129642250Y-112183812D01*
X129642143Y-112015243D01*
X129641617Y-111875395D01*
X129640366Y-111761241D01*
X129638083Y-111669750D01*
X129634461Y-111597896D01*
X129629193Y-111542648D01*
X129621971Y-111500980D01*
X129612490Y-111469862D01*
X129600442Y-111446266D01*
X129585521Y-111427164D01*
X129567419Y-111409526D01*
X129563422Y-111405937D01*
X129538765Y-111389516D01*
X129504151Y-111378819D01*
X129451989Y-111372245D01*
X129386606Y-111368639D01*
X129245375Y-111363090D01*
X129245375Y-113004534D01*
X128927875Y-113004534D01*
X128927875Y-111048750D01*
X129204906Y-111048750D01*
X129340996Y-111050230D01*
G36*
X128718106Y-111203531D02*
G01*
X128713562Y-111358312D01*
X128392093Y-111362609D01*
X128070625Y-111366907D01*
X128070625Y-112016392D01*
X128634187Y-112025062D01*
X128634187Y-112326687D01*
X128070625Y-112335357D01*
X128070625Y-112985500D01*
X128721500Y-112985500D01*
X128721500Y-113318875D01*
X127753125Y-113318875D01*
X127753125Y-111048750D01*
X128722649Y-111048750D01*
X128718106Y-111203531D01*
G37*
X128718106Y-111203531D02*
X128713562Y-111358312D01*
X128392093Y-111362609D01*
X128070625Y-111366907D01*
X128070625Y-112016392D01*
X128634187Y-112025062D01*
X128634187Y-112326687D01*
X128070625Y-112335357D01*
X128070625Y-112985500D01*
X128721500Y-112985500D01*
X128721500Y-113318875D01*
X127753125Y-113318875D01*
X127753125Y-111048750D01*
X128722649Y-111048750D01*
X128718106Y-111203531D01*
G36*
X127606856Y-111203531D02*
G01*
X127602312Y-111358312D01*
X127415781Y-111362785D01*
X127229250Y-111367257D01*
X127229250Y-113318875D01*
X126911750Y-113318875D01*
X126911750Y-111366250D01*
X126530750Y-111366250D01*
X126530750Y-111048750D01*
X127611399Y-111048750D01*
X127606856Y-111203531D01*
G37*
X127606856Y-111203531D02*
X127602312Y-111358312D01*
X127415781Y-111362785D01*
X127229250Y-111367257D01*
X127229250Y-113318875D01*
X126911750Y-113318875D01*
X126911750Y-111366250D01*
X126530750Y-111366250D01*
X126530750Y-111048750D01*
X127611399Y-111048750D01*
X127606856Y-111203531D01*
G36*
X125960937Y-111050022D02*
G01*
X126008918Y-111053426D01*
X126035529Y-111058341D01*
X126038625Y-111060877D01*
X126042002Y-111077997D01*
X126051767Y-111123603D01*
X126067368Y-111195201D01*
X126088254Y-111290292D01*
X126113872Y-111406382D01*
X126143672Y-111540975D01*
X126177101Y-111691575D01*
X126213608Y-111855685D01*
X126252642Y-112030810D01*
X126284687Y-112174340D01*
X126325354Y-112356654D01*
X126363922Y-112530140D01*
X126399840Y-112692273D01*
X126432553Y-112840529D01*
X126461509Y-112972385D01*
X126486155Y-113085316D01*
X126505938Y-113176798D01*
X126520304Y-113244307D01*
X126528700Y-113285319D01*
X126530750Y-113297276D01*
X126523554Y-113307598D01*
X126498872Y-113314213D01*
X126452059Y-113317759D01*
X126378469Y-113318871D01*
X126373069Y-113318875D01*
X126299838Y-113318191D01*
X126252424Y-113315480D01*
X126224912Y-113309750D01*
X126211385Y-113300010D01*
X126207301Y-113291093D01*
X126201396Y-113265907D01*
X126190815Y-113216111D01*
X126176916Y-113148268D01*
X126161058Y-113068938D01*
X126156348Y-113045031D01*
X126113483Y-112826750D01*
X125676894Y-112826750D01*
X125631277Y-113068843D01*
X125585659Y-113310937D01*
X125423204Y-113315461D01*
X125355689Y-113316208D01*
X125301791Y-113314648D01*
X125268173Y-113311105D01*
X125260264Y-113307524D01*
X125263545Y-113290360D01*
X125273189Y-113244678D01*
X125288654Y-113172953D01*
X125309398Y-113077656D01*
X125334877Y-112961259D01*
X125364550Y-112826237D01*
X125397875Y-112675062D01*
X125434309Y-112510206D01*
X125435357Y-112505473D01*
X125739340Y-112505473D01*
X125744221Y-112515813D01*
X125762026Y-112521689D01*
X125798186Y-112524362D01*
X125858131Y-112525093D01*
X125895750Y-112525125D01*
X125968643Y-112524871D01*
X126015204Y-112523268D01*
X126040852Y-112519055D01*
X126051004Y-112510971D01*
X126051078Y-112497754D01*
X126049172Y-112489406D01*
X126043720Y-112463804D01*
X126033348Y-112412041D01*
X126019041Y-112339152D01*
X126001783Y-112250174D01*
X125982560Y-112150140D01*
X125973832Y-112104437D01*
X125954156Y-112002960D01*
X125935896Y-111912062D01*
X125920028Y-111836352D01*
X125907533Y-111780442D01*
X125899387Y-111748942D01*
X125897321Y-111743859D01*
X125891698Y-111755444D01*
X125881307Y-111794092D01*
X125867087Y-111855632D01*
X125849974Y-111935893D01*
X125830904Y-112030706D01*
X125818863Y-112093109D01*
X125798860Y-112198017D01*
X125780420Y-112294060D01*
X125764501Y-112376302D01*
X125752059Y-112439807D01*
X125744054Y-112479640D01*
X125741951Y-112489406D01*
X125739340Y-112505473D01*
X125435357Y-112505473D01*
X125473309Y-112334142D01*
X125509321Y-112171906D01*
X125758862Y-111048750D01*
X125898743Y-111048750D01*
X125960937Y-111050022D01*
G37*
X125960937Y-111050022D02*
X126008918Y-111053426D01*
X126035529Y-111058341D01*
X126038625Y-111060877D01*
X126042002Y-111077997D01*
X126051767Y-111123603D01*
X126067368Y-111195201D01*
X126088254Y-111290292D01*
X126113872Y-111406382D01*
X126143672Y-111540975D01*
X126177101Y-111691575D01*
X126213608Y-111855685D01*
X126252642Y-112030810D01*
X126284687Y-112174340D01*
X126325354Y-112356654D01*
X126363922Y-112530140D01*
X126399840Y-112692273D01*
X126432553Y-112840529D01*
X126461509Y-112972385D01*
X126486155Y-113085316D01*
X126505938Y-113176798D01*
X126520304Y-113244307D01*
X126528700Y-113285319D01*
X126530750Y-113297276D01*
X126523554Y-113307598D01*
X126498872Y-113314213D01*
X126452059Y-113317759D01*
X126378469Y-113318871D01*
X126373069Y-113318875D01*
X126299838Y-113318191D01*
X126252424Y-113315480D01*
X126224912Y-113309750D01*
X126211385Y-113300010D01*
X126207301Y-113291093D01*
X126201396Y-113265907D01*
X126190815Y-113216111D01*
X126176916Y-113148268D01*
X126161058Y-113068938D01*
X126156348Y-113045031D01*
X126113483Y-112826750D01*
X125676894Y-112826750D01*
X125631277Y-113068843D01*
X125585659Y-113310937D01*
X125423204Y-113315461D01*
X125355689Y-113316208D01*
X125301791Y-113314648D01*
X125268173Y-113311105D01*
X125260264Y-113307524D01*
X125263545Y-113290360D01*
X125273189Y-113244678D01*
X125288654Y-113172953D01*
X125309398Y-113077656D01*
X125334877Y-112961259D01*
X125364550Y-112826237D01*
X125397875Y-112675062D01*
X125434309Y-112510206D01*
X125435357Y-112505473D01*
X125739340Y-112505473D01*
X125744221Y-112515813D01*
X125762026Y-112521689D01*
X125798186Y-112524362D01*
X125858131Y-112525093D01*
X125895750Y-112525125D01*
X125968643Y-112524871D01*
X126015204Y-112523268D01*
X126040852Y-112519055D01*
X126051004Y-112510971D01*
X126051078Y-112497754D01*
X126049172Y-112489406D01*
X126043720Y-112463804D01*
X126033348Y-112412041D01*
X126019041Y-112339152D01*
X126001783Y-112250174D01*
X125982560Y-112150140D01*
X125973832Y-112104437D01*
X125954156Y-112002960D01*
X125935896Y-111912062D01*
X125920028Y-111836352D01*
X125907533Y-111780442D01*
X125899387Y-111748942D01*
X125897321Y-111743859D01*
X125891698Y-111755444D01*
X125881307Y-111794092D01*
X125867087Y-111855632D01*
X125849974Y-111935893D01*
X125830904Y-112030706D01*
X125818863Y-112093109D01*
X125798860Y-112198017D01*
X125780420Y-112294060D01*
X125764501Y-112376302D01*
X125752059Y-112439807D01*
X125744054Y-112479640D01*
X125741951Y-112489406D01*
X125739340Y-112505473D01*
X125435357Y-112505473D01*
X125473309Y-112334142D01*
X125509321Y-112171906D01*
X125758862Y-111048750D01*
X125898743Y-111048750D01*
X125960937Y-111050022D01*
G36*
X125193856Y-111203531D02*
G01*
X125189312Y-111358312D01*
X124867843Y-111362609D01*
X124546375Y-111366907D01*
X124546375Y-112017125D01*
X125119024Y-112017125D01*
X125114481Y-112171906D01*
X125109937Y-112326687D01*
X124546375Y-112335357D01*
X124546375Y-112985500D01*
X125197250Y-112985500D01*
X125197250Y-113318875D01*
X124228875Y-113318875D01*
X124228875Y-111048750D01*
X125198399Y-111048750D01*
X125193856Y-111203531D01*
G37*
X125193856Y-111203531D02*
X125189312Y-111358312D01*
X124867843Y-111362609D01*
X124546375Y-111366907D01*
X124546375Y-112017125D01*
X125119024Y-112017125D01*
X125114481Y-112171906D01*
X125109937Y-112326687D01*
X124546375Y-112335357D01*
X124546375Y-112985500D01*
X125197250Y-112985500D01*
X125197250Y-113318875D01*
X124228875Y-113318875D01*
X124228875Y-111048750D01*
X125198399Y-111048750D01*
X125193856Y-111203531D01*
G36*
X123330718Y-111057050D02*
G01*
X123421633Y-111058356D01*
X123490437Y-111060931D01*
X123541944Y-111065102D01*
X123580971Y-111071196D01*
X123612335Y-111079539D01*
X123626889Y-111084748D01*
X123732619Y-111138517D01*
X123817026Y-111211087D01*
X123881664Y-111304730D01*
X123928088Y-111421714D01*
X123957853Y-111564312D01*
X123958510Y-111569049D01*
X123966987Y-111690949D01*
X123961233Y-111816284D01*
X123942432Y-111934771D01*
X123911766Y-112036127D01*
X123902318Y-112057724D01*
X123871822Y-112109115D01*
X123829399Y-112164490D01*
X123782345Y-112215807D01*
X123737954Y-112255025D01*
X123706927Y-112273128D01*
X123705136Y-112287087D01*
X123712842Y-112325353D01*
X123730352Y-112388946D01*
X123757970Y-112478886D01*
X123796001Y-112596194D01*
X123844749Y-112741890D01*
X123862872Y-112795292D01*
X123904119Y-112916592D01*
X123941917Y-113027965D01*
X123975095Y-113125941D01*
X124002480Y-113207052D01*
X124022902Y-113267827D01*
X124035189Y-113304799D01*
X124038373Y-113314906D01*
X124023570Y-113316505D01*
X123983443Y-113317795D01*
X123924417Y-113318631D01*
X123864710Y-113318875D01*
X123691046Y-113318875D01*
X123650800Y-113187906D01*
X123633972Y-113133396D01*
X123609726Y-113055204D01*
X123580119Y-112959946D01*
X123547211Y-112854245D01*
X123513058Y-112744718D01*
X123501498Y-112707687D01*
X123392441Y-112358437D01*
X123294720Y-112353711D01*
X123197000Y-112348984D01*
X123197000Y-113318875D01*
X123037751Y-113318875D01*
X122956053Y-113317387D01*
X122903037Y-113312693D01*
X122875766Y-113304443D01*
X122870924Y-113299031D01*
X122869719Y-113280215D01*
X122868689Y-113232250D01*
X122867840Y-113157738D01*
X122867182Y-113059280D01*
X122866722Y-112939476D01*
X122866468Y-112800928D01*
X122866428Y-112646237D01*
X122866610Y-112478004D01*
X122867022Y-112298829D01*
X122867453Y-112167937D01*
X122867818Y-112069076D01*
X123197000Y-112069076D01*
X123344750Y-112061347D01*
X123432037Y-112054289D01*
X123493086Y-112043128D01*
X123533257Y-112026848D01*
X123536061Y-112025077D01*
X123578054Y-111987829D01*
X123607279Y-111936609D01*
X123626073Y-111865579D01*
X123636407Y-111774213D01*
X123637940Y-111642632D01*
X123622385Y-111536730D01*
X123589844Y-111456982D01*
X123560481Y-111420205D01*
X123536424Y-111398994D01*
X123512423Y-111385212D01*
X123480719Y-111376918D01*
X123433549Y-111372169D01*
X123363152Y-111369025D01*
X123354742Y-111368731D01*
X123197000Y-111363274D01*
X123197000Y-112069076D01*
X122867818Y-112069076D01*
X122871562Y-111056687D01*
X123212875Y-111056687D01*
X123330718Y-111057050D01*
G37*
X123330718Y-111057050D02*
X123421633Y-111058356D01*
X123490437Y-111060931D01*
X123541944Y-111065102D01*
X123580971Y-111071196D01*
X123612335Y-111079539D01*
X123626889Y-111084748D01*
X123732619Y-111138517D01*
X123817026Y-111211087D01*
X123881664Y-111304730D01*
X123928088Y-111421714D01*
X123957853Y-111564312D01*
X123958510Y-111569049D01*
X123966987Y-111690949D01*
X123961233Y-111816284D01*
X123942432Y-111934771D01*
X123911766Y-112036127D01*
X123902318Y-112057724D01*
X123871822Y-112109115D01*
X123829399Y-112164490D01*
X123782345Y-112215807D01*
X123737954Y-112255025D01*
X123706927Y-112273128D01*
X123705136Y-112287087D01*
X123712842Y-112325353D01*
X123730352Y-112388946D01*
X123757970Y-112478886D01*
X123796001Y-112596194D01*
X123844749Y-112741890D01*
X123862872Y-112795292D01*
X123904119Y-112916592D01*
X123941917Y-113027965D01*
X123975095Y-113125941D01*
X124002480Y-113207052D01*
X124022902Y-113267827D01*
X124035189Y-113304799D01*
X124038373Y-113314906D01*
X124023570Y-113316505D01*
X123983443Y-113317795D01*
X123924417Y-113318631D01*
X123864710Y-113318875D01*
X123691046Y-113318875D01*
X123650800Y-113187906D01*
X123633972Y-113133396D01*
X123609726Y-113055204D01*
X123580119Y-112959946D01*
X123547211Y-112854245D01*
X123513058Y-112744718D01*
X123501498Y-112707687D01*
X123392441Y-112358437D01*
X123294720Y-112353711D01*
X123197000Y-112348984D01*
X123197000Y-113318875D01*
X123037751Y-113318875D01*
X122956053Y-113317387D01*
X122903037Y-113312693D01*
X122875766Y-113304443D01*
X122870924Y-113299031D01*
X122869719Y-113280215D01*
X122868689Y-113232250D01*
X122867840Y-113157738D01*
X122867182Y-113059280D01*
X122866722Y-112939476D01*
X122866468Y-112800928D01*
X122866428Y-112646237D01*
X122866610Y-112478004D01*
X122867022Y-112298829D01*
X122867453Y-112167937D01*
X122867818Y-112069076D01*
X123197000Y-112069076D01*
X123344750Y-112061347D01*
X123432037Y-112054289D01*
X123493086Y-112043128D01*
X123533257Y-112026848D01*
X123536061Y-112025077D01*
X123578054Y-111987829D01*
X123607279Y-111936609D01*
X123626073Y-111865579D01*
X123636407Y-111774213D01*
X123637940Y-111642632D01*
X123622385Y-111536730D01*
X123589844Y-111456982D01*
X123560481Y-111420205D01*
X123536424Y-111398994D01*
X123512423Y-111385212D01*
X123480719Y-111376918D01*
X123433549Y-111372169D01*
X123363152Y-111369025D01*
X123354742Y-111368731D01*
X123197000Y-111363274D01*
X123197000Y-112069076D01*
X122867818Y-112069076D01*
X122871562Y-111056687D01*
X123212875Y-111056687D01*
X123330718Y-111057050D01*
G36*
X122161313Y-111041925D02*
G01*
X122215817Y-111046578D01*
X122259913Y-111056739D01*
X122304254Y-111074380D01*
X122327666Y-111085549D01*
X122429571Y-111152375D01*
X122509127Y-111241288D01*
X122565707Y-111351217D01*
X122598680Y-111481089D01*
X122606530Y-111560718D01*
X122613508Y-111699625D01*
X122276250Y-111699625D01*
X122276250Y-111603586D01*
X122266134Y-111508086D01*
X122236009Y-111436702D01*
X122186206Y-111389850D01*
X122117059Y-111367947D01*
X122087055Y-111366250D01*
X122009546Y-111376021D01*
X121954119Y-111406526D01*
X121919827Y-111454192D01*
X121913358Y-111483906D01*
X121907752Y-111541209D01*
X121903015Y-111621951D01*
X121899153Y-111721981D01*
X121896171Y-111837151D01*
X121894077Y-111963309D01*
X121892875Y-112096307D01*
X121892572Y-112231995D01*
X121893173Y-112366222D01*
X121894686Y-112494839D01*
X121897115Y-112613696D01*
X121900467Y-112718643D01*
X121904747Y-112805531D01*
X121909963Y-112870209D01*
X121916119Y-112908527D01*
X121917718Y-112913294D01*
X121945390Y-112960267D01*
X121984855Y-112987863D01*
X122043418Y-112999943D01*
X122084455Y-113001375D01*
X122140698Y-112997457D01*
X122181376Y-112982104D01*
X122215281Y-112956112D01*
X122242015Y-112929390D01*
X122258330Y-112901919D01*
X122267824Y-112863905D01*
X122274096Y-112805553D01*
X122275062Y-112793394D01*
X122284187Y-112675937D01*
X122609625Y-112666889D01*
X122609625Y-112785911D01*
X122595141Y-112920770D01*
X122552630Y-113042373D01*
X122483496Y-113148310D01*
X122389147Y-113236170D01*
X122322075Y-113278634D01*
X122230108Y-113313600D01*
X122121966Y-113330438D01*
X122008088Y-113328342D01*
X121912018Y-113310361D01*
X121811643Y-113271239D01*
X121728732Y-113212833D01*
X121657885Y-113130568D01*
X121612903Y-113056937D01*
X121569812Y-112977562D01*
X121569812Y-111405937D01*
X121614436Y-111315065D01*
X121678768Y-111216701D01*
X121767915Y-111134881D01*
X121858499Y-111079860D01*
X121900816Y-111060653D01*
X121942396Y-111048894D01*
X121993184Y-111042873D01*
X122063126Y-111040881D01*
X122085750Y-111040812D01*
X122161313Y-111041925D01*
G37*
X122161313Y-111041925D02*
X122215817Y-111046578D01*
X122259913Y-111056739D01*
X122304254Y-111074380D01*
X122327666Y-111085549D01*
X122429571Y-111152375D01*
X122509127Y-111241288D01*
X122565707Y-111351217D01*
X122598680Y-111481089D01*
X122606530Y-111560718D01*
X122613508Y-111699625D01*
X122276250Y-111699625D01*
X122276250Y-111603586D01*
X122266134Y-111508086D01*
X122236009Y-111436702D01*
X122186206Y-111389850D01*
X122117059Y-111367947D01*
X122087055Y-111366250D01*
X122009546Y-111376021D01*
X121954119Y-111406526D01*
X121919827Y-111454192D01*
X121913358Y-111483906D01*
X121907752Y-111541209D01*
X121903015Y-111621951D01*
X121899153Y-111721981D01*
X121896171Y-111837151D01*
X121894077Y-111963309D01*
X121892875Y-112096307D01*
X121892572Y-112231995D01*
X121893173Y-112366222D01*
X121894686Y-112494839D01*
X121897115Y-112613696D01*
X121900467Y-112718643D01*
X121904747Y-112805531D01*
X121909963Y-112870209D01*
X121916119Y-112908527D01*
X121917718Y-112913294D01*
X121945390Y-112960267D01*
X121984855Y-112987863D01*
X122043418Y-112999943D01*
X122084455Y-113001375D01*
X122140698Y-112997457D01*
X122181376Y-112982104D01*
X122215281Y-112956112D01*
X122242015Y-112929390D01*
X122258330Y-112901919D01*
X122267824Y-112863905D01*
X122274096Y-112805553D01*
X122275062Y-112793394D01*
X122284187Y-112675937D01*
X122609625Y-112666889D01*
X122609625Y-112785911D01*
X122595141Y-112920770D01*
X122552630Y-113042373D01*
X122483496Y-113148310D01*
X122389147Y-113236170D01*
X122322075Y-113278634D01*
X122230108Y-113313600D01*
X122121966Y-113330438D01*
X122008088Y-113328342D01*
X121912018Y-113310361D01*
X121811643Y-113271239D01*
X121728732Y-113212833D01*
X121657885Y-113130568D01*
X121612903Y-113056937D01*
X121569812Y-112977562D01*
X121569812Y-111405937D01*
X121614436Y-111315065D01*
X121678768Y-111216701D01*
X121767915Y-111134881D01*
X121858499Y-111079860D01*
X121900816Y-111060653D01*
X121942396Y-111048894D01*
X121993184Y-111042873D01*
X122063126Y-111040881D01*
X122085750Y-111040812D01*
X122161313Y-111041925D01*
D11*
%TO.C,J6*%
X116690000Y-99340000D02*
X119350000Y-99340000D01*
X116690000Y-96740000D02*
X116690000Y-99340000D01*
X119350000Y-96740000D02*
X119350000Y-99340000D01*
X116690000Y-96740000D02*
X119350000Y-96740000D01*
X116690000Y-95470000D02*
X116690000Y-94140000D01*
X116690000Y-94140000D02*
X118020000Y-94140000D01*
%TO.C,J2*%
X133530000Y-88870000D02*
X133530000Y-90200000D01*
X133530000Y-90200000D02*
X132200000Y-90200000D01*
X130930000Y-90200000D02*
X113090000Y-90200000D01*
X113090000Y-87540000D02*
X113090000Y-90200000D01*
X130930000Y-87540000D02*
X113090000Y-87540000D01*
X130930000Y-87540000D02*
X130930000Y-90200000D01*
%TO.C,J8*%
X118240000Y-104180000D02*
X115640000Y-104180000D01*
X118240000Y-106840000D02*
X153860000Y-106840000D01*
X153860000Y-106840000D02*
X153860000Y-104180000D01*
X118240000Y-104180000D02*
X153860000Y-104180000D01*
X115640000Y-106840000D02*
X115640000Y-104180000D01*
X118280000Y-106840000D02*
X115640000Y-106840000D01*
%TO.C,J3*%
X113090000Y-101570000D02*
X113090000Y-102900000D01*
X115690000Y-102900000D02*
X113100000Y-102900000D01*
X115690000Y-100240000D02*
X114420000Y-100240000D01*
X113090000Y-101570000D02*
X113090000Y-100240000D01*
X113090000Y-100240000D02*
X114420000Y-100240000D01*
X115690000Y-100240000D02*
X133530000Y-100240000D01*
X133530000Y-102900000D02*
X133530000Y-100240000D01*
X115690000Y-102900000D02*
X133530000Y-102900000D01*
%TO.C,J13*%
X138470000Y-102910000D02*
X138470000Y-102620000D01*
X141070000Y-102910000D02*
X138470000Y-102910000D01*
X138470000Y-101580000D02*
X138470000Y-102860000D01*
X141070000Y-100250000D02*
X139800000Y-100250000D01*
X141070000Y-102910000D02*
X158910000Y-102910000D01*
X158910000Y-102910000D02*
X158910000Y-100250000D01*
X141070000Y-100250000D02*
X158910000Y-100250000D01*
X138470000Y-100250000D02*
X139800000Y-100250000D01*
X138470000Y-101580000D02*
X138470000Y-100250000D01*
%TO.C,J1*%
X128140000Y-71770000D02*
X128140000Y-74370000D01*
X113440000Y-71770000D02*
X128140000Y-71770000D01*
X128140000Y-80970000D02*
X126240000Y-80970000D01*
X128140000Y-78270000D02*
X128140000Y-80970000D01*
X113440000Y-80970000D02*
X113440000Y-71770000D01*
X122240000Y-80970000D02*
X113440000Y-80970000D01*
%TO.C,C3*%
X147479775Y-75975000D02*
X147479775Y-75475000D01*
X147729775Y-75725000D02*
X147229775Y-75725000D01*
X142324000Y-74534000D02*
X142324000Y-73966000D01*
X142364000Y-74768000D02*
X142364000Y-73732000D01*
X142404000Y-74927000D02*
X142404000Y-73573000D01*
X142444000Y-75055000D02*
X142444000Y-73445000D01*
X142484000Y-75165000D02*
X142484000Y-73335000D01*
X142524000Y-75261000D02*
X142524000Y-73239000D01*
X142564000Y-75348000D02*
X142564000Y-73152000D01*
X142604000Y-75428000D02*
X142604000Y-73072000D01*
X142644000Y-73210000D02*
X142644000Y-72999000D01*
X142644000Y-75501000D02*
X142644000Y-75290000D01*
X142684000Y-73210000D02*
X142684000Y-72931000D01*
X142684000Y-75569000D02*
X142684000Y-75290000D01*
X142724000Y-73210000D02*
X142724000Y-72867000D01*
X142724000Y-75633000D02*
X142724000Y-75290000D01*
X142764000Y-73210000D02*
X142764000Y-72807000D01*
X142764000Y-75693000D02*
X142764000Y-75290000D01*
X142804000Y-73210000D02*
X142804000Y-72750000D01*
X142804000Y-75750000D02*
X142804000Y-75290000D01*
X142844000Y-73210000D02*
X142844000Y-72696000D01*
X142844000Y-75804000D02*
X142844000Y-75290000D01*
X142884000Y-73210000D02*
X142884000Y-72645000D01*
X142884000Y-75855000D02*
X142884000Y-75290000D01*
X142924000Y-73210000D02*
X142924000Y-72597000D01*
X142924000Y-75903000D02*
X142924000Y-75290000D01*
X142964000Y-73210000D02*
X142964000Y-72551000D01*
X142964000Y-75949000D02*
X142964000Y-75290000D01*
X143004000Y-73210000D02*
X143004000Y-72507000D01*
X143004000Y-75993000D02*
X143004000Y-75290000D01*
X143044000Y-73210000D02*
X143044000Y-72465000D01*
X143044000Y-76035000D02*
X143044000Y-75290000D01*
X143084000Y-73210000D02*
X143084000Y-72424000D01*
X143084000Y-76076000D02*
X143084000Y-75290000D01*
X143124000Y-73210000D02*
X143124000Y-72386000D01*
X143124000Y-76114000D02*
X143124000Y-75290000D01*
X143164000Y-73210000D02*
X143164000Y-72349000D01*
X143164000Y-76151000D02*
X143164000Y-75290000D01*
X143204000Y-73210000D02*
X143204000Y-72313000D01*
X143204000Y-76187000D02*
X143204000Y-75290000D01*
X143244000Y-73210000D02*
X143244000Y-72279000D01*
X143244000Y-76221000D02*
X143244000Y-75290000D01*
X143284000Y-73210000D02*
X143284000Y-72246000D01*
X143284000Y-76254000D02*
X143284000Y-75290000D01*
X143324000Y-73210000D02*
X143324000Y-72215000D01*
X143324000Y-76285000D02*
X143324000Y-75290000D01*
X143364000Y-73210000D02*
X143364000Y-72185000D01*
X143364000Y-76315000D02*
X143364000Y-75290000D01*
X143404000Y-73210000D02*
X143404000Y-72155000D01*
X143404000Y-76345000D02*
X143404000Y-75290000D01*
X143444000Y-73210000D02*
X143444000Y-72128000D01*
X143444000Y-76372000D02*
X143444000Y-75290000D01*
X143484000Y-73210000D02*
X143484000Y-72101000D01*
X143484000Y-76399000D02*
X143484000Y-75290000D01*
X143524000Y-73210000D02*
X143524000Y-72075000D01*
X143524000Y-76425000D02*
X143524000Y-75290000D01*
X143564000Y-73210000D02*
X143564000Y-72050000D01*
X143564000Y-76450000D02*
X143564000Y-75290000D01*
X143604000Y-73210000D02*
X143604000Y-72026000D01*
X143604000Y-76474000D02*
X143604000Y-75290000D01*
X143644000Y-73210000D02*
X143644000Y-72003000D01*
X143644000Y-76497000D02*
X143644000Y-75290000D01*
X143684000Y-73210000D02*
X143684000Y-71982000D01*
X143684000Y-76518000D02*
X143684000Y-75290000D01*
X143724000Y-73210000D02*
X143724000Y-71960000D01*
X143724000Y-76540000D02*
X143724000Y-75290000D01*
X143764000Y-73210000D02*
X143764000Y-71940000D01*
X143764000Y-76560000D02*
X143764000Y-75290000D01*
X143804000Y-73210000D02*
X143804000Y-71921000D01*
X143804000Y-76579000D02*
X143804000Y-75290000D01*
X143844000Y-73210000D02*
X143844000Y-71902000D01*
X143844000Y-76598000D02*
X143844000Y-75290000D01*
X143884000Y-73210000D02*
X143884000Y-71885000D01*
X143884000Y-76615000D02*
X143884000Y-75290000D01*
X143924000Y-73210000D02*
X143924000Y-71868000D01*
X143924000Y-76632000D02*
X143924000Y-75290000D01*
X143964000Y-73210000D02*
X143964000Y-71852000D01*
X143964000Y-76648000D02*
X143964000Y-75290000D01*
X144004000Y-73210000D02*
X144004000Y-71836000D01*
X144004000Y-76664000D02*
X144004000Y-75290000D01*
X144044000Y-73210000D02*
X144044000Y-71822000D01*
X144044000Y-76678000D02*
X144044000Y-75290000D01*
X144084000Y-73210000D02*
X144084000Y-71808000D01*
X144084000Y-76692000D02*
X144084000Y-75290000D01*
X144124000Y-73210000D02*
X144124000Y-71795000D01*
X144124000Y-76705000D02*
X144124000Y-75290000D01*
X144164000Y-73210000D02*
X144164000Y-71782000D01*
X144164000Y-76718000D02*
X144164000Y-75290000D01*
X144204000Y-73210000D02*
X144204000Y-71770000D01*
X144204000Y-76730000D02*
X144204000Y-75290000D01*
X144245000Y-73210000D02*
X144245000Y-71759000D01*
X144245000Y-76741000D02*
X144245000Y-75290000D01*
X144285000Y-73210000D02*
X144285000Y-71749000D01*
X144285000Y-76751000D02*
X144285000Y-75290000D01*
X144325000Y-73210000D02*
X144325000Y-71739000D01*
X144325000Y-76761000D02*
X144325000Y-75290000D01*
X144365000Y-73210000D02*
X144365000Y-71730000D01*
X144365000Y-76770000D02*
X144365000Y-75290000D01*
X144405000Y-73210000D02*
X144405000Y-71722000D01*
X144405000Y-76778000D02*
X144405000Y-75290000D01*
X144445000Y-73210000D02*
X144445000Y-71714000D01*
X144445000Y-76786000D02*
X144445000Y-75290000D01*
X144485000Y-73210000D02*
X144485000Y-71707000D01*
X144485000Y-76793000D02*
X144485000Y-75290000D01*
X144525000Y-73210000D02*
X144525000Y-71700000D01*
X144525000Y-76800000D02*
X144525000Y-75290000D01*
X144565000Y-73210000D02*
X144565000Y-71694000D01*
X144565000Y-76806000D02*
X144565000Y-75290000D01*
X144605000Y-73210000D02*
X144605000Y-71689000D01*
X144605000Y-76811000D02*
X144605000Y-75290000D01*
X144645000Y-73210000D02*
X144645000Y-71685000D01*
X144645000Y-76815000D02*
X144645000Y-75290000D01*
X144685000Y-73210000D02*
X144685000Y-71681000D01*
X144685000Y-76819000D02*
X144685000Y-75290000D01*
X144725000Y-76823000D02*
X144725000Y-71677000D01*
X144765000Y-76826000D02*
X144765000Y-71674000D01*
X144805000Y-76828000D02*
X144805000Y-71672000D01*
X144845000Y-76829000D02*
X144845000Y-71671000D01*
X144885000Y-76830000D02*
X144885000Y-71670000D01*
X144925000Y-76830000D02*
X144925000Y-71670000D01*
X147545000Y-74250000D02*
G75*
G03*
X147545000Y-74250000I-2620000J0D01*
G01*
%TO.C,C2*%
X154585000Y-86534775D02*
X155085000Y-86534775D01*
X154835000Y-86784775D02*
X154835000Y-86284775D01*
X156026000Y-81379000D02*
X156594000Y-81379000D01*
X155792000Y-81419000D02*
X156828000Y-81419000D01*
X155633000Y-81459000D02*
X156987000Y-81459000D01*
X155505000Y-81499000D02*
X157115000Y-81499000D01*
X155395000Y-81539000D02*
X157225000Y-81539000D01*
X155299000Y-81579000D02*
X157321000Y-81579000D01*
X155212000Y-81619000D02*
X157408000Y-81619000D01*
X155132000Y-81659000D02*
X157488000Y-81659000D01*
X157350000Y-81699000D02*
X157561000Y-81699000D01*
X155059000Y-81699000D02*
X155270000Y-81699000D01*
X157350000Y-81739000D02*
X157629000Y-81739000D01*
X154991000Y-81739000D02*
X155270000Y-81739000D01*
X157350000Y-81779000D02*
X157693000Y-81779000D01*
X154927000Y-81779000D02*
X155270000Y-81779000D01*
X157350000Y-81819000D02*
X157753000Y-81819000D01*
X154867000Y-81819000D02*
X155270000Y-81819000D01*
X157350000Y-81859000D02*
X157810000Y-81859000D01*
X154810000Y-81859000D02*
X155270000Y-81859000D01*
X157350000Y-81899000D02*
X157864000Y-81899000D01*
X154756000Y-81899000D02*
X155270000Y-81899000D01*
X157350000Y-81939000D02*
X157915000Y-81939000D01*
X154705000Y-81939000D02*
X155270000Y-81939000D01*
X157350000Y-81979000D02*
X157963000Y-81979000D01*
X154657000Y-81979000D02*
X155270000Y-81979000D01*
X157350000Y-82019000D02*
X158009000Y-82019000D01*
X154611000Y-82019000D02*
X155270000Y-82019000D01*
X157350000Y-82059000D02*
X158053000Y-82059000D01*
X154567000Y-82059000D02*
X155270000Y-82059000D01*
X157350000Y-82099000D02*
X158095000Y-82099000D01*
X154525000Y-82099000D02*
X155270000Y-82099000D01*
X157350000Y-82139000D02*
X158136000Y-82139000D01*
X154484000Y-82139000D02*
X155270000Y-82139000D01*
X157350000Y-82179000D02*
X158174000Y-82179000D01*
X154446000Y-82179000D02*
X155270000Y-82179000D01*
X157350000Y-82219000D02*
X158211000Y-82219000D01*
X154409000Y-82219000D02*
X155270000Y-82219000D01*
X157350000Y-82259000D02*
X158247000Y-82259000D01*
X154373000Y-82259000D02*
X155270000Y-82259000D01*
X157350000Y-82299000D02*
X158281000Y-82299000D01*
X154339000Y-82299000D02*
X155270000Y-82299000D01*
X157350000Y-82339000D02*
X158314000Y-82339000D01*
X154306000Y-82339000D02*
X155270000Y-82339000D01*
X157350000Y-82379000D02*
X158345000Y-82379000D01*
X154275000Y-82379000D02*
X155270000Y-82379000D01*
X157350000Y-82419000D02*
X158375000Y-82419000D01*
X154245000Y-82419000D02*
X155270000Y-82419000D01*
X157350000Y-82459000D02*
X158405000Y-82459000D01*
X154215000Y-82459000D02*
X155270000Y-82459000D01*
X157350000Y-82499000D02*
X158432000Y-82499000D01*
X154188000Y-82499000D02*
X155270000Y-82499000D01*
X157350000Y-82539000D02*
X158459000Y-82539000D01*
X154161000Y-82539000D02*
X155270000Y-82539000D01*
X157350000Y-82579000D02*
X158485000Y-82579000D01*
X154135000Y-82579000D02*
X155270000Y-82579000D01*
X157350000Y-82619000D02*
X158510000Y-82619000D01*
X154110000Y-82619000D02*
X155270000Y-82619000D01*
X157350000Y-82659000D02*
X158534000Y-82659000D01*
X154086000Y-82659000D02*
X155270000Y-82659000D01*
X157350000Y-82699000D02*
X158557000Y-82699000D01*
X154063000Y-82699000D02*
X155270000Y-82699000D01*
X157350000Y-82739000D02*
X158578000Y-82739000D01*
X154042000Y-82739000D02*
X155270000Y-82739000D01*
X157350000Y-82779000D02*
X158600000Y-82779000D01*
X154020000Y-82779000D02*
X155270000Y-82779000D01*
X157350000Y-82819000D02*
X158620000Y-82819000D01*
X154000000Y-82819000D02*
X155270000Y-82819000D01*
X157350000Y-82859000D02*
X158639000Y-82859000D01*
X153981000Y-82859000D02*
X155270000Y-82859000D01*
X157350000Y-82899000D02*
X158658000Y-82899000D01*
X153962000Y-82899000D02*
X155270000Y-82899000D01*
X157350000Y-82939000D02*
X158675000Y-82939000D01*
X153945000Y-82939000D02*
X155270000Y-82939000D01*
X157350000Y-82979000D02*
X158692000Y-82979000D01*
X153928000Y-82979000D02*
X155270000Y-82979000D01*
X157350000Y-83019000D02*
X158708000Y-83019000D01*
X153912000Y-83019000D02*
X155270000Y-83019000D01*
X157350000Y-83059000D02*
X158724000Y-83059000D01*
X153896000Y-83059000D02*
X155270000Y-83059000D01*
X157350000Y-83099000D02*
X158738000Y-83099000D01*
X153882000Y-83099000D02*
X155270000Y-83099000D01*
X157350000Y-83139000D02*
X158752000Y-83139000D01*
X153868000Y-83139000D02*
X155270000Y-83139000D01*
X157350000Y-83179000D02*
X158765000Y-83179000D01*
X153855000Y-83179000D02*
X155270000Y-83179000D01*
X157350000Y-83219000D02*
X158778000Y-83219000D01*
X153842000Y-83219000D02*
X155270000Y-83219000D01*
X157350000Y-83259000D02*
X158790000Y-83259000D01*
X153830000Y-83259000D02*
X155270000Y-83259000D01*
X157350000Y-83300000D02*
X158801000Y-83300000D01*
X153819000Y-83300000D02*
X155270000Y-83300000D01*
X157350000Y-83340000D02*
X158811000Y-83340000D01*
X153809000Y-83340000D02*
X155270000Y-83340000D01*
X157350000Y-83380000D02*
X158821000Y-83380000D01*
X153799000Y-83380000D02*
X155270000Y-83380000D01*
X157350000Y-83420000D02*
X158830000Y-83420000D01*
X153790000Y-83420000D02*
X155270000Y-83420000D01*
X157350000Y-83460000D02*
X158838000Y-83460000D01*
X153782000Y-83460000D02*
X155270000Y-83460000D01*
X157350000Y-83500000D02*
X158846000Y-83500000D01*
X153774000Y-83500000D02*
X155270000Y-83500000D01*
X157350000Y-83540000D02*
X158853000Y-83540000D01*
X153767000Y-83540000D02*
X155270000Y-83540000D01*
X157350000Y-83580000D02*
X158860000Y-83580000D01*
X153760000Y-83580000D02*
X155270000Y-83580000D01*
X157350000Y-83620000D02*
X158866000Y-83620000D01*
X153754000Y-83620000D02*
X155270000Y-83620000D01*
X157350000Y-83660000D02*
X158871000Y-83660000D01*
X153749000Y-83660000D02*
X155270000Y-83660000D01*
X157350000Y-83700000D02*
X158875000Y-83700000D01*
X153745000Y-83700000D02*
X155270000Y-83700000D01*
X157350000Y-83740000D02*
X158879000Y-83740000D01*
X153741000Y-83740000D02*
X155270000Y-83740000D01*
X153737000Y-83780000D02*
X158883000Y-83780000D01*
X153734000Y-83820000D02*
X158886000Y-83820000D01*
X153732000Y-83860000D02*
X158888000Y-83860000D01*
X153731000Y-83900000D02*
X158889000Y-83900000D01*
X153730000Y-83940000D02*
X158890000Y-83940000D01*
X153730000Y-83980000D02*
X158890000Y-83980000D01*
X158930000Y-83980000D02*
G75*
G03*
X158930000Y-83980000I-2620000J0D01*
G01*
%TO.C,C1*%
X129205000Y-86534775D02*
X129705000Y-86534775D01*
X129455000Y-86784775D02*
X129455000Y-86284775D01*
X130646000Y-81379000D02*
X131214000Y-81379000D01*
X130412000Y-81419000D02*
X131448000Y-81419000D01*
X130253000Y-81459000D02*
X131607000Y-81459000D01*
X130125000Y-81499000D02*
X131735000Y-81499000D01*
X130015000Y-81539000D02*
X131845000Y-81539000D01*
X129919000Y-81579000D02*
X131941000Y-81579000D01*
X129832000Y-81619000D02*
X132028000Y-81619000D01*
X129752000Y-81659000D02*
X132108000Y-81659000D01*
X131970000Y-81699000D02*
X132181000Y-81699000D01*
X129679000Y-81699000D02*
X129890000Y-81699000D01*
X131970000Y-81739000D02*
X132249000Y-81739000D01*
X129611000Y-81739000D02*
X129890000Y-81739000D01*
X131970000Y-81779000D02*
X132313000Y-81779000D01*
X129547000Y-81779000D02*
X129890000Y-81779000D01*
X131970000Y-81819000D02*
X132373000Y-81819000D01*
X129487000Y-81819000D02*
X129890000Y-81819000D01*
X131970000Y-81859000D02*
X132430000Y-81859000D01*
X129430000Y-81859000D02*
X129890000Y-81859000D01*
X131970000Y-81899000D02*
X132484000Y-81899000D01*
X129376000Y-81899000D02*
X129890000Y-81899000D01*
X131970000Y-81939000D02*
X132535000Y-81939000D01*
X129325000Y-81939000D02*
X129890000Y-81939000D01*
X131970000Y-81979000D02*
X132583000Y-81979000D01*
X129277000Y-81979000D02*
X129890000Y-81979000D01*
X131970000Y-82019000D02*
X132629000Y-82019000D01*
X129231000Y-82019000D02*
X129890000Y-82019000D01*
X131970000Y-82059000D02*
X132673000Y-82059000D01*
X129187000Y-82059000D02*
X129890000Y-82059000D01*
X131970000Y-82099000D02*
X132715000Y-82099000D01*
X129145000Y-82099000D02*
X129890000Y-82099000D01*
X131970000Y-82139000D02*
X132756000Y-82139000D01*
X129104000Y-82139000D02*
X129890000Y-82139000D01*
X131970000Y-82179000D02*
X132794000Y-82179000D01*
X129066000Y-82179000D02*
X129890000Y-82179000D01*
X131970000Y-82219000D02*
X132831000Y-82219000D01*
X129029000Y-82219000D02*
X129890000Y-82219000D01*
X131970000Y-82259000D02*
X132867000Y-82259000D01*
X128993000Y-82259000D02*
X129890000Y-82259000D01*
X131970000Y-82299000D02*
X132901000Y-82299000D01*
X128959000Y-82299000D02*
X129890000Y-82299000D01*
X131970000Y-82339000D02*
X132934000Y-82339000D01*
X128926000Y-82339000D02*
X129890000Y-82339000D01*
X131970000Y-82379000D02*
X132965000Y-82379000D01*
X128895000Y-82379000D02*
X129890000Y-82379000D01*
X131970000Y-82419000D02*
X132995000Y-82419000D01*
X128865000Y-82419000D02*
X129890000Y-82419000D01*
X131970000Y-82459000D02*
X133025000Y-82459000D01*
X128835000Y-82459000D02*
X129890000Y-82459000D01*
X131970000Y-82499000D02*
X133052000Y-82499000D01*
X128808000Y-82499000D02*
X129890000Y-82499000D01*
X131970000Y-82539000D02*
X133079000Y-82539000D01*
X128781000Y-82539000D02*
X129890000Y-82539000D01*
X131970000Y-82579000D02*
X133105000Y-82579000D01*
X128755000Y-82579000D02*
X129890000Y-82579000D01*
X131970000Y-82619000D02*
X133130000Y-82619000D01*
X128730000Y-82619000D02*
X129890000Y-82619000D01*
X131970000Y-82659000D02*
X133154000Y-82659000D01*
X128706000Y-82659000D02*
X129890000Y-82659000D01*
X131970000Y-82699000D02*
X133177000Y-82699000D01*
X128683000Y-82699000D02*
X129890000Y-82699000D01*
X131970000Y-82739000D02*
X133198000Y-82739000D01*
X128662000Y-82739000D02*
X129890000Y-82739000D01*
X131970000Y-82779000D02*
X133220000Y-82779000D01*
X128640000Y-82779000D02*
X129890000Y-82779000D01*
X131970000Y-82819000D02*
X133240000Y-82819000D01*
X128620000Y-82819000D02*
X129890000Y-82819000D01*
X131970000Y-82859000D02*
X133259000Y-82859000D01*
X128601000Y-82859000D02*
X129890000Y-82859000D01*
X131970000Y-82899000D02*
X133278000Y-82899000D01*
X128582000Y-82899000D02*
X129890000Y-82899000D01*
X131970000Y-82939000D02*
X133295000Y-82939000D01*
X128565000Y-82939000D02*
X129890000Y-82939000D01*
X131970000Y-82979000D02*
X133312000Y-82979000D01*
X128548000Y-82979000D02*
X129890000Y-82979000D01*
X131970000Y-83019000D02*
X133328000Y-83019000D01*
X128532000Y-83019000D02*
X129890000Y-83019000D01*
X131970000Y-83059000D02*
X133344000Y-83059000D01*
X128516000Y-83059000D02*
X129890000Y-83059000D01*
X131970000Y-83099000D02*
X133358000Y-83099000D01*
X128502000Y-83099000D02*
X129890000Y-83099000D01*
X131970000Y-83139000D02*
X133372000Y-83139000D01*
X128488000Y-83139000D02*
X129890000Y-83139000D01*
X131970000Y-83179000D02*
X133385000Y-83179000D01*
X128475000Y-83179000D02*
X129890000Y-83179000D01*
X131970000Y-83219000D02*
X133398000Y-83219000D01*
X128462000Y-83219000D02*
X129890000Y-83219000D01*
X131970000Y-83259000D02*
X133410000Y-83259000D01*
X128450000Y-83259000D02*
X129890000Y-83259000D01*
X131970000Y-83300000D02*
X133421000Y-83300000D01*
X128439000Y-83300000D02*
X129890000Y-83300000D01*
X131970000Y-83340000D02*
X133431000Y-83340000D01*
X128429000Y-83340000D02*
X129890000Y-83340000D01*
X131970000Y-83380000D02*
X133441000Y-83380000D01*
X128419000Y-83380000D02*
X129890000Y-83380000D01*
X131970000Y-83420000D02*
X133450000Y-83420000D01*
X128410000Y-83420000D02*
X129890000Y-83420000D01*
X131970000Y-83460000D02*
X133458000Y-83460000D01*
X128402000Y-83460000D02*
X129890000Y-83460000D01*
X131970000Y-83500000D02*
X133466000Y-83500000D01*
X128394000Y-83500000D02*
X129890000Y-83500000D01*
X131970000Y-83540000D02*
X133473000Y-83540000D01*
X128387000Y-83540000D02*
X129890000Y-83540000D01*
X131970000Y-83580000D02*
X133480000Y-83580000D01*
X128380000Y-83580000D02*
X129890000Y-83580000D01*
X131970000Y-83620000D02*
X133486000Y-83620000D01*
X128374000Y-83620000D02*
X129890000Y-83620000D01*
X131970000Y-83660000D02*
X133491000Y-83660000D01*
X128369000Y-83660000D02*
X129890000Y-83660000D01*
X131970000Y-83700000D02*
X133495000Y-83700000D01*
X128365000Y-83700000D02*
X129890000Y-83700000D01*
X131970000Y-83740000D02*
X133499000Y-83740000D01*
X128361000Y-83740000D02*
X129890000Y-83740000D01*
X128357000Y-83780000D02*
X133503000Y-83780000D01*
X128354000Y-83820000D02*
X133506000Y-83820000D01*
X128352000Y-83860000D02*
X133508000Y-83860000D01*
X128351000Y-83900000D02*
X133509000Y-83900000D01*
X128350000Y-83940000D02*
X133510000Y-83940000D01*
X128350000Y-83980000D02*
X133510000Y-83980000D01*
X133550000Y-83980000D02*
G75*
G03*
X133550000Y-83980000I-2620000J0D01*
G01*
%TO.C,J4*%
X148720000Y-83990000D02*
X148720000Y-85320000D01*
X147390000Y-83990000D02*
X148720000Y-83990000D01*
X146120000Y-83990000D02*
X146120000Y-86650000D01*
X146120000Y-86650000D02*
X138440000Y-86650000D01*
X146120000Y-83990000D02*
X138440000Y-83990000D01*
X138440000Y-83990000D02*
X138440000Y-86650000D01*
%TO.C,J9*%
X162988780Y-87248180D02*
X164318780Y-87248180D01*
X162988780Y-88578180D02*
X162988780Y-87248180D01*
X162988780Y-89848180D02*
X165648780Y-89848180D01*
X165648780Y-89848180D02*
X165648780Y-94988180D01*
X162988780Y-89848180D02*
X162988780Y-94988180D01*
X162988780Y-94988180D02*
X165648780Y-94988180D01*
%TO.C,J10*%
X153810000Y-120730000D02*
X153810000Y-122060000D01*
X153810000Y-122060000D02*
X152480000Y-122060000D01*
X151210000Y-122060000D02*
X115590000Y-122060000D01*
X115590000Y-119400000D02*
X115590000Y-122060000D01*
X151210000Y-119400000D02*
X115590000Y-119400000D01*
X151210000Y-119400000D02*
X151210000Y-122060000D01*
%TO.C,J11*%
X113100000Y-83940000D02*
X113100000Y-86600000D01*
X120780000Y-83940000D02*
X113100000Y-83940000D01*
X120780000Y-86600000D02*
X113100000Y-86600000D01*
X120780000Y-83940000D02*
X120780000Y-86600000D01*
X122050000Y-83940000D02*
X123380000Y-83940000D01*
X123380000Y-83940000D02*
X123380000Y-85270000D01*
%TO.C,J12*%
X158910000Y-88880000D02*
X158910000Y-90210000D01*
X158910000Y-90210000D02*
X157580000Y-90210000D01*
X156310000Y-90210000D02*
X138470000Y-90210000D01*
X138470000Y-87550000D02*
X138470000Y-90210000D01*
X156310000Y-87550000D02*
X138470000Y-87550000D01*
X156310000Y-87550000D02*
X156310000Y-90210000D01*
%TO.C,J5*%
X113090000Y-99340000D02*
X115750000Y-99340000D01*
X113090000Y-96740000D02*
X113090000Y-99340000D01*
X115750000Y-96740000D02*
X115750000Y-99340000D01*
X113090000Y-96740000D02*
X115750000Y-96740000D01*
X113090000Y-95470000D02*
X113090000Y-94140000D01*
X113090000Y-94140000D02*
X114420000Y-94140000D01*
%TO.C,J7*%
X120290000Y-94140000D02*
X121620000Y-94140000D01*
X120290000Y-95470000D02*
X120290000Y-94140000D01*
X120290000Y-96740000D02*
X122950000Y-96740000D01*
X122950000Y-96740000D02*
X122950000Y-99340000D01*
X120290000Y-96740000D02*
X120290000Y-99340000D01*
X120290000Y-99340000D02*
X122950000Y-99340000D01*
%TO.C,J14*%
X138470000Y-99350000D02*
X141130000Y-99350000D01*
X138470000Y-96750000D02*
X138470000Y-99350000D01*
X141130000Y-96750000D02*
X141130000Y-99350000D01*
X138470000Y-96750000D02*
X141130000Y-96750000D01*
X138470000Y-95480000D02*
X138470000Y-94150000D01*
X138470000Y-94150000D02*
X139800000Y-94150000D01*
%TO.C,J15*%
X142070000Y-99350000D02*
X144730000Y-99350000D01*
X142070000Y-96750000D02*
X142070000Y-99350000D01*
X144730000Y-96750000D02*
X144730000Y-99350000D01*
X142070000Y-96750000D02*
X144730000Y-96750000D01*
X142070000Y-95480000D02*
X142070000Y-94150000D01*
X142070000Y-94150000D02*
X143400000Y-94150000D01*
%TO.C,J16*%
X145670000Y-94150000D02*
X147000000Y-94150000D01*
X145670000Y-95480000D02*
X145670000Y-94150000D01*
X145670000Y-96750000D02*
X148330000Y-96750000D01*
X148330000Y-96750000D02*
X148330000Y-99350000D01*
X145670000Y-96750000D02*
X145670000Y-99350000D01*
X145670000Y-99350000D02*
X148330000Y-99350000D01*
D13*
%TO.C,U1*%
X141655000Y-71790000D02*
X141155000Y-71790000D01*
X141655000Y-71790000D02*
X141655000Y-72290000D01*
X129955000Y-71790000D02*
X130455000Y-71790000D01*
X129955000Y-71790000D02*
X129955000Y-72290000D01*
X129955000Y-80490000D02*
X129955000Y-79990000D01*
X129955000Y-80490000D02*
X130455000Y-80490000D01*
X141655000Y-80490000D02*
X141155000Y-80490000D01*
X141655000Y-80490000D02*
X141655000Y-79990000D01*
D11*
%TO.C,J17*%
X120970000Y-127980000D02*
X120970000Y-125320000D01*
X120970000Y-127980000D02*
X154050000Y-127980000D01*
X154050000Y-127980000D02*
X154050000Y-125320000D01*
X120970000Y-125320000D02*
X154050000Y-125320000D01*
X118370000Y-125320000D02*
X119700000Y-125320000D01*
X118370000Y-126650000D02*
X118370000Y-125320000D01*
%TO.C,M1*%
X148830000Y-77820000D02*
X148830000Y-71770000D01*
X148830000Y-71770000D02*
X156630000Y-71770000D01*
X156630000Y-71770000D02*
X156630000Y-77820000D01*
X156630000Y-77820000D02*
X148830000Y-77820000D01*
X150180000Y-77720000D02*
X150180000Y-76710000D01*
X150180000Y-76710000D02*
X155260000Y-76710000D01*
X155260000Y-76710000D02*
X155260000Y-77720000D01*
%TD*%
M02*
