%TF.GenerationSoftware,KiCad,Pcbnew,(5.1.6-0-10_14)*%
%TF.CreationDate,2020-05-27T15:33:41+01:00*%
%TF.ProjectId,Plotyx,506c6f74-7978-42e6-9b69-6361645f7063,rev?*%
%TF.SameCoordinates,Original*%
%TF.FileFunction,Legend,Bot*%
%TF.FilePolarity,Positive*%
%FSLAX46Y46*%
G04 Gerber Fmt 4.6, Leading zero omitted, Abs format (unit mm)*
G04 Created by KiCad (PCBNEW (5.1.6-0-10_14)) date 2020-05-27 15:33:41*
%MOMM*%
%LPD*%
G01*
G04 APERTURE LIST*
%ADD10C,0.150000*%
%ADD11C,0.120000*%
%ADD12C,0.010000*%
G04 APERTURE END LIST*
D10*
X144823333Y-124804285D02*
X144823333Y-124328095D01*
X144537619Y-124899523D02*
X145537619Y-124566190D01*
X144537619Y-124232857D01*
X145204285Y-123470952D02*
X144537619Y-123470952D01*
X145585238Y-123709047D02*
X144870952Y-123947142D01*
X144870952Y-123328095D01*
X142323333Y-124804285D02*
X142323333Y-124328095D01*
X142037619Y-124899523D02*
X143037619Y-124566190D01*
X142037619Y-124232857D01*
X143037619Y-123994761D02*
X143037619Y-123375714D01*
X142656666Y-123709047D01*
X142656666Y-123566190D01*
X142609047Y-123470952D01*
X142561428Y-123423333D01*
X142466190Y-123375714D01*
X142228095Y-123375714D01*
X142132857Y-123423333D01*
X142085238Y-123470952D01*
X142037619Y-123566190D01*
X142037619Y-123851904D01*
X142085238Y-123947142D01*
X142132857Y-123994761D01*
X139753333Y-124804285D02*
X139753333Y-124328095D01*
X139467619Y-124899523D02*
X140467619Y-124566190D01*
X139467619Y-124232857D01*
X140372380Y-123947142D02*
X140420000Y-123899523D01*
X140467619Y-123804285D01*
X140467619Y-123566190D01*
X140420000Y-123470952D01*
X140372380Y-123423333D01*
X140277142Y-123375714D01*
X140181904Y-123375714D01*
X140039047Y-123423333D01*
X139467619Y-123994761D01*
X139467619Y-123375714D01*
X126847619Y-124904285D02*
X127847619Y-124904285D01*
X127847619Y-124666190D01*
X127800000Y-124523333D01*
X127704761Y-124428095D01*
X127609523Y-124380476D01*
X127419047Y-124332857D01*
X127276190Y-124332857D01*
X127085714Y-124380476D01*
X126990476Y-124428095D01*
X126895238Y-124523333D01*
X126847619Y-124666190D01*
X126847619Y-124904285D01*
X126847619Y-123380476D02*
X126847619Y-123951904D01*
X126847619Y-123666190D02*
X127847619Y-123666190D01*
X127704761Y-123761428D01*
X127609523Y-123856666D01*
X127561904Y-123951904D01*
X127847619Y-122761428D02*
X127847619Y-122666190D01*
X127800000Y-122570952D01*
X127752380Y-122523333D01*
X127657142Y-122475714D01*
X127466666Y-122428095D01*
X127228571Y-122428095D01*
X127038095Y-122475714D01*
X126942857Y-122523333D01*
X126895238Y-122570952D01*
X126847619Y-122666190D01*
X126847619Y-122761428D01*
X126895238Y-122856666D01*
X126942857Y-122904285D01*
X127038095Y-122951904D01*
X127228571Y-122999523D01*
X127466666Y-122999523D01*
X127657142Y-122951904D01*
X127752380Y-122904285D01*
X127800000Y-122856666D01*
X127847619Y-122761428D01*
X137283333Y-124774285D02*
X137283333Y-124298095D01*
X136997619Y-124869523D02*
X137997619Y-124536190D01*
X136997619Y-124202857D01*
X136997619Y-123345714D02*
X136997619Y-123917142D01*
X136997619Y-123631428D02*
X137997619Y-123631428D01*
X137854761Y-123726666D01*
X137759523Y-123821904D01*
X137711904Y-123917142D01*
X134673333Y-124834285D02*
X134673333Y-124358095D01*
X134387619Y-124929523D02*
X135387619Y-124596190D01*
X134387619Y-124262857D01*
X135387619Y-123739047D02*
X135387619Y-123643809D01*
X135340000Y-123548571D01*
X135292380Y-123500952D01*
X135197142Y-123453333D01*
X135006666Y-123405714D01*
X134768571Y-123405714D01*
X134578095Y-123453333D01*
X134482857Y-123500952D01*
X134435238Y-123548571D01*
X134387619Y-123643809D01*
X134387619Y-123739047D01*
X134435238Y-123834285D01*
X134482857Y-123881904D01*
X134578095Y-123929523D01*
X134768571Y-123977142D01*
X135006666Y-123977142D01*
X135197142Y-123929523D01*
X135292380Y-123881904D01*
X135340000Y-123834285D01*
X135387619Y-123739047D01*
X121757619Y-124904285D02*
X122757619Y-124904285D01*
X122757619Y-124666190D01*
X122710000Y-124523333D01*
X122614761Y-124428095D01*
X122519523Y-124380476D01*
X122329047Y-124332857D01*
X122186190Y-124332857D01*
X121995714Y-124380476D01*
X121900476Y-124428095D01*
X121805238Y-124523333D01*
X121757619Y-124666190D01*
X121757619Y-124904285D01*
X121757619Y-123380476D02*
X121757619Y-123951904D01*
X121757619Y-123666190D02*
X122757619Y-123666190D01*
X122614761Y-123761428D01*
X122519523Y-123856666D01*
X122471904Y-123951904D01*
X122662380Y-122999523D02*
X122710000Y-122951904D01*
X122757619Y-122856666D01*
X122757619Y-122618571D01*
X122710000Y-122523333D01*
X122662380Y-122475714D01*
X122567142Y-122428095D01*
X122471904Y-122428095D01*
X122329047Y-122475714D01*
X121757619Y-123047142D01*
X121757619Y-122428095D01*
X124267619Y-124864285D02*
X125267619Y-124864285D01*
X125267619Y-124626190D01*
X125220000Y-124483333D01*
X125124761Y-124388095D01*
X125029523Y-124340476D01*
X124839047Y-124292857D01*
X124696190Y-124292857D01*
X124505714Y-124340476D01*
X124410476Y-124388095D01*
X124315238Y-124483333D01*
X124267619Y-124626190D01*
X124267619Y-124864285D01*
X124267619Y-123340476D02*
X124267619Y-123911904D01*
X124267619Y-123626190D02*
X125267619Y-123626190D01*
X125124761Y-123721428D01*
X125029523Y-123816666D01*
X124981904Y-123911904D01*
X124267619Y-122388095D02*
X124267619Y-122959523D01*
X124267619Y-122673809D02*
X125267619Y-122673809D01*
X125124761Y-122769047D01*
X125029523Y-122864285D01*
X124981904Y-122959523D01*
X147393333Y-124774285D02*
X147393333Y-124298095D01*
X147107619Y-124869523D02*
X148107619Y-124536190D01*
X147107619Y-124202857D01*
X148107619Y-123393333D02*
X148107619Y-123869523D01*
X147631428Y-123917142D01*
X147679047Y-123869523D01*
X147726666Y-123774285D01*
X147726666Y-123536190D01*
X147679047Y-123440952D01*
X147631428Y-123393333D01*
X147536190Y-123345714D01*
X147298095Y-123345714D01*
X147202857Y-123393333D01*
X147155238Y-123440952D01*
X147107619Y-123536190D01*
X147107619Y-123774285D01*
X147155238Y-123869523D01*
X147202857Y-123917142D01*
X131797619Y-124908095D02*
X132797619Y-124908095D01*
X132797619Y-124670000D01*
X132750000Y-124527142D01*
X132654761Y-124431904D01*
X132559523Y-124384285D01*
X132369047Y-124336666D01*
X132226190Y-124336666D01*
X132035714Y-124384285D01*
X131940476Y-124431904D01*
X131845238Y-124527142D01*
X131797619Y-124670000D01*
X131797619Y-124908095D01*
X132369047Y-123765238D02*
X132416666Y-123860476D01*
X132464285Y-123908095D01*
X132559523Y-123955714D01*
X132607142Y-123955714D01*
X132702380Y-123908095D01*
X132750000Y-123860476D01*
X132797619Y-123765238D01*
X132797619Y-123574761D01*
X132750000Y-123479523D01*
X132702380Y-123431904D01*
X132607142Y-123384285D01*
X132559523Y-123384285D01*
X132464285Y-123431904D01*
X132416666Y-123479523D01*
X132369047Y-123574761D01*
X132369047Y-123765238D01*
X132321428Y-123860476D01*
X132273809Y-123908095D01*
X132178571Y-123955714D01*
X131988095Y-123955714D01*
X131892857Y-123908095D01*
X131845238Y-123860476D01*
X131797619Y-123765238D01*
X131797619Y-123574761D01*
X131845238Y-123479523D01*
X131892857Y-123431904D01*
X131988095Y-123384285D01*
X132178571Y-123384285D01*
X132273809Y-123431904D01*
X132321428Y-123479523D01*
X132369047Y-123574761D01*
X129327619Y-124928095D02*
X130327619Y-124928095D01*
X130327619Y-124690000D01*
X130280000Y-124547142D01*
X130184761Y-124451904D01*
X130089523Y-124404285D01*
X129899047Y-124356666D01*
X129756190Y-124356666D01*
X129565714Y-124404285D01*
X129470476Y-124451904D01*
X129375238Y-124547142D01*
X129327619Y-124690000D01*
X129327619Y-124928095D01*
X129327619Y-123880476D02*
X129327619Y-123690000D01*
X129375238Y-123594761D01*
X129422857Y-123547142D01*
X129565714Y-123451904D01*
X129756190Y-123404285D01*
X130137142Y-123404285D01*
X130232380Y-123451904D01*
X130280000Y-123499523D01*
X130327619Y-123594761D01*
X130327619Y-123785238D01*
X130280000Y-123880476D01*
X130232380Y-123928095D01*
X130137142Y-123975714D01*
X129899047Y-123975714D01*
X129803809Y-123928095D01*
X129756190Y-123880476D01*
X129708571Y-123785238D01*
X129708571Y-123594761D01*
X129756190Y-123499523D01*
X129803809Y-123451904D01*
X129899047Y-123404285D01*
X119147619Y-124954285D02*
X120147619Y-124954285D01*
X120147619Y-124716190D01*
X120100000Y-124573333D01*
X120004761Y-124478095D01*
X119909523Y-124430476D01*
X119719047Y-124382857D01*
X119576190Y-124382857D01*
X119385714Y-124430476D01*
X119290476Y-124478095D01*
X119195238Y-124573333D01*
X119147619Y-124716190D01*
X119147619Y-124954285D01*
X119147619Y-123430476D02*
X119147619Y-124001904D01*
X119147619Y-123716190D02*
X120147619Y-123716190D01*
X120004761Y-123811428D01*
X119909523Y-123906666D01*
X119861904Y-124001904D01*
X120147619Y-123097142D02*
X120147619Y-122478095D01*
X119766666Y-122811428D01*
X119766666Y-122668571D01*
X119719047Y-122573333D01*
X119671428Y-122525714D01*
X119576190Y-122478095D01*
X119338095Y-122478095D01*
X119242857Y-122525714D01*
X119195238Y-122573333D01*
X119147619Y-122668571D01*
X119147619Y-122954285D01*
X119195238Y-123049523D01*
X119242857Y-123097142D01*
X149903333Y-124804285D02*
X149903333Y-124328095D01*
X149617619Y-124899523D02*
X150617619Y-124566190D01*
X149617619Y-124232857D01*
X150617619Y-123470952D02*
X150617619Y-123661428D01*
X150570000Y-123756666D01*
X150522380Y-123804285D01*
X150379523Y-123899523D01*
X150189047Y-123947142D01*
X149808095Y-123947142D01*
X149712857Y-123899523D01*
X149665238Y-123851904D01*
X149617619Y-123756666D01*
X149617619Y-123566190D01*
X149665238Y-123470952D01*
X149712857Y-123423333D01*
X149808095Y-123375714D01*
X150046190Y-123375714D01*
X150141428Y-123423333D01*
X150189047Y-123470952D01*
X150236666Y-123566190D01*
X150236666Y-123756666D01*
X150189047Y-123851904D01*
X150141428Y-123899523D01*
X150046190Y-123947142D01*
X152373333Y-124804285D02*
X152373333Y-124328095D01*
X152087619Y-124899523D02*
X153087619Y-124566190D01*
X152087619Y-124232857D01*
X153087619Y-123994761D02*
X153087619Y-123328095D01*
X152087619Y-123756666D01*
D11*
X155250000Y-76725000D02*
X155250000Y-77775000D01*
X150175000Y-76725000D02*
X155275000Y-76725000D01*
X150175000Y-77800000D02*
X150175000Y-76725000D01*
X148825000Y-77800000D02*
X148825000Y-71775000D01*
X156625000Y-77800000D02*
X148825000Y-77800000D01*
X156625000Y-71775000D02*
X156625000Y-77800000D01*
X148850000Y-71775000D02*
X156625000Y-71775000D01*
X154050000Y-127975000D02*
X120975000Y-127975000D01*
X154050000Y-125325000D02*
X154050000Y-127975000D01*
X120975000Y-125325000D02*
X154050000Y-125325000D01*
X120975000Y-127975000D02*
X120975000Y-125325000D01*
X118375000Y-125300000D02*
X119700000Y-125300000D01*
X118375000Y-126675000D02*
X118375000Y-125300000D01*
X165575000Y-122300000D02*
X165575000Y-99400000D01*
X162925000Y-122300000D02*
X165575000Y-122300000D01*
X162925000Y-99400000D02*
X162925000Y-122300000D01*
X165575000Y-99400000D02*
X162925000Y-99400000D01*
X165575000Y-96800000D02*
X165575000Y-98125000D01*
X164225000Y-96800000D02*
X165575000Y-96800000D01*
D10*
X161796428Y-118952380D02*
X162129761Y-118476190D01*
X162367857Y-118952380D02*
X162367857Y-117952380D01*
X161986904Y-117952380D01*
X161891666Y-118000000D01*
X161844047Y-118047619D01*
X161796428Y-118142857D01*
X161796428Y-118285714D01*
X161844047Y-118380952D01*
X161891666Y-118428571D01*
X161986904Y-118476190D01*
X162367857Y-118476190D01*
X161367857Y-118428571D02*
X161034523Y-118428571D01*
X160891666Y-118952380D02*
X161367857Y-118952380D01*
X161367857Y-117952380D01*
X160891666Y-117952380D01*
X160129761Y-118428571D02*
X160463095Y-118428571D01*
X160463095Y-118952380D02*
X160463095Y-117952380D01*
X159986904Y-117952380D01*
X161742857Y-101202380D02*
X162076190Y-100726190D01*
X162314285Y-101202380D02*
X162314285Y-100202380D01*
X161933333Y-100202380D01*
X161838095Y-100250000D01*
X161790476Y-100297619D01*
X161742857Y-100392857D01*
X161742857Y-100535714D01*
X161790476Y-100630952D01*
X161838095Y-100678571D01*
X161933333Y-100726190D01*
X162314285Y-100726190D01*
X161409523Y-100202380D02*
X160742857Y-101202380D01*
X160742857Y-100202380D02*
X161409523Y-101202380D01*
X160171428Y-100202380D02*
X160076190Y-100202380D01*
X159980952Y-100250000D01*
X159933333Y-100297619D01*
X159885714Y-100392857D01*
X159838095Y-100583333D01*
X159838095Y-100821428D01*
X159885714Y-101011904D01*
X159933333Y-101107142D01*
X159980952Y-101154761D01*
X160076190Y-101202380D01*
X160171428Y-101202380D01*
X160266666Y-101154761D01*
X160314285Y-101107142D01*
X160361904Y-101011904D01*
X160409523Y-100821428D01*
X160409523Y-100583333D01*
X160361904Y-100392857D01*
X160314285Y-100297619D01*
X160266666Y-100250000D01*
X160171428Y-100202380D01*
X161861904Y-113000000D02*
X161957142Y-112952380D01*
X162100000Y-112952380D01*
X162242857Y-113000000D01*
X162338095Y-113095238D01*
X162385714Y-113190476D01*
X162433333Y-113380952D01*
X162433333Y-113523809D01*
X162385714Y-113714285D01*
X162338095Y-113809523D01*
X162242857Y-113904761D01*
X162100000Y-113952380D01*
X162004761Y-113952380D01*
X161861904Y-113904761D01*
X161814285Y-113857142D01*
X161814285Y-113523809D01*
X162004761Y-113523809D01*
X161385714Y-113952380D02*
X161385714Y-112952380D01*
X160814285Y-113952380D01*
X160814285Y-112952380D01*
X160338095Y-113952380D02*
X160338095Y-112952380D01*
X160100000Y-112952380D01*
X159957142Y-113000000D01*
X159861904Y-113095238D01*
X159814285Y-113190476D01*
X159766666Y-113380952D01*
X159766666Y-113523809D01*
X159814285Y-113714285D01*
X159861904Y-113809523D01*
X159957142Y-113904761D01*
X160100000Y-113952380D01*
X160338095Y-113952380D01*
X161861904Y-107800000D02*
X161957142Y-107752380D01*
X162100000Y-107752380D01*
X162242857Y-107800000D01*
X162338095Y-107895238D01*
X162385714Y-107990476D01*
X162433333Y-108180952D01*
X162433333Y-108323809D01*
X162385714Y-108514285D01*
X162338095Y-108609523D01*
X162242857Y-108704761D01*
X162100000Y-108752380D01*
X162004761Y-108752380D01*
X161861904Y-108704761D01*
X161814285Y-108657142D01*
X161814285Y-108323809D01*
X162004761Y-108323809D01*
X161385714Y-108752380D02*
X161385714Y-107752380D01*
X160814285Y-108752380D01*
X160814285Y-107752380D01*
X160338095Y-108752380D02*
X160338095Y-107752380D01*
X160100000Y-107752380D01*
X159957142Y-107800000D01*
X159861904Y-107895238D01*
X159814285Y-107990476D01*
X159766666Y-108180952D01*
X159766666Y-108323809D01*
X159814285Y-108514285D01*
X159861904Y-108609523D01*
X159957142Y-108704761D01*
X160100000Y-108752380D01*
X160338095Y-108752380D01*
X162338095Y-102752380D02*
X161766666Y-102752380D01*
X162052380Y-103752380D02*
X162052380Y-102752380D01*
X161528571Y-102752380D02*
X160861904Y-103752380D01*
X160861904Y-102752380D02*
X161528571Y-103752380D01*
X159957142Y-103752380D02*
X160528571Y-103752380D01*
X160242857Y-103752380D02*
X160242857Y-102752380D01*
X160338095Y-102895238D01*
X160433333Y-102990476D01*
X160528571Y-103038095D01*
X161772619Y-106277380D02*
X162105952Y-105801190D01*
X162344047Y-106277380D02*
X162344047Y-105277380D01*
X161963095Y-105277380D01*
X161867857Y-105325000D01*
X161820238Y-105372619D01*
X161772619Y-105467857D01*
X161772619Y-105610714D01*
X161820238Y-105705952D01*
X161867857Y-105753571D01*
X161963095Y-105801190D01*
X162344047Y-105801190D01*
X161391666Y-106229761D02*
X161248809Y-106277380D01*
X161010714Y-106277380D01*
X160915476Y-106229761D01*
X160867857Y-106182142D01*
X160820238Y-106086904D01*
X160820238Y-105991666D01*
X160867857Y-105896428D01*
X160915476Y-105848809D01*
X161010714Y-105801190D01*
X161201190Y-105753571D01*
X161296428Y-105705952D01*
X161344047Y-105658333D01*
X161391666Y-105563095D01*
X161391666Y-105467857D01*
X161344047Y-105372619D01*
X161296428Y-105325000D01*
X161201190Y-105277380D01*
X160963095Y-105277380D01*
X160820238Y-105325000D01*
X160534523Y-105277380D02*
X159963095Y-105277380D01*
X160248809Y-106277380D02*
X160248809Y-105277380D01*
X162438095Y-115452380D02*
X161819047Y-115452380D01*
X162152380Y-115833333D01*
X162009523Y-115833333D01*
X161914285Y-115880952D01*
X161866666Y-115928571D01*
X161819047Y-116023809D01*
X161819047Y-116261904D01*
X161866666Y-116357142D01*
X161914285Y-116404761D01*
X162009523Y-116452380D01*
X162295238Y-116452380D01*
X162390476Y-116404761D01*
X162438095Y-116357142D01*
X161533333Y-115452380D02*
X161200000Y-116452380D01*
X160866666Y-115452380D01*
X160628571Y-115452380D02*
X160009523Y-115452380D01*
X160342857Y-115833333D01*
X160200000Y-115833333D01*
X160104761Y-115880952D01*
X160057142Y-115928571D01*
X160009523Y-116023809D01*
X160009523Y-116261904D01*
X160057142Y-116357142D01*
X160104761Y-116404761D01*
X160200000Y-116452380D01*
X160485714Y-116452380D01*
X160580952Y-116404761D01*
X160628571Y-116357142D01*
X161847619Y-111452380D02*
X162180952Y-110976190D01*
X162419047Y-111452380D02*
X162419047Y-110452380D01*
X162038095Y-110452380D01*
X161942857Y-110500000D01*
X161895238Y-110547619D01*
X161847619Y-110642857D01*
X161847619Y-110785714D01*
X161895238Y-110880952D01*
X161942857Y-110928571D01*
X162038095Y-110976190D01*
X162419047Y-110976190D01*
X161466666Y-111404761D02*
X161323809Y-111452380D01*
X161085714Y-111452380D01*
X160990476Y-111404761D01*
X160942857Y-111357142D01*
X160895238Y-111261904D01*
X160895238Y-111166666D01*
X160942857Y-111071428D01*
X160990476Y-111023809D01*
X161085714Y-110976190D01*
X161276190Y-110928571D01*
X161371428Y-110880952D01*
X161419047Y-110833333D01*
X161466666Y-110738095D01*
X161466666Y-110642857D01*
X161419047Y-110547619D01*
X161371428Y-110500000D01*
X161276190Y-110452380D01*
X161038095Y-110452380D01*
X160895238Y-110500000D01*
X160609523Y-110452380D02*
X160038095Y-110452380D01*
X160323809Y-111452380D02*
X160323809Y-110452380D01*
X162370238Y-97627380D02*
X162036904Y-98627380D01*
X161703571Y-97627380D01*
X161370238Y-98627380D02*
X161370238Y-97627380D01*
X160894047Y-98627380D02*
X160894047Y-97627380D01*
X160322619Y-98627380D01*
X160322619Y-97627380D01*
X154687202Y-79239285D02*
X155110535Y-79239285D01*
X155193690Y-79904523D02*
X155034940Y-78634523D01*
X154430178Y-78634523D01*
X153560833Y-79904523D02*
X153477678Y-79239285D01*
X153523035Y-79118333D01*
X153636428Y-79057857D01*
X153878333Y-79057857D01*
X154006845Y-79118333D01*
X153553273Y-79844047D02*
X153681785Y-79904523D01*
X153984166Y-79904523D01*
X154097559Y-79844047D01*
X154142916Y-79723095D01*
X154127797Y-79602142D01*
X154052202Y-79481190D01*
X153923690Y-79420714D01*
X153621309Y-79420714D01*
X153492797Y-79360238D01*
X152850238Y-79057857D02*
X152956071Y-79904523D01*
X152865357Y-79178809D02*
X152797321Y-79118333D01*
X152668809Y-79057857D01*
X152487380Y-79057857D01*
X152373988Y-79118333D01*
X152328630Y-79239285D01*
X152411785Y-79904523D01*
X151043511Y-78634523D02*
X151648273Y-78634523D01*
X151784345Y-79239285D01*
X151716309Y-79178809D01*
X151587797Y-79118333D01*
X151285416Y-79118333D01*
X151172023Y-79178809D01*
X151119107Y-79239285D01*
X151073750Y-79360238D01*
X151111547Y-79662619D01*
X151187142Y-79783571D01*
X151255178Y-79844047D01*
X151383690Y-79904523D01*
X151686071Y-79904523D01*
X151799464Y-79844047D01*
X151852380Y-79783571D01*
X150620178Y-78634523D02*
X150355595Y-79904523D01*
X149773511Y-78634523D01*
X160659256Y-95238775D02*
X161929256Y-95080025D01*
X161929256Y-94596215D01*
X161868780Y-94482822D01*
X161808303Y-94429906D01*
X161687351Y-94384549D01*
X161505922Y-94407227D01*
X161384970Y-94482822D01*
X161324494Y-94550858D01*
X161264018Y-94679370D01*
X161264018Y-95163180D01*
X160719732Y-93477406D02*
X160659256Y-93605918D01*
X160659256Y-93847822D01*
X160719732Y-93961215D01*
X160840684Y-94006572D01*
X161324494Y-93946096D01*
X161445446Y-93870501D01*
X161505922Y-93741989D01*
X161505922Y-93500084D01*
X161445446Y-93386691D01*
X161324494Y-93341334D01*
X161203541Y-93356453D01*
X161082589Y-93976334D01*
X161505922Y-92774370D02*
X160659256Y-92880203D01*
X161384970Y-92789489D02*
X161445446Y-92721453D01*
X161505922Y-92592941D01*
X161505922Y-92411513D01*
X161445446Y-92298120D01*
X161324494Y-92252763D01*
X160659256Y-92335918D01*
X160719732Y-91784072D02*
X160659256Y-91610203D01*
X160659256Y-91307822D01*
X160719732Y-91179310D01*
X160780208Y-91111275D01*
X160901160Y-91035680D01*
X161022113Y-91020560D01*
X161143065Y-91065918D01*
X161203541Y-91118834D01*
X161264018Y-91232227D01*
X161324494Y-91466572D01*
X161384970Y-91579965D01*
X161445446Y-91632882D01*
X161566399Y-91678239D01*
X161687351Y-91663120D01*
X161808303Y-91587525D01*
X161868780Y-91519489D01*
X161929256Y-91390977D01*
X161929256Y-91088596D01*
X161868780Y-90914727D01*
X160719732Y-90030263D02*
X160659256Y-90158775D01*
X160659256Y-90400680D01*
X160719732Y-90514072D01*
X160840684Y-90559430D01*
X161324494Y-90498953D01*
X161445446Y-90423358D01*
X161505922Y-90294846D01*
X161505922Y-90052941D01*
X161445446Y-89939549D01*
X161324494Y-89894191D01*
X161203541Y-89909310D01*
X161082589Y-90529191D01*
X160659256Y-89433060D02*
X161505922Y-89327227D01*
X161264018Y-89357465D02*
X161384970Y-89281870D01*
X161445446Y-89213834D01*
X161505922Y-89085322D01*
X161505922Y-88964370D01*
X161505922Y-88661989D02*
X160659256Y-88465441D01*
X161505922Y-88057227D01*
X160659256Y-87497822D02*
X160719732Y-87611215D01*
X160780208Y-87664132D01*
X160901160Y-87709489D01*
X161264018Y-87664132D01*
X161384970Y-87588537D01*
X161445446Y-87520501D01*
X161505922Y-87391989D01*
X161505922Y-87210560D01*
X161445446Y-87097168D01*
X161384970Y-87044251D01*
X161264018Y-86998894D01*
X160901160Y-87044251D01*
X160780208Y-87119846D01*
X160719732Y-87187882D01*
X160659256Y-87316394D01*
X160659256Y-87497822D01*
X121027321Y-83014047D02*
X120853452Y-83074523D01*
X120551071Y-83074523D01*
X120422559Y-83014047D01*
X120354523Y-82953571D01*
X120278928Y-82832619D01*
X120263809Y-82711666D01*
X120309166Y-82590714D01*
X120362083Y-82530238D01*
X120475476Y-82469761D01*
X120709821Y-82409285D01*
X120823214Y-82348809D01*
X120876130Y-82288333D01*
X120921488Y-82167380D01*
X120906369Y-82046428D01*
X120830773Y-81925476D01*
X120762738Y-81865000D01*
X120634226Y-81804523D01*
X120331845Y-81804523D01*
X120157976Y-81865000D01*
X119840476Y-82227857D02*
X119356666Y-82227857D01*
X119606130Y-81804523D02*
X119742202Y-82893095D01*
X119696845Y-83014047D01*
X119583452Y-83074523D01*
X119462500Y-83074523D01*
X118547797Y-83014047D02*
X118676309Y-83074523D01*
X118918214Y-83074523D01*
X119031607Y-83014047D01*
X119076964Y-82893095D01*
X119016488Y-82409285D01*
X118940892Y-82288333D01*
X118812380Y-82227857D01*
X118570476Y-82227857D01*
X118457083Y-82288333D01*
X118411726Y-82409285D01*
X118426845Y-82530238D01*
X119046726Y-82651190D01*
X117844761Y-82227857D02*
X118003511Y-83497857D01*
X117852321Y-82288333D02*
X117723809Y-82227857D01*
X117481904Y-82227857D01*
X117368511Y-82288333D01*
X117315595Y-82348809D01*
X117270238Y-82469761D01*
X117315595Y-82832619D01*
X117391190Y-82953571D01*
X117459226Y-83014047D01*
X117587738Y-83074523D01*
X117829642Y-83074523D01*
X117943035Y-83014047D01*
X116695714Y-82227857D02*
X116854464Y-83497857D01*
X116703273Y-82288333D02*
X116574761Y-82227857D01*
X116332857Y-82227857D01*
X116219464Y-82288333D01*
X116166547Y-82348809D01*
X116121190Y-82469761D01*
X116166547Y-82832619D01*
X116242142Y-82953571D01*
X116310178Y-83014047D01*
X116438690Y-83074523D01*
X116680595Y-83074523D01*
X116793988Y-83014047D01*
X115161130Y-83014047D02*
X115289642Y-83074523D01*
X115531547Y-83074523D01*
X115644940Y-83014047D01*
X115690297Y-82893095D01*
X115629821Y-82409285D01*
X115554226Y-82288333D01*
X115425714Y-82227857D01*
X115183809Y-82227857D01*
X115070416Y-82288333D01*
X115025059Y-82409285D01*
X115040178Y-82530238D01*
X115660059Y-82651190D01*
X114563928Y-83074523D02*
X114458095Y-82227857D01*
X114488333Y-82469761D02*
X114412738Y-82348809D01*
X114344702Y-82288333D01*
X114216190Y-82227857D01*
X114095238Y-82227857D01*
X113112500Y-83074523D02*
X113838214Y-83074523D01*
X113475357Y-83074523D02*
X113316607Y-81804523D01*
X113460238Y-81985952D01*
X113596309Y-82106904D01*
X113724821Y-82167380D01*
X146277321Y-83039047D02*
X146103452Y-83099523D01*
X145801071Y-83099523D01*
X145672559Y-83039047D01*
X145604523Y-82978571D01*
X145528928Y-82857619D01*
X145513809Y-82736666D01*
X145559166Y-82615714D01*
X145612083Y-82555238D01*
X145725476Y-82494761D01*
X145959821Y-82434285D01*
X146073214Y-82373809D01*
X146126130Y-82313333D01*
X146171488Y-82192380D01*
X146156369Y-82071428D01*
X146080773Y-81950476D01*
X146012738Y-81890000D01*
X145884226Y-81829523D01*
X145581845Y-81829523D01*
X145407976Y-81890000D01*
X145090476Y-82252857D02*
X144606666Y-82252857D01*
X144856130Y-81829523D02*
X144992202Y-82918095D01*
X144946845Y-83039047D01*
X144833452Y-83099523D01*
X144712500Y-83099523D01*
X143797797Y-83039047D02*
X143926309Y-83099523D01*
X144168214Y-83099523D01*
X144281607Y-83039047D01*
X144326964Y-82918095D01*
X144266488Y-82434285D01*
X144190892Y-82313333D01*
X144062380Y-82252857D01*
X143820476Y-82252857D01*
X143707083Y-82313333D01*
X143661726Y-82434285D01*
X143676845Y-82555238D01*
X144296726Y-82676190D01*
X143094761Y-82252857D02*
X143253511Y-83522857D01*
X143102321Y-82313333D02*
X142973809Y-82252857D01*
X142731904Y-82252857D01*
X142618511Y-82313333D01*
X142565595Y-82373809D01*
X142520238Y-82494761D01*
X142565595Y-82857619D01*
X142641190Y-82978571D01*
X142709226Y-83039047D01*
X142837738Y-83099523D01*
X143079642Y-83099523D01*
X143193035Y-83039047D01*
X141945714Y-82252857D02*
X142104464Y-83522857D01*
X141953273Y-82313333D02*
X141824761Y-82252857D01*
X141582857Y-82252857D01*
X141469464Y-82313333D01*
X141416547Y-82373809D01*
X141371190Y-82494761D01*
X141416547Y-82857619D01*
X141492142Y-82978571D01*
X141560178Y-83039047D01*
X141688690Y-83099523D01*
X141930595Y-83099523D01*
X142043988Y-83039047D01*
X140411130Y-83039047D02*
X140539642Y-83099523D01*
X140781547Y-83099523D01*
X140894940Y-83039047D01*
X140940297Y-82918095D01*
X140879821Y-82434285D01*
X140804226Y-82313333D01*
X140675714Y-82252857D01*
X140433809Y-82252857D01*
X140320416Y-82313333D01*
X140275059Y-82434285D01*
X140290178Y-82555238D01*
X140910059Y-82676190D01*
X139813928Y-83099523D02*
X139708095Y-82252857D01*
X139738333Y-82494761D02*
X139662738Y-82373809D01*
X139594702Y-82313333D01*
X139466190Y-82252857D01*
X139345238Y-82252857D01*
X138944583Y-81950476D02*
X138876547Y-81890000D01*
X138748035Y-81829523D01*
X138445654Y-81829523D01*
X138332261Y-81890000D01*
X138279345Y-81950476D01*
X138233988Y-82071428D01*
X138249107Y-82192380D01*
X138332261Y-82373809D01*
X139148690Y-83099523D01*
X138362500Y-83099523D01*
X132439166Y-96596547D02*
X132265297Y-96657023D01*
X131962916Y-96657023D01*
X131834404Y-96596547D01*
X131766369Y-96536071D01*
X131690773Y-96415119D01*
X131675654Y-96294166D01*
X131721011Y-96173214D01*
X131773928Y-96112738D01*
X131887321Y-96052261D01*
X132121666Y-95991785D01*
X132235059Y-95931309D01*
X132287976Y-95870833D01*
X132333333Y-95749880D01*
X132318214Y-95628928D01*
X132242619Y-95507976D01*
X132174583Y-95447500D01*
X132046071Y-95387023D01*
X131743690Y-95387023D01*
X131569821Y-95447500D01*
X131252321Y-95810357D02*
X130768511Y-95810357D01*
X131017976Y-95387023D02*
X131154047Y-96475595D01*
X131108690Y-96596547D01*
X130995297Y-96657023D01*
X130874345Y-96657023D01*
X129959642Y-96596547D02*
X130088154Y-96657023D01*
X130330059Y-96657023D01*
X130443452Y-96596547D01*
X130488809Y-96475595D01*
X130428333Y-95991785D01*
X130352738Y-95870833D01*
X130224226Y-95810357D01*
X129982321Y-95810357D01*
X129868928Y-95870833D01*
X129823571Y-95991785D01*
X129838690Y-96112738D01*
X130458571Y-96233690D01*
X129256607Y-95810357D02*
X129415357Y-97080357D01*
X129264166Y-95870833D02*
X129135654Y-95810357D01*
X128893750Y-95810357D01*
X128780357Y-95870833D01*
X128727440Y-95931309D01*
X128682083Y-96052261D01*
X128727440Y-96415119D01*
X128803035Y-96536071D01*
X128871071Y-96596547D01*
X128999583Y-96657023D01*
X129241488Y-96657023D01*
X129354880Y-96596547D01*
X128107559Y-95810357D02*
X128266309Y-97080357D01*
X128115119Y-95870833D02*
X127986607Y-95810357D01*
X127744702Y-95810357D01*
X127631309Y-95870833D01*
X127578392Y-95931309D01*
X127533035Y-96052261D01*
X127578392Y-96415119D01*
X127653988Y-96536071D01*
X127722023Y-96596547D01*
X127850535Y-96657023D01*
X128092440Y-96657023D01*
X128205833Y-96596547D01*
X126572976Y-96596547D02*
X126701488Y-96657023D01*
X126943392Y-96657023D01*
X127056785Y-96596547D01*
X127102142Y-96475595D01*
X127041666Y-95991785D01*
X126966071Y-95870833D01*
X126837559Y-95810357D01*
X126595654Y-95810357D01*
X126482261Y-95870833D01*
X126436904Y-95991785D01*
X126452023Y-96112738D01*
X127071904Y-96233690D01*
X125975773Y-96657023D02*
X125869940Y-95810357D01*
X125900178Y-96052261D02*
X125824583Y-95931309D01*
X125756547Y-95870833D01*
X125628035Y-95810357D01*
X125507083Y-95810357D01*
X124524345Y-96657023D02*
X125250059Y-96657023D01*
X124887202Y-96657023D02*
X124728452Y-95387023D01*
X124872083Y-95568452D01*
X125008154Y-95689404D01*
X125136666Y-95749880D01*
X129483392Y-98712023D02*
X129324642Y-97442023D01*
X129022261Y-97442023D01*
X128848392Y-97502500D01*
X128742559Y-97623452D01*
X128697202Y-97744404D01*
X128666964Y-97986309D01*
X128689642Y-98167738D01*
X128780357Y-98409642D01*
X128855952Y-98530595D01*
X128992023Y-98651547D01*
X129181011Y-98712023D01*
X129483392Y-98712023D01*
X128213392Y-98712023D02*
X128107559Y-97865357D01*
X128137797Y-98107261D02*
X128062202Y-97986309D01*
X127994166Y-97925833D01*
X127865654Y-97865357D01*
X127744702Y-97865357D01*
X127427202Y-98712023D02*
X127321369Y-97865357D01*
X127268452Y-97442023D02*
X127336488Y-97502500D01*
X127283571Y-97562976D01*
X127215535Y-97502500D01*
X127268452Y-97442023D01*
X127283571Y-97562976D01*
X126837559Y-97865357D02*
X126641011Y-98712023D01*
X126232797Y-97865357D01*
X125363452Y-98651547D02*
X125491964Y-98712023D01*
X125733869Y-98712023D01*
X125847261Y-98651547D01*
X125892619Y-98530595D01*
X125832142Y-98046785D01*
X125756547Y-97925833D01*
X125628035Y-97865357D01*
X125386130Y-97865357D01*
X125272738Y-97925833D01*
X125227380Y-98046785D01*
X125242500Y-98167738D01*
X125862380Y-98288690D01*
X124766250Y-98712023D02*
X124660416Y-97865357D01*
X124690654Y-98107261D02*
X124615059Y-97986309D01*
X124547023Y-97925833D01*
X124418511Y-97865357D01*
X124297559Y-97865357D01*
X157849166Y-96536547D02*
X157675297Y-96597023D01*
X157372916Y-96597023D01*
X157244404Y-96536547D01*
X157176369Y-96476071D01*
X157100773Y-96355119D01*
X157085654Y-96234166D01*
X157131011Y-96113214D01*
X157183928Y-96052738D01*
X157297321Y-95992261D01*
X157531666Y-95931785D01*
X157645059Y-95871309D01*
X157697976Y-95810833D01*
X157743333Y-95689880D01*
X157728214Y-95568928D01*
X157652619Y-95447976D01*
X157584583Y-95387500D01*
X157456071Y-95327023D01*
X157153690Y-95327023D01*
X156979821Y-95387500D01*
X156662321Y-95750357D02*
X156178511Y-95750357D01*
X156427976Y-95327023D02*
X156564047Y-96415595D01*
X156518690Y-96536547D01*
X156405297Y-96597023D01*
X156284345Y-96597023D01*
X155369642Y-96536547D02*
X155498154Y-96597023D01*
X155740059Y-96597023D01*
X155853452Y-96536547D01*
X155898809Y-96415595D01*
X155838333Y-95931785D01*
X155762738Y-95810833D01*
X155634226Y-95750357D01*
X155392321Y-95750357D01*
X155278928Y-95810833D01*
X155233571Y-95931785D01*
X155248690Y-96052738D01*
X155868571Y-96173690D01*
X154666607Y-95750357D02*
X154825357Y-97020357D01*
X154674166Y-95810833D02*
X154545654Y-95750357D01*
X154303750Y-95750357D01*
X154190357Y-95810833D01*
X154137440Y-95871309D01*
X154092083Y-95992261D01*
X154137440Y-96355119D01*
X154213035Y-96476071D01*
X154281071Y-96536547D01*
X154409583Y-96597023D01*
X154651488Y-96597023D01*
X154764880Y-96536547D01*
X153517559Y-95750357D02*
X153676309Y-97020357D01*
X153525119Y-95810833D02*
X153396607Y-95750357D01*
X153154702Y-95750357D01*
X153041309Y-95810833D01*
X152988392Y-95871309D01*
X152943035Y-95992261D01*
X152988392Y-96355119D01*
X153063988Y-96476071D01*
X153132023Y-96536547D01*
X153260535Y-96597023D01*
X153502440Y-96597023D01*
X153615833Y-96536547D01*
X151982976Y-96536547D02*
X152111488Y-96597023D01*
X152353392Y-96597023D01*
X152466785Y-96536547D01*
X152512142Y-96415595D01*
X152451666Y-95931785D01*
X152376071Y-95810833D01*
X152247559Y-95750357D01*
X152005654Y-95750357D01*
X151892261Y-95810833D01*
X151846904Y-95931785D01*
X151862023Y-96052738D01*
X152481904Y-96173690D01*
X151385773Y-96597023D02*
X151279940Y-95750357D01*
X151310178Y-95992261D02*
X151234583Y-95871309D01*
X151166547Y-95810833D01*
X151038035Y-95750357D01*
X150917083Y-95750357D01*
X150516428Y-95447976D02*
X150448392Y-95387500D01*
X150319880Y-95327023D01*
X150017500Y-95327023D01*
X149904107Y-95387500D01*
X149851190Y-95447976D01*
X149805833Y-95568928D01*
X149820952Y-95689880D01*
X149904107Y-95871309D01*
X150720535Y-96597023D01*
X149934345Y-96597023D01*
X154893392Y-98652023D02*
X154734642Y-97382023D01*
X154432261Y-97382023D01*
X154258392Y-97442500D01*
X154152559Y-97563452D01*
X154107202Y-97684404D01*
X154076964Y-97926309D01*
X154099642Y-98107738D01*
X154190357Y-98349642D01*
X154265952Y-98470595D01*
X154402023Y-98591547D01*
X154591011Y-98652023D01*
X154893392Y-98652023D01*
X153623392Y-98652023D02*
X153517559Y-97805357D01*
X153547797Y-98047261D02*
X153472202Y-97926309D01*
X153404166Y-97865833D01*
X153275654Y-97805357D01*
X153154702Y-97805357D01*
X152837202Y-98652023D02*
X152731369Y-97805357D01*
X152678452Y-97382023D02*
X152746488Y-97442500D01*
X152693571Y-97502976D01*
X152625535Y-97442500D01*
X152678452Y-97382023D01*
X152693571Y-97502976D01*
X152247559Y-97805357D02*
X152051011Y-98652023D01*
X151642797Y-97805357D01*
X150773452Y-98591547D02*
X150901964Y-98652023D01*
X151143869Y-98652023D01*
X151257261Y-98591547D01*
X151302619Y-98470595D01*
X151242142Y-97986785D01*
X151166547Y-97865833D01*
X151038035Y-97805357D01*
X150796130Y-97805357D01*
X150682738Y-97865833D01*
X150637380Y-97986785D01*
X150652500Y-98107738D01*
X151272380Y-98228690D01*
X150176250Y-98652023D02*
X150070416Y-97805357D01*
X150100654Y-98047261D02*
X150025059Y-97926309D01*
X149957023Y-97865833D01*
X149828511Y-97805357D01*
X149707559Y-97805357D01*
X157751666Y-107013095D02*
X157751666Y-107617857D01*
X158114523Y-106846785D02*
X156844523Y-107428869D01*
X158114523Y-107693452D01*
X158114523Y-108116785D02*
X157267857Y-108222619D01*
X157509761Y-108192380D02*
X157388809Y-108267976D01*
X157328333Y-108336011D01*
X157267857Y-108464523D01*
X157267857Y-108585476D01*
X158114523Y-109447261D02*
X156844523Y-109606011D01*
X158054047Y-109454821D02*
X158114523Y-109326309D01*
X158114523Y-109084404D01*
X158054047Y-108971011D01*
X157993571Y-108918095D01*
X157872619Y-108872738D01*
X157509761Y-108918095D01*
X157388809Y-108993690D01*
X157328333Y-109061726D01*
X157267857Y-109190238D01*
X157267857Y-109432142D01*
X157328333Y-109545535D01*
X157267857Y-110702142D02*
X158114523Y-110596309D01*
X157267857Y-110157857D02*
X157933095Y-110074702D01*
X158054047Y-110120059D01*
X158114523Y-110233452D01*
X158114523Y-110414880D01*
X158054047Y-110543392D01*
X157993571Y-110611428D01*
X158114523Y-111201071D02*
X157267857Y-111306904D01*
X156844523Y-111359821D02*
X156905000Y-111291785D01*
X156965476Y-111344702D01*
X156905000Y-111412738D01*
X156844523Y-111359821D01*
X156965476Y-111344702D01*
X157267857Y-111911666D02*
X158114523Y-111805833D01*
X157388809Y-111896547D02*
X157328333Y-111964583D01*
X157267857Y-112093095D01*
X157267857Y-112274523D01*
X157328333Y-112387916D01*
X157449285Y-112433273D01*
X158114523Y-112350119D01*
X158114523Y-113136309D02*
X158054047Y-113022916D01*
X157993571Y-112970000D01*
X157872619Y-112924642D01*
X157509761Y-112970000D01*
X157388809Y-113045595D01*
X157328333Y-113113630D01*
X157267857Y-113242142D01*
X157267857Y-113423571D01*
X157328333Y-113536964D01*
X157388809Y-113589880D01*
X157509761Y-113635238D01*
X157872619Y-113589880D01*
X157993571Y-113514285D01*
X158054047Y-113446250D01*
X158114523Y-113317738D01*
X158114523Y-113136309D01*
X158114523Y-115071547D02*
X156844523Y-115230297D01*
X158114523Y-115797261D01*
X156844523Y-115956011D01*
X158114523Y-116946309D02*
X157449285Y-117029464D01*
X157328333Y-116984107D01*
X157267857Y-116870714D01*
X157267857Y-116628809D01*
X157328333Y-116500297D01*
X158054047Y-116953869D02*
X158114523Y-116825357D01*
X158114523Y-116522976D01*
X158054047Y-116409583D01*
X157933095Y-116364226D01*
X157812142Y-116379345D01*
X157691190Y-116454940D01*
X157630714Y-116583452D01*
X157630714Y-116885833D01*
X157570238Y-117014345D01*
X157267857Y-117656904D02*
X158114523Y-117551071D01*
X157388809Y-117641785D02*
X157328333Y-117709821D01*
X157267857Y-117838333D01*
X157267857Y-118019761D01*
X157328333Y-118133154D01*
X157449285Y-118178511D01*
X158114523Y-118095357D01*
X158114523Y-118881547D02*
X158054047Y-118768154D01*
X157993571Y-118715238D01*
X157872619Y-118669880D01*
X157509761Y-118715238D01*
X157388809Y-118790833D01*
X157328333Y-118858869D01*
X157267857Y-118987380D01*
X157267857Y-119168809D01*
X157328333Y-119282202D01*
X157388809Y-119335119D01*
X157509761Y-119380476D01*
X157872619Y-119335119D01*
X157993571Y-119259523D01*
X158054047Y-119191488D01*
X158114523Y-119062976D01*
X158114523Y-118881547D01*
D11*
X165658780Y-94998180D02*
X162988780Y-94998180D01*
X165658780Y-89848180D02*
X165658780Y-94998180D01*
X162988780Y-89848180D02*
X165658780Y-89848180D01*
X162988780Y-94978180D02*
X162988780Y-89848180D01*
X163008780Y-87258180D02*
X163008780Y-88598180D01*
X164328780Y-87258180D02*
X163008780Y-87258180D01*
X147495000Y-75950000D02*
X147495000Y-75460000D01*
X147245000Y-75720000D02*
X147725000Y-75720000D01*
X147515000Y-74270000D02*
G75*
G03*
X147515000Y-74270000I-2576373J0D01*
G01*
X155060000Y-86530000D02*
X154580000Y-86530000D01*
X154840000Y-86780000D02*
X154840000Y-86300000D01*
X158906373Y-83963627D02*
G75*
G03*
X158906373Y-83963627I-2576373J0D01*
G01*
X133486373Y-83970000D02*
G75*
G03*
X133486373Y-83970000I-2576373J0D01*
G01*
X129710000Y-86550000D02*
X129190000Y-86550000D01*
X129460000Y-86780000D02*
X129460000Y-86280000D01*
X129935000Y-71770000D02*
X129935000Y-80500000D01*
X141655000Y-71770000D02*
X129935000Y-71770000D01*
X141655000Y-80470000D02*
X141655000Y-71770000D01*
X129955000Y-80470000D02*
X141655000Y-80470000D01*
X128125000Y-71760000D02*
X128125000Y-74360000D01*
X113435000Y-71760000D02*
X128125000Y-71760000D01*
X113435000Y-80980000D02*
X113435000Y-71760000D01*
X122195000Y-80980000D02*
X113435000Y-80980000D01*
X128090000Y-80990000D02*
X126190000Y-80990000D01*
X128140000Y-78280000D02*
X128140000Y-80960000D01*
X146110000Y-86640000D02*
X146110000Y-84010000D01*
X138420000Y-86640000D02*
X146110000Y-86640000D01*
X138420000Y-84010000D02*
X138420000Y-86640000D01*
X146080000Y-84010000D02*
X138420000Y-84010000D01*
X148710000Y-83980000D02*
X148710000Y-85310000D01*
X147390000Y-83980000D02*
X148710000Y-83980000D01*
X123360000Y-83940000D02*
X123360000Y-85260000D01*
X122050000Y-83940000D02*
X123360000Y-83940000D01*
X120770000Y-86590000D02*
X120770000Y-83970000D01*
X113090000Y-86590000D02*
X120770000Y-86590000D01*
X113090000Y-83960000D02*
X113090000Y-86590000D01*
X120780000Y-83960000D02*
X113090000Y-83960000D01*
X158910000Y-100260000D02*
X138490000Y-100260000D01*
X138480000Y-96760000D02*
X138480000Y-99350000D01*
X141130000Y-96760000D02*
X138480000Y-96760000D01*
X141130000Y-99350000D02*
X141130000Y-96760000D01*
X138460000Y-99350000D02*
X141130000Y-99350000D01*
X142070000Y-96760000D02*
X142070000Y-99370000D01*
X144730000Y-96760000D02*
X142070000Y-96760000D01*
X144730000Y-99350000D02*
X144730000Y-96760000D01*
X142070000Y-99350000D02*
X144730000Y-99350000D01*
X148310000Y-99370000D02*
X145710000Y-99370000D01*
X148310000Y-96740000D02*
X148310000Y-99370000D01*
X145670000Y-96740000D02*
X148310000Y-96740000D01*
X147070000Y-94140000D02*
X145650000Y-94140000D01*
X142070000Y-94140000D02*
X142070000Y-95550000D01*
X143390000Y-94140000D02*
X142070000Y-94140000D01*
X138440000Y-94120000D02*
X138440000Y-95460000D01*
X139810000Y-94120000D02*
X138440000Y-94120000D01*
X158890000Y-94140000D02*
X148830000Y-94140000D01*
X158910000Y-90210000D02*
X157570000Y-90210000D01*
X156310000Y-90190000D02*
X138470000Y-90190000D01*
X156310000Y-87540000D02*
X156310000Y-90190000D01*
X138450000Y-87540000D02*
X156310000Y-87540000D01*
X138450000Y-102880000D02*
X138450000Y-87540000D01*
X158910000Y-102920000D02*
X158910000Y-88880000D01*
X138470000Y-102920000D02*
X158910000Y-102920000D01*
X113100000Y-96740000D02*
X113100000Y-99290000D01*
X115760000Y-96740000D02*
X113100000Y-96740000D01*
X115760000Y-99320000D02*
X115760000Y-96740000D01*
X113100000Y-99320000D02*
X115760000Y-99320000D01*
X116700000Y-96740000D02*
X116700000Y-99320000D01*
X119370000Y-96740000D02*
X116700000Y-96740000D01*
X119370000Y-99330000D02*
X119370000Y-96740000D01*
X116700000Y-99330000D02*
X119370000Y-99330000D01*
X122970000Y-99350000D02*
X120260000Y-99350000D01*
X122970000Y-96720000D02*
X122970000Y-99350000D01*
X120300000Y-96720000D02*
X122970000Y-96720000D01*
X116700000Y-94140000D02*
X116700000Y-95490000D01*
X118010000Y-94140000D02*
X116700000Y-94140000D01*
X113100000Y-94140000D02*
X113100000Y-95460000D01*
X114430000Y-94140000D02*
X113100000Y-94140000D01*
X133510000Y-94140000D02*
X123400000Y-94140000D01*
X133530000Y-100230000D02*
X113130000Y-100230000D01*
X121610000Y-94090000D02*
X120320000Y-94090000D01*
X130930000Y-90210000D02*
X113060000Y-90210000D01*
X130930000Y-87520000D02*
X130930000Y-90210000D01*
X113060000Y-87520000D02*
X130930000Y-87520000D01*
X113060000Y-102860000D02*
X113060000Y-87520000D01*
X133520000Y-102860000D02*
X113060000Y-102860000D01*
X133520000Y-88900000D02*
X133520000Y-102860000D01*
X153800000Y-122100000D02*
X153800000Y-120720000D01*
X151200000Y-119380000D02*
X151200000Y-122100000D01*
X115590000Y-119380000D02*
X151200000Y-119380000D01*
X115590000Y-122070000D02*
X115590000Y-119380000D01*
X115630000Y-106830000D02*
X115630000Y-104200000D01*
X153860000Y-106830000D02*
X115630000Y-106830000D01*
X153860000Y-104200000D02*
X153860000Y-106830000D01*
X156460000Y-122040000D02*
X156460000Y-104200000D01*
X158930000Y-122070000D02*
X158930000Y-104200000D01*
X113120000Y-122070000D02*
X158930000Y-122070000D01*
X113120000Y-104200000D02*
X113120000Y-122070000D01*
X158870000Y-104200000D02*
X113120000Y-104200000D01*
D12*
%TO.C,G\u002A\u002A\u002A*%
G36*
X120699250Y-117397125D02*
G01*
X120858499Y-117397125D01*
X120940197Y-117395637D01*
X120993213Y-117390943D01*
X121020484Y-117382693D01*
X121025326Y-117377281D01*
X121026531Y-117358465D01*
X121027561Y-117310500D01*
X121028410Y-117235988D01*
X121029068Y-117137530D01*
X121029528Y-117017726D01*
X121029782Y-116879178D01*
X121029822Y-116724487D01*
X121029640Y-116556254D01*
X121029228Y-116377079D01*
X121028797Y-116246187D01*
X121024688Y-115134937D01*
X120699250Y-115125889D01*
X120699250Y-117397125D01*
G37*
X120699250Y-117397125D02*
X120858499Y-117397125D01*
X120940197Y-117395637D01*
X120993213Y-117390943D01*
X121020484Y-117382693D01*
X121025326Y-117377281D01*
X121026531Y-117358465D01*
X121027561Y-117310500D01*
X121028410Y-117235988D01*
X121029068Y-117137530D01*
X121029528Y-117017726D01*
X121029782Y-116879178D01*
X121029822Y-116724487D01*
X121029640Y-116556254D01*
X121029228Y-116377079D01*
X121028797Y-116246187D01*
X121024688Y-115134937D01*
X120699250Y-115125889D01*
X120699250Y-117397125D01*
G36*
X123386094Y-115129594D02*
G01*
X123272130Y-115131629D01*
X123184925Y-115133829D01*
X123119488Y-115136734D01*
X123070829Y-115140882D01*
X123033960Y-115146811D01*
X123003891Y-115155061D01*
X122975631Y-115166169D01*
X122953500Y-115176288D01*
X122855228Y-115235663D01*
X122778000Y-115313685D01*
X122716249Y-115416035D01*
X122714036Y-115420687D01*
X122673810Y-115535915D01*
X122650774Y-115668962D01*
X122645204Y-115810779D01*
X122657372Y-115952319D01*
X122687554Y-116084532D01*
X122693390Y-116102240D01*
X122716321Y-116148931D01*
X122753295Y-116203964D01*
X122797808Y-116259589D01*
X122843357Y-116308060D01*
X122883440Y-116341629D01*
X122902623Y-116351537D01*
X122905455Y-116363072D01*
X122900174Y-116394736D01*
X122886277Y-116448246D01*
X122863258Y-116525323D01*
X122830615Y-116627684D01*
X122787843Y-116757049D01*
X122755557Y-116852927D01*
X122714908Y-116972900D01*
X122677244Y-117083877D01*
X122643841Y-117182114D01*
X122615976Y-117263865D01*
X122594923Y-117325387D01*
X122581958Y-117362934D01*
X122578517Y-117372594D01*
X122578151Y-117383394D01*
X122590202Y-117390522D01*
X122619574Y-117394703D01*
X122671168Y-117396662D01*
X122744466Y-117397125D01*
X122919829Y-117397125D01*
X122960075Y-117266156D01*
X122976903Y-117211646D01*
X123001149Y-117133454D01*
X123030756Y-117038196D01*
X123063664Y-116932495D01*
X123097817Y-116822968D01*
X123109377Y-116785937D01*
X123218434Y-116436687D01*
X123316155Y-116431961D01*
X123413875Y-116427234D01*
X123413875Y-117397125D01*
X123731375Y-117397125D01*
X123731375Y-115444500D01*
X123413875Y-115444500D01*
X123413875Y-116147326D01*
X123266125Y-116139597D01*
X123178838Y-116132539D01*
X123117789Y-116121378D01*
X123077618Y-116105098D01*
X123074814Y-116103327D01*
X123036187Y-116072349D01*
X123009012Y-116034465D01*
X122991473Y-115983880D01*
X122981754Y-115914799D01*
X122978040Y-115821426D01*
X122977837Y-115793750D01*
X122979435Y-115695555D01*
X122986193Y-115622839D01*
X123000085Y-115569491D01*
X123023082Y-115529399D01*
X123057160Y-115496453D01*
X123078879Y-115480811D01*
X123110484Y-115462644D01*
X123145010Y-115451671D01*
X123191536Y-115446197D01*
X123259141Y-115444527D01*
X123273348Y-115444500D01*
X123413875Y-115444500D01*
X123731375Y-115444500D01*
X123731375Y-115123890D01*
X123386094Y-115129594D01*
G37*
X123386094Y-115129594D02*
X123272130Y-115131629D01*
X123184925Y-115133829D01*
X123119488Y-115136734D01*
X123070829Y-115140882D01*
X123033960Y-115146811D01*
X123003891Y-115155061D01*
X122975631Y-115166169D01*
X122953500Y-115176288D01*
X122855228Y-115235663D01*
X122778000Y-115313685D01*
X122716249Y-115416035D01*
X122714036Y-115420687D01*
X122673810Y-115535915D01*
X122650774Y-115668962D01*
X122645204Y-115810779D01*
X122657372Y-115952319D01*
X122687554Y-116084532D01*
X122693390Y-116102240D01*
X122716321Y-116148931D01*
X122753295Y-116203964D01*
X122797808Y-116259589D01*
X122843357Y-116308060D01*
X122883440Y-116341629D01*
X122902623Y-116351537D01*
X122905455Y-116363072D01*
X122900174Y-116394736D01*
X122886277Y-116448246D01*
X122863258Y-116525323D01*
X122830615Y-116627684D01*
X122787843Y-116757049D01*
X122755557Y-116852927D01*
X122714908Y-116972900D01*
X122677244Y-117083877D01*
X122643841Y-117182114D01*
X122615976Y-117263865D01*
X122594923Y-117325387D01*
X122581958Y-117362934D01*
X122578517Y-117372594D01*
X122578151Y-117383394D01*
X122590202Y-117390522D01*
X122619574Y-117394703D01*
X122671168Y-117396662D01*
X122744466Y-117397125D01*
X122919829Y-117397125D01*
X122960075Y-117266156D01*
X122976903Y-117211646D01*
X123001149Y-117133454D01*
X123030756Y-117038196D01*
X123063664Y-116932495D01*
X123097817Y-116822968D01*
X123109377Y-116785937D01*
X123218434Y-116436687D01*
X123316155Y-116431961D01*
X123413875Y-116427234D01*
X123413875Y-117397125D01*
X123731375Y-117397125D01*
X123731375Y-115444500D01*
X123413875Y-115444500D01*
X123413875Y-116147326D01*
X123266125Y-116139597D01*
X123178838Y-116132539D01*
X123117789Y-116121378D01*
X123077618Y-116105098D01*
X123074814Y-116103327D01*
X123036187Y-116072349D01*
X123009012Y-116034465D01*
X122991473Y-115983880D01*
X122981754Y-115914799D01*
X122978040Y-115821426D01*
X122977837Y-115793750D01*
X122979435Y-115695555D01*
X122986193Y-115622839D01*
X123000085Y-115569491D01*
X123023082Y-115529399D01*
X123057160Y-115496453D01*
X123078879Y-115480811D01*
X123110484Y-115462644D01*
X123145010Y-115451671D01*
X123191536Y-115446197D01*
X123259141Y-115444527D01*
X123273348Y-115444500D01*
X123413875Y-115444500D01*
X123731375Y-115444500D01*
X123731375Y-115123890D01*
X123386094Y-115129594D01*
G36*
X123941144Y-115281781D02*
G01*
X123945688Y-115436562D01*
X124267157Y-115440859D01*
X124588625Y-115445157D01*
X124588625Y-116095375D01*
X124033000Y-116095375D01*
X124033000Y-116412875D01*
X124588625Y-116412875D01*
X124588625Y-117063092D01*
X124267157Y-117067390D01*
X123945688Y-117071687D01*
X123936640Y-117397125D01*
X124906125Y-117397125D01*
X124906125Y-115127000D01*
X123936601Y-115127000D01*
X123941144Y-115281781D01*
G37*
X123941144Y-115281781D02*
X123945688Y-115436562D01*
X124267157Y-115440859D01*
X124588625Y-115445157D01*
X124588625Y-116095375D01*
X124033000Y-116095375D01*
X124033000Y-116412875D01*
X124588625Y-116412875D01*
X124588625Y-117063092D01*
X124267157Y-117067390D01*
X123945688Y-117071687D01*
X123936640Y-117397125D01*
X124906125Y-117397125D01*
X124906125Y-115127000D01*
X123936601Y-115127000D01*
X123941144Y-115281781D01*
G36*
X130573500Y-117397125D02*
G01*
X130891000Y-117397125D01*
X130891000Y-115127000D01*
X130573500Y-115127000D01*
X130573500Y-117397125D01*
G37*
X130573500Y-117397125D02*
X130891000Y-117397125D01*
X130891000Y-115127000D01*
X130573500Y-115127000D01*
X130573500Y-117397125D01*
G36*
X131596714Y-115134937D02*
G01*
X131489868Y-115187551D01*
X131391320Y-115249535D01*
X131316350Y-115328609D01*
X131261189Y-115429313D01*
X131240138Y-115488290D01*
X131232244Y-115515646D01*
X131225778Y-115543909D01*
X131220599Y-115576434D01*
X131216566Y-115616574D01*
X131213536Y-115667684D01*
X131211370Y-115733119D01*
X131209924Y-115816232D01*
X131209059Y-115920379D01*
X131208632Y-116048913D01*
X131208503Y-116205189D01*
X131208500Y-116239140D01*
X131208985Y-116428740D01*
X131210420Y-116592379D01*
X131212780Y-116728950D01*
X131216037Y-116837346D01*
X131220163Y-116916459D01*
X131225133Y-116965182D01*
X131226331Y-116971687D01*
X131266986Y-117098795D01*
X131330282Y-117203647D01*
X131416090Y-117286115D01*
X131524282Y-117346070D01*
X131633938Y-117379275D01*
X131678632Y-117385342D01*
X131747524Y-117390525D01*
X131833067Y-117394442D01*
X131927714Y-117396712D01*
X131987157Y-117397125D01*
X132256250Y-117397125D01*
X132256250Y-117079625D01*
X131922875Y-117079625D01*
X131810181Y-117079625D01*
X131728818Y-117074989D01*
X131664343Y-117062096D01*
X131644720Y-117054585D01*
X131620879Y-117042670D01*
X131601040Y-117029667D01*
X131584835Y-117012729D01*
X131571897Y-116989008D01*
X131561858Y-116955657D01*
X131554351Y-116909828D01*
X131549007Y-116848673D01*
X131545459Y-116769346D01*
X131543340Y-116668998D01*
X131542281Y-116544782D01*
X131541916Y-116393850D01*
X131541875Y-116258042D01*
X131541875Y-115592070D01*
X131578071Y-115538360D01*
X131615432Y-115493235D01*
X131659313Y-115464748D01*
X131717628Y-115449674D01*
X131798293Y-115444786D01*
X131807782Y-115444734D01*
X131922875Y-115444500D01*
X131922875Y-117079625D01*
X132256250Y-117079625D01*
X132256250Y-115123791D01*
X131596714Y-115134937D01*
G37*
X131596714Y-115134937D02*
X131489868Y-115187551D01*
X131391320Y-115249535D01*
X131316350Y-115328609D01*
X131261189Y-115429313D01*
X131240138Y-115488290D01*
X131232244Y-115515646D01*
X131225778Y-115543909D01*
X131220599Y-115576434D01*
X131216566Y-115616574D01*
X131213536Y-115667684D01*
X131211370Y-115733119D01*
X131209924Y-115816232D01*
X131209059Y-115920379D01*
X131208632Y-116048913D01*
X131208503Y-116205189D01*
X131208500Y-116239140D01*
X131208985Y-116428740D01*
X131210420Y-116592379D01*
X131212780Y-116728950D01*
X131216037Y-116837346D01*
X131220163Y-116916459D01*
X131225133Y-116965182D01*
X131226331Y-116971687D01*
X131266986Y-117098795D01*
X131330282Y-117203647D01*
X131416090Y-117286115D01*
X131524282Y-117346070D01*
X131633938Y-117379275D01*
X131678632Y-117385342D01*
X131747524Y-117390525D01*
X131833067Y-117394442D01*
X131927714Y-117396712D01*
X131987157Y-117397125D01*
X132256250Y-117397125D01*
X132256250Y-117079625D01*
X131922875Y-117079625D01*
X131810181Y-117079625D01*
X131728818Y-117074989D01*
X131664343Y-117062096D01*
X131644720Y-117054585D01*
X131620879Y-117042670D01*
X131601040Y-117029667D01*
X131584835Y-117012729D01*
X131571897Y-116989008D01*
X131561858Y-116955657D01*
X131554351Y-116909828D01*
X131549007Y-116848673D01*
X131545459Y-116769346D01*
X131543340Y-116668998D01*
X131542281Y-116544782D01*
X131541916Y-116393850D01*
X131541875Y-116258042D01*
X131541875Y-115592070D01*
X131578071Y-115538360D01*
X131615432Y-115493235D01*
X131659313Y-115464748D01*
X131717628Y-115449674D01*
X131798293Y-115444786D01*
X131807782Y-115444734D01*
X131922875Y-115444500D01*
X131922875Y-117079625D01*
X132256250Y-117079625D01*
X132256250Y-115123791D01*
X131596714Y-115134937D01*
G36*
X119771419Y-115119864D02*
G01*
X119647925Y-115153405D01*
X119537726Y-115213277D01*
X119444463Y-115297392D01*
X119371778Y-115403661D01*
X119360217Y-115426991D01*
X119352361Y-115444574D01*
X119345812Y-115462680D01*
X119340452Y-115484216D01*
X119336161Y-115512089D01*
X119332820Y-115549204D01*
X119330311Y-115598468D01*
X119328515Y-115662788D01*
X119327312Y-115745070D01*
X119326585Y-115848220D01*
X119326214Y-115975145D01*
X119326079Y-116128752D01*
X119326063Y-116262062D01*
X119326063Y-117024062D01*
X119370192Y-117113923D01*
X119438831Y-117219085D01*
X119529526Y-117303181D01*
X119638839Y-117364068D01*
X119763331Y-117399604D01*
X119841686Y-117407776D01*
X119923885Y-117407086D01*
X119995604Y-117398873D01*
X120027354Y-117391087D01*
X120124961Y-117348495D01*
X120212167Y-117285737D01*
X120276411Y-117221540D01*
X120306061Y-117188023D01*
X120330674Y-117157234D01*
X120350755Y-117125922D01*
X120366805Y-117090836D01*
X120379329Y-117048723D01*
X120388829Y-116996333D01*
X120395809Y-116930414D01*
X120400772Y-116847714D01*
X120404221Y-116744982D01*
X120406659Y-116618967D01*
X120408590Y-116466417D01*
X120409721Y-116360161D01*
X120411308Y-116171388D01*
X120411601Y-116044472D01*
X120078081Y-116044472D01*
X120077570Y-116218739D01*
X120077062Y-116296636D01*
X120075810Y-116457974D01*
X120074580Y-116590621D01*
X120073204Y-116697633D01*
X120071514Y-116782070D01*
X120069344Y-116846987D01*
X120066528Y-116895444D01*
X120062897Y-116930497D01*
X120058285Y-116955205D01*
X120052524Y-116972625D01*
X120045449Y-116985815D01*
X120038908Y-116995136D01*
X120004361Y-117032387D01*
X119967740Y-117059407D01*
X119967470Y-117059547D01*
X119911352Y-117075512D01*
X119842291Y-117077925D01*
X119775920Y-117067067D01*
X119746231Y-117055543D01*
X119724232Y-117043666D01*
X119705934Y-117030916D01*
X119690995Y-117014437D01*
X119679074Y-116991378D01*
X119669832Y-116958883D01*
X119662927Y-116914099D01*
X119658018Y-116854173D01*
X119654766Y-116776250D01*
X119652828Y-116677477D01*
X119651866Y-116554999D01*
X119651536Y-116405964D01*
X119651500Y-116262062D01*
X119651557Y-116089170D01*
X119651960Y-115945168D01*
X119653063Y-115827200D01*
X119655219Y-115732405D01*
X119658781Y-115657924D01*
X119664100Y-115600900D01*
X119671531Y-115558473D01*
X119681425Y-115527784D01*
X119694135Y-115505976D01*
X119710015Y-115490188D01*
X119729416Y-115477562D01*
X119749616Y-115466830D01*
X119808812Y-115448756D01*
X119884407Y-115448034D01*
X119964521Y-115465898D01*
X120022099Y-115505339D01*
X120059355Y-115568052D01*
X120065422Y-115586424D01*
X120069920Y-115619125D01*
X120073454Y-115682421D01*
X120076005Y-115775172D01*
X120077553Y-115896235D01*
X120078081Y-116044472D01*
X120411601Y-116044472D01*
X120411678Y-116011345D01*
X120410623Y-115877026D01*
X120407936Y-115765429D01*
X120403413Y-115673548D01*
X120396847Y-115598380D01*
X120388030Y-115536919D01*
X120376759Y-115486162D01*
X120362825Y-115443105D01*
X120346023Y-115404742D01*
X120343850Y-115400400D01*
X120290397Y-115320492D01*
X120216599Y-115244198D01*
X120133186Y-115181624D01*
X120083170Y-115154950D01*
X120025772Y-115135882D01*
X119954884Y-115120848D01*
X119904566Y-115114742D01*
X119771419Y-115119864D01*
G37*
X119771419Y-115119864D02*
X119647925Y-115153405D01*
X119537726Y-115213277D01*
X119444463Y-115297392D01*
X119371778Y-115403661D01*
X119360217Y-115426991D01*
X119352361Y-115444574D01*
X119345812Y-115462680D01*
X119340452Y-115484216D01*
X119336161Y-115512089D01*
X119332820Y-115549204D01*
X119330311Y-115598468D01*
X119328515Y-115662788D01*
X119327312Y-115745070D01*
X119326585Y-115848220D01*
X119326214Y-115975145D01*
X119326079Y-116128752D01*
X119326063Y-116262062D01*
X119326063Y-117024062D01*
X119370192Y-117113923D01*
X119438831Y-117219085D01*
X119529526Y-117303181D01*
X119638839Y-117364068D01*
X119763331Y-117399604D01*
X119841686Y-117407776D01*
X119923885Y-117407086D01*
X119995604Y-117398873D01*
X120027354Y-117391087D01*
X120124961Y-117348495D01*
X120212167Y-117285737D01*
X120276411Y-117221540D01*
X120306061Y-117188023D01*
X120330674Y-117157234D01*
X120350755Y-117125922D01*
X120366805Y-117090836D01*
X120379329Y-117048723D01*
X120388829Y-116996333D01*
X120395809Y-116930414D01*
X120400772Y-116847714D01*
X120404221Y-116744982D01*
X120406659Y-116618967D01*
X120408590Y-116466417D01*
X120409721Y-116360161D01*
X120411308Y-116171388D01*
X120411601Y-116044472D01*
X120078081Y-116044472D01*
X120077570Y-116218739D01*
X120077062Y-116296636D01*
X120075810Y-116457974D01*
X120074580Y-116590621D01*
X120073204Y-116697633D01*
X120071514Y-116782070D01*
X120069344Y-116846987D01*
X120066528Y-116895444D01*
X120062897Y-116930497D01*
X120058285Y-116955205D01*
X120052524Y-116972625D01*
X120045449Y-116985815D01*
X120038908Y-116995136D01*
X120004361Y-117032387D01*
X119967740Y-117059407D01*
X119967470Y-117059547D01*
X119911352Y-117075512D01*
X119842291Y-117077925D01*
X119775920Y-117067067D01*
X119746231Y-117055543D01*
X119724232Y-117043666D01*
X119705934Y-117030916D01*
X119690995Y-117014437D01*
X119679074Y-116991378D01*
X119669832Y-116958883D01*
X119662927Y-116914099D01*
X119658018Y-116854173D01*
X119654766Y-116776250D01*
X119652828Y-116677477D01*
X119651866Y-116554999D01*
X119651536Y-116405964D01*
X119651500Y-116262062D01*
X119651557Y-116089170D01*
X119651960Y-115945168D01*
X119653063Y-115827200D01*
X119655219Y-115732405D01*
X119658781Y-115657924D01*
X119664100Y-115600900D01*
X119671531Y-115558473D01*
X119681425Y-115527784D01*
X119694135Y-115505976D01*
X119710015Y-115490188D01*
X119729416Y-115477562D01*
X119749616Y-115466830D01*
X119808812Y-115448756D01*
X119884407Y-115448034D01*
X119964521Y-115465898D01*
X120022099Y-115505339D01*
X120059355Y-115568052D01*
X120065422Y-115586424D01*
X120069920Y-115619125D01*
X120073454Y-115682421D01*
X120076005Y-115775172D01*
X120077553Y-115896235D01*
X120078081Y-116044472D01*
X120411601Y-116044472D01*
X120411678Y-116011345D01*
X120410623Y-115877026D01*
X120407936Y-115765429D01*
X120403413Y-115673548D01*
X120396847Y-115598380D01*
X120388030Y-115536919D01*
X120376759Y-115486162D01*
X120362825Y-115443105D01*
X120346023Y-115404742D01*
X120343850Y-115400400D01*
X120290397Y-115320492D01*
X120216599Y-115244198D01*
X120133186Y-115181624D01*
X120083170Y-115154950D01*
X120025772Y-115135882D01*
X119954884Y-115120848D01*
X119904566Y-115114742D01*
X119771419Y-115119864D01*
G36*
X121721642Y-115131290D02*
G01*
X121605572Y-115174389D01*
X121502738Y-115240567D01*
X121446381Y-115294967D01*
X121388432Y-115373790D01*
X121350131Y-115459267D01*
X121328333Y-115560059D01*
X121321470Y-115638968D01*
X121314492Y-115777875D01*
X121651750Y-115777875D01*
X121651750Y-115681836D01*
X121660142Y-115590892D01*
X121686331Y-115523873D01*
X121731841Y-115477440D01*
X121749866Y-115466830D01*
X121805793Y-115450102D01*
X121873174Y-115446879D01*
X121939427Y-115456236D01*
X121991969Y-115477244D01*
X122002945Y-115485473D01*
X122021386Y-115502918D01*
X122036642Y-115521389D01*
X122049015Y-115543909D01*
X122058806Y-115573500D01*
X122066316Y-115613187D01*
X122071848Y-115665992D01*
X122075702Y-115734939D01*
X122078180Y-115823052D01*
X122079584Y-115933354D01*
X122080215Y-116068868D01*
X122080374Y-116232617D01*
X122080375Y-116262062D01*
X122080265Y-116430679D01*
X122079731Y-116570570D01*
X122078473Y-116684758D01*
X122076190Y-116776267D01*
X122072579Y-116848119D01*
X122067341Y-116903339D01*
X122060172Y-116944949D01*
X122050771Y-116975973D01*
X122038838Y-116999435D01*
X122024071Y-117018357D01*
X122006167Y-117035764D01*
X122002945Y-117038651D01*
X121956804Y-117062898D01*
X121893265Y-117075765D01*
X121824911Y-117076324D01*
X121764325Y-117063649D01*
X121749866Y-117057294D01*
X121716121Y-117036624D01*
X121691016Y-117011270D01*
X121673313Y-116976520D01*
X121661776Y-116927667D01*
X121655169Y-116860000D01*
X121652255Y-116768811D01*
X121651750Y-116683538D01*
X121651750Y-116428750D01*
X121905750Y-116428750D01*
X121905750Y-116143000D01*
X121316536Y-116143000D01*
X121321425Y-116583531D01*
X121323273Y-116725130D01*
X121325875Y-116839133D01*
X121330034Y-116929696D01*
X121336555Y-117000973D01*
X121346242Y-117057118D01*
X121359898Y-117102287D01*
X121378328Y-117140633D01*
X121402337Y-117176312D01*
X121432727Y-117213478D01*
X121446381Y-117229157D01*
X121537078Y-117309417D01*
X121645760Y-117368054D01*
X121765522Y-117403156D01*
X121889458Y-117412809D01*
X122010663Y-117395101D01*
X122027604Y-117390148D01*
X122137366Y-117340161D01*
X122236480Y-117264771D01*
X122317710Y-117170144D01*
X122350795Y-117114771D01*
X122365735Y-117081379D01*
X122378131Y-117042454D01*
X122388207Y-116994915D01*
X122396186Y-116935680D01*
X122402291Y-116861667D01*
X122406746Y-116769795D01*
X122409773Y-116656981D01*
X122411597Y-116520145D01*
X122412440Y-116356205D01*
X122412563Y-116262062D01*
X122412224Y-116083888D01*
X122410895Y-115934262D01*
X122408321Y-115809992D01*
X122404250Y-115707884D01*
X122398428Y-115624746D01*
X122390603Y-115557385D01*
X122380520Y-115502606D01*
X122367926Y-115457219D01*
X122352569Y-115418029D01*
X122344224Y-115400646D01*
X122290602Y-115320465D01*
X122216625Y-115244000D01*
X122133033Y-115181372D01*
X122083420Y-115154950D01*
X121967150Y-115120124D01*
X121844363Y-115112719D01*
X121721642Y-115131290D01*
G37*
X121721642Y-115131290D02*
X121605572Y-115174389D01*
X121502738Y-115240567D01*
X121446381Y-115294967D01*
X121388432Y-115373790D01*
X121350131Y-115459267D01*
X121328333Y-115560059D01*
X121321470Y-115638968D01*
X121314492Y-115777875D01*
X121651750Y-115777875D01*
X121651750Y-115681836D01*
X121660142Y-115590892D01*
X121686331Y-115523873D01*
X121731841Y-115477440D01*
X121749866Y-115466830D01*
X121805793Y-115450102D01*
X121873174Y-115446879D01*
X121939427Y-115456236D01*
X121991969Y-115477244D01*
X122002945Y-115485473D01*
X122021386Y-115502918D01*
X122036642Y-115521389D01*
X122049015Y-115543909D01*
X122058806Y-115573500D01*
X122066316Y-115613187D01*
X122071848Y-115665992D01*
X122075702Y-115734939D01*
X122078180Y-115823052D01*
X122079584Y-115933354D01*
X122080215Y-116068868D01*
X122080374Y-116232617D01*
X122080375Y-116262062D01*
X122080265Y-116430679D01*
X122079731Y-116570570D01*
X122078473Y-116684758D01*
X122076190Y-116776267D01*
X122072579Y-116848119D01*
X122067341Y-116903339D01*
X122060172Y-116944949D01*
X122050771Y-116975973D01*
X122038838Y-116999435D01*
X122024071Y-117018357D01*
X122006167Y-117035764D01*
X122002945Y-117038651D01*
X121956804Y-117062898D01*
X121893265Y-117075765D01*
X121824911Y-117076324D01*
X121764325Y-117063649D01*
X121749866Y-117057294D01*
X121716121Y-117036624D01*
X121691016Y-117011270D01*
X121673313Y-116976520D01*
X121661776Y-116927667D01*
X121655169Y-116860000D01*
X121652255Y-116768811D01*
X121651750Y-116683538D01*
X121651750Y-116428750D01*
X121905750Y-116428750D01*
X121905750Y-116143000D01*
X121316536Y-116143000D01*
X121321425Y-116583531D01*
X121323273Y-116725130D01*
X121325875Y-116839133D01*
X121330034Y-116929696D01*
X121336555Y-117000973D01*
X121346242Y-117057118D01*
X121359898Y-117102287D01*
X121378328Y-117140633D01*
X121402337Y-117176312D01*
X121432727Y-117213478D01*
X121446381Y-117229157D01*
X121537078Y-117309417D01*
X121645760Y-117368054D01*
X121765522Y-117403156D01*
X121889458Y-117412809D01*
X122010663Y-117395101D01*
X122027604Y-117390148D01*
X122137366Y-117340161D01*
X122236480Y-117264771D01*
X122317710Y-117170144D01*
X122350795Y-117114771D01*
X122365735Y-117081379D01*
X122378131Y-117042454D01*
X122388207Y-116994915D01*
X122396186Y-116935680D01*
X122402291Y-116861667D01*
X122406746Y-116769795D01*
X122409773Y-116656981D01*
X122411597Y-116520145D01*
X122412440Y-116356205D01*
X122412563Y-116262062D01*
X122412224Y-116083888D01*
X122410895Y-115934262D01*
X122408321Y-115809992D01*
X122404250Y-115707884D01*
X122398428Y-115624746D01*
X122390603Y-115557385D01*
X122380520Y-115502606D01*
X122367926Y-115457219D01*
X122352569Y-115418029D01*
X122344224Y-115400646D01*
X122290602Y-115320465D01*
X122216625Y-115244000D01*
X122133033Y-115181372D01*
X122083420Y-115154950D01*
X121967150Y-115120124D01*
X121844363Y-115112719D01*
X121721642Y-115131290D01*
G36*
X125660580Y-115114565D02*
G01*
X125527439Y-115137311D01*
X125411058Y-115186130D01*
X125313378Y-115259013D01*
X125236341Y-115353954D01*
X125181889Y-115468944D01*
X125151963Y-115601977D01*
X125148100Y-115644437D01*
X125139775Y-115777875D01*
X125473216Y-115777875D01*
X125481619Y-115685199D01*
X125499326Y-115587399D01*
X125533166Y-115516362D01*
X125584587Y-115470699D01*
X125655041Y-115449021D01*
X125728975Y-115448247D01*
X125803398Y-115464277D01*
X125856461Y-115500651D01*
X125892815Y-115561351D01*
X125905423Y-115599307D01*
X125918026Y-115671141D01*
X125921280Y-115752816D01*
X125915457Y-115831211D01*
X125900828Y-115893202D01*
X125899268Y-115897099D01*
X125882376Y-115928595D01*
X125857260Y-115956707D01*
X125819536Y-115984139D01*
X125764820Y-116013593D01*
X125688727Y-116047772D01*
X125588112Y-116088885D01*
X125472704Y-116137832D01*
X125383651Y-116183311D01*
X125316293Y-116228647D01*
X125265973Y-116277164D01*
X125228029Y-116332187D01*
X125216659Y-116353907D01*
X125184375Y-116444747D01*
X125163279Y-116557012D01*
X125153468Y-116682377D01*
X125155037Y-116812516D01*
X125168083Y-116939104D01*
X125192704Y-117053817D01*
X125208003Y-117100468D01*
X125263299Y-117209318D01*
X125338978Y-117294214D01*
X125435456Y-117355427D01*
X125553145Y-117393229D01*
X125676063Y-117407401D01*
X125778377Y-117407212D01*
X125857537Y-117398263D01*
X125885229Y-117391163D01*
X126003916Y-117336495D01*
X126102939Y-117258440D01*
X126179934Y-117160236D01*
X126232536Y-117045120D01*
X126258378Y-116916330D01*
X126260516Y-116877475D01*
X126263438Y-116754187D01*
X125938000Y-116745139D01*
X125938000Y-116825579D01*
X125926425Y-116923136D01*
X125892170Y-117000406D01*
X125850471Y-117045209D01*
X125815573Y-117066067D01*
X125771802Y-117076646D01*
X125707988Y-117079624D01*
X125706890Y-117079625D01*
X125627047Y-117072067D01*
X125566476Y-117047554D01*
X125523233Y-117003326D01*
X125495377Y-116936623D01*
X125480963Y-116844685D01*
X125477803Y-116754187D01*
X125481912Y-116649418D01*
X125494993Y-116570817D01*
X125518175Y-116513788D01*
X125545070Y-116480307D01*
X125572607Y-116461862D01*
X125622941Y-116434787D01*
X125689458Y-116402407D01*
X125765543Y-116368053D01*
X125783918Y-116360129D01*
X125864258Y-116324612D01*
X125939486Y-116289215D01*
X126001945Y-116257682D01*
X126043976Y-116233759D01*
X126048567Y-116230699D01*
X126127876Y-116156529D01*
X126186861Y-116058181D01*
X126225395Y-115935975D01*
X126243349Y-115790232D01*
X126244727Y-115738753D01*
X126233426Y-115587436D01*
X126198656Y-115453928D01*
X126142024Y-115339946D01*
X126065133Y-115247203D01*
X125969589Y-115177415D01*
X125856996Y-115132297D01*
X125728959Y-115113562D01*
X125660580Y-115114565D01*
G37*
X125660580Y-115114565D02*
X125527439Y-115137311D01*
X125411058Y-115186130D01*
X125313378Y-115259013D01*
X125236341Y-115353954D01*
X125181889Y-115468944D01*
X125151963Y-115601977D01*
X125148100Y-115644437D01*
X125139775Y-115777875D01*
X125473216Y-115777875D01*
X125481619Y-115685199D01*
X125499326Y-115587399D01*
X125533166Y-115516362D01*
X125584587Y-115470699D01*
X125655041Y-115449021D01*
X125728975Y-115448247D01*
X125803398Y-115464277D01*
X125856461Y-115500651D01*
X125892815Y-115561351D01*
X125905423Y-115599307D01*
X125918026Y-115671141D01*
X125921280Y-115752816D01*
X125915457Y-115831211D01*
X125900828Y-115893202D01*
X125899268Y-115897099D01*
X125882376Y-115928595D01*
X125857260Y-115956707D01*
X125819536Y-115984139D01*
X125764820Y-116013593D01*
X125688727Y-116047772D01*
X125588112Y-116088885D01*
X125472704Y-116137832D01*
X125383651Y-116183311D01*
X125316293Y-116228647D01*
X125265973Y-116277164D01*
X125228029Y-116332187D01*
X125216659Y-116353907D01*
X125184375Y-116444747D01*
X125163279Y-116557012D01*
X125153468Y-116682377D01*
X125155037Y-116812516D01*
X125168083Y-116939104D01*
X125192704Y-117053817D01*
X125208003Y-117100468D01*
X125263299Y-117209318D01*
X125338978Y-117294214D01*
X125435456Y-117355427D01*
X125553145Y-117393229D01*
X125676063Y-117407401D01*
X125778377Y-117407212D01*
X125857537Y-117398263D01*
X125885229Y-117391163D01*
X126003916Y-117336495D01*
X126102939Y-117258440D01*
X126179934Y-117160236D01*
X126232536Y-117045120D01*
X126258378Y-116916330D01*
X126260516Y-116877475D01*
X126263438Y-116754187D01*
X125938000Y-116745139D01*
X125938000Y-116825579D01*
X125926425Y-116923136D01*
X125892170Y-117000406D01*
X125850471Y-117045209D01*
X125815573Y-117066067D01*
X125771802Y-117076646D01*
X125707988Y-117079624D01*
X125706890Y-117079625D01*
X125627047Y-117072067D01*
X125566476Y-117047554D01*
X125523233Y-117003326D01*
X125495377Y-116936623D01*
X125480963Y-116844685D01*
X125477803Y-116754187D01*
X125481912Y-116649418D01*
X125494993Y-116570817D01*
X125518175Y-116513788D01*
X125545070Y-116480307D01*
X125572607Y-116461862D01*
X125622941Y-116434787D01*
X125689458Y-116402407D01*
X125765543Y-116368053D01*
X125783918Y-116360129D01*
X125864258Y-116324612D01*
X125939486Y-116289215D01*
X126001945Y-116257682D01*
X126043976Y-116233759D01*
X126048567Y-116230699D01*
X126127876Y-116156529D01*
X126186861Y-116058181D01*
X126225395Y-115935975D01*
X126243349Y-115790232D01*
X126244727Y-115738753D01*
X126233426Y-115587436D01*
X126198656Y-115453928D01*
X126142024Y-115339946D01*
X126065133Y-115247203D01*
X125969589Y-115177415D01*
X125856996Y-115132297D01*
X125728959Y-115113562D01*
X125660580Y-115114565D01*
G36*
X126949638Y-115120558D02*
G01*
X126893649Y-115126434D01*
X126846283Y-115138769D01*
X126796017Y-115159643D01*
X126792902Y-115161098D01*
X126682465Y-115229368D01*
X126594953Y-115319242D01*
X126531492Y-115429236D01*
X126493862Y-115554377D01*
X126490056Y-115590521D01*
X126486612Y-115654748D01*
X126483614Y-115743395D01*
X126481146Y-115852794D01*
X126479290Y-115979282D01*
X126478131Y-116119193D01*
X126477750Y-116262062D01*
X126478166Y-116411376D01*
X126479358Y-116550769D01*
X126481243Y-116676576D01*
X126483736Y-116785132D01*
X126486756Y-116872772D01*
X126490218Y-116935830D01*
X126493862Y-116969747D01*
X126532184Y-117097617D01*
X126594993Y-117205322D01*
X126682627Y-117293309D01*
X126786794Y-117357879D01*
X126891670Y-117394467D01*
X127007329Y-117410229D01*
X127121990Y-117404416D01*
X127203241Y-117384390D01*
X127326261Y-117324999D01*
X127428054Y-117242067D01*
X127509133Y-117135128D01*
X127538723Y-117079625D01*
X127544913Y-117063927D01*
X127550069Y-117043244D01*
X127554284Y-117014754D01*
X127557649Y-116975636D01*
X127560257Y-116923070D01*
X127562200Y-116854233D01*
X127563570Y-116766305D01*
X127564460Y-116656464D01*
X127564962Y-116521890D01*
X127565167Y-116359761D01*
X127565188Y-116270000D01*
X127565188Y-116262062D01*
X127239750Y-116262062D01*
X127239682Y-116434829D01*
X127239258Y-116578706D01*
X127238148Y-116696553D01*
X127236022Y-116791230D01*
X127232550Y-116865597D01*
X127227401Y-116922514D01*
X127220246Y-116964842D01*
X127210754Y-116995439D01*
X127198597Y-117017166D01*
X127183442Y-117032884D01*
X127164962Y-117045451D01*
X127148270Y-117054774D01*
X127088321Y-117074527D01*
X127018205Y-117079247D01*
X126950832Y-117069429D01*
X126899115Y-117045568D01*
X126898655Y-117045209D01*
X126877917Y-117028080D01*
X126860743Y-117010295D01*
X126846796Y-116988850D01*
X126835741Y-116960741D01*
X126827243Y-116922965D01*
X126820965Y-116872518D01*
X126816572Y-116806396D01*
X126813728Y-116721596D01*
X126812097Y-116615114D01*
X126811344Y-116483945D01*
X126811133Y-116325087D01*
X126811125Y-116262062D01*
X126811226Y-116092749D01*
X126811749Y-115952183D01*
X126813033Y-115837359D01*
X126815412Y-115745274D01*
X126819222Y-115672924D01*
X126824798Y-115617306D01*
X126832478Y-115575415D01*
X126842595Y-115544248D01*
X126855486Y-115520801D01*
X126871487Y-115502071D01*
X126890933Y-115485054D01*
X126898655Y-115478915D01*
X126951681Y-115454024D01*
X127020123Y-115444313D01*
X127091227Y-115450318D01*
X127145020Y-115468581D01*
X127167019Y-115480458D01*
X127185317Y-115493208D01*
X127200256Y-115509687D01*
X127212177Y-115532746D01*
X127221419Y-115565241D01*
X127228324Y-115610025D01*
X127233233Y-115669951D01*
X127236485Y-115747874D01*
X127238423Y-115846647D01*
X127239385Y-115969125D01*
X127239715Y-116118160D01*
X127239750Y-116262062D01*
X127565188Y-116262062D01*
X127565188Y-115515937D01*
X127523895Y-115427900D01*
X127464695Y-115325219D01*
X127392030Y-115246217D01*
X127298664Y-115183444D01*
X127274445Y-115170982D01*
X127219293Y-115145387D01*
X127173772Y-115129892D01*
X127126005Y-115122015D01*
X127064117Y-115119278D01*
X127025772Y-115119062D01*
X126949638Y-115120558D01*
G37*
X126949638Y-115120558D02*
X126893649Y-115126434D01*
X126846283Y-115138769D01*
X126796017Y-115159643D01*
X126792902Y-115161098D01*
X126682465Y-115229368D01*
X126594953Y-115319242D01*
X126531492Y-115429236D01*
X126493862Y-115554377D01*
X126490056Y-115590521D01*
X126486612Y-115654748D01*
X126483614Y-115743395D01*
X126481146Y-115852794D01*
X126479290Y-115979282D01*
X126478131Y-116119193D01*
X126477750Y-116262062D01*
X126478166Y-116411376D01*
X126479358Y-116550769D01*
X126481243Y-116676576D01*
X126483736Y-116785132D01*
X126486756Y-116872772D01*
X126490218Y-116935830D01*
X126493862Y-116969747D01*
X126532184Y-117097617D01*
X126594993Y-117205322D01*
X126682627Y-117293309D01*
X126786794Y-117357879D01*
X126891670Y-117394467D01*
X127007329Y-117410229D01*
X127121990Y-117404416D01*
X127203241Y-117384390D01*
X127326261Y-117324999D01*
X127428054Y-117242067D01*
X127509133Y-117135128D01*
X127538723Y-117079625D01*
X127544913Y-117063927D01*
X127550069Y-117043244D01*
X127554284Y-117014754D01*
X127557649Y-116975636D01*
X127560257Y-116923070D01*
X127562200Y-116854233D01*
X127563570Y-116766305D01*
X127564460Y-116656464D01*
X127564962Y-116521890D01*
X127565167Y-116359761D01*
X127565188Y-116270000D01*
X127565188Y-116262062D01*
X127239750Y-116262062D01*
X127239682Y-116434829D01*
X127239258Y-116578706D01*
X127238148Y-116696553D01*
X127236022Y-116791230D01*
X127232550Y-116865597D01*
X127227401Y-116922514D01*
X127220246Y-116964842D01*
X127210754Y-116995439D01*
X127198597Y-117017166D01*
X127183442Y-117032884D01*
X127164962Y-117045451D01*
X127148270Y-117054774D01*
X127088321Y-117074527D01*
X127018205Y-117079247D01*
X126950832Y-117069429D01*
X126899115Y-117045568D01*
X126898655Y-117045209D01*
X126877917Y-117028080D01*
X126860743Y-117010295D01*
X126846796Y-116988850D01*
X126835741Y-116960741D01*
X126827243Y-116922965D01*
X126820965Y-116872518D01*
X126816572Y-116806396D01*
X126813728Y-116721596D01*
X126812097Y-116615114D01*
X126811344Y-116483945D01*
X126811133Y-116325087D01*
X126811125Y-116262062D01*
X126811226Y-116092749D01*
X126811749Y-115952183D01*
X126813033Y-115837359D01*
X126815412Y-115745274D01*
X126819222Y-115672924D01*
X126824798Y-115617306D01*
X126832478Y-115575415D01*
X126842595Y-115544248D01*
X126855486Y-115520801D01*
X126871487Y-115502071D01*
X126890933Y-115485054D01*
X126898655Y-115478915D01*
X126951681Y-115454024D01*
X127020123Y-115444313D01*
X127091227Y-115450318D01*
X127145020Y-115468581D01*
X127167019Y-115480458D01*
X127185317Y-115493208D01*
X127200256Y-115509687D01*
X127212177Y-115532746D01*
X127221419Y-115565241D01*
X127228324Y-115610025D01*
X127233233Y-115669951D01*
X127236485Y-115747874D01*
X127238423Y-115846647D01*
X127239385Y-115969125D01*
X127239715Y-116118160D01*
X127239750Y-116262062D01*
X127565188Y-116262062D01*
X127565188Y-115515937D01*
X127523895Y-115427900D01*
X127464695Y-115325219D01*
X127392030Y-115246217D01*
X127298664Y-115183444D01*
X127274445Y-115170982D01*
X127219293Y-115145387D01*
X127173772Y-115129892D01*
X127126005Y-115122015D01*
X127064117Y-115119278D01*
X127025772Y-115119062D01*
X126949638Y-115120558D01*
G36*
X128332961Y-115114964D02*
G01*
X128204068Y-115139031D01*
X128089311Y-115190697D01*
X127991468Y-115268141D01*
X127913316Y-115369546D01*
X127895654Y-115401374D01*
X127873211Y-115451235D01*
X127858918Y-115501957D01*
X127850404Y-115564538D01*
X127846137Y-115631031D01*
X127839213Y-115777875D01*
X128160500Y-115777875D01*
X128160500Y-115697990D01*
X128170607Y-115601036D01*
X128201231Y-115528110D01*
X128252826Y-115478633D01*
X128325849Y-115452024D01*
X128356587Y-115448003D01*
X128444875Y-115452006D01*
X128513494Y-115480606D01*
X128563340Y-115534206D01*
X128569013Y-115543987D01*
X128575923Y-115558831D01*
X128581605Y-115577707D01*
X128586178Y-115603646D01*
X128589758Y-115639685D01*
X128592466Y-115688856D01*
X128594420Y-115754194D01*
X128595738Y-115838732D01*
X128596538Y-115945506D01*
X128596940Y-116077548D01*
X128597062Y-116237893D01*
X128597063Y-116262062D01*
X128597000Y-116434444D01*
X128596554Y-116577960D01*
X128595340Y-116695490D01*
X128592975Y-116789920D01*
X128589073Y-116864131D01*
X128583251Y-116921007D01*
X128575124Y-116963429D01*
X128564307Y-116994282D01*
X128550416Y-117016448D01*
X128533066Y-117032810D01*
X128511873Y-117046250D01*
X128491010Y-117057294D01*
X128429653Y-117075620D01*
X128358460Y-117077345D01*
X128289898Y-117063703D01*
X128236428Y-117035924D01*
X128231549Y-117031634D01*
X128204148Y-116999701D01*
X128184460Y-116959857D01*
X128171568Y-116907083D01*
X128164558Y-116836363D01*
X128162515Y-116742676D01*
X128163589Y-116658937D01*
X128168438Y-116436687D01*
X128291469Y-116432050D01*
X128414500Y-116427414D01*
X128414500Y-116143000D01*
X127841187Y-116143000D01*
X127846062Y-116591468D01*
X127847564Y-116722677D01*
X127849111Y-116826189D01*
X127851042Y-116906059D01*
X127853696Y-116966338D01*
X127857411Y-117011080D01*
X127862527Y-117044337D01*
X127869380Y-117070162D01*
X127878311Y-117092608D01*
X127889657Y-117115727D01*
X127889902Y-117116206D01*
X127942614Y-117195087D01*
X128015290Y-117271706D01*
X128097155Y-117335859D01*
X128157052Y-117369190D01*
X128244248Y-117395676D01*
X128346798Y-117407961D01*
X128451396Y-117405506D01*
X128544737Y-117387774D01*
X128552792Y-117385189D01*
X128660054Y-117335752D01*
X128756342Y-117265742D01*
X128826979Y-117188605D01*
X128848584Y-117157883D01*
X128866710Y-117128453D01*
X128881640Y-117097342D01*
X128893661Y-117061581D01*
X128903057Y-117018196D01*
X128910113Y-116964217D01*
X128915115Y-116896671D01*
X128918347Y-116812586D01*
X128920096Y-116708992D01*
X128920645Y-116582916D01*
X128920281Y-116431387D01*
X128919288Y-116251432D01*
X128919142Y-116228119D01*
X128918016Y-116056794D01*
X128916891Y-115914233D01*
X128915626Y-115797449D01*
X128914079Y-115703457D01*
X128912108Y-115629270D01*
X128909571Y-115571903D01*
X128906326Y-115528369D01*
X128902232Y-115495683D01*
X128897147Y-115470857D01*
X128890929Y-115450907D01*
X128883436Y-115432845D01*
X128881136Y-115427818D01*
X128813597Y-115317715D01*
X128724605Y-115229198D01*
X128617721Y-115164300D01*
X128496506Y-115125054D01*
X128364521Y-115113490D01*
X128332961Y-115114964D01*
G37*
X128332961Y-115114964D02*
X128204068Y-115139031D01*
X128089311Y-115190697D01*
X127991468Y-115268141D01*
X127913316Y-115369546D01*
X127895654Y-115401374D01*
X127873211Y-115451235D01*
X127858918Y-115501957D01*
X127850404Y-115564538D01*
X127846137Y-115631031D01*
X127839213Y-115777875D01*
X128160500Y-115777875D01*
X128160500Y-115697990D01*
X128170607Y-115601036D01*
X128201231Y-115528110D01*
X128252826Y-115478633D01*
X128325849Y-115452024D01*
X128356587Y-115448003D01*
X128444875Y-115452006D01*
X128513494Y-115480606D01*
X128563340Y-115534206D01*
X128569013Y-115543987D01*
X128575923Y-115558831D01*
X128581605Y-115577707D01*
X128586178Y-115603646D01*
X128589758Y-115639685D01*
X128592466Y-115688856D01*
X128594420Y-115754194D01*
X128595738Y-115838732D01*
X128596538Y-115945506D01*
X128596940Y-116077548D01*
X128597062Y-116237893D01*
X128597063Y-116262062D01*
X128597000Y-116434444D01*
X128596554Y-116577960D01*
X128595340Y-116695490D01*
X128592975Y-116789920D01*
X128589073Y-116864131D01*
X128583251Y-116921007D01*
X128575124Y-116963429D01*
X128564307Y-116994282D01*
X128550416Y-117016448D01*
X128533066Y-117032810D01*
X128511873Y-117046250D01*
X128491010Y-117057294D01*
X128429653Y-117075620D01*
X128358460Y-117077345D01*
X128289898Y-117063703D01*
X128236428Y-117035924D01*
X128231549Y-117031634D01*
X128204148Y-116999701D01*
X128184460Y-116959857D01*
X128171568Y-116907083D01*
X128164558Y-116836363D01*
X128162515Y-116742676D01*
X128163589Y-116658937D01*
X128168438Y-116436687D01*
X128291469Y-116432050D01*
X128414500Y-116427414D01*
X128414500Y-116143000D01*
X127841187Y-116143000D01*
X127846062Y-116591468D01*
X127847564Y-116722677D01*
X127849111Y-116826189D01*
X127851042Y-116906059D01*
X127853696Y-116966338D01*
X127857411Y-117011080D01*
X127862527Y-117044337D01*
X127869380Y-117070162D01*
X127878311Y-117092608D01*
X127889657Y-117115727D01*
X127889902Y-117116206D01*
X127942614Y-117195087D01*
X128015290Y-117271706D01*
X128097155Y-117335859D01*
X128157052Y-117369190D01*
X128244248Y-117395676D01*
X128346798Y-117407961D01*
X128451396Y-117405506D01*
X128544737Y-117387774D01*
X128552792Y-117385189D01*
X128660054Y-117335752D01*
X128756342Y-117265742D01*
X128826979Y-117188605D01*
X128848584Y-117157883D01*
X128866710Y-117128453D01*
X128881640Y-117097342D01*
X128893661Y-117061581D01*
X128903057Y-117018196D01*
X128910113Y-116964217D01*
X128915115Y-116896671D01*
X128918347Y-116812586D01*
X128920096Y-116708992D01*
X128920645Y-116582916D01*
X128920281Y-116431387D01*
X128919288Y-116251432D01*
X128919142Y-116228119D01*
X128918016Y-116056794D01*
X128916891Y-115914233D01*
X128915626Y-115797449D01*
X128914079Y-115703457D01*
X128912108Y-115629270D01*
X128909571Y-115571903D01*
X128906326Y-115528369D01*
X128902232Y-115495683D01*
X128897147Y-115470857D01*
X128890929Y-115450907D01*
X128883436Y-115432845D01*
X128881136Y-115427818D01*
X128813597Y-115317715D01*
X128724605Y-115229198D01*
X128617721Y-115164300D01*
X128496506Y-115125054D01*
X128364521Y-115113490D01*
X128332961Y-115114964D01*
G36*
X129656352Y-115120331D02*
G01*
X129601686Y-115125029D01*
X129557523Y-115135227D01*
X129513262Y-115152864D01*
X129491733Y-115163133D01*
X129396636Y-115224742D01*
X129311531Y-115307936D01*
X129246141Y-115402779D01*
X129234617Y-115425836D01*
X129226765Y-115443574D01*
X129220212Y-115461755D01*
X129214842Y-115483272D01*
X129210536Y-115511016D01*
X129207178Y-115547880D01*
X129204649Y-115596756D01*
X129202832Y-115660537D01*
X129201609Y-115742115D01*
X129200864Y-115844383D01*
X129200478Y-115970233D01*
X129200333Y-116122557D01*
X129200313Y-116270000D01*
X129200313Y-117039937D01*
X129237160Y-117108984D01*
X129304037Y-117207882D01*
X129388995Y-117292979D01*
X129483307Y-117355678D01*
X129491733Y-117359822D01*
X129594333Y-117394611D01*
X129708765Y-117410062D01*
X129822999Y-117405548D01*
X129920249Y-117382240D01*
X129972135Y-117361304D01*
X130014495Y-117341238D01*
X130031374Y-117331135D01*
X130114818Y-117258212D01*
X130185053Y-117176688D01*
X130221653Y-117119312D01*
X130263938Y-117039937D01*
X130268491Y-116291999D01*
X130268947Y-116213909D01*
X129953627Y-116213909D01*
X129953526Y-116346353D01*
X129952686Y-116476052D01*
X129951106Y-116598695D01*
X129948787Y-116709972D01*
X129945729Y-116805571D01*
X129941932Y-116881182D01*
X129937395Y-116932494D01*
X129933636Y-116952075D01*
X129897954Y-117010703D01*
X129841601Y-117052867D01*
X129772331Y-117076254D01*
X129697894Y-117078548D01*
X129626045Y-117057435D01*
X129610107Y-117048665D01*
X129588498Y-117035327D01*
X129570554Y-117022105D01*
X129555936Y-117006094D01*
X129544303Y-116984393D01*
X129535314Y-116954097D01*
X129528629Y-116912304D01*
X129523906Y-116856110D01*
X129520806Y-116782611D01*
X129518987Y-116688905D01*
X129518109Y-116572088D01*
X129517831Y-116429256D01*
X129517813Y-116262062D01*
X129517833Y-116091053D01*
X129518122Y-115948891D01*
X129519019Y-115832671D01*
X129520865Y-115739492D01*
X129524001Y-115666450D01*
X129528767Y-115610641D01*
X129535505Y-115569163D01*
X129544554Y-115539111D01*
X129556256Y-115517583D01*
X129570951Y-115501676D01*
X129588980Y-115488485D01*
X129610107Y-115475459D01*
X129680190Y-115448408D01*
X129754714Y-115445316D01*
X129825924Y-115463871D01*
X129886070Y-115501756D01*
X129927399Y-115556659D01*
X129933636Y-115572049D01*
X129938709Y-115603006D01*
X129943044Y-115661393D01*
X129946639Y-115742900D01*
X129949495Y-115843216D01*
X129951612Y-115958030D01*
X129952989Y-116083031D01*
X129953627Y-116213909D01*
X130268947Y-116213909D01*
X130269506Y-116118200D01*
X130270179Y-115973150D01*
X130270409Y-115853849D01*
X130270093Y-115757299D01*
X130269127Y-115680500D01*
X130267409Y-115620451D01*
X130264836Y-115574154D01*
X130261306Y-115538609D01*
X130256716Y-115510815D01*
X130250964Y-115487774D01*
X130243947Y-115466486D01*
X130239856Y-115455361D01*
X130188028Y-115356465D01*
X130112804Y-115265527D01*
X130022516Y-115191673D01*
X129973463Y-115163580D01*
X129925598Y-115141985D01*
X129882659Y-115128724D01*
X129834009Y-115121842D01*
X129769010Y-115119381D01*
X129732125Y-115119195D01*
X129656352Y-115120331D01*
G37*
X129656352Y-115120331D02*
X129601686Y-115125029D01*
X129557523Y-115135227D01*
X129513262Y-115152864D01*
X129491733Y-115163133D01*
X129396636Y-115224742D01*
X129311531Y-115307936D01*
X129246141Y-115402779D01*
X129234617Y-115425836D01*
X129226765Y-115443574D01*
X129220212Y-115461755D01*
X129214842Y-115483272D01*
X129210536Y-115511016D01*
X129207178Y-115547880D01*
X129204649Y-115596756D01*
X129202832Y-115660537D01*
X129201609Y-115742115D01*
X129200864Y-115844383D01*
X129200478Y-115970233D01*
X129200333Y-116122557D01*
X129200313Y-116270000D01*
X129200313Y-117039937D01*
X129237160Y-117108984D01*
X129304037Y-117207882D01*
X129388995Y-117292979D01*
X129483307Y-117355678D01*
X129491733Y-117359822D01*
X129594333Y-117394611D01*
X129708765Y-117410062D01*
X129822999Y-117405548D01*
X129920249Y-117382240D01*
X129972135Y-117361304D01*
X130014495Y-117341238D01*
X130031374Y-117331135D01*
X130114818Y-117258212D01*
X130185053Y-117176688D01*
X130221653Y-117119312D01*
X130263938Y-117039937D01*
X130268491Y-116291999D01*
X130268947Y-116213909D01*
X129953627Y-116213909D01*
X129953526Y-116346353D01*
X129952686Y-116476052D01*
X129951106Y-116598695D01*
X129948787Y-116709972D01*
X129945729Y-116805571D01*
X129941932Y-116881182D01*
X129937395Y-116932494D01*
X129933636Y-116952075D01*
X129897954Y-117010703D01*
X129841601Y-117052867D01*
X129772331Y-117076254D01*
X129697894Y-117078548D01*
X129626045Y-117057435D01*
X129610107Y-117048665D01*
X129588498Y-117035327D01*
X129570554Y-117022105D01*
X129555936Y-117006094D01*
X129544303Y-116984393D01*
X129535314Y-116954097D01*
X129528629Y-116912304D01*
X129523906Y-116856110D01*
X129520806Y-116782611D01*
X129518987Y-116688905D01*
X129518109Y-116572088D01*
X129517831Y-116429256D01*
X129517813Y-116262062D01*
X129517833Y-116091053D01*
X129518122Y-115948891D01*
X129519019Y-115832671D01*
X129520865Y-115739492D01*
X129524001Y-115666450D01*
X129528767Y-115610641D01*
X129535505Y-115569163D01*
X129544554Y-115539111D01*
X129556256Y-115517583D01*
X129570951Y-115501676D01*
X129588980Y-115488485D01*
X129610107Y-115475459D01*
X129680190Y-115448408D01*
X129754714Y-115445316D01*
X129825924Y-115463871D01*
X129886070Y-115501756D01*
X129927399Y-115556659D01*
X129933636Y-115572049D01*
X129938709Y-115603006D01*
X129943044Y-115661393D01*
X129946639Y-115742900D01*
X129949495Y-115843216D01*
X129951612Y-115958030D01*
X129952989Y-116083031D01*
X129953627Y-116213909D01*
X130268947Y-116213909D01*
X130269506Y-116118200D01*
X130270179Y-115973150D01*
X130270409Y-115853849D01*
X130270093Y-115757299D01*
X130269127Y-115680500D01*
X130267409Y-115620451D01*
X130264836Y-115574154D01*
X130261306Y-115538609D01*
X130256716Y-115510815D01*
X130250964Y-115487774D01*
X130243947Y-115466486D01*
X130239856Y-115455361D01*
X130188028Y-115356465D01*
X130112804Y-115265527D01*
X130022516Y-115191673D01*
X129973463Y-115163580D01*
X129925598Y-115141985D01*
X129882659Y-115128724D01*
X129834009Y-115121842D01*
X129769010Y-115119381D01*
X129732125Y-115119195D01*
X129656352Y-115120331D01*
G36*
X133089056Y-115159183D02*
G01*
X133032919Y-115160357D01*
X132996744Y-115162084D01*
X132986500Y-115163794D01*
X132991444Y-115179395D01*
X133005582Y-115221969D01*
X133027875Y-115288437D01*
X133057283Y-115375714D01*
X133092768Y-115480721D01*
X133133288Y-115600375D01*
X133177806Y-115731596D01*
X133208750Y-115822681D01*
X133431000Y-116476524D01*
X133431000Y-117428875D01*
X133587105Y-117428875D01*
X133654610Y-117427860D01*
X133709736Y-117425131D01*
X133745079Y-117421156D01*
X133753792Y-117418291D01*
X133756442Y-117400338D01*
X133758849Y-117354618D01*
X133760927Y-117285115D01*
X133762590Y-117195810D01*
X133763753Y-117090687D01*
X133764328Y-116973729D01*
X133764375Y-116928473D01*
X133764375Y-116449238D01*
X133978688Y-115818440D01*
X134024462Y-115683363D01*
X134066893Y-115557484D01*
X134104918Y-115444005D01*
X134137473Y-115346131D01*
X134163496Y-115267062D01*
X134181924Y-115210004D01*
X134191694Y-115178157D01*
X134193000Y-115172658D01*
X134178021Y-115166526D01*
X134136546Y-115162675D01*
X134073766Y-115161426D01*
X134023229Y-115162181D01*
X133853457Y-115166687D01*
X133740694Y-115555625D01*
X133700928Y-115692817D01*
X133669102Y-115802436D01*
X133644265Y-115887388D01*
X133625466Y-115950581D01*
X133611752Y-115994921D01*
X133602173Y-116023313D01*
X133595778Y-116038666D01*
X133591614Y-116043884D01*
X133588731Y-116041875D01*
X133586177Y-116035546D01*
X133584808Y-116031875D01*
X133578090Y-116010857D01*
X133563851Y-115963486D01*
X133543313Y-115893930D01*
X133517702Y-115806356D01*
X133488239Y-115704932D01*
X133456150Y-115593826D01*
X133453150Y-115583406D01*
X133330902Y-115158749D01*
X133158701Y-115158749D01*
X133089056Y-115159183D01*
G37*
X133089056Y-115159183D02*
X133032919Y-115160357D01*
X132996744Y-115162084D01*
X132986500Y-115163794D01*
X132991444Y-115179395D01*
X133005582Y-115221969D01*
X133027875Y-115288437D01*
X133057283Y-115375714D01*
X133092768Y-115480721D01*
X133133288Y-115600375D01*
X133177806Y-115731596D01*
X133208750Y-115822681D01*
X133431000Y-116476524D01*
X133431000Y-117428875D01*
X133587105Y-117428875D01*
X133654610Y-117427860D01*
X133709736Y-117425131D01*
X133745079Y-117421156D01*
X133753792Y-117418291D01*
X133756442Y-117400338D01*
X133758849Y-117354618D01*
X133760927Y-117285115D01*
X133762590Y-117195810D01*
X133763753Y-117090687D01*
X133764328Y-116973729D01*
X133764375Y-116928473D01*
X133764375Y-116449238D01*
X133978688Y-115818440D01*
X134024462Y-115683363D01*
X134066893Y-115557484D01*
X134104918Y-115444005D01*
X134137473Y-115346131D01*
X134163496Y-115267062D01*
X134181924Y-115210004D01*
X134191694Y-115178157D01*
X134193000Y-115172658D01*
X134178021Y-115166526D01*
X134136546Y-115162675D01*
X134073766Y-115161426D01*
X134023229Y-115162181D01*
X133853457Y-115166687D01*
X133740694Y-115555625D01*
X133700928Y-115692817D01*
X133669102Y-115802436D01*
X133644265Y-115887388D01*
X133625466Y-115950581D01*
X133611752Y-115994921D01*
X133602173Y-116023313D01*
X133595778Y-116038666D01*
X133591614Y-116043884D01*
X133588731Y-116041875D01*
X133586177Y-116035546D01*
X133584808Y-116031875D01*
X133578090Y-116010857D01*
X133563851Y-115963486D01*
X133543313Y-115893930D01*
X133517702Y-115806356D01*
X133488239Y-115704932D01*
X133456150Y-115593826D01*
X133453150Y-115583406D01*
X133330902Y-115158749D01*
X133158701Y-115158749D01*
X133089056Y-115159183D01*
G36*
X134997852Y-115160285D02*
G01*
X134888975Y-115165537D01*
X134800930Y-115175473D01*
X134728318Y-115191060D01*
X134665740Y-115213266D01*
X134607795Y-115243059D01*
X134585391Y-115256877D01*
X134505687Y-115324070D01*
X134438739Y-115411556D01*
X134402166Y-115484187D01*
X134383444Y-115551315D01*
X134370815Y-115636953D01*
X134364320Y-115732748D01*
X134364003Y-115830350D01*
X134369906Y-115921407D01*
X134382072Y-115997568D01*
X134399287Y-116048173D01*
X134466180Y-116144079D01*
X134526380Y-116198565D01*
X134573506Y-116233333D01*
X134510153Y-116284245D01*
X134464396Y-116329025D01*
X134424626Y-116381108D01*
X134414024Y-116399404D01*
X134387853Y-116473250D01*
X134370425Y-116569645D01*
X134361655Y-116680638D01*
X134361462Y-116798279D01*
X134369761Y-116914619D01*
X134386468Y-117021706D01*
X134411502Y-117111592D01*
X134421756Y-117136519D01*
X134485427Y-117239328D01*
X134571405Y-117322164D01*
X134675017Y-117380567D01*
X134679334Y-117382282D01*
X134714399Y-117394942D01*
X134749656Y-117404519D01*
X134790540Y-117411577D01*
X134842485Y-117416683D01*
X134910925Y-117420401D01*
X135001296Y-117423298D01*
X135093907Y-117425422D01*
X135415375Y-117432134D01*
X135415375Y-117095500D01*
X135082000Y-117095500D01*
X134966907Y-117095475D01*
X134873052Y-117089630D01*
X134805546Y-117071789D01*
X134796791Y-117067694D01*
X134751742Y-117039649D01*
X134719184Y-117004420D01*
X134697294Y-116956818D01*
X134684245Y-116891653D01*
X134678213Y-116803733D01*
X134677188Y-116727570D01*
X134677721Y-116642043D01*
X134679894Y-116581839D01*
X134684562Y-116540537D01*
X134692585Y-116511720D01*
X134704819Y-116488969D01*
X134710066Y-116481507D01*
X134761701Y-116429936D01*
X134829180Y-116397671D01*
X134917549Y-116382740D01*
X134966907Y-116381149D01*
X135082000Y-116381125D01*
X135082000Y-117095500D01*
X135415375Y-117095500D01*
X135415375Y-115476250D01*
X135082000Y-115476250D01*
X135082000Y-116099754D01*
X134960264Y-116088722D01*
X134893589Y-116080527D01*
X134832779Y-116069352D01*
X134790317Y-116057520D01*
X134788374Y-116056736D01*
X134738492Y-116022564D01*
X134704021Y-115966769D01*
X134683955Y-115886830D01*
X134677291Y-115780224D01*
X134677287Y-115777875D01*
X134680976Y-115686082D01*
X134693918Y-115618390D01*
X134718775Y-115567841D01*
X134758207Y-115527478D01*
X134778754Y-115512561D01*
X134813348Y-115493131D01*
X134851813Y-115481997D01*
X134904322Y-115477089D01*
X134957348Y-115476250D01*
X135082000Y-115476250D01*
X135415375Y-115476250D01*
X135415375Y-115158750D01*
X135132961Y-115158750D01*
X134997852Y-115160285D01*
G37*
X134997852Y-115160285D02*
X134888975Y-115165537D01*
X134800930Y-115175473D01*
X134728318Y-115191060D01*
X134665740Y-115213266D01*
X134607795Y-115243059D01*
X134585391Y-115256877D01*
X134505687Y-115324070D01*
X134438739Y-115411556D01*
X134402166Y-115484187D01*
X134383444Y-115551315D01*
X134370815Y-115636953D01*
X134364320Y-115732748D01*
X134364003Y-115830350D01*
X134369906Y-115921407D01*
X134382072Y-115997568D01*
X134399287Y-116048173D01*
X134466180Y-116144079D01*
X134526380Y-116198565D01*
X134573506Y-116233333D01*
X134510153Y-116284245D01*
X134464396Y-116329025D01*
X134424626Y-116381108D01*
X134414024Y-116399404D01*
X134387853Y-116473250D01*
X134370425Y-116569645D01*
X134361655Y-116680638D01*
X134361462Y-116798279D01*
X134369761Y-116914619D01*
X134386468Y-117021706D01*
X134411502Y-117111592D01*
X134421756Y-117136519D01*
X134485427Y-117239328D01*
X134571405Y-117322164D01*
X134675017Y-117380567D01*
X134679334Y-117382282D01*
X134714399Y-117394942D01*
X134749656Y-117404519D01*
X134790540Y-117411577D01*
X134842485Y-117416683D01*
X134910925Y-117420401D01*
X135001296Y-117423298D01*
X135093907Y-117425422D01*
X135415375Y-117432134D01*
X135415375Y-117095500D01*
X135082000Y-117095500D01*
X134966907Y-117095475D01*
X134873052Y-117089630D01*
X134805546Y-117071789D01*
X134796791Y-117067694D01*
X134751742Y-117039649D01*
X134719184Y-117004420D01*
X134697294Y-116956818D01*
X134684245Y-116891653D01*
X134678213Y-116803733D01*
X134677188Y-116727570D01*
X134677721Y-116642043D01*
X134679894Y-116581839D01*
X134684562Y-116540537D01*
X134692585Y-116511720D01*
X134704819Y-116488969D01*
X134710066Y-116481507D01*
X134761701Y-116429936D01*
X134829180Y-116397671D01*
X134917549Y-116382740D01*
X134966907Y-116381149D01*
X135082000Y-116381125D01*
X135082000Y-117095500D01*
X135415375Y-117095500D01*
X135415375Y-115476250D01*
X135082000Y-115476250D01*
X135082000Y-116099754D01*
X134960264Y-116088722D01*
X134893589Y-116080527D01*
X134832779Y-116069352D01*
X134790317Y-116057520D01*
X134788374Y-116056736D01*
X134738492Y-116022564D01*
X134704021Y-115966769D01*
X134683955Y-115886830D01*
X134677291Y-115780224D01*
X134677287Y-115777875D01*
X134680976Y-115686082D01*
X134693918Y-115618390D01*
X134718775Y-115567841D01*
X134758207Y-115527478D01*
X134778754Y-115512561D01*
X134813348Y-115493131D01*
X134851813Y-115481997D01*
X134904322Y-115477089D01*
X134957348Y-115476250D01*
X135082000Y-115476250D01*
X135415375Y-115476250D01*
X135415375Y-115158750D01*
X135132961Y-115158750D01*
X134997852Y-115160285D01*
G36*
X136939004Y-115160230D02*
G01*
X136829495Y-115165111D01*
X136741519Y-115174055D01*
X136670026Y-115187720D01*
X136609967Y-115206767D01*
X136569627Y-115224862D01*
X136488674Y-115280665D01*
X136415836Y-115358485D01*
X136359756Y-115448591D01*
X136348722Y-115473483D01*
X136340146Y-115495288D01*
X136333035Y-115516456D01*
X136327252Y-115540049D01*
X136322659Y-115569127D01*
X136319119Y-115606752D01*
X136316496Y-115655984D01*
X136314651Y-115719885D01*
X136313449Y-115801515D01*
X136312751Y-115903935D01*
X136312420Y-116030206D01*
X136312320Y-116183390D01*
X136312313Y-116285875D01*
X136312349Y-116456198D01*
X136312544Y-116597826D01*
X136313033Y-116713812D01*
X136313950Y-116807211D01*
X136315426Y-116881076D01*
X136317597Y-116938462D01*
X136320596Y-116982423D01*
X136324556Y-117016014D01*
X136329611Y-117042287D01*
X136335894Y-117064298D01*
X136343539Y-117085100D01*
X136347709Y-117095500D01*
X136409052Y-117209429D01*
X136491107Y-117299338D01*
X136594189Y-117365495D01*
X136714785Y-117407277D01*
X136773131Y-117416381D01*
X136858616Y-117423151D01*
X136966699Y-117427320D01*
X137078282Y-117428627D01*
X137352125Y-117428875D01*
X137352125Y-117114534D01*
X137034625Y-117114534D01*
X136893394Y-117108985D01*
X136819847Y-117104690D01*
X136770437Y-117097663D01*
X136737573Y-117086302D01*
X136716578Y-117071687D01*
X136697809Y-117053980D01*
X136682280Y-117035409D01*
X136669686Y-117012946D01*
X136659720Y-116983561D01*
X136652075Y-116944227D01*
X136646444Y-116891915D01*
X136642519Y-116823597D01*
X136639995Y-116736244D01*
X136638564Y-116626827D01*
X136637919Y-116492318D01*
X136637753Y-116329689D01*
X136637750Y-116293812D01*
X136637857Y-116125243D01*
X136638383Y-115985395D01*
X136639634Y-115871241D01*
X136641917Y-115779750D01*
X136645539Y-115707896D01*
X136650807Y-115652648D01*
X136658029Y-115610980D01*
X136667510Y-115579862D01*
X136679558Y-115556266D01*
X136694479Y-115537164D01*
X136712581Y-115519526D01*
X136716578Y-115515937D01*
X136741235Y-115499516D01*
X136775849Y-115488819D01*
X136828011Y-115482245D01*
X136893394Y-115478639D01*
X137034625Y-115473090D01*
X137034625Y-117114534D01*
X137352125Y-117114534D01*
X137352125Y-115158750D01*
X137075094Y-115158750D01*
X136939004Y-115160230D01*
G37*
X136939004Y-115160230D02*
X136829495Y-115165111D01*
X136741519Y-115174055D01*
X136670026Y-115187720D01*
X136609967Y-115206767D01*
X136569627Y-115224862D01*
X136488674Y-115280665D01*
X136415836Y-115358485D01*
X136359756Y-115448591D01*
X136348722Y-115473483D01*
X136340146Y-115495288D01*
X136333035Y-115516456D01*
X136327252Y-115540049D01*
X136322659Y-115569127D01*
X136319119Y-115606752D01*
X136316496Y-115655984D01*
X136314651Y-115719885D01*
X136313449Y-115801515D01*
X136312751Y-115903935D01*
X136312420Y-116030206D01*
X136312320Y-116183390D01*
X136312313Y-116285875D01*
X136312349Y-116456198D01*
X136312544Y-116597826D01*
X136313033Y-116713812D01*
X136313950Y-116807211D01*
X136315426Y-116881076D01*
X136317597Y-116938462D01*
X136320596Y-116982423D01*
X136324556Y-117016014D01*
X136329611Y-117042287D01*
X136335894Y-117064298D01*
X136343539Y-117085100D01*
X136347709Y-117095500D01*
X136409052Y-117209429D01*
X136491107Y-117299338D01*
X136594189Y-117365495D01*
X136714785Y-117407277D01*
X136773131Y-117416381D01*
X136858616Y-117423151D01*
X136966699Y-117427320D01*
X137078282Y-117428627D01*
X137352125Y-117428875D01*
X137352125Y-117114534D01*
X137034625Y-117114534D01*
X136893394Y-117108985D01*
X136819847Y-117104690D01*
X136770437Y-117097663D01*
X136737573Y-117086302D01*
X136716578Y-117071687D01*
X136697809Y-117053980D01*
X136682280Y-117035409D01*
X136669686Y-117012946D01*
X136659720Y-116983561D01*
X136652075Y-116944227D01*
X136646444Y-116891915D01*
X136642519Y-116823597D01*
X136639995Y-116736244D01*
X136638564Y-116626827D01*
X136637919Y-116492318D01*
X136637753Y-116329689D01*
X136637750Y-116293812D01*
X136637857Y-116125243D01*
X136638383Y-115985395D01*
X136639634Y-115871241D01*
X136641917Y-115779750D01*
X136645539Y-115707896D01*
X136650807Y-115652648D01*
X136658029Y-115610980D01*
X136667510Y-115579862D01*
X136679558Y-115556266D01*
X136694479Y-115537164D01*
X136712581Y-115519526D01*
X136716578Y-115515937D01*
X136741235Y-115499516D01*
X136775849Y-115488819D01*
X136828011Y-115482245D01*
X136893394Y-115478639D01*
X137034625Y-115473090D01*
X137034625Y-117114534D01*
X137352125Y-117114534D01*
X137352125Y-115158750D01*
X137075094Y-115158750D01*
X136939004Y-115160230D01*
G36*
X137561894Y-115313531D02*
G01*
X137566438Y-115468312D01*
X137887907Y-115472609D01*
X138209375Y-115476907D01*
X138209375Y-116126392D01*
X137645813Y-116135062D01*
X137645813Y-116436687D01*
X138209375Y-116445357D01*
X138209375Y-117095500D01*
X137558500Y-117095500D01*
X137558500Y-117428875D01*
X138526875Y-117428875D01*
X138526875Y-115158750D01*
X137557351Y-115158750D01*
X137561894Y-115313531D01*
G37*
X137561894Y-115313531D02*
X137566438Y-115468312D01*
X137887907Y-115472609D01*
X138209375Y-115476907D01*
X138209375Y-116126392D01*
X137645813Y-116135062D01*
X137645813Y-116436687D01*
X138209375Y-116445357D01*
X138209375Y-117095500D01*
X137558500Y-117095500D01*
X137558500Y-117428875D01*
X138526875Y-117428875D01*
X138526875Y-115158750D01*
X137557351Y-115158750D01*
X137561894Y-115313531D01*
G36*
X138673144Y-115313531D02*
G01*
X138677688Y-115468312D01*
X138864219Y-115472785D01*
X139050750Y-115477257D01*
X139050750Y-117428875D01*
X139368250Y-117428875D01*
X139368250Y-115476250D01*
X139749250Y-115476250D01*
X139749250Y-115158750D01*
X138668601Y-115158750D01*
X138673144Y-115313531D01*
G37*
X138673144Y-115313531D02*
X138677688Y-115468312D01*
X138864219Y-115472785D01*
X139050750Y-115477257D01*
X139050750Y-117428875D01*
X139368250Y-117428875D01*
X139368250Y-115476250D01*
X139749250Y-115476250D01*
X139749250Y-115158750D01*
X138668601Y-115158750D01*
X138673144Y-115313531D01*
G36*
X140319063Y-115160022D02*
G01*
X140271082Y-115163426D01*
X140244471Y-115168341D01*
X140241375Y-115170877D01*
X140237998Y-115187997D01*
X140228233Y-115233603D01*
X140212632Y-115305201D01*
X140191746Y-115400292D01*
X140166128Y-115516382D01*
X140136328Y-115650975D01*
X140102899Y-115801575D01*
X140066392Y-115965685D01*
X140027358Y-116140810D01*
X139995313Y-116284340D01*
X139954646Y-116466654D01*
X139916078Y-116640140D01*
X139880160Y-116802273D01*
X139847447Y-116950529D01*
X139818491Y-117082385D01*
X139793845Y-117195316D01*
X139774062Y-117286798D01*
X139759696Y-117354307D01*
X139751300Y-117395319D01*
X139749250Y-117407276D01*
X139756446Y-117417598D01*
X139781128Y-117424213D01*
X139827941Y-117427759D01*
X139901531Y-117428871D01*
X139906931Y-117428875D01*
X139980162Y-117428191D01*
X140027576Y-117425480D01*
X140055088Y-117419750D01*
X140068615Y-117410010D01*
X140072699Y-117401093D01*
X140078604Y-117375907D01*
X140089185Y-117326111D01*
X140103084Y-117258268D01*
X140118942Y-117178938D01*
X140123652Y-117155031D01*
X140166517Y-116936750D01*
X140603106Y-116936750D01*
X140648723Y-117178843D01*
X140694341Y-117420937D01*
X140856796Y-117425461D01*
X140924311Y-117426208D01*
X140978209Y-117424648D01*
X141011827Y-117421105D01*
X141019736Y-117417524D01*
X141016455Y-117400360D01*
X141006811Y-117354678D01*
X140991346Y-117282953D01*
X140970602Y-117187656D01*
X140945123Y-117071259D01*
X140915450Y-116936237D01*
X140882125Y-116785062D01*
X140845691Y-116620206D01*
X140844643Y-116615473D01*
X140540660Y-116615473D01*
X140535779Y-116625813D01*
X140517974Y-116631689D01*
X140481814Y-116634362D01*
X140421869Y-116635093D01*
X140384250Y-116635125D01*
X140311357Y-116634871D01*
X140264796Y-116633268D01*
X140239148Y-116629055D01*
X140228996Y-116620971D01*
X140228922Y-116607754D01*
X140230828Y-116599406D01*
X140236280Y-116573804D01*
X140246652Y-116522041D01*
X140260959Y-116449152D01*
X140278217Y-116360174D01*
X140297440Y-116260140D01*
X140306168Y-116214437D01*
X140325844Y-116112960D01*
X140344104Y-116022062D01*
X140359972Y-115946352D01*
X140372467Y-115890442D01*
X140380613Y-115858942D01*
X140382679Y-115853859D01*
X140388302Y-115865444D01*
X140398693Y-115904092D01*
X140412913Y-115965632D01*
X140430026Y-116045893D01*
X140449096Y-116140706D01*
X140461137Y-116203109D01*
X140481140Y-116308017D01*
X140499580Y-116404060D01*
X140515499Y-116486302D01*
X140527941Y-116549807D01*
X140535946Y-116589640D01*
X140538049Y-116599406D01*
X140540660Y-116615473D01*
X140844643Y-116615473D01*
X140806691Y-116444142D01*
X140770679Y-116281906D01*
X140521138Y-115158750D01*
X140381257Y-115158750D01*
X140319063Y-115160022D01*
G37*
X140319063Y-115160022D02*
X140271082Y-115163426D01*
X140244471Y-115168341D01*
X140241375Y-115170877D01*
X140237998Y-115187997D01*
X140228233Y-115233603D01*
X140212632Y-115305201D01*
X140191746Y-115400292D01*
X140166128Y-115516382D01*
X140136328Y-115650975D01*
X140102899Y-115801575D01*
X140066392Y-115965685D01*
X140027358Y-116140810D01*
X139995313Y-116284340D01*
X139954646Y-116466654D01*
X139916078Y-116640140D01*
X139880160Y-116802273D01*
X139847447Y-116950529D01*
X139818491Y-117082385D01*
X139793845Y-117195316D01*
X139774062Y-117286798D01*
X139759696Y-117354307D01*
X139751300Y-117395319D01*
X139749250Y-117407276D01*
X139756446Y-117417598D01*
X139781128Y-117424213D01*
X139827941Y-117427759D01*
X139901531Y-117428871D01*
X139906931Y-117428875D01*
X139980162Y-117428191D01*
X140027576Y-117425480D01*
X140055088Y-117419750D01*
X140068615Y-117410010D01*
X140072699Y-117401093D01*
X140078604Y-117375907D01*
X140089185Y-117326111D01*
X140103084Y-117258268D01*
X140118942Y-117178938D01*
X140123652Y-117155031D01*
X140166517Y-116936750D01*
X140603106Y-116936750D01*
X140648723Y-117178843D01*
X140694341Y-117420937D01*
X140856796Y-117425461D01*
X140924311Y-117426208D01*
X140978209Y-117424648D01*
X141011827Y-117421105D01*
X141019736Y-117417524D01*
X141016455Y-117400360D01*
X141006811Y-117354678D01*
X140991346Y-117282953D01*
X140970602Y-117187656D01*
X140945123Y-117071259D01*
X140915450Y-116936237D01*
X140882125Y-116785062D01*
X140845691Y-116620206D01*
X140844643Y-116615473D01*
X140540660Y-116615473D01*
X140535779Y-116625813D01*
X140517974Y-116631689D01*
X140481814Y-116634362D01*
X140421869Y-116635093D01*
X140384250Y-116635125D01*
X140311357Y-116634871D01*
X140264796Y-116633268D01*
X140239148Y-116629055D01*
X140228996Y-116620971D01*
X140228922Y-116607754D01*
X140230828Y-116599406D01*
X140236280Y-116573804D01*
X140246652Y-116522041D01*
X140260959Y-116449152D01*
X140278217Y-116360174D01*
X140297440Y-116260140D01*
X140306168Y-116214437D01*
X140325844Y-116112960D01*
X140344104Y-116022062D01*
X140359972Y-115946352D01*
X140372467Y-115890442D01*
X140380613Y-115858942D01*
X140382679Y-115853859D01*
X140388302Y-115865444D01*
X140398693Y-115904092D01*
X140412913Y-115965632D01*
X140430026Y-116045893D01*
X140449096Y-116140706D01*
X140461137Y-116203109D01*
X140481140Y-116308017D01*
X140499580Y-116404060D01*
X140515499Y-116486302D01*
X140527941Y-116549807D01*
X140535946Y-116589640D01*
X140538049Y-116599406D01*
X140540660Y-116615473D01*
X140844643Y-116615473D01*
X140806691Y-116444142D01*
X140770679Y-116281906D01*
X140521138Y-115158750D01*
X140381257Y-115158750D01*
X140319063Y-115160022D01*
G36*
X141086144Y-115313531D02*
G01*
X141090688Y-115468312D01*
X141412157Y-115472609D01*
X141733625Y-115476907D01*
X141733625Y-116127125D01*
X141160976Y-116127125D01*
X141165519Y-116281906D01*
X141170063Y-116436687D01*
X141733625Y-116445357D01*
X141733625Y-117095500D01*
X141082750Y-117095500D01*
X141082750Y-117428875D01*
X142051125Y-117428875D01*
X142051125Y-115158750D01*
X141081601Y-115158750D01*
X141086144Y-115313531D01*
G37*
X141086144Y-115313531D02*
X141090688Y-115468312D01*
X141412157Y-115472609D01*
X141733625Y-115476907D01*
X141733625Y-116127125D01*
X141160976Y-116127125D01*
X141165519Y-116281906D01*
X141170063Y-116436687D01*
X141733625Y-116445357D01*
X141733625Y-117095500D01*
X141082750Y-117095500D01*
X141082750Y-117428875D01*
X142051125Y-117428875D01*
X142051125Y-115158750D01*
X141081601Y-115158750D01*
X141086144Y-115313531D01*
G36*
X142949282Y-115167050D02*
G01*
X142858367Y-115168356D01*
X142789563Y-115170931D01*
X142738056Y-115175102D01*
X142699029Y-115181196D01*
X142667665Y-115189539D01*
X142653111Y-115194748D01*
X142547381Y-115248517D01*
X142462974Y-115321087D01*
X142398336Y-115414730D01*
X142351912Y-115531714D01*
X142322147Y-115674312D01*
X142321490Y-115679049D01*
X142313013Y-115800949D01*
X142318767Y-115926284D01*
X142337568Y-116044771D01*
X142368234Y-116146127D01*
X142377682Y-116167724D01*
X142408178Y-116219115D01*
X142450601Y-116274490D01*
X142497655Y-116325807D01*
X142542046Y-116365025D01*
X142573073Y-116383128D01*
X142574864Y-116397087D01*
X142567158Y-116435353D01*
X142549648Y-116498946D01*
X142522030Y-116588886D01*
X142483999Y-116706194D01*
X142435251Y-116851890D01*
X142417128Y-116905292D01*
X142375881Y-117026592D01*
X142338083Y-117137965D01*
X142304905Y-117235941D01*
X142277520Y-117317052D01*
X142257098Y-117377827D01*
X142244811Y-117414799D01*
X142241627Y-117424906D01*
X142256430Y-117426505D01*
X142296557Y-117427795D01*
X142355583Y-117428631D01*
X142415290Y-117428875D01*
X142588954Y-117428875D01*
X142629200Y-117297906D01*
X142646028Y-117243396D01*
X142670274Y-117165204D01*
X142699881Y-117069946D01*
X142732789Y-116964245D01*
X142766942Y-116854718D01*
X142778502Y-116817687D01*
X142887559Y-116468437D01*
X142985280Y-116463711D01*
X143083000Y-116458984D01*
X143083000Y-117428875D01*
X143242249Y-117428875D01*
X143323947Y-117427387D01*
X143376963Y-117422693D01*
X143404234Y-117414443D01*
X143409076Y-117409031D01*
X143410281Y-117390215D01*
X143411311Y-117342250D01*
X143412160Y-117267738D01*
X143412818Y-117169280D01*
X143413278Y-117049476D01*
X143413532Y-116910928D01*
X143413572Y-116756237D01*
X143413390Y-116588004D01*
X143412978Y-116408829D01*
X143412547Y-116277937D01*
X143412182Y-116179076D01*
X143083000Y-116179076D01*
X142935250Y-116171347D01*
X142847963Y-116164289D01*
X142786914Y-116153128D01*
X142746743Y-116136848D01*
X142743939Y-116135077D01*
X142701946Y-116097829D01*
X142672721Y-116046609D01*
X142653927Y-115975579D01*
X142643593Y-115884213D01*
X142642060Y-115752632D01*
X142657615Y-115646730D01*
X142690156Y-115566982D01*
X142719519Y-115530205D01*
X142743576Y-115508994D01*
X142767577Y-115495212D01*
X142799281Y-115486918D01*
X142846451Y-115482169D01*
X142916848Y-115479025D01*
X142925258Y-115478731D01*
X143083000Y-115473274D01*
X143083000Y-116179076D01*
X143412182Y-116179076D01*
X143408438Y-115166687D01*
X143067125Y-115166687D01*
X142949282Y-115167050D01*
G37*
X142949282Y-115167050D02*
X142858367Y-115168356D01*
X142789563Y-115170931D01*
X142738056Y-115175102D01*
X142699029Y-115181196D01*
X142667665Y-115189539D01*
X142653111Y-115194748D01*
X142547381Y-115248517D01*
X142462974Y-115321087D01*
X142398336Y-115414730D01*
X142351912Y-115531714D01*
X142322147Y-115674312D01*
X142321490Y-115679049D01*
X142313013Y-115800949D01*
X142318767Y-115926284D01*
X142337568Y-116044771D01*
X142368234Y-116146127D01*
X142377682Y-116167724D01*
X142408178Y-116219115D01*
X142450601Y-116274490D01*
X142497655Y-116325807D01*
X142542046Y-116365025D01*
X142573073Y-116383128D01*
X142574864Y-116397087D01*
X142567158Y-116435353D01*
X142549648Y-116498946D01*
X142522030Y-116588886D01*
X142483999Y-116706194D01*
X142435251Y-116851890D01*
X142417128Y-116905292D01*
X142375881Y-117026592D01*
X142338083Y-117137965D01*
X142304905Y-117235941D01*
X142277520Y-117317052D01*
X142257098Y-117377827D01*
X142244811Y-117414799D01*
X142241627Y-117424906D01*
X142256430Y-117426505D01*
X142296557Y-117427795D01*
X142355583Y-117428631D01*
X142415290Y-117428875D01*
X142588954Y-117428875D01*
X142629200Y-117297906D01*
X142646028Y-117243396D01*
X142670274Y-117165204D01*
X142699881Y-117069946D01*
X142732789Y-116964245D01*
X142766942Y-116854718D01*
X142778502Y-116817687D01*
X142887559Y-116468437D01*
X142985280Y-116463711D01*
X143083000Y-116458984D01*
X143083000Y-117428875D01*
X143242249Y-117428875D01*
X143323947Y-117427387D01*
X143376963Y-117422693D01*
X143404234Y-117414443D01*
X143409076Y-117409031D01*
X143410281Y-117390215D01*
X143411311Y-117342250D01*
X143412160Y-117267738D01*
X143412818Y-117169280D01*
X143413278Y-117049476D01*
X143413532Y-116910928D01*
X143413572Y-116756237D01*
X143413390Y-116588004D01*
X143412978Y-116408829D01*
X143412547Y-116277937D01*
X143412182Y-116179076D01*
X143083000Y-116179076D01*
X142935250Y-116171347D01*
X142847963Y-116164289D01*
X142786914Y-116153128D01*
X142746743Y-116136848D01*
X142743939Y-116135077D01*
X142701946Y-116097829D01*
X142672721Y-116046609D01*
X142653927Y-115975579D01*
X142643593Y-115884213D01*
X142642060Y-115752632D01*
X142657615Y-115646730D01*
X142690156Y-115566982D01*
X142719519Y-115530205D01*
X142743576Y-115508994D01*
X142767577Y-115495212D01*
X142799281Y-115486918D01*
X142846451Y-115482169D01*
X142916848Y-115479025D01*
X142925258Y-115478731D01*
X143083000Y-115473274D01*
X143083000Y-116179076D01*
X143412182Y-116179076D01*
X143408438Y-115166687D01*
X143067125Y-115166687D01*
X142949282Y-115167050D01*
G36*
X144118687Y-115151925D02*
G01*
X144064183Y-115156578D01*
X144020087Y-115166739D01*
X143975746Y-115184380D01*
X143952334Y-115195549D01*
X143850429Y-115262375D01*
X143770873Y-115351288D01*
X143714293Y-115461217D01*
X143681320Y-115591089D01*
X143673470Y-115670718D01*
X143666492Y-115809625D01*
X144003750Y-115809625D01*
X144003750Y-115713586D01*
X144013866Y-115618086D01*
X144043991Y-115546702D01*
X144093794Y-115499850D01*
X144162941Y-115477947D01*
X144192945Y-115476250D01*
X144270454Y-115486021D01*
X144325881Y-115516526D01*
X144360173Y-115564192D01*
X144366642Y-115593906D01*
X144372248Y-115651209D01*
X144376985Y-115731951D01*
X144380847Y-115831981D01*
X144383829Y-115947151D01*
X144385923Y-116073309D01*
X144387125Y-116206307D01*
X144387428Y-116341995D01*
X144386827Y-116476222D01*
X144385314Y-116604839D01*
X144382885Y-116723696D01*
X144379533Y-116828643D01*
X144375253Y-116915531D01*
X144370037Y-116980209D01*
X144363881Y-117018527D01*
X144362282Y-117023294D01*
X144334610Y-117070267D01*
X144295145Y-117097863D01*
X144236582Y-117109943D01*
X144195545Y-117111375D01*
X144139302Y-117107457D01*
X144098624Y-117092104D01*
X144064719Y-117066112D01*
X144037985Y-117039390D01*
X144021670Y-117011919D01*
X144012176Y-116973905D01*
X144005904Y-116915553D01*
X144004938Y-116903394D01*
X143995813Y-116785937D01*
X143670375Y-116776889D01*
X143670375Y-116895911D01*
X143684859Y-117030770D01*
X143727370Y-117152373D01*
X143796504Y-117258310D01*
X143890853Y-117346170D01*
X143957925Y-117388634D01*
X144049892Y-117423600D01*
X144158034Y-117440438D01*
X144271912Y-117438342D01*
X144367982Y-117420361D01*
X144468357Y-117381239D01*
X144551268Y-117322833D01*
X144622115Y-117240568D01*
X144667097Y-117166937D01*
X144710188Y-117087562D01*
X144710188Y-115515937D01*
X144665564Y-115425065D01*
X144601232Y-115326701D01*
X144512085Y-115244881D01*
X144421501Y-115189860D01*
X144379184Y-115170653D01*
X144337604Y-115158894D01*
X144286816Y-115152873D01*
X144216874Y-115150881D01*
X144194250Y-115150812D01*
X144118687Y-115151925D01*
G37*
X144118687Y-115151925D02*
X144064183Y-115156578D01*
X144020087Y-115166739D01*
X143975746Y-115184380D01*
X143952334Y-115195549D01*
X143850429Y-115262375D01*
X143770873Y-115351288D01*
X143714293Y-115461217D01*
X143681320Y-115591089D01*
X143673470Y-115670718D01*
X143666492Y-115809625D01*
X144003750Y-115809625D01*
X144003750Y-115713586D01*
X144013866Y-115618086D01*
X144043991Y-115546702D01*
X144093794Y-115499850D01*
X144162941Y-115477947D01*
X144192945Y-115476250D01*
X144270454Y-115486021D01*
X144325881Y-115516526D01*
X144360173Y-115564192D01*
X144366642Y-115593906D01*
X144372248Y-115651209D01*
X144376985Y-115731951D01*
X144380847Y-115831981D01*
X144383829Y-115947151D01*
X144385923Y-116073309D01*
X144387125Y-116206307D01*
X144387428Y-116341995D01*
X144386827Y-116476222D01*
X144385314Y-116604839D01*
X144382885Y-116723696D01*
X144379533Y-116828643D01*
X144375253Y-116915531D01*
X144370037Y-116980209D01*
X144363881Y-117018527D01*
X144362282Y-117023294D01*
X144334610Y-117070267D01*
X144295145Y-117097863D01*
X144236582Y-117109943D01*
X144195545Y-117111375D01*
X144139302Y-117107457D01*
X144098624Y-117092104D01*
X144064719Y-117066112D01*
X144037985Y-117039390D01*
X144021670Y-117011919D01*
X144012176Y-116973905D01*
X144005904Y-116915553D01*
X144004938Y-116903394D01*
X143995813Y-116785937D01*
X143670375Y-116776889D01*
X143670375Y-116895911D01*
X143684859Y-117030770D01*
X143727370Y-117152373D01*
X143796504Y-117258310D01*
X143890853Y-117346170D01*
X143957925Y-117388634D01*
X144049892Y-117423600D01*
X144158034Y-117440438D01*
X144271912Y-117438342D01*
X144367982Y-117420361D01*
X144468357Y-117381239D01*
X144551268Y-117322833D01*
X144622115Y-117240568D01*
X144667097Y-117166937D01*
X144710188Y-117087562D01*
X144710188Y-115515937D01*
X144665564Y-115425065D01*
X144601232Y-115326701D01*
X144512085Y-115244881D01*
X144421501Y-115189860D01*
X144379184Y-115170653D01*
X144337604Y-115158894D01*
X144286816Y-115152873D01*
X144216874Y-115150881D01*
X144194250Y-115150812D01*
X144118687Y-115151925D01*
G36*
X128021799Y-109250099D02*
G01*
X128031500Y-109273904D01*
X128052067Y-109324835D01*
X128082559Y-109400544D01*
X128122032Y-109498686D01*
X128169544Y-109616912D01*
X128224153Y-109752878D01*
X128284915Y-109904235D01*
X128350888Y-110068638D01*
X128421129Y-110243739D01*
X128494696Y-110427192D01*
X128522779Y-110497239D01*
X128998909Y-111684906D01*
X128475179Y-113013484D01*
X128397740Y-113209952D01*
X128323398Y-113398609D01*
X128253011Y-113577278D01*
X128187435Y-113743783D01*
X128127526Y-113895945D01*
X128074142Y-114031590D01*
X128028138Y-114148538D01*
X127990373Y-114244615D01*
X127961702Y-114317643D01*
X127942982Y-114365444D01*
X127935117Y-114385718D01*
X127918786Y-114429375D01*
X128719688Y-114428887D01*
X129028063Y-113591725D01*
X129100290Y-113395873D01*
X129162370Y-113228083D01*
X129214990Y-113086571D01*
X129258837Y-112969557D01*
X129294599Y-112875256D01*
X129322965Y-112801887D01*
X129344621Y-112747666D01*
X129360255Y-112710813D01*
X129370556Y-112689544D01*
X129376210Y-112682076D01*
X129377865Y-112685049D01*
X129383232Y-112700799D01*
X129398368Y-112743125D01*
X129422093Y-112808798D01*
X129453224Y-112894590D01*
X129490581Y-112997274D01*
X129532984Y-113113623D01*
X129579252Y-113240409D01*
X129628204Y-113374404D01*
X129678659Y-113512381D01*
X129729436Y-113651113D01*
X129779355Y-113787371D01*
X129827234Y-113917929D01*
X129871894Y-114039558D01*
X129912152Y-114149032D01*
X129946829Y-114243122D01*
X129974743Y-114318602D01*
X129994714Y-114372243D01*
X130005561Y-114400818D01*
X130005867Y-114401593D01*
X130011528Y-114410217D01*
X130023299Y-114416857D01*
X130044917Y-114421771D01*
X130080118Y-114425212D01*
X130132640Y-114427438D01*
X130206218Y-114428702D01*
X130304590Y-114429262D01*
X130412074Y-114429375D01*
X130520314Y-114428955D01*
X130617238Y-114427776D01*
X130698588Y-114425955D01*
X130760103Y-114423610D01*
X130797524Y-114420858D01*
X130807250Y-114418452D01*
X130801658Y-114402375D01*
X130785414Y-114358774D01*
X130759319Y-114289738D01*
X130724173Y-114197358D01*
X130680775Y-114083721D01*
X130629926Y-113950917D01*
X130572425Y-113801036D01*
X130509074Y-113636166D01*
X130440672Y-113458397D01*
X130368018Y-113269817D01*
X130291914Y-113072517D01*
X130281600Y-113045795D01*
X129755949Y-111684061D01*
X130241912Y-110445142D01*
X130315901Y-110256418D01*
X130386462Y-110076258D01*
X130452744Y-109906840D01*
X130513899Y-109750344D01*
X130569077Y-109608947D01*
X130617430Y-109484831D01*
X130658107Y-109380173D01*
X130690260Y-109297153D01*
X130713039Y-109237950D01*
X130725596Y-109204744D01*
X130727875Y-109198150D01*
X130712709Y-109196110D01*
X130670038Y-109194591D01*
X130604102Y-109193635D01*
X130519145Y-109193281D01*
X130419405Y-109193572D01*
X130329363Y-109194321D01*
X129930851Y-109198562D01*
X129655070Y-109952625D01*
X129601181Y-110099974D01*
X129550578Y-110238345D01*
X129504313Y-110364860D01*
X129463436Y-110476644D01*
X129429001Y-110570821D01*
X129402058Y-110644516D01*
X129383658Y-110694852D01*
X129374854Y-110718954D01*
X129374279Y-110720533D01*
X129368005Y-110708805D01*
X129351847Y-110669971D01*
X129326840Y-110606739D01*
X129294020Y-110521816D01*
X129254423Y-110417910D01*
X129209084Y-110297728D01*
X129159039Y-110163977D01*
X129105324Y-110019366D01*
X129084303Y-109962502D01*
X128799337Y-109190625D01*
X128398143Y-109190625D01*
X127996949Y-109190624D01*
X128021799Y-109250099D01*
G37*
X128021799Y-109250099D02*
X128031500Y-109273904D01*
X128052067Y-109324835D01*
X128082559Y-109400544D01*
X128122032Y-109498686D01*
X128169544Y-109616912D01*
X128224153Y-109752878D01*
X128284915Y-109904235D01*
X128350888Y-110068638D01*
X128421129Y-110243739D01*
X128494696Y-110427192D01*
X128522779Y-110497239D01*
X128998909Y-111684906D01*
X128475179Y-113013484D01*
X128397740Y-113209952D01*
X128323398Y-113398609D01*
X128253011Y-113577278D01*
X128187435Y-113743783D01*
X128127526Y-113895945D01*
X128074142Y-114031590D01*
X128028138Y-114148538D01*
X127990373Y-114244615D01*
X127961702Y-114317643D01*
X127942982Y-114365444D01*
X127935117Y-114385718D01*
X127918786Y-114429375D01*
X128719688Y-114428887D01*
X129028063Y-113591725D01*
X129100290Y-113395873D01*
X129162370Y-113228083D01*
X129214990Y-113086571D01*
X129258837Y-112969557D01*
X129294599Y-112875256D01*
X129322965Y-112801887D01*
X129344621Y-112747666D01*
X129360255Y-112710813D01*
X129370556Y-112689544D01*
X129376210Y-112682076D01*
X129377865Y-112685049D01*
X129383232Y-112700799D01*
X129398368Y-112743125D01*
X129422093Y-112808798D01*
X129453224Y-112894590D01*
X129490581Y-112997274D01*
X129532984Y-113113623D01*
X129579252Y-113240409D01*
X129628204Y-113374404D01*
X129678659Y-113512381D01*
X129729436Y-113651113D01*
X129779355Y-113787371D01*
X129827234Y-113917929D01*
X129871894Y-114039558D01*
X129912152Y-114149032D01*
X129946829Y-114243122D01*
X129974743Y-114318602D01*
X129994714Y-114372243D01*
X130005561Y-114400818D01*
X130005867Y-114401593D01*
X130011528Y-114410217D01*
X130023299Y-114416857D01*
X130044917Y-114421771D01*
X130080118Y-114425212D01*
X130132640Y-114427438D01*
X130206218Y-114428702D01*
X130304590Y-114429262D01*
X130412074Y-114429375D01*
X130520314Y-114428955D01*
X130617238Y-114427776D01*
X130698588Y-114425955D01*
X130760103Y-114423610D01*
X130797524Y-114420858D01*
X130807250Y-114418452D01*
X130801658Y-114402375D01*
X130785414Y-114358774D01*
X130759319Y-114289738D01*
X130724173Y-114197358D01*
X130680775Y-114083721D01*
X130629926Y-113950917D01*
X130572425Y-113801036D01*
X130509074Y-113636166D01*
X130440672Y-113458397D01*
X130368018Y-113269817D01*
X130291914Y-113072517D01*
X130281600Y-113045795D01*
X129755949Y-111684061D01*
X130241912Y-110445142D01*
X130315901Y-110256418D01*
X130386462Y-110076258D01*
X130452744Y-109906840D01*
X130513899Y-109750344D01*
X130569077Y-109608947D01*
X130617430Y-109484831D01*
X130658107Y-109380173D01*
X130690260Y-109297153D01*
X130713039Y-109237950D01*
X130725596Y-109204744D01*
X130727875Y-109198150D01*
X130712709Y-109196110D01*
X130670038Y-109194591D01*
X130604102Y-109193635D01*
X130519145Y-109193281D01*
X130419405Y-109193572D01*
X130329363Y-109194321D01*
X129930851Y-109198562D01*
X129655070Y-109952625D01*
X129601181Y-110099974D01*
X129550578Y-110238345D01*
X129504313Y-110364860D01*
X129463436Y-110476644D01*
X129429001Y-110570821D01*
X129402058Y-110644516D01*
X129383658Y-110694852D01*
X129374854Y-110718954D01*
X129374279Y-110720533D01*
X129368005Y-110708805D01*
X129351847Y-110669971D01*
X129326840Y-110606739D01*
X129294020Y-110521816D01*
X129254423Y-110417910D01*
X129209084Y-110297728D01*
X129159039Y-110163977D01*
X129105324Y-110019366D01*
X129084303Y-109962502D01*
X128799337Y-109190625D01*
X128398143Y-109190625D01*
X127996949Y-109190624D01*
X128021799Y-109250099D01*
G36*
X134480327Y-109194519D02*
G01*
X132835279Y-109198562D01*
X132537087Y-110227667D01*
X132486497Y-110402010D01*
X132438404Y-110567266D01*
X132393546Y-110720924D01*
X132352662Y-110860477D01*
X132316492Y-110983416D01*
X132285776Y-111087232D01*
X132261250Y-111169417D01*
X132243656Y-111227460D01*
X132233732Y-111258855D01*
X132231827Y-111263840D01*
X132230376Y-111265240D01*
X132228704Y-111265040D01*
X132226220Y-111261257D01*
X132222332Y-111251906D01*
X132216448Y-111235004D01*
X132207977Y-111208567D01*
X132196326Y-111170611D01*
X132180904Y-111119152D01*
X132161119Y-111052206D01*
X132136379Y-110967789D01*
X132106093Y-110863918D01*
X132069668Y-110738607D01*
X132026513Y-110589874D01*
X131976036Y-110415735D01*
X131917646Y-110214204D01*
X131880956Y-110087562D01*
X131623403Y-109198562D01*
X131223264Y-109194321D01*
X131114325Y-109193327D01*
X131016678Y-109192744D01*
X130934556Y-109192573D01*
X130872191Y-109192812D01*
X130833812Y-109193463D01*
X130823208Y-109194321D01*
X130828229Y-109209611D01*
X130842814Y-109252941D01*
X130866279Y-109322297D01*
X130897940Y-109415670D01*
X130937113Y-109531047D01*
X130983115Y-109666415D01*
X131035261Y-109819765D01*
X131092868Y-109989083D01*
X131155253Y-110172358D01*
X131221731Y-110367578D01*
X131291618Y-110572732D01*
X131339145Y-110712206D01*
X131855000Y-112225849D01*
X131855000Y-114429375D01*
X132601125Y-114429375D01*
X132601125Y-112234610D01*
X133625063Y-109227400D01*
X133629347Y-109558262D01*
X133633632Y-109889125D01*
X134506125Y-109889125D01*
X134506125Y-114429375D01*
X135268125Y-114429375D01*
X135268125Y-109889125D01*
X136125375Y-109889125D01*
X136125375Y-109190477D01*
X134480327Y-109194519D01*
G37*
X134480327Y-109194519D02*
X132835279Y-109198562D01*
X132537087Y-110227667D01*
X132486497Y-110402010D01*
X132438404Y-110567266D01*
X132393546Y-110720924D01*
X132352662Y-110860477D01*
X132316492Y-110983416D01*
X132285776Y-111087232D01*
X132261250Y-111169417D01*
X132243656Y-111227460D01*
X132233732Y-111258855D01*
X132231827Y-111263840D01*
X132230376Y-111265240D01*
X132228704Y-111265040D01*
X132226220Y-111261257D01*
X132222332Y-111251906D01*
X132216448Y-111235004D01*
X132207977Y-111208567D01*
X132196326Y-111170611D01*
X132180904Y-111119152D01*
X132161119Y-111052206D01*
X132136379Y-110967789D01*
X132106093Y-110863918D01*
X132069668Y-110738607D01*
X132026513Y-110589874D01*
X131976036Y-110415735D01*
X131917646Y-110214204D01*
X131880956Y-110087562D01*
X131623403Y-109198562D01*
X131223264Y-109194321D01*
X131114325Y-109193327D01*
X131016678Y-109192744D01*
X130934556Y-109192573D01*
X130872191Y-109192812D01*
X130833812Y-109193463D01*
X130823208Y-109194321D01*
X130828229Y-109209611D01*
X130842814Y-109252941D01*
X130866279Y-109322297D01*
X130897940Y-109415670D01*
X130937113Y-109531047D01*
X130983115Y-109666415D01*
X131035261Y-109819765D01*
X131092868Y-109989083D01*
X131155253Y-110172358D01*
X131221731Y-110367578D01*
X131291618Y-110572732D01*
X131339145Y-110712206D01*
X131855000Y-112225849D01*
X131855000Y-114429375D01*
X132601125Y-114429375D01*
X132601125Y-112234610D01*
X133625063Y-109227400D01*
X133629347Y-109558262D01*
X133633632Y-109889125D01*
X134506125Y-109889125D01*
X134506125Y-114429375D01*
X135268125Y-114429375D01*
X135268125Y-109889125D01*
X136125375Y-109889125D01*
X136125375Y-109190477D01*
X134480327Y-109194519D01*
G36*
X140868086Y-111432968D02*
G01*
X140864063Y-113675312D01*
X140121907Y-113679438D01*
X139379750Y-113683563D01*
X139379750Y-114429375D01*
X141618125Y-114429375D01*
X141618125Y-109190625D01*
X140872110Y-109190625D01*
X140868086Y-111432968D01*
G37*
X140868086Y-111432968D02*
X140864063Y-113675312D01*
X140121907Y-113679438D01*
X139379750Y-113683563D01*
X139379750Y-114429375D01*
X141618125Y-114429375D01*
X141618125Y-109190625D01*
X140872110Y-109190625D01*
X140868086Y-111432968D01*
G36*
X143955719Y-109190646D02*
G01*
X143771528Y-109190942D01*
X143615654Y-109191982D01*
X143484666Y-109194012D01*
X143375137Y-109197278D01*
X143283635Y-109202026D01*
X143206733Y-109208504D01*
X143141000Y-109216957D01*
X143083006Y-109227632D01*
X143029323Y-109240776D01*
X142976521Y-109256634D01*
X142959563Y-109262218D01*
X142809888Y-109328262D01*
X142668522Y-109421375D01*
X142539699Y-109537141D01*
X142427648Y-109671143D01*
X142336602Y-109818962D01*
X142270793Y-109976182D01*
X142268397Y-109983711D01*
X142242035Y-110076062D01*
X142221401Y-110169138D01*
X142205918Y-110268368D01*
X142195007Y-110379183D01*
X142188092Y-110507013D01*
X142184593Y-110657286D01*
X142183869Y-110778125D01*
X142184748Y-110939242D01*
X142187997Y-111073997D01*
X142194123Y-111187722D01*
X142203630Y-111285748D01*
X142217024Y-111373408D01*
X142234811Y-111456034D01*
X142255287Y-111531503D01*
X142321659Y-111706641D01*
X142412489Y-111868568D01*
X142524656Y-112013435D01*
X142655039Y-112137392D01*
X142800514Y-112236589D01*
X142847055Y-112261153D01*
X142917257Y-112293872D01*
X142983264Y-112319502D01*
X143050657Y-112339019D01*
X143125015Y-112353397D01*
X143211920Y-112363608D01*
X143316950Y-112370629D01*
X143445686Y-112375432D01*
X143511219Y-112377093D01*
X143856500Y-112384995D01*
X143856500Y-114429375D01*
X144618500Y-114429375D01*
X144618500Y-111670099D01*
X143856500Y-111670099D01*
X143558844Y-111664331D01*
X143451019Y-111661871D01*
X143369557Y-111658873D01*
X143309075Y-111654771D01*
X143264185Y-111648998D01*
X143229502Y-111640989D01*
X143199641Y-111630177D01*
X143188944Y-111625448D01*
X143114332Y-111584766D01*
X143052047Y-111535218D01*
X143001253Y-111474089D01*
X142961119Y-111398664D01*
X142930811Y-111306229D01*
X142909495Y-111194070D01*
X142896339Y-111059472D01*
X142890509Y-110899720D01*
X142891172Y-110712102D01*
X142892290Y-110659062D01*
X142898122Y-110504992D01*
X142908299Y-110378438D01*
X142924046Y-110275317D01*
X142946587Y-110191550D01*
X142977145Y-110123054D01*
X143016946Y-110065748D01*
X143067213Y-110015552D01*
X143091172Y-109996048D01*
X143136883Y-109965608D01*
X143189037Y-109941962D01*
X143252534Y-109924092D01*
X143332275Y-109910985D01*
X143433160Y-109901622D01*
X143560088Y-109894988D01*
X143582657Y-109894129D01*
X143856500Y-109884124D01*
X143856500Y-111670099D01*
X144618500Y-111670099D01*
X144618500Y-109190625D01*
X143955719Y-109190646D01*
G37*
X143955719Y-109190646D02*
X143771528Y-109190942D01*
X143615654Y-109191982D01*
X143484666Y-109194012D01*
X143375137Y-109197278D01*
X143283635Y-109202026D01*
X143206733Y-109208504D01*
X143141000Y-109216957D01*
X143083006Y-109227632D01*
X143029323Y-109240776D01*
X142976521Y-109256634D01*
X142959563Y-109262218D01*
X142809888Y-109328262D01*
X142668522Y-109421375D01*
X142539699Y-109537141D01*
X142427648Y-109671143D01*
X142336602Y-109818962D01*
X142270793Y-109976182D01*
X142268397Y-109983711D01*
X142242035Y-110076062D01*
X142221401Y-110169138D01*
X142205918Y-110268368D01*
X142195007Y-110379183D01*
X142188092Y-110507013D01*
X142184593Y-110657286D01*
X142183869Y-110778125D01*
X142184748Y-110939242D01*
X142187997Y-111073997D01*
X142194123Y-111187722D01*
X142203630Y-111285748D01*
X142217024Y-111373408D01*
X142234811Y-111456034D01*
X142255287Y-111531503D01*
X142321659Y-111706641D01*
X142412489Y-111868568D01*
X142524656Y-112013435D01*
X142655039Y-112137392D01*
X142800514Y-112236589D01*
X142847055Y-112261153D01*
X142917257Y-112293872D01*
X142983264Y-112319502D01*
X143050657Y-112339019D01*
X143125015Y-112353397D01*
X143211920Y-112363608D01*
X143316950Y-112370629D01*
X143445686Y-112375432D01*
X143511219Y-112377093D01*
X143856500Y-112384995D01*
X143856500Y-114429375D01*
X144618500Y-114429375D01*
X144618500Y-111670099D01*
X143856500Y-111670099D01*
X143558844Y-111664331D01*
X143451019Y-111661871D01*
X143369557Y-111658873D01*
X143309075Y-111654771D01*
X143264185Y-111648998D01*
X143229502Y-111640989D01*
X143199641Y-111630177D01*
X143188944Y-111625448D01*
X143114332Y-111584766D01*
X143052047Y-111535218D01*
X143001253Y-111474089D01*
X142961119Y-111398664D01*
X142930811Y-111306229D01*
X142909495Y-111194070D01*
X142896339Y-111059472D01*
X142890509Y-110899720D01*
X142891172Y-110712102D01*
X142892290Y-110659062D01*
X142898122Y-110504992D01*
X142908299Y-110378438D01*
X142924046Y-110275317D01*
X142946587Y-110191550D01*
X142977145Y-110123054D01*
X143016946Y-110065748D01*
X143067213Y-110015552D01*
X143091172Y-109996048D01*
X143136883Y-109965608D01*
X143189037Y-109941962D01*
X143252534Y-109924092D01*
X143332275Y-109910985D01*
X143433160Y-109901622D01*
X143560088Y-109894988D01*
X143582657Y-109894129D01*
X143856500Y-109884124D01*
X143856500Y-111670099D01*
X144618500Y-111670099D01*
X144618500Y-109190625D01*
X143955719Y-109190646D01*
G36*
X137451159Y-109164027D02*
G01*
X137264089Y-109211108D01*
X137086516Y-109284550D01*
X136922403Y-109383339D01*
X136775710Y-109506460D01*
X136767642Y-109514504D01*
X136703679Y-109581649D01*
X136655289Y-109640759D01*
X136614408Y-109703217D01*
X136572969Y-109780405D01*
X136558433Y-109809750D01*
X136536408Y-109854215D01*
X136516867Y-109893656D01*
X136499656Y-109930146D01*
X136484619Y-109965756D01*
X136471602Y-110002561D01*
X136460450Y-110042632D01*
X136451010Y-110088044D01*
X136443125Y-110140867D01*
X136436643Y-110203176D01*
X136431407Y-110277044D01*
X136427264Y-110364542D01*
X136424059Y-110467744D01*
X136421637Y-110588723D01*
X136419844Y-110729552D01*
X136418524Y-110892303D01*
X136417525Y-111079050D01*
X136416690Y-111291864D01*
X136415866Y-111532820D01*
X136415171Y-111730625D01*
X136414248Y-112026187D01*
X136413762Y-112290800D01*
X136413719Y-112525263D01*
X136414125Y-112730374D01*
X136414986Y-112906930D01*
X136416307Y-113055729D01*
X136418094Y-113177571D01*
X136420353Y-113273253D01*
X136423090Y-113343574D01*
X136426310Y-113389331D01*
X136427253Y-113397500D01*
X136466670Y-113592551D01*
X136531900Y-113769786D01*
X136623874Y-113931110D01*
X136743524Y-114078428D01*
X136776422Y-114111875D01*
X136904773Y-114224105D01*
X137039796Y-114313140D01*
X137189377Y-114383413D01*
X137356664Y-114438070D01*
X137422438Y-114450929D01*
X137509679Y-114460986D01*
X137608407Y-114467797D01*
X137708646Y-114470918D01*
X137800416Y-114469908D01*
X137873739Y-114464322D01*
X137890186Y-114461773D01*
X138079240Y-114412715D01*
X138257362Y-114337779D01*
X138421035Y-114239490D01*
X138566738Y-114120374D01*
X138690951Y-113982956D01*
X138790156Y-113829761D01*
X138801578Y-113807738D01*
X138834220Y-113735512D01*
X138866920Y-113651210D01*
X138891462Y-113576752D01*
X138927313Y-113453062D01*
X138927313Y-111810000D01*
X138927313Y-111802062D01*
X138181188Y-111802062D01*
X138181109Y-112063979D01*
X138180855Y-112295926D01*
X138180403Y-112499680D01*
X138179728Y-112677022D01*
X138178807Y-112829729D01*
X138177615Y-112959582D01*
X138176127Y-113068358D01*
X138174321Y-113157836D01*
X138172171Y-113229796D01*
X138169654Y-113286017D01*
X138166745Y-113328276D01*
X138163421Y-113358354D01*
X138159831Y-113377363D01*
X138116579Y-113483894D01*
X138047091Y-113575112D01*
X137954526Y-113647692D01*
X137860471Y-113692103D01*
X137788873Y-113708055D01*
X137699891Y-113714221D01*
X137606268Y-113710838D01*
X137520746Y-113698143D01*
X137475385Y-113684951D01*
X137366847Y-113628846D01*
X137282041Y-113551821D01*
X137225560Y-113464300D01*
X137181063Y-113373687D01*
X137181063Y-110246312D01*
X137226015Y-110154768D01*
X137290320Y-110056713D01*
X137374792Y-109983084D01*
X137479135Y-109934033D01*
X137603055Y-109909709D01*
X137710660Y-109907879D01*
X137786736Y-109913400D01*
X137843055Y-109923214D01*
X137891578Y-109940169D01*
X137932884Y-109960825D01*
X138031850Y-110031081D01*
X138106561Y-110119755D01*
X138153993Y-110222073D01*
X138158603Y-110238912D01*
X138162664Y-110259172D01*
X138166212Y-110284841D01*
X138169280Y-110317911D01*
X138171903Y-110360370D01*
X138174116Y-110414209D01*
X138175951Y-110481418D01*
X138177445Y-110563985D01*
X138178630Y-110663901D01*
X138179541Y-110783156D01*
X138180212Y-110923740D01*
X138180678Y-111087641D01*
X138180973Y-111276851D01*
X138181131Y-111493358D01*
X138181186Y-111739153D01*
X138181188Y-111802062D01*
X138927313Y-111802062D01*
X138927344Y-111539912D01*
X138927369Y-111299609D01*
X138927283Y-111087127D01*
X138926984Y-110900501D01*
X138926368Y-110737765D01*
X138925330Y-110596956D01*
X138923768Y-110476108D01*
X138921578Y-110373257D01*
X138918656Y-110286438D01*
X138914898Y-110213687D01*
X138910202Y-110153038D01*
X138904463Y-110102527D01*
X138897579Y-110060189D01*
X138889444Y-110024060D01*
X138879956Y-109992174D01*
X138869011Y-109962568D01*
X138856506Y-109933276D01*
X138842337Y-109902333D01*
X138826400Y-109867775D01*
X138824708Y-109864052D01*
X138732470Y-109698332D01*
X138614867Y-109549203D01*
X138475082Y-109419359D01*
X138316297Y-109311495D01*
X138141696Y-109228304D01*
X138029762Y-109191098D01*
X137837956Y-109153007D01*
X137643769Y-109144322D01*
X137451159Y-109164027D01*
G37*
X137451159Y-109164027D02*
X137264089Y-109211108D01*
X137086516Y-109284550D01*
X136922403Y-109383339D01*
X136775710Y-109506460D01*
X136767642Y-109514504D01*
X136703679Y-109581649D01*
X136655289Y-109640759D01*
X136614408Y-109703217D01*
X136572969Y-109780405D01*
X136558433Y-109809750D01*
X136536408Y-109854215D01*
X136516867Y-109893656D01*
X136499656Y-109930146D01*
X136484619Y-109965756D01*
X136471602Y-110002561D01*
X136460450Y-110042632D01*
X136451010Y-110088044D01*
X136443125Y-110140867D01*
X136436643Y-110203176D01*
X136431407Y-110277044D01*
X136427264Y-110364542D01*
X136424059Y-110467744D01*
X136421637Y-110588723D01*
X136419844Y-110729552D01*
X136418524Y-110892303D01*
X136417525Y-111079050D01*
X136416690Y-111291864D01*
X136415866Y-111532820D01*
X136415171Y-111730625D01*
X136414248Y-112026187D01*
X136413762Y-112290800D01*
X136413719Y-112525263D01*
X136414125Y-112730374D01*
X136414986Y-112906930D01*
X136416307Y-113055729D01*
X136418094Y-113177571D01*
X136420353Y-113273253D01*
X136423090Y-113343574D01*
X136426310Y-113389331D01*
X136427253Y-113397500D01*
X136466670Y-113592551D01*
X136531900Y-113769786D01*
X136623874Y-113931110D01*
X136743524Y-114078428D01*
X136776422Y-114111875D01*
X136904773Y-114224105D01*
X137039796Y-114313140D01*
X137189377Y-114383413D01*
X137356664Y-114438070D01*
X137422438Y-114450929D01*
X137509679Y-114460986D01*
X137608407Y-114467797D01*
X137708646Y-114470918D01*
X137800416Y-114469908D01*
X137873739Y-114464322D01*
X137890186Y-114461773D01*
X138079240Y-114412715D01*
X138257362Y-114337779D01*
X138421035Y-114239490D01*
X138566738Y-114120374D01*
X138690951Y-113982956D01*
X138790156Y-113829761D01*
X138801578Y-113807738D01*
X138834220Y-113735512D01*
X138866920Y-113651210D01*
X138891462Y-113576752D01*
X138927313Y-113453062D01*
X138927313Y-111810000D01*
X138927313Y-111802062D01*
X138181188Y-111802062D01*
X138181109Y-112063979D01*
X138180855Y-112295926D01*
X138180403Y-112499680D01*
X138179728Y-112677022D01*
X138178807Y-112829729D01*
X138177615Y-112959582D01*
X138176127Y-113068358D01*
X138174321Y-113157836D01*
X138172171Y-113229796D01*
X138169654Y-113286017D01*
X138166745Y-113328276D01*
X138163421Y-113358354D01*
X138159831Y-113377363D01*
X138116579Y-113483894D01*
X138047091Y-113575112D01*
X137954526Y-113647692D01*
X137860471Y-113692103D01*
X137788873Y-113708055D01*
X137699891Y-113714221D01*
X137606268Y-113710838D01*
X137520746Y-113698143D01*
X137475385Y-113684951D01*
X137366847Y-113628846D01*
X137282041Y-113551821D01*
X137225560Y-113464300D01*
X137181063Y-113373687D01*
X137181063Y-110246312D01*
X137226015Y-110154768D01*
X137290320Y-110056713D01*
X137374792Y-109983084D01*
X137479135Y-109934033D01*
X137603055Y-109909709D01*
X137710660Y-109907879D01*
X137786736Y-109913400D01*
X137843055Y-109923214D01*
X137891578Y-109940169D01*
X137932884Y-109960825D01*
X138031850Y-110031081D01*
X138106561Y-110119755D01*
X138153993Y-110222073D01*
X138158603Y-110238912D01*
X138162664Y-110259172D01*
X138166212Y-110284841D01*
X138169280Y-110317911D01*
X138171903Y-110360370D01*
X138174116Y-110414209D01*
X138175951Y-110481418D01*
X138177445Y-110563985D01*
X138178630Y-110663901D01*
X138179541Y-110783156D01*
X138180212Y-110923740D01*
X138180678Y-111087641D01*
X138180973Y-111276851D01*
X138181131Y-111493358D01*
X138181186Y-111739153D01*
X138181188Y-111802062D01*
X138927313Y-111802062D01*
X138927344Y-111539912D01*
X138927369Y-111299609D01*
X138927283Y-111087127D01*
X138926984Y-110900501D01*
X138926368Y-110737765D01*
X138925330Y-110596956D01*
X138923768Y-110476108D01*
X138921578Y-110373257D01*
X138918656Y-110286438D01*
X138914898Y-110213687D01*
X138910202Y-110153038D01*
X138904463Y-110102527D01*
X138897579Y-110060189D01*
X138889444Y-110024060D01*
X138879956Y-109992174D01*
X138869011Y-109962568D01*
X138856506Y-109933276D01*
X138842337Y-109902333D01*
X138826400Y-109867775D01*
X138824708Y-109864052D01*
X138732470Y-109698332D01*
X138614867Y-109549203D01*
X138475082Y-109419359D01*
X138316297Y-109311495D01*
X138141696Y-109228304D01*
X138029762Y-109191098D01*
X137837956Y-109153007D01*
X137643769Y-109144322D01*
X137451159Y-109164027D01*
G36*
X145726000Y-117404000D02*
G01*
X153854000Y-117404000D01*
X153854000Y-110006250D01*
X153123750Y-110006250D01*
X153123750Y-116673750D01*
X146456250Y-116673750D01*
X146456250Y-110006250D01*
X153123750Y-110006250D01*
X153854000Y-110006250D01*
X153854000Y-109276000D01*
X145726000Y-109276000D01*
X145726000Y-117404000D01*
G37*
X145726000Y-117404000D02*
X153854000Y-117404000D01*
X153854000Y-110006250D01*
X153123750Y-110006250D01*
X153123750Y-116673750D01*
X146456250Y-116673750D01*
X146456250Y-110006250D01*
X153123750Y-110006250D01*
X153854000Y-110006250D01*
X153854000Y-109276000D01*
X145726000Y-109276000D01*
X145726000Y-117404000D01*
G36*
X148158865Y-110683044D02*
G01*
X148074812Y-110695491D01*
X147964517Y-110725675D01*
X147842424Y-110772717D01*
X147719589Y-110831437D01*
X147607068Y-110896654D01*
X147532229Y-110949767D01*
X147406511Y-111067110D01*
X147296066Y-111204709D01*
X147205676Y-111355304D01*
X147140123Y-111511636D01*
X147122556Y-111571675D01*
X147109847Y-111628371D01*
X147100939Y-111687496D01*
X147095255Y-111756225D01*
X147092219Y-111841733D01*
X147091255Y-111951197D01*
X147091250Y-111961414D01*
X147091250Y-112228750D01*
X147837375Y-112228750D01*
X147837690Y-112129531D01*
X147846446Y-111985310D01*
X147870622Y-111849134D01*
X147908476Y-111726838D01*
X147958262Y-111624255D01*
X148008981Y-111556577D01*
X148090191Y-111492728D01*
X148188485Y-111450077D01*
X148297375Y-111428551D01*
X148410375Y-111428077D01*
X148520996Y-111448583D01*
X148622751Y-111489996D01*
X148709152Y-111552242D01*
X148721547Y-111564577D01*
X148781717Y-111647971D01*
X148828594Y-111756500D01*
X148861255Y-111886056D01*
X148878774Y-112032533D01*
X148880225Y-112191823D01*
X148876553Y-112252562D01*
X148862198Y-112376471D01*
X148839074Y-112474928D01*
X148804341Y-112553673D01*
X148755161Y-112618447D01*
X148688693Y-112674989D01*
X148657035Y-112696327D01*
X148620793Y-112715978D01*
X148559740Y-112745108D01*
X148478633Y-112781620D01*
X148382224Y-112823419D01*
X148275271Y-112868409D01*
X148162526Y-112914493D01*
X148157835Y-112916381D01*
X148007331Y-112977388D01*
X147882777Y-113029267D01*
X147780410Y-113074075D01*
X147696468Y-113113870D01*
X147627187Y-113150712D01*
X147568804Y-113186657D01*
X147517556Y-113223764D01*
X147469679Y-113264092D01*
X147421411Y-113309699D01*
X147400372Y-113330666D01*
X147321476Y-113418360D01*
X147256133Y-113510553D01*
X147203325Y-113610882D01*
X147162031Y-113722984D01*
X147131230Y-113850497D01*
X147109903Y-113997059D01*
X147097029Y-114166306D01*
X147091588Y-114361878D01*
X147091250Y-114432921D01*
X147097120Y-114668882D01*
X147115301Y-114878073D01*
X147146650Y-115063336D01*
X147192025Y-115227514D01*
X147252283Y-115373448D01*
X147328282Y-115503982D01*
X147420878Y-115621956D01*
X147463569Y-115667083D01*
X147576380Y-115769527D01*
X147689989Y-115848032D01*
X147814911Y-115908883D01*
X147940563Y-115952233D01*
X148003462Y-115969626D01*
X148061438Y-115982008D01*
X148122918Y-115990425D01*
X148196327Y-115995924D01*
X148290092Y-115999554D01*
X148329500Y-116000582D01*
X148453133Y-116001983D01*
X148550442Y-115999363D01*
X148626627Y-115992468D01*
X148675625Y-115983759D01*
X148813902Y-115944505D01*
X148950166Y-115891468D01*
X149074305Y-115829096D01*
X149170875Y-115765947D01*
X149243661Y-115703363D01*
X149322761Y-115623937D01*
X149398401Y-115538201D01*
X149460804Y-115456683D01*
X149468457Y-115445413D01*
X149552895Y-115298269D01*
X149614681Y-115142698D01*
X149655147Y-114973745D01*
X149675627Y-114786458D01*
X149678875Y-114663483D01*
X149678875Y-114483000D01*
X148920708Y-114483000D01*
X148914222Y-114677468D01*
X148910720Y-114762767D01*
X148905800Y-114824950D01*
X148897862Y-114872649D01*
X148885310Y-114914498D01*
X148866543Y-114959131D01*
X148859099Y-114975125D01*
X148802901Y-115074340D01*
X148737500Y-115147580D01*
X148656912Y-115199329D01*
X148555155Y-115234068D01*
X148497601Y-115245918D01*
X148372450Y-115256463D01*
X148251606Y-115245566D01*
X148140599Y-115214976D01*
X148044959Y-115166443D01*
X147970214Y-115101714D01*
X147947607Y-115071983D01*
X147912607Y-115011067D01*
X147886384Y-114944519D01*
X147867448Y-114865997D01*
X147854312Y-114769160D01*
X147845487Y-114647665D01*
X147844779Y-114633812D01*
X147840988Y-114487583D01*
X147843856Y-114346774D01*
X147852883Y-114216694D01*
X147867567Y-114102652D01*
X147887408Y-114009957D01*
X147909438Y-113948803D01*
X147930398Y-113909547D01*
X147954260Y-113874934D01*
X147984217Y-113843053D01*
X148023463Y-113811992D01*
X148075192Y-113779840D01*
X148142598Y-113744687D01*
X148228874Y-113704619D01*
X148337215Y-113657727D01*
X148470814Y-113602098D01*
X148527938Y-113578651D01*
X148686658Y-113512905D01*
X148819246Y-113455937D01*
X148929399Y-113405650D01*
X149020813Y-113359948D01*
X149097187Y-113316733D01*
X149162216Y-113273909D01*
X149219597Y-113229379D01*
X149273029Y-113181046D01*
X149326207Y-113126812D01*
X149328075Y-113124818D01*
X149421157Y-113008731D01*
X149495642Y-112877830D01*
X149553428Y-112727797D01*
X149596411Y-112554312D01*
X149608429Y-112486515D01*
X149621627Y-112374777D01*
X149629257Y-112244491D01*
X149631328Y-112106048D01*
X149627851Y-111969842D01*
X149618835Y-111846262D01*
X149607744Y-111764060D01*
X149557102Y-111553540D01*
X149482811Y-111362235D01*
X149385801Y-111191276D01*
X149267003Y-111041796D01*
X149127346Y-110914928D01*
X148967762Y-110811802D01*
X148789181Y-110733551D01*
X148750188Y-110720646D01*
X148654513Y-110698368D01*
X148537666Y-110683101D01*
X148409525Y-110675213D01*
X148279966Y-110675071D01*
X148158865Y-110683044D01*
G37*
X148158865Y-110683044D02*
X148074812Y-110695491D01*
X147964517Y-110725675D01*
X147842424Y-110772717D01*
X147719589Y-110831437D01*
X147607068Y-110896654D01*
X147532229Y-110949767D01*
X147406511Y-111067110D01*
X147296066Y-111204709D01*
X147205676Y-111355304D01*
X147140123Y-111511636D01*
X147122556Y-111571675D01*
X147109847Y-111628371D01*
X147100939Y-111687496D01*
X147095255Y-111756225D01*
X147092219Y-111841733D01*
X147091255Y-111951197D01*
X147091250Y-111961414D01*
X147091250Y-112228750D01*
X147837375Y-112228750D01*
X147837690Y-112129531D01*
X147846446Y-111985310D01*
X147870622Y-111849134D01*
X147908476Y-111726838D01*
X147958262Y-111624255D01*
X148008981Y-111556577D01*
X148090191Y-111492728D01*
X148188485Y-111450077D01*
X148297375Y-111428551D01*
X148410375Y-111428077D01*
X148520996Y-111448583D01*
X148622751Y-111489996D01*
X148709152Y-111552242D01*
X148721547Y-111564577D01*
X148781717Y-111647971D01*
X148828594Y-111756500D01*
X148861255Y-111886056D01*
X148878774Y-112032533D01*
X148880225Y-112191823D01*
X148876553Y-112252562D01*
X148862198Y-112376471D01*
X148839074Y-112474928D01*
X148804341Y-112553673D01*
X148755161Y-112618447D01*
X148688693Y-112674989D01*
X148657035Y-112696327D01*
X148620793Y-112715978D01*
X148559740Y-112745108D01*
X148478633Y-112781620D01*
X148382224Y-112823419D01*
X148275271Y-112868409D01*
X148162526Y-112914493D01*
X148157835Y-112916381D01*
X148007331Y-112977388D01*
X147882777Y-113029267D01*
X147780410Y-113074075D01*
X147696468Y-113113870D01*
X147627187Y-113150712D01*
X147568804Y-113186657D01*
X147517556Y-113223764D01*
X147469679Y-113264092D01*
X147421411Y-113309699D01*
X147400372Y-113330666D01*
X147321476Y-113418360D01*
X147256133Y-113510553D01*
X147203325Y-113610882D01*
X147162031Y-113722984D01*
X147131230Y-113850497D01*
X147109903Y-113997059D01*
X147097029Y-114166306D01*
X147091588Y-114361878D01*
X147091250Y-114432921D01*
X147097120Y-114668882D01*
X147115301Y-114878073D01*
X147146650Y-115063336D01*
X147192025Y-115227514D01*
X147252283Y-115373448D01*
X147328282Y-115503982D01*
X147420878Y-115621956D01*
X147463569Y-115667083D01*
X147576380Y-115769527D01*
X147689989Y-115848032D01*
X147814911Y-115908883D01*
X147940563Y-115952233D01*
X148003462Y-115969626D01*
X148061438Y-115982008D01*
X148122918Y-115990425D01*
X148196327Y-115995924D01*
X148290092Y-115999554D01*
X148329500Y-116000582D01*
X148453133Y-116001983D01*
X148550442Y-115999363D01*
X148626627Y-115992468D01*
X148675625Y-115983759D01*
X148813902Y-115944505D01*
X148950166Y-115891468D01*
X149074305Y-115829096D01*
X149170875Y-115765947D01*
X149243661Y-115703363D01*
X149322761Y-115623937D01*
X149398401Y-115538201D01*
X149460804Y-115456683D01*
X149468457Y-115445413D01*
X149552895Y-115298269D01*
X149614681Y-115142698D01*
X149655147Y-114973745D01*
X149675627Y-114786458D01*
X149678875Y-114663483D01*
X149678875Y-114483000D01*
X148920708Y-114483000D01*
X148914222Y-114677468D01*
X148910720Y-114762767D01*
X148905800Y-114824950D01*
X148897862Y-114872649D01*
X148885310Y-114914498D01*
X148866543Y-114959131D01*
X148859099Y-114975125D01*
X148802901Y-115074340D01*
X148737500Y-115147580D01*
X148656912Y-115199329D01*
X148555155Y-115234068D01*
X148497601Y-115245918D01*
X148372450Y-115256463D01*
X148251606Y-115245566D01*
X148140599Y-115214976D01*
X148044959Y-115166443D01*
X147970214Y-115101714D01*
X147947607Y-115071983D01*
X147912607Y-115011067D01*
X147886384Y-114944519D01*
X147867448Y-114865997D01*
X147854312Y-114769160D01*
X147845487Y-114647665D01*
X147844779Y-114633812D01*
X147840988Y-114487583D01*
X147843856Y-114346774D01*
X147852883Y-114216694D01*
X147867567Y-114102652D01*
X147887408Y-114009957D01*
X147909438Y-113948803D01*
X147930398Y-113909547D01*
X147954260Y-113874934D01*
X147984217Y-113843053D01*
X148023463Y-113811992D01*
X148075192Y-113779840D01*
X148142598Y-113744687D01*
X148228874Y-113704619D01*
X148337215Y-113657727D01*
X148470814Y-113602098D01*
X148527938Y-113578651D01*
X148686658Y-113512905D01*
X148819246Y-113455937D01*
X148929399Y-113405650D01*
X149020813Y-113359948D01*
X149097187Y-113316733D01*
X149162216Y-113273909D01*
X149219597Y-113229379D01*
X149273029Y-113181046D01*
X149326207Y-113126812D01*
X149328075Y-113124818D01*
X149421157Y-113008731D01*
X149495642Y-112877830D01*
X149553428Y-112727797D01*
X149596411Y-112554312D01*
X149608429Y-112486515D01*
X149621627Y-112374777D01*
X149629257Y-112244491D01*
X149631328Y-112106048D01*
X149627851Y-111969842D01*
X149618835Y-111846262D01*
X149607744Y-111764060D01*
X149557102Y-111553540D01*
X149482811Y-111362235D01*
X149385801Y-111191276D01*
X149267003Y-111041796D01*
X149127346Y-110914928D01*
X148967762Y-110811802D01*
X148789181Y-110733551D01*
X148750188Y-110720646D01*
X148654513Y-110698368D01*
X148537666Y-110683101D01*
X148409525Y-110675213D01*
X148279966Y-110675071D01*
X148158865Y-110683044D01*
G36*
X151551016Y-110737093D02*
G01*
X151377768Y-110739197D01*
X151229543Y-110743303D01*
X151102986Y-110749896D01*
X150994741Y-110759467D01*
X150901453Y-110772503D01*
X150819768Y-110789494D01*
X150746329Y-110810926D01*
X150677781Y-110837290D01*
X150610770Y-110869072D01*
X150541939Y-110906762D01*
X150528188Y-110914743D01*
X150389385Y-111014017D01*
X150267514Y-111138587D01*
X150164304Y-111285875D01*
X150081484Y-111453303D01*
X150020784Y-111638293D01*
X150008827Y-111689000D01*
X149972563Y-111855687D01*
X149972563Y-113308250D01*
X149972588Y-113568139D01*
X149972730Y-113798431D01*
X149973091Y-114001280D01*
X149973774Y-114178839D01*
X149974880Y-114333260D01*
X149976512Y-114466699D01*
X149978770Y-114581307D01*
X149981758Y-114679238D01*
X149985577Y-114762646D01*
X149990328Y-114833683D01*
X149996115Y-114894503D01*
X150003039Y-114947259D01*
X150011202Y-114994105D01*
X150020705Y-115037193D01*
X150031652Y-115078678D01*
X150044143Y-115120712D01*
X150058281Y-115165449D01*
X150060883Y-115173562D01*
X150123667Y-115334043D01*
X150203547Y-115473013D01*
X150305118Y-115598147D01*
X150331139Y-115624890D01*
X150427090Y-115711629D01*
X150525863Y-115780727D01*
X150637087Y-115837975D01*
X150770391Y-115889162D01*
X150770999Y-115889369D01*
X150833849Y-115909735D01*
X150893956Y-115926648D01*
X150955015Y-115940420D01*
X151020718Y-115951365D01*
X151094761Y-115959797D01*
X151180839Y-115966028D01*
X151282644Y-115970372D01*
X151403873Y-115973143D01*
X151548219Y-115974654D01*
X151719376Y-115975218D01*
X151783462Y-115975250D01*
X152393500Y-115975250D01*
X152393500Y-115279891D01*
X151663250Y-115279891D01*
X151389032Y-115274352D01*
X151289547Y-115272198D01*
X151215671Y-115269733D01*
X151161268Y-115266021D01*
X151120205Y-115260127D01*
X151086346Y-115251115D01*
X151053557Y-115238051D01*
X151015701Y-115219998D01*
X151008150Y-115216282D01*
X150922439Y-115164077D01*
X150857689Y-115099452D01*
X150808033Y-115015376D01*
X150779525Y-114942412D01*
X150774625Y-114926497D01*
X150770307Y-114908310D01*
X150766534Y-114885860D01*
X150763269Y-114857154D01*
X150760476Y-114820198D01*
X150758118Y-114772999D01*
X150756158Y-114713564D01*
X150754561Y-114639901D01*
X150753290Y-114550016D01*
X150752308Y-114441916D01*
X150751578Y-114313609D01*
X150751064Y-114163101D01*
X150750730Y-113988399D01*
X150750539Y-113787511D01*
X150750454Y-113558442D01*
X150750438Y-113355875D01*
X150750467Y-113102931D01*
X150750576Y-112879753D01*
X150750803Y-112684355D01*
X150751182Y-112514754D01*
X150751749Y-112368963D01*
X150752541Y-112244999D01*
X150753592Y-112140878D01*
X150754940Y-112054613D01*
X150756618Y-111984221D01*
X150758665Y-111927717D01*
X150761114Y-111883116D01*
X150764002Y-111848433D01*
X150767365Y-111821685D01*
X150771239Y-111800885D01*
X150775659Y-111784051D01*
X150778965Y-111773939D01*
X150823819Y-111669542D01*
X150878837Y-111590114D01*
X150949299Y-111529252D01*
X151008869Y-111495134D01*
X151047759Y-111476392D01*
X151080823Y-111462716D01*
X151114180Y-111453173D01*
X151153949Y-111446833D01*
X151206249Y-111442767D01*
X151277199Y-111440043D01*
X151372917Y-111437731D01*
X151388627Y-111437387D01*
X151663250Y-111431398D01*
X151663250Y-115279891D01*
X152393500Y-115279891D01*
X152393500Y-110736500D01*
X151752642Y-110736500D01*
X151551016Y-110737093D01*
G37*
X151551016Y-110737093D02*
X151377768Y-110739197D01*
X151229543Y-110743303D01*
X151102986Y-110749896D01*
X150994741Y-110759467D01*
X150901453Y-110772503D01*
X150819768Y-110789494D01*
X150746329Y-110810926D01*
X150677781Y-110837290D01*
X150610770Y-110869072D01*
X150541939Y-110906762D01*
X150528188Y-110914743D01*
X150389385Y-111014017D01*
X150267514Y-111138587D01*
X150164304Y-111285875D01*
X150081484Y-111453303D01*
X150020784Y-111638293D01*
X150008827Y-111689000D01*
X149972563Y-111855687D01*
X149972563Y-113308250D01*
X149972588Y-113568139D01*
X149972730Y-113798431D01*
X149973091Y-114001280D01*
X149973774Y-114178839D01*
X149974880Y-114333260D01*
X149976512Y-114466699D01*
X149978770Y-114581307D01*
X149981758Y-114679238D01*
X149985577Y-114762646D01*
X149990328Y-114833683D01*
X149996115Y-114894503D01*
X150003039Y-114947259D01*
X150011202Y-114994105D01*
X150020705Y-115037193D01*
X150031652Y-115078678D01*
X150044143Y-115120712D01*
X150058281Y-115165449D01*
X150060883Y-115173562D01*
X150123667Y-115334043D01*
X150203547Y-115473013D01*
X150305118Y-115598147D01*
X150331139Y-115624890D01*
X150427090Y-115711629D01*
X150525863Y-115780727D01*
X150637087Y-115837975D01*
X150770391Y-115889162D01*
X150770999Y-115889369D01*
X150833849Y-115909735D01*
X150893956Y-115926648D01*
X150955015Y-115940420D01*
X151020718Y-115951365D01*
X151094761Y-115959797D01*
X151180839Y-115966028D01*
X151282644Y-115970372D01*
X151403873Y-115973143D01*
X151548219Y-115974654D01*
X151719376Y-115975218D01*
X151783462Y-115975250D01*
X152393500Y-115975250D01*
X152393500Y-115279891D01*
X151663250Y-115279891D01*
X151389032Y-115274352D01*
X151289547Y-115272198D01*
X151215671Y-115269733D01*
X151161268Y-115266021D01*
X151120205Y-115260127D01*
X151086346Y-115251115D01*
X151053557Y-115238051D01*
X151015701Y-115219998D01*
X151008150Y-115216282D01*
X150922439Y-115164077D01*
X150857689Y-115099452D01*
X150808033Y-115015376D01*
X150779525Y-114942412D01*
X150774625Y-114926497D01*
X150770307Y-114908310D01*
X150766534Y-114885860D01*
X150763269Y-114857154D01*
X150760476Y-114820198D01*
X150758118Y-114772999D01*
X150756158Y-114713564D01*
X150754561Y-114639901D01*
X150753290Y-114550016D01*
X150752308Y-114441916D01*
X150751578Y-114313609D01*
X150751064Y-114163101D01*
X150750730Y-113988399D01*
X150750539Y-113787511D01*
X150750454Y-113558442D01*
X150750438Y-113355875D01*
X150750467Y-113102931D01*
X150750576Y-112879753D01*
X150750803Y-112684355D01*
X150751182Y-112514754D01*
X150751749Y-112368963D01*
X150752541Y-112244999D01*
X150753592Y-112140878D01*
X150754940Y-112054613D01*
X150756618Y-111984221D01*
X150758665Y-111927717D01*
X150761114Y-111883116D01*
X150764002Y-111848433D01*
X150767365Y-111821685D01*
X150771239Y-111800885D01*
X150775659Y-111784051D01*
X150778965Y-111773939D01*
X150823819Y-111669542D01*
X150878837Y-111590114D01*
X150949299Y-111529252D01*
X151008869Y-111495134D01*
X151047759Y-111476392D01*
X151080823Y-111462716D01*
X151114180Y-111453173D01*
X151153949Y-111446833D01*
X151206249Y-111442767D01*
X151277199Y-111440043D01*
X151372917Y-111437731D01*
X151388627Y-111437387D01*
X151663250Y-111431398D01*
X151663250Y-115279891D01*
X152393500Y-115279891D01*
X152393500Y-110736500D01*
X151752642Y-110736500D01*
X151551016Y-110737093D01*
%TD*%
M02*
