%TF.GenerationSoftware,KiCad,Pcbnew,(5.1.6-0-10_14)*%
%TF.CreationDate,2020-05-27T15:33:41+01:00*%
%TF.ProjectId,Plotyx,506c6f74-7978-42e6-9b69-6361645f7063,rev?*%
%TF.SameCoordinates,Original*%
%TF.FileFunction,Copper,L1,Top*%
%TF.FilePolarity,Positive*%
%FSLAX46Y46*%
G04 Gerber Fmt 4.6, Leading zero omitted, Abs format (unit mm)*
G04 Created by KiCad (PCBNEW (5.1.6-0-10_14)) date 2020-05-27 15:33:41*
%MOMM*%
%LPD*%
G01*
G04 APERTURE LIST*
%TA.AperFunction,ComponentPad*%
%ADD10O,1.700000X1.700000*%
%TD*%
%TA.AperFunction,ComponentPad*%
%ADD11R,1.700000X1.700000*%
%TD*%
%TA.AperFunction,ComponentPad*%
%ADD12C,1.700000*%
%TD*%
%TA.AperFunction,ComponentPad*%
%ADD13R,3.500000X3.500000*%
%TD*%
%TA.AperFunction,ComponentPad*%
%ADD14C,1.600000*%
%TD*%
%TA.AperFunction,ComponentPad*%
%ADD15R,1.600000X1.600000*%
%TD*%
%TA.AperFunction,ComponentPad*%
%ADD16R,2.000000X2.000000*%
%TD*%
%TA.AperFunction,ComponentPad*%
%ADD17C,2.000000*%
%TD*%
%TA.AperFunction,ComponentPad*%
%ADD18R,1.730000X2.030000*%
%TD*%
%TA.AperFunction,ComponentPad*%
%ADD19O,1.730000X2.030000*%
%TD*%
%TA.AperFunction,ViaPad*%
%ADD20C,0.685800*%
%TD*%
%TA.AperFunction,Conductor*%
%ADD21C,0.300000*%
%TD*%
%TA.AperFunction,Conductor*%
%ADD22C,0.250000*%
%TD*%
%TA.AperFunction,Conductor*%
%ADD23C,0.400000*%
%TD*%
%TA.AperFunction,Conductor*%
%ADD24C,0.500000*%
%TD*%
%TA.AperFunction,Conductor*%
%ADD25C,0.254000*%
%TD*%
G04 APERTURE END LIST*
D10*
%TO.P,J18,9*%
%TO.N,Net-(J10-Pad13)*%
X164250000Y-118445000D03*
%TO.P,J18,8*%
%TO.N,Net-(J10-Pad14)*%
X164250000Y-115905000D03*
%TO.P,J18,7*%
%TO.N,Net-(J10-Pad2)*%
X164250000Y-113365000D03*
%TO.P,J18,6*%
%TO.N,Net-(J10-Pad3)*%
X164250000Y-110825000D03*
%TO.P,J18,5*%
%TO.N,Net-(J18-Pad5)*%
X164250000Y-108285000D03*
%TO.P,J18,4*%
%TO.N,Net-(J18-Pad4)*%
X164250000Y-105745000D03*
%TO.P,J18,3*%
%TO.N,Net-(J18-Pad3)*%
X164250000Y-103205000D03*
%TO.P,J18,2*%
%TO.N,Net-(J18-Pad2)*%
X164250000Y-100665000D03*
D11*
%TO.P,J18,1*%
%TO.N,Net-(J10-Pad1)*%
X164250000Y-98125000D03*
%TD*%
%TO.P,J6,1*%
%TO.N,GND*%
X118020000Y-95470000D03*
D10*
%TO.P,J6,2*%
%TO.N,Net-(J3-Pad3)*%
X118020000Y-98010000D03*
%TD*%
D11*
%TO.P,J2,1*%
%TO.N,GND*%
X132200000Y-88870000D03*
D10*
%TO.P,J2,2*%
%TO.N,VDD*%
X129660000Y-88870000D03*
%TO.P,J2,3*%
%TO.N,Net-(J11-Pad1)*%
X127120000Y-88870000D03*
%TO.P,J2,4*%
%TO.N,Net-(J11-Pad2)*%
X124580000Y-88870000D03*
%TO.P,J2,5*%
%TO.N,Net-(J11-Pad3)*%
X122040000Y-88870000D03*
%TO.P,J2,6*%
%TO.N,Net-(J11-Pad4)*%
X119500000Y-88870000D03*
%TO.P,J2,7*%
%TO.N,GND*%
X116960000Y-88870000D03*
%TO.P,J2,8*%
%TO.N,12v*%
X114420000Y-88870000D03*
%TD*%
%TO.P,J8,15*%
%TO.N,Net-(J18-Pad3)*%
X152530000Y-105510000D03*
%TO.P,J8,14*%
%TO.N,Net-(J18-Pad2)*%
X149990000Y-105510000D03*
%TO.P,J8,13*%
%TO.N,Net-(J18-Pad4)*%
X147450000Y-105510000D03*
%TO.P,J8,12*%
%TO.N,Net-(J18-Pad5)*%
X144910000Y-105510000D03*
%TO.P,J8,11*%
%TO.N,Net-(J13-Pad8)*%
X142370000Y-105510000D03*
%TO.P,J8,10*%
%TO.N,Net-(J13-Pad7)*%
X139830000Y-105510000D03*
%TO.P,J8,9*%
%TO.N,Net-(J8-Pad9)*%
X137290000Y-105510000D03*
%TO.P,J8,8*%
%TO.N,Net-(J13-Pad1)*%
X134750000Y-105510000D03*
%TO.P,J8,7*%
%TO.N,Net-(J3-Pad8)*%
X132210000Y-105510000D03*
%TO.P,J8,6*%
%TO.N,Net-(J3-Pad7)*%
X129670000Y-105510000D03*
%TO.P,J8,5*%
%TO.N,Net-(J17-Pad6)*%
X127130000Y-105510000D03*
%TO.P,J8,4*%
%TO.N,Net-(J17-Pad5)*%
X124590000Y-105510000D03*
%TO.P,J8,3*%
%TO.N,Net-(J17-Pad4)*%
X122050000Y-105510000D03*
%TO.P,J8,2*%
%TO.N,Net-(J17-Pad3)*%
X119510000Y-105510000D03*
D12*
%TO.P,J8,1*%
%TO.N,Net-(J17-Pad2)*%
X116970000Y-105510000D03*
%TD*%
D10*
%TO.P,J3,8*%
%TO.N,Net-(J3-Pad8)*%
X132200000Y-101570000D03*
%TO.P,J3,7*%
%TO.N,Net-(J3-Pad7)*%
X129660000Y-101570000D03*
%TO.P,J3,6*%
%TO.N,Net-(J3-Pad5)*%
X127120000Y-101570000D03*
%TO.P,J3,5*%
X124580000Y-101570000D03*
%TO.P,J3,4*%
%TO.N,Net-(J3-Pad4)*%
X122040000Y-101570000D03*
%TO.P,J3,3*%
%TO.N,Net-(J3-Pad3)*%
X119500000Y-101570000D03*
%TO.P,J3,2*%
%TO.N,Net-(J3-Pad2)*%
X116960000Y-101570000D03*
D12*
%TO.P,J3,1*%
%TO.N,Net-(J13-Pad1)*%
X114420000Y-101570000D03*
%TD*%
D10*
%TO.P,J13,8*%
%TO.N,Net-(J13-Pad8)*%
X157580000Y-101580000D03*
%TO.P,J13,7*%
%TO.N,Net-(J13-Pad7)*%
X155040000Y-101580000D03*
%TO.P,J13,6*%
%TO.N,Net-(J13-Pad5)*%
X152500000Y-101580000D03*
%TO.P,J13,5*%
X149960000Y-101580000D03*
%TO.P,J13,4*%
%TO.N,Net-(J13-Pad4)*%
X147420000Y-101580000D03*
%TO.P,J13,3*%
%TO.N,Net-(J13-Pad3)*%
X144880000Y-101580000D03*
%TO.P,J13,2*%
%TO.N,Net-(J13-Pad2)*%
X142340000Y-101580000D03*
D12*
%TO.P,J13,1*%
%TO.N,Net-(J13-Pad1)*%
X139800000Y-101580000D03*
%TD*%
D13*
%TO.P,J1,1*%
%TO.N,12v*%
X127240000Y-76370000D03*
%TO.P,J1,2*%
%TO.N,GND*%
%TA.AperFunction,ComponentPad*%
G36*
G01*
X119740000Y-77370000D02*
X119740000Y-75370000D01*
G75*
G02*
X120490000Y-74620000I750000J0D01*
G01*
X121990000Y-74620000D01*
G75*
G02*
X122740000Y-75370000I0J-750000D01*
G01*
X122740000Y-77370000D01*
G75*
G02*
X121990000Y-78120000I-750000J0D01*
G01*
X120490000Y-78120000D01*
G75*
G02*
X119740000Y-77370000I0J750000D01*
G01*
G37*
%TD.AperFunction*%
%TO.P,J1,3*%
%TA.AperFunction,ComponentPad*%
G36*
G01*
X122490000Y-81945000D02*
X122490000Y-80195000D01*
G75*
G02*
X123365000Y-79320000I875000J0D01*
G01*
X125115000Y-79320000D01*
G75*
G02*
X125990000Y-80195000I0J-875000D01*
G01*
X125990000Y-81945000D01*
G75*
G02*
X125115000Y-82820000I-875000J0D01*
G01*
X123365000Y-82820000D01*
G75*
G02*
X122490000Y-81945000I0J875000D01*
G01*
G37*
%TD.AperFunction*%
%TD*%
D14*
%TO.P,C3,2*%
%TO.N,Net-(C3-Pad2)*%
X143675000Y-74250000D03*
D15*
%TO.P,C3,1*%
%TO.N,5v*%
X146175000Y-74250000D03*
%TD*%
D14*
%TO.P,C2,2*%
%TO.N,12v*%
X156310000Y-82730000D03*
D15*
%TO.P,C2,1*%
%TO.N,GND*%
X156310000Y-85230000D03*
%TD*%
D14*
%TO.P,C1,2*%
%TO.N,12v*%
X130930000Y-82730000D03*
D15*
%TO.P,C1,1*%
%TO.N,GND*%
X130930000Y-85230000D03*
%TD*%
D11*
%TO.P,J4,1*%
%TO.N,Net-(J12-Pad3)*%
X147390000Y-85320000D03*
D10*
%TO.P,J4,2*%
%TO.N,Net-(J12-Pad4)*%
X144850000Y-85320000D03*
%TO.P,J4,3*%
%TO.N,Net-(J12-Pad5)*%
X142310000Y-85320000D03*
%TO.P,J4,4*%
%TO.N,Net-(J12-Pad6)*%
X139770000Y-85320000D03*
%TD*%
D11*
%TO.P,J9,1*%
%TO.N,Net-(J8-Pad9)*%
X164318780Y-88578180D03*
D10*
%TO.P,J9,2*%
%TO.N,5v*%
X164318780Y-91118180D03*
%TO.P,J9,3*%
%TO.N,GND*%
X164318780Y-93658180D03*
%TD*%
D11*
%TO.P,J10,1*%
%TO.N,Net-(J10-Pad1)*%
X152480000Y-120730000D03*
D10*
%TO.P,J10,2*%
%TO.N,Net-(J10-Pad2)*%
X149940000Y-120730000D03*
%TO.P,J10,3*%
%TO.N,Net-(J10-Pad3)*%
X147400000Y-120730000D03*
%TO.P,J10,4*%
%TO.N,VDD*%
X144860000Y-120730000D03*
%TO.P,J10,5*%
%TO.N,Net-(J10-Pad5)*%
X142320000Y-120730000D03*
%TO.P,J10,6*%
%TO.N,Net-(J10-Pad6)*%
X139780000Y-120730000D03*
%TO.P,J10,7*%
%TO.N,Net-(J10-Pad7)*%
X137240000Y-120730000D03*
%TO.P,J10,8*%
%TO.N,Net-(J10-Pad8)*%
X134700000Y-120730000D03*
%TO.P,J10,9*%
%TO.N,Net-(J10-Pad9)*%
X132160000Y-120730000D03*
%TO.P,J10,10*%
%TO.N,Net-(J10-Pad10)*%
X129620000Y-120730000D03*
%TO.P,J10,11*%
%TO.N,Net-(J10-Pad11)*%
X127080000Y-120730000D03*
%TO.P,J10,12*%
%TO.N,Net-(J10-Pad12)*%
X124540000Y-120730000D03*
%TO.P,J10,13*%
%TO.N,Net-(J10-Pad13)*%
X122000000Y-120730000D03*
%TO.P,J10,14*%
%TO.N,Net-(J10-Pad14)*%
X119460000Y-120730000D03*
%TO.P,J10,15*%
%TO.N,Net-(J10-Pad15)*%
X116920000Y-120730000D03*
%TD*%
%TO.P,J11,4*%
%TO.N,Net-(J11-Pad4)*%
X114430000Y-85270000D03*
%TO.P,J11,3*%
%TO.N,Net-(J11-Pad3)*%
X116970000Y-85270000D03*
%TO.P,J11,2*%
%TO.N,Net-(J11-Pad2)*%
X119510000Y-85270000D03*
D11*
%TO.P,J11,1*%
%TO.N,Net-(J11-Pad1)*%
X122050000Y-85270000D03*
%TD*%
%TO.P,J12,1*%
%TO.N,GND*%
X157580000Y-88880000D03*
D10*
%TO.P,J12,2*%
%TO.N,VDD*%
X155040000Y-88880000D03*
%TO.P,J12,3*%
%TO.N,Net-(J12-Pad3)*%
X152500000Y-88880000D03*
%TO.P,J12,4*%
%TO.N,Net-(J12-Pad4)*%
X149960000Y-88880000D03*
%TO.P,J12,5*%
%TO.N,Net-(J12-Pad5)*%
X147420000Y-88880000D03*
%TO.P,J12,6*%
%TO.N,Net-(J12-Pad6)*%
X144880000Y-88880000D03*
%TO.P,J12,7*%
%TO.N,GND*%
X142340000Y-88880000D03*
%TO.P,J12,8*%
%TO.N,12v*%
X139800000Y-88880000D03*
%TD*%
D11*
%TO.P,J5,1*%
%TO.N,GND*%
X114420000Y-95470000D03*
D10*
%TO.P,J5,2*%
%TO.N,Net-(J3-Pad2)*%
X114420000Y-98010000D03*
%TD*%
%TO.P,J7,2*%
%TO.N,Net-(J3-Pad4)*%
X121620000Y-98010000D03*
D11*
%TO.P,J7,1*%
%TO.N,GND*%
X121620000Y-95470000D03*
%TD*%
%TO.P,J14,1*%
%TO.N,GND*%
X139800000Y-95480000D03*
D10*
%TO.P,J14,2*%
%TO.N,Net-(J13-Pad2)*%
X139800000Y-98020000D03*
%TD*%
D11*
%TO.P,J15,1*%
%TO.N,GND*%
X143400000Y-95480000D03*
D10*
%TO.P,J15,2*%
%TO.N,Net-(J13-Pad3)*%
X143400000Y-98020000D03*
%TD*%
%TO.P,J16,2*%
%TO.N,Net-(J13-Pad4)*%
X147000000Y-98020000D03*
D11*
%TO.P,J16,1*%
%TO.N,GND*%
X147000000Y-95480000D03*
%TD*%
D16*
%TO.P,U1,1*%
%TO.N,12v*%
X133255000Y-73890000D03*
D17*
%TO.P,U1,2*%
%TO.N,GND*%
X135795000Y-73890000D03*
%TO.P,U1,3*%
%TO.N,Net-(C3-Pad2)*%
X138335000Y-73890000D03*
%TD*%
D11*
%TO.P,J17,1*%
%TO.N,Net-(J10-Pad15)*%
X119700000Y-126650000D03*
D10*
%TO.P,J17,2*%
%TO.N,Net-(J17-Pad2)*%
X122240000Y-126650000D03*
%TO.P,J17,3*%
%TO.N,Net-(J17-Pad3)*%
X124780000Y-126650000D03*
%TO.P,J17,4*%
%TO.N,Net-(J17-Pad4)*%
X127320000Y-126650000D03*
%TO.P,J17,5*%
%TO.N,Net-(J17-Pad5)*%
X129860000Y-126650000D03*
%TO.P,J17,6*%
%TO.N,Net-(J17-Pad6)*%
X132400000Y-126650000D03*
%TO.P,J17,7*%
%TO.N,Net-(J10-Pad12)*%
X134940000Y-126650000D03*
%TO.P,J17,8*%
%TO.N,Net-(J10-Pad11)*%
X137480000Y-126650000D03*
%TO.P,J17,9*%
%TO.N,Net-(J10-Pad10)*%
X140020000Y-126650000D03*
%TO.P,J17,10*%
%TO.N,Net-(J10-Pad9)*%
X142560000Y-126650000D03*
%TO.P,J17,11*%
%TO.N,Net-(J10-Pad8)*%
X145100000Y-126650000D03*
%TO.P,J17,12*%
%TO.N,Net-(J10-Pad7)*%
X147640000Y-126650000D03*
%TO.P,J17,13*%
%TO.N,Net-(J10-Pad6)*%
X150180000Y-126650000D03*
%TO.P,J17,14*%
%TO.N,Net-(J10-Pad5)*%
X152720000Y-126650000D03*
%TD*%
D18*
%TO.P,M1,1*%
%TO.N,Net-(M1-Pad1)*%
X150180000Y-74420000D03*
D19*
%TO.P,M1,2*%
%TO.N,5v*%
X152720000Y-74420000D03*
%TO.P,M1,3*%
%TO.N,GND*%
X155260000Y-74420000D03*
%TD*%
D20*
%TO.N,Net-(J10-Pad13)*%
X144800000Y-118900000D03*
X161100000Y-118900000D03*
%TO.N,Net-(J17-Pad6)*%
X155000000Y-118120000D03*
X145240000Y-108360000D03*
%TO.N,Net-(J17-Pad3)*%
X120940000Y-122770000D03*
X120810000Y-117290000D03*
%TD*%
D21*
%TO.N,Net-(J3-Pad8)*%
X132200000Y-105500000D02*
X132210000Y-105510000D01*
X132200000Y-101570000D02*
X132200000Y-105500000D01*
%TO.N,Net-(J3-Pad7)*%
X129660000Y-105500000D02*
X129670000Y-105510000D01*
X129660000Y-101570000D02*
X129660000Y-105500000D01*
%TO.N,Net-(J3-Pad5)*%
X124580000Y-101570000D02*
X127120000Y-101570000D01*
%TO.N,Net-(J3-Pad4)*%
X121620000Y-101150000D02*
X122040000Y-101570000D01*
X121620000Y-98010000D02*
X121620000Y-101150000D01*
%TO.N,Net-(J3-Pad3)*%
X118020000Y-100090000D02*
X119500000Y-101570000D01*
X118020000Y-98010000D02*
X118020000Y-100090000D01*
%TO.N,Net-(J3-Pad2)*%
X116960000Y-100550000D02*
X116960000Y-101570000D01*
X114420000Y-98010000D02*
X116960000Y-100550000D01*
%TO.N,Net-(J13-Pad1)*%
X115572401Y-102722401D02*
X122897599Y-102722401D01*
X114420000Y-101570000D02*
X115572401Y-102722401D01*
X123427599Y-101016847D02*
X124184446Y-100260000D01*
X123427599Y-102192401D02*
X123427599Y-101016847D01*
X122897599Y-102722401D02*
X123427599Y-102192401D01*
X132595554Y-100260000D02*
X134750000Y-102414446D01*
X124184446Y-100260000D02*
X132595554Y-100260000D01*
X136830000Y-101580000D02*
X134750000Y-103660000D01*
X139800000Y-101580000D02*
X136830000Y-101580000D01*
X134750000Y-103660000D02*
X134750000Y-105510000D01*
X134750000Y-102414446D02*
X134750000Y-103660000D01*
%TO.N,Net-(J13-Pad7)*%
X142155189Y-103184811D02*
X153435189Y-103184811D01*
X153435189Y-103184811D02*
X155040000Y-101580000D01*
X139830000Y-105510000D02*
X142155189Y-103184811D01*
D22*
%TO.N,Net-(J13-Pad8)*%
X157580000Y-102139002D02*
X157580000Y-101580000D01*
D21*
X155522780Y-103637220D02*
X157580000Y-101580000D01*
X144242780Y-103637220D02*
X155522780Y-103637220D01*
X142370000Y-105510000D02*
X144242780Y-103637220D01*
%TO.N,Net-(J8-Pad9)*%
X148572401Y-102133153D02*
X147973153Y-102732401D01*
X148572401Y-101297599D02*
X148572401Y-102133153D01*
X161291820Y-88578180D02*
X148572401Y-101297599D01*
X164318780Y-88578180D02*
X161291820Y-88578180D01*
X140067599Y-102732401D02*
X137290000Y-105510000D01*
X147973153Y-102732401D02*
X140067599Y-102732401D01*
%TO.N,Net-(J10-Pad15)*%
X116920000Y-123870000D02*
X119700000Y-126650000D01*
X116920000Y-120730000D02*
X116920000Y-123870000D01*
%TO.N,Net-(J10-Pad14)*%
X119460000Y-120730000D02*
X130517401Y-109672599D01*
X130517401Y-109672599D02*
X164803153Y-109672599D01*
X164803153Y-109672599D02*
X165402401Y-110271847D01*
X165402401Y-110271847D02*
X165402401Y-114752599D01*
X165402401Y-114752599D02*
X164569902Y-115585098D01*
%TO.N,Net-(J10-Pad13)*%
X122000000Y-120730000D02*
X123830000Y-118900000D01*
X123830000Y-118900000D02*
X144800000Y-118900000D01*
X161100000Y-118900000D02*
X162000000Y-119800000D01*
X163534804Y-119800000D02*
X164569902Y-118764902D01*
X162000000Y-119800000D02*
X163534804Y-119800000D01*
%TO.N,Net-(J10-Pad12)*%
X128859271Y-125049271D02*
X133339271Y-125049271D01*
X133339271Y-125049271D02*
X134940000Y-126650000D01*
X124540000Y-120730000D02*
X128859271Y-125049271D01*
%TO.N,Net-(J10-Pad11)*%
X135426861Y-124596861D02*
X137480000Y-126650000D01*
X130946861Y-124596861D02*
X135426861Y-124596861D01*
X127080000Y-120730000D02*
X130946861Y-124596861D01*
%TO.N,Net-(J10-Pad10)*%
X137514451Y-124144451D02*
X140020000Y-126650000D01*
X133034451Y-124144451D02*
X137514451Y-124144451D01*
X129620000Y-120730000D02*
X133034451Y-124144451D01*
%TO.N,Net-(J10-Pad9)*%
X139602041Y-123692041D02*
X142560000Y-126650000D01*
X135122041Y-123692041D02*
X139602041Y-123692041D01*
X132160000Y-120730000D02*
X135122041Y-123692041D01*
%TO.N,Net-(J10-Pad8)*%
X137209631Y-123239631D02*
X141689631Y-123239631D01*
X141689631Y-123239631D02*
X145100000Y-126650000D01*
X134700000Y-120730000D02*
X137209631Y-123239631D01*
%TO.N,Net-(J10-Pad7)*%
X143777221Y-122787221D02*
X147640000Y-126650000D01*
X139297221Y-122787221D02*
X143777221Y-122787221D01*
X137240000Y-120730000D02*
X139297221Y-122787221D01*
%TO.N,Net-(J10-Pad6)*%
X145864811Y-122334811D02*
X150180000Y-126650000D01*
X141384811Y-122334811D02*
X145864811Y-122334811D01*
X139780000Y-120730000D02*
X141384811Y-122334811D01*
%TO.N,Net-(J10-Pad5)*%
X147952401Y-121882401D02*
X152720000Y-126650000D01*
X143472401Y-121882401D02*
X147952401Y-121882401D01*
X142320000Y-120730000D02*
X143472401Y-121882401D01*
%TO.N,Net-(J10-Pad3)*%
X157305000Y-110825000D02*
X164250000Y-110825000D01*
X147400000Y-120730000D02*
X157305000Y-110825000D01*
%TO.N,Net-(J10-Pad1)*%
X154585301Y-117474699D02*
X157994699Y-117474699D01*
X152480000Y-119580000D02*
X154585301Y-117474699D01*
X152480000Y-120730000D02*
X152480000Y-119580000D01*
X157994699Y-117474699D02*
X163270000Y-122750000D01*
X163270000Y-122750000D02*
X164550000Y-122750000D01*
X165854811Y-99729811D02*
X164250000Y-98125000D01*
X165854811Y-121445189D02*
X165854811Y-99729811D01*
X164550000Y-122750000D02*
X165854811Y-121445189D01*
%TO.N,Net-(J11-Pad3)*%
X119592401Y-86422401D02*
X122040000Y-88870000D01*
X118122401Y-86422401D02*
X119592401Y-86422401D01*
X116970000Y-85270000D02*
X118122401Y-86422401D01*
%TO.N,Net-(J11-Pad2)*%
X123427599Y-87717599D02*
X124580000Y-88870000D01*
X121957599Y-87717599D02*
X123427599Y-87717599D01*
X119510000Y-85270000D02*
X121957599Y-87717599D01*
%TO.N,Net-(J11-Pad1)*%
X123520000Y-85270000D02*
X127120000Y-88870000D01*
X122050000Y-85270000D02*
X123520000Y-85270000D01*
%TO.N,Net-(J11-Pad4)*%
X117052401Y-86422401D02*
X119500000Y-88870000D01*
X115582401Y-86422401D02*
X117052401Y-86422401D01*
X114430000Y-85270000D02*
X115582401Y-86422401D01*
%TO.N,Net-(J13-Pad5)*%
X149960000Y-101580000D02*
X152500000Y-101580000D01*
%TO.N,Net-(J13-Pad4)*%
X147000000Y-101160000D02*
X147420000Y-101580000D01*
X147000000Y-98020000D02*
X147000000Y-101160000D01*
%TO.N,Net-(J13-Pad3)*%
X143400000Y-100100000D02*
X144880000Y-101580000D01*
X143400000Y-98020000D02*
X143400000Y-100100000D01*
%TO.N,Net-(J13-Pad2)*%
X142340000Y-100560000D02*
X142340000Y-101580000D01*
X139800000Y-98020000D02*
X142340000Y-100560000D01*
D23*
%TO.N,12v*%
X139740000Y-88820000D02*
X139800000Y-88880000D01*
X113910000Y-88360000D02*
X114420000Y-88870000D01*
D24*
X130930000Y-82730000D02*
X130437590Y-83222410D01*
X130775000Y-82575000D02*
X130930000Y-82730000D01*
%TO.N,Net-(C3-Pad2)*%
X143315000Y-73890000D02*
X143675000Y-74250000D01*
D21*
%TO.N,5v*%
X152720000Y-74420000D02*
X152720000Y-74460000D01*
X152720000Y-74420000D02*
X152720000Y-74530000D01*
%TO.N,Net-(J12-Pad3)*%
X148940000Y-85320000D02*
X152500000Y-88880000D01*
X147390000Y-85320000D02*
X148940000Y-85320000D01*
%TO.N,Net-(J12-Pad4)*%
X147552401Y-86472401D02*
X149960000Y-88880000D01*
X146002401Y-86472401D02*
X147552401Y-86472401D01*
X144850000Y-85320000D02*
X146002401Y-86472401D01*
%TO.N,Net-(J12-Pad5)*%
X145012401Y-86472401D02*
X147420000Y-88880000D01*
X143462401Y-86472401D02*
X145012401Y-86472401D01*
X142310000Y-85320000D02*
X143462401Y-86472401D01*
%TO.N,Net-(J12-Pad6)*%
X142472401Y-86472401D02*
X144880000Y-88880000D01*
X140922401Y-86472401D02*
X142472401Y-86472401D01*
X139770000Y-85320000D02*
X140922401Y-86472401D01*
%TO.N,Net-(J18-Pad3)*%
X152530000Y-105510000D02*
X159120000Y-105510000D01*
X161425000Y-103205000D02*
X164250000Y-103205000D01*
X159120000Y-105510000D02*
X161425000Y-103205000D01*
%TO.N,Net-(J18-Pad4)*%
X163332599Y-106662401D02*
X164250000Y-105745000D01*
X148602401Y-106662401D02*
X163332599Y-106662401D01*
X147450000Y-105510000D02*
X148602401Y-106662401D01*
%TO.N,Net-(J17-Pad6)*%
X153273153Y-127802401D02*
X155000000Y-126075554D01*
X155000000Y-126075554D02*
X155000000Y-118120000D01*
X133552401Y-127802401D02*
X153273153Y-127802401D01*
X132400000Y-126650000D02*
X133552401Y-127802401D01*
X129980000Y-108360000D02*
X127130000Y-105510000D01*
X145240000Y-108360000D02*
X129980000Y-108360000D01*
%TO.N,Net-(J17-Pad5)*%
X122985189Y-103905189D02*
X124590000Y-105510000D01*
X116229453Y-103905189D02*
X122985189Y-103905189D01*
X115315190Y-104819452D02*
X116229453Y-103905189D01*
X115315189Y-125149315D02*
X115315190Y-104819452D01*
X118420684Y-128254810D02*
X115315189Y-125149315D01*
X128255190Y-128254810D02*
X118420684Y-128254810D01*
X129860000Y-126650000D02*
X128255190Y-128254810D01*
%TO.N,Net-(J17-Pad4)*%
X120897599Y-104357599D02*
X122050000Y-105510000D01*
X116416847Y-104357599D02*
X120897599Y-104357599D01*
X115767599Y-105006847D02*
X116416847Y-104357599D01*
X115767599Y-124961921D02*
X115767599Y-105006847D01*
X118608079Y-127802401D02*
X115767599Y-124961921D01*
X126167599Y-127802401D02*
X118608079Y-127802401D01*
X127320000Y-126650000D02*
X126167599Y-127802401D01*
%TO.N,Net-(J17-Pad3)*%
X120940000Y-122810000D02*
X120940000Y-122770000D01*
X124780000Y-126650000D02*
X120940000Y-122810000D01*
X120810000Y-106810000D02*
X119510000Y-105510000D01*
X120810000Y-117290000D02*
X120810000Y-106810000D01*
%TO.N,Net-(J17-Pad2)*%
X118072401Y-106612401D02*
X116970000Y-105510000D01*
X118072401Y-122482401D02*
X118072401Y-106612401D01*
X122240000Y-126650000D02*
X118072401Y-122482401D01*
%TO.N,Net-(J10-Pad2)*%
X150235678Y-120730000D02*
X149940000Y-120730000D01*
X157305000Y-113365000D02*
X164250000Y-113365000D01*
X149940000Y-120730000D02*
X157305000Y-113365000D01*
%TO.N,Net-(J18-Pad2)*%
X151142401Y-104357599D02*
X158062401Y-104357599D01*
X149990000Y-105510000D02*
X151142401Y-104357599D01*
X161755000Y-100665000D02*
X164250000Y-100665000D01*
X158062401Y-104357599D02*
X161755000Y-100665000D01*
%TO.N,Net-(J18-Pad5)*%
X147685000Y-108285000D02*
X164250000Y-108285000D01*
X144910000Y-105510000D02*
X147685000Y-108285000D01*
%TD*%
D25*
%TO.N,GND*%
G36*
X165159659Y-71688625D02*
G01*
X165409429Y-71764035D01*
X165639792Y-71886522D01*
X165841980Y-72051422D01*
X166008286Y-72252450D01*
X166132378Y-72481954D01*
X166209531Y-72731195D01*
X166240000Y-73021088D01*
X166240000Y-99004843D01*
X165738072Y-98502914D01*
X165738072Y-97275000D01*
X165725812Y-97150518D01*
X165689502Y-97030820D01*
X165630537Y-96920506D01*
X165551185Y-96823815D01*
X165454494Y-96744463D01*
X165344180Y-96685498D01*
X165224482Y-96649188D01*
X165100000Y-96636928D01*
X163400000Y-96636928D01*
X163275518Y-96649188D01*
X163155820Y-96685498D01*
X163045506Y-96744463D01*
X162948815Y-96823815D01*
X162869463Y-96920506D01*
X162810498Y-97030820D01*
X162774188Y-97150518D01*
X162761928Y-97275000D01*
X162761928Y-98975000D01*
X162774188Y-99099482D01*
X162810498Y-99219180D01*
X162869463Y-99329494D01*
X162948815Y-99426185D01*
X163045506Y-99505537D01*
X163155820Y-99564502D01*
X163228380Y-99586513D01*
X163096525Y-99718368D01*
X162988526Y-99880000D01*
X161793556Y-99880000D01*
X161755000Y-99876203D01*
X161716444Y-99880000D01*
X161716439Y-99880000D01*
X161678904Y-99883697D01*
X161601113Y-99891358D01*
X161453575Y-99936114D01*
X161453140Y-99936246D01*
X161316767Y-100009138D01*
X161197236Y-100107236D01*
X161172653Y-100137190D01*
X157737244Y-103572599D01*
X156697558Y-103572599D01*
X157243082Y-103027075D01*
X157433740Y-103065000D01*
X157726260Y-103065000D01*
X158013158Y-103007932D01*
X158283411Y-102895990D01*
X158526632Y-102733475D01*
X158733475Y-102526632D01*
X158895990Y-102283411D01*
X159007932Y-102013158D01*
X159065000Y-101726260D01*
X159065000Y-101433740D01*
X159007932Y-101146842D01*
X158895990Y-100876589D01*
X158733475Y-100633368D01*
X158526632Y-100426525D01*
X158283411Y-100264010D01*
X158013158Y-100152068D01*
X157726260Y-100095000D01*
X157433740Y-100095000D01*
X157146842Y-100152068D01*
X156876589Y-100264010D01*
X156633368Y-100426525D01*
X156426525Y-100633368D01*
X156310000Y-100807760D01*
X156193475Y-100633368D01*
X155986632Y-100426525D01*
X155743411Y-100264010D01*
X155473158Y-100152068D01*
X155186260Y-100095000D01*
X154893740Y-100095000D01*
X154606842Y-100152068D01*
X154336589Y-100264010D01*
X154093368Y-100426525D01*
X153886525Y-100633368D01*
X153770000Y-100807760D01*
X153653475Y-100633368D01*
X153446632Y-100426525D01*
X153203411Y-100264010D01*
X152933158Y-100152068D01*
X152646260Y-100095000D01*
X152353740Y-100095000D01*
X152066842Y-100152068D01*
X151796589Y-100264010D01*
X151553368Y-100426525D01*
X151346525Y-100633368D01*
X151238526Y-100795000D01*
X151221474Y-100795000D01*
X151113475Y-100633368D01*
X150906632Y-100426525D01*
X150695024Y-100285133D01*
X156965087Y-94015070D01*
X162877304Y-94015070D01*
X162921955Y-94162279D01*
X163047139Y-94425100D01*
X163221192Y-94658449D01*
X163437425Y-94853358D01*
X163687528Y-95002337D01*
X163961889Y-95099661D01*
X164191780Y-94978994D01*
X164191780Y-93785180D01*
X164445780Y-93785180D01*
X164445780Y-94978994D01*
X164675671Y-95099661D01*
X164950032Y-95002337D01*
X165200135Y-94853358D01*
X165416368Y-94658449D01*
X165590421Y-94425100D01*
X165715605Y-94162279D01*
X165760256Y-94015070D01*
X165638935Y-93785180D01*
X164445780Y-93785180D01*
X164191780Y-93785180D01*
X162998625Y-93785180D01*
X162877304Y-94015070D01*
X156965087Y-94015070D01*
X161616977Y-89363180D01*
X162830708Y-89363180D01*
X162830708Y-89428180D01*
X162842968Y-89552662D01*
X162879278Y-89672360D01*
X162938243Y-89782674D01*
X163017595Y-89879365D01*
X163114286Y-89958717D01*
X163224600Y-90017682D01*
X163297160Y-90039693D01*
X163165305Y-90171548D01*
X163002790Y-90414769D01*
X162890848Y-90685022D01*
X162833780Y-90971920D01*
X162833780Y-91264440D01*
X162890848Y-91551338D01*
X163002790Y-91821591D01*
X163165305Y-92064812D01*
X163372148Y-92271655D01*
X163554314Y-92393375D01*
X163437425Y-92463002D01*
X163221192Y-92657911D01*
X163047139Y-92891260D01*
X162921955Y-93154081D01*
X162877304Y-93301290D01*
X162998625Y-93531180D01*
X164191780Y-93531180D01*
X164191780Y-93511180D01*
X164445780Y-93511180D01*
X164445780Y-93531180D01*
X165638935Y-93531180D01*
X165760256Y-93301290D01*
X165715605Y-93154081D01*
X165590421Y-92891260D01*
X165416368Y-92657911D01*
X165200135Y-92463002D01*
X165083246Y-92393375D01*
X165265412Y-92271655D01*
X165472255Y-92064812D01*
X165634770Y-91821591D01*
X165746712Y-91551338D01*
X165803780Y-91264440D01*
X165803780Y-90971920D01*
X165746712Y-90685022D01*
X165634770Y-90414769D01*
X165472255Y-90171548D01*
X165340400Y-90039693D01*
X165412960Y-90017682D01*
X165523274Y-89958717D01*
X165619965Y-89879365D01*
X165699317Y-89782674D01*
X165758282Y-89672360D01*
X165794592Y-89552662D01*
X165806852Y-89428180D01*
X165806852Y-87728180D01*
X165794592Y-87603698D01*
X165758282Y-87484000D01*
X165699317Y-87373686D01*
X165619965Y-87276995D01*
X165523274Y-87197643D01*
X165412960Y-87138678D01*
X165293262Y-87102368D01*
X165168780Y-87090108D01*
X163468780Y-87090108D01*
X163344298Y-87102368D01*
X163224600Y-87138678D01*
X163114286Y-87197643D01*
X163017595Y-87276995D01*
X162938243Y-87373686D01*
X162879278Y-87484000D01*
X162842968Y-87603698D01*
X162830708Y-87728180D01*
X162830708Y-87793180D01*
X161330376Y-87793180D01*
X161291820Y-87789383D01*
X161253264Y-87793180D01*
X161253259Y-87793180D01*
X161212846Y-87797160D01*
X161137933Y-87804538D01*
X160989960Y-87849426D01*
X160853587Y-87922318D01*
X160734056Y-88020416D01*
X160709473Y-88050370D01*
X159067865Y-89691978D01*
X159065000Y-89165750D01*
X158906250Y-89007000D01*
X157707000Y-89007000D01*
X157707000Y-90206250D01*
X157865750Y-90365000D01*
X158391978Y-90367865D01*
X148346662Y-100413181D01*
X148123411Y-100264010D01*
X147853158Y-100152068D01*
X147785000Y-100138510D01*
X147785000Y-99281474D01*
X147946632Y-99173475D01*
X148153475Y-98966632D01*
X148315990Y-98723411D01*
X148427932Y-98453158D01*
X148485000Y-98166260D01*
X148485000Y-97873740D01*
X148427932Y-97586842D01*
X148315990Y-97316589D01*
X148153475Y-97073368D01*
X148021620Y-96941513D01*
X148094180Y-96919502D01*
X148204494Y-96860537D01*
X148301185Y-96781185D01*
X148380537Y-96684494D01*
X148439502Y-96574180D01*
X148475812Y-96454482D01*
X148488072Y-96330000D01*
X148485000Y-95765750D01*
X148326250Y-95607000D01*
X147127000Y-95607000D01*
X147127000Y-95627000D01*
X146873000Y-95627000D01*
X146873000Y-95607000D01*
X145673750Y-95607000D01*
X145515000Y-95765750D01*
X145511928Y-96330000D01*
X145524188Y-96454482D01*
X145560498Y-96574180D01*
X145619463Y-96684494D01*
X145698815Y-96781185D01*
X145795506Y-96860537D01*
X145905820Y-96919502D01*
X145978380Y-96941513D01*
X145846525Y-97073368D01*
X145684010Y-97316589D01*
X145572068Y-97586842D01*
X145515000Y-97873740D01*
X145515000Y-98166260D01*
X145572068Y-98453158D01*
X145684010Y-98723411D01*
X145846525Y-98966632D01*
X146053368Y-99173475D01*
X146215000Y-99281474D01*
X146215001Y-100710479D01*
X146150000Y-100807760D01*
X146033475Y-100633368D01*
X145826632Y-100426525D01*
X145583411Y-100264010D01*
X145313158Y-100152068D01*
X145026260Y-100095000D01*
X144733740Y-100095000D01*
X144543082Y-100132925D01*
X144185000Y-99774843D01*
X144185000Y-99281474D01*
X144346632Y-99173475D01*
X144553475Y-98966632D01*
X144715990Y-98723411D01*
X144827932Y-98453158D01*
X144885000Y-98166260D01*
X144885000Y-97873740D01*
X144827932Y-97586842D01*
X144715990Y-97316589D01*
X144553475Y-97073368D01*
X144421620Y-96941513D01*
X144494180Y-96919502D01*
X144604494Y-96860537D01*
X144701185Y-96781185D01*
X144780537Y-96684494D01*
X144839502Y-96574180D01*
X144875812Y-96454482D01*
X144888072Y-96330000D01*
X144885000Y-95765750D01*
X144726250Y-95607000D01*
X143527000Y-95607000D01*
X143527000Y-95627000D01*
X143273000Y-95627000D01*
X143273000Y-95607000D01*
X142073750Y-95607000D01*
X141915000Y-95765750D01*
X141911928Y-96330000D01*
X141924188Y-96454482D01*
X141960498Y-96574180D01*
X142019463Y-96684494D01*
X142098815Y-96781185D01*
X142195506Y-96860537D01*
X142305820Y-96919502D01*
X142378380Y-96941513D01*
X142246525Y-97073368D01*
X142084010Y-97316589D01*
X141972068Y-97586842D01*
X141915000Y-97873740D01*
X141915000Y-98166260D01*
X141972068Y-98453158D01*
X142084010Y-98723411D01*
X142246525Y-98966632D01*
X142453368Y-99173475D01*
X142615001Y-99281474D01*
X142615001Y-99724843D01*
X141247075Y-98356918D01*
X141285000Y-98166260D01*
X141285000Y-97873740D01*
X141227932Y-97586842D01*
X141115990Y-97316589D01*
X140953475Y-97073368D01*
X140821620Y-96941513D01*
X140894180Y-96919502D01*
X141004494Y-96860537D01*
X141101185Y-96781185D01*
X141180537Y-96684494D01*
X141239502Y-96574180D01*
X141275812Y-96454482D01*
X141288072Y-96330000D01*
X141285000Y-95765750D01*
X141126250Y-95607000D01*
X139927000Y-95607000D01*
X139927000Y-95627000D01*
X139673000Y-95627000D01*
X139673000Y-95607000D01*
X138473750Y-95607000D01*
X138315000Y-95765750D01*
X138311928Y-96330000D01*
X138324188Y-96454482D01*
X138360498Y-96574180D01*
X138419463Y-96684494D01*
X138498815Y-96781185D01*
X138595506Y-96860537D01*
X138705820Y-96919502D01*
X138778380Y-96941513D01*
X138646525Y-97073368D01*
X138484010Y-97316589D01*
X138372068Y-97586842D01*
X138315000Y-97873740D01*
X138315000Y-98166260D01*
X138372068Y-98453158D01*
X138484010Y-98723411D01*
X138646525Y-98966632D01*
X138853368Y-99173475D01*
X139096589Y-99335990D01*
X139366842Y-99447932D01*
X139653740Y-99505000D01*
X139946260Y-99505000D01*
X140136918Y-99467075D01*
X141244868Y-100575025D01*
X141186525Y-100633368D01*
X141070000Y-100807760D01*
X140953475Y-100633368D01*
X140746632Y-100426525D01*
X140503411Y-100264010D01*
X140233158Y-100152068D01*
X139946260Y-100095000D01*
X139653740Y-100095000D01*
X139366842Y-100152068D01*
X139096589Y-100264010D01*
X138853368Y-100426525D01*
X138646525Y-100633368D01*
X138538526Y-100795000D01*
X136868552Y-100795000D01*
X136829999Y-100791203D01*
X136791446Y-100795000D01*
X136791439Y-100795000D01*
X136690490Y-100804943D01*
X136676112Y-100806359D01*
X136643266Y-100816323D01*
X136528140Y-100851246D01*
X136391767Y-100924138D01*
X136339711Y-100966860D01*
X136302187Y-100997655D01*
X136302184Y-100997658D01*
X136272236Y-101022236D01*
X136247658Y-101052184D01*
X135368795Y-101931047D01*
X135307764Y-101856682D01*
X135277811Y-101832100D01*
X133177901Y-99732190D01*
X133153318Y-99702236D01*
X133033787Y-99604138D01*
X132897414Y-99531246D01*
X132749441Y-99486359D01*
X132634115Y-99475000D01*
X132634107Y-99475000D01*
X132595554Y-99471203D01*
X132557001Y-99475000D01*
X124222998Y-99475000D01*
X124184445Y-99471203D01*
X124145892Y-99475000D01*
X124145885Y-99475000D01*
X124044936Y-99484943D01*
X124030558Y-99486359D01*
X124002073Y-99495000D01*
X123882586Y-99531246D01*
X123746213Y-99604138D01*
X123688177Y-99651768D01*
X123656633Y-99677655D01*
X123656630Y-99677658D01*
X123626682Y-99702236D01*
X123602103Y-99732185D01*
X122945349Y-100388940D01*
X122743411Y-100254010D01*
X122473158Y-100142068D01*
X122405000Y-100128510D01*
X122405000Y-99271474D01*
X122566632Y-99163475D01*
X122773475Y-98956632D01*
X122935990Y-98713411D01*
X123047932Y-98443158D01*
X123105000Y-98156260D01*
X123105000Y-97863740D01*
X123047932Y-97576842D01*
X122935990Y-97306589D01*
X122773475Y-97063368D01*
X122641620Y-96931513D01*
X122714180Y-96909502D01*
X122824494Y-96850537D01*
X122921185Y-96771185D01*
X123000537Y-96674494D01*
X123059502Y-96564180D01*
X123095812Y-96444482D01*
X123108072Y-96320000D01*
X123105000Y-95755750D01*
X122946250Y-95597000D01*
X121747000Y-95597000D01*
X121747000Y-95617000D01*
X121493000Y-95617000D01*
X121493000Y-95597000D01*
X120293750Y-95597000D01*
X120135000Y-95755750D01*
X120131928Y-96320000D01*
X120144188Y-96444482D01*
X120180498Y-96564180D01*
X120239463Y-96674494D01*
X120318815Y-96771185D01*
X120415506Y-96850537D01*
X120525820Y-96909502D01*
X120598380Y-96931513D01*
X120466525Y-97063368D01*
X120304010Y-97306589D01*
X120192068Y-97576842D01*
X120135000Y-97863740D01*
X120135000Y-98156260D01*
X120192068Y-98443158D01*
X120304010Y-98713411D01*
X120466525Y-98956632D01*
X120673368Y-99163475D01*
X120835000Y-99271474D01*
X120835001Y-100700479D01*
X120770000Y-100797760D01*
X120653475Y-100623368D01*
X120446632Y-100416525D01*
X120203411Y-100254010D01*
X119933158Y-100142068D01*
X119646260Y-100085000D01*
X119353740Y-100085000D01*
X119163082Y-100122925D01*
X118805000Y-99764843D01*
X118805000Y-99271474D01*
X118966632Y-99163475D01*
X119173475Y-98956632D01*
X119335990Y-98713411D01*
X119447932Y-98443158D01*
X119505000Y-98156260D01*
X119505000Y-97863740D01*
X119447932Y-97576842D01*
X119335990Y-97306589D01*
X119173475Y-97063368D01*
X119041620Y-96931513D01*
X119114180Y-96909502D01*
X119224494Y-96850537D01*
X119321185Y-96771185D01*
X119400537Y-96674494D01*
X119459502Y-96564180D01*
X119495812Y-96444482D01*
X119508072Y-96320000D01*
X119505000Y-95755750D01*
X119346250Y-95597000D01*
X118147000Y-95597000D01*
X118147000Y-95617000D01*
X117893000Y-95617000D01*
X117893000Y-95597000D01*
X116693750Y-95597000D01*
X116535000Y-95755750D01*
X116531928Y-96320000D01*
X116544188Y-96444482D01*
X116580498Y-96564180D01*
X116639463Y-96674494D01*
X116718815Y-96771185D01*
X116815506Y-96850537D01*
X116925820Y-96909502D01*
X116998380Y-96931513D01*
X116866525Y-97063368D01*
X116704010Y-97306589D01*
X116592068Y-97576842D01*
X116535000Y-97863740D01*
X116535000Y-98156260D01*
X116592068Y-98443158D01*
X116704010Y-98713411D01*
X116866525Y-98956632D01*
X117073368Y-99163475D01*
X117235001Y-99271474D01*
X117235001Y-99714843D01*
X115867075Y-98346918D01*
X115905000Y-98156260D01*
X115905000Y-97863740D01*
X115847932Y-97576842D01*
X115735990Y-97306589D01*
X115573475Y-97063368D01*
X115441620Y-96931513D01*
X115514180Y-96909502D01*
X115624494Y-96850537D01*
X115721185Y-96771185D01*
X115800537Y-96674494D01*
X115859502Y-96564180D01*
X115895812Y-96444482D01*
X115908072Y-96320000D01*
X115905000Y-95755750D01*
X115746250Y-95597000D01*
X114547000Y-95597000D01*
X114547000Y-95617000D01*
X114293000Y-95617000D01*
X114293000Y-95597000D01*
X113093750Y-95597000D01*
X112935000Y-95755750D01*
X112931928Y-96320000D01*
X112944188Y-96444482D01*
X112980498Y-96564180D01*
X113039463Y-96674494D01*
X113118815Y-96771185D01*
X113215506Y-96850537D01*
X113325820Y-96909502D01*
X113398380Y-96931513D01*
X113266525Y-97063368D01*
X113104010Y-97306589D01*
X112992068Y-97576842D01*
X112935000Y-97863740D01*
X112935000Y-98156260D01*
X112992068Y-98443158D01*
X113104010Y-98713411D01*
X113266525Y-98956632D01*
X113473368Y-99163475D01*
X113716589Y-99325990D01*
X113986842Y-99437932D01*
X114273740Y-99495000D01*
X114566260Y-99495000D01*
X114756918Y-99457075D01*
X115864868Y-100565025D01*
X115806525Y-100623368D01*
X115690000Y-100797760D01*
X115573475Y-100623368D01*
X115366632Y-100416525D01*
X115123411Y-100254010D01*
X114853158Y-100142068D01*
X114566260Y-100085000D01*
X114273740Y-100085000D01*
X113986842Y-100142068D01*
X113716589Y-100254010D01*
X113473368Y-100416525D01*
X113266525Y-100623368D01*
X113104010Y-100866589D01*
X112992068Y-101136842D01*
X112935000Y-101423740D01*
X112935000Y-101716260D01*
X112992068Y-102003158D01*
X113104010Y-102273411D01*
X113266525Y-102516632D01*
X113473368Y-102723475D01*
X113716589Y-102885990D01*
X113986842Y-102997932D01*
X114273740Y-103055000D01*
X114566260Y-103055000D01*
X114756918Y-103017076D01*
X114990059Y-103250216D01*
X115014637Y-103280165D01*
X115044585Y-103304743D01*
X115044588Y-103304746D01*
X115056773Y-103314746D01*
X115134168Y-103378263D01*
X115270541Y-103451155D01*
X115418513Y-103496042D01*
X115432891Y-103497458D01*
X115518586Y-103505899D01*
X114787375Y-104237110D01*
X114757427Y-104261688D01*
X114732849Y-104291636D01*
X114732845Y-104291640D01*
X114712967Y-104315862D01*
X114659329Y-104381219D01*
X114631651Y-104433001D01*
X114586436Y-104517593D01*
X114541549Y-104665566D01*
X114526393Y-104819452D01*
X114530191Y-104858015D01*
X114530189Y-124735000D01*
X114279117Y-124735000D01*
X113943919Y-124801675D01*
X113628169Y-124932463D01*
X113344002Y-125122337D01*
X113102337Y-125364002D01*
X112912463Y-125648169D01*
X112781675Y-125963919D01*
X112715000Y-126299117D01*
X112715000Y-126640883D01*
X112781675Y-126976081D01*
X112912463Y-127291831D01*
X113102337Y-127575998D01*
X113344002Y-127817663D01*
X113628169Y-128007537D01*
X113943919Y-128138325D01*
X114279117Y-128205000D01*
X114620883Y-128205000D01*
X114956081Y-128138325D01*
X115271831Y-128007537D01*
X115555998Y-127817663D01*
X115797663Y-127575998D01*
X115987537Y-127291831D01*
X116092982Y-127037265D01*
X117325716Y-128270000D01*
X114032279Y-128270000D01*
X113740340Y-128241375D01*
X113490571Y-128165965D01*
X113260206Y-128043477D01*
X113058021Y-127878579D01*
X112891712Y-127677546D01*
X112767622Y-127448046D01*
X112690469Y-127198805D01*
X112660000Y-126908911D01*
X112660000Y-94620000D01*
X112931928Y-94620000D01*
X112935000Y-95184250D01*
X113093750Y-95343000D01*
X114293000Y-95343000D01*
X114293000Y-94143750D01*
X114547000Y-94143750D01*
X114547000Y-95343000D01*
X115746250Y-95343000D01*
X115905000Y-95184250D01*
X115908072Y-94620000D01*
X116531928Y-94620000D01*
X116535000Y-95184250D01*
X116693750Y-95343000D01*
X117893000Y-95343000D01*
X117893000Y-94143750D01*
X118147000Y-94143750D01*
X118147000Y-95343000D01*
X119346250Y-95343000D01*
X119505000Y-95184250D01*
X119508072Y-94620000D01*
X120131928Y-94620000D01*
X120135000Y-95184250D01*
X120293750Y-95343000D01*
X121493000Y-95343000D01*
X121493000Y-94143750D01*
X121747000Y-94143750D01*
X121747000Y-95343000D01*
X122946250Y-95343000D01*
X123105000Y-95184250D01*
X123108017Y-94630000D01*
X138311928Y-94630000D01*
X138315000Y-95194250D01*
X138473750Y-95353000D01*
X139673000Y-95353000D01*
X139673000Y-94153750D01*
X139927000Y-94153750D01*
X139927000Y-95353000D01*
X141126250Y-95353000D01*
X141285000Y-95194250D01*
X141288072Y-94630000D01*
X141911928Y-94630000D01*
X141915000Y-95194250D01*
X142073750Y-95353000D01*
X143273000Y-95353000D01*
X143273000Y-94153750D01*
X143527000Y-94153750D01*
X143527000Y-95353000D01*
X144726250Y-95353000D01*
X144885000Y-95194250D01*
X144888072Y-94630000D01*
X145511928Y-94630000D01*
X145515000Y-95194250D01*
X145673750Y-95353000D01*
X146873000Y-95353000D01*
X146873000Y-94153750D01*
X147127000Y-94153750D01*
X147127000Y-95353000D01*
X148326250Y-95353000D01*
X148485000Y-95194250D01*
X148488072Y-94630000D01*
X148475812Y-94505518D01*
X148439502Y-94385820D01*
X148380537Y-94275506D01*
X148301185Y-94178815D01*
X148204494Y-94099463D01*
X148094180Y-94040498D01*
X147974482Y-94004188D01*
X147850000Y-93991928D01*
X147285750Y-93995000D01*
X147127000Y-94153750D01*
X146873000Y-94153750D01*
X146714250Y-93995000D01*
X146150000Y-93991928D01*
X146025518Y-94004188D01*
X145905820Y-94040498D01*
X145795506Y-94099463D01*
X145698815Y-94178815D01*
X145619463Y-94275506D01*
X145560498Y-94385820D01*
X145524188Y-94505518D01*
X145511928Y-94630000D01*
X144888072Y-94630000D01*
X144875812Y-94505518D01*
X144839502Y-94385820D01*
X144780537Y-94275506D01*
X144701185Y-94178815D01*
X144604494Y-94099463D01*
X144494180Y-94040498D01*
X144374482Y-94004188D01*
X144250000Y-93991928D01*
X143685750Y-93995000D01*
X143527000Y-94153750D01*
X143273000Y-94153750D01*
X143114250Y-93995000D01*
X142550000Y-93991928D01*
X142425518Y-94004188D01*
X142305820Y-94040498D01*
X142195506Y-94099463D01*
X142098815Y-94178815D01*
X142019463Y-94275506D01*
X141960498Y-94385820D01*
X141924188Y-94505518D01*
X141911928Y-94630000D01*
X141288072Y-94630000D01*
X141275812Y-94505518D01*
X141239502Y-94385820D01*
X141180537Y-94275506D01*
X141101185Y-94178815D01*
X141004494Y-94099463D01*
X140894180Y-94040498D01*
X140774482Y-94004188D01*
X140650000Y-93991928D01*
X140085750Y-93995000D01*
X139927000Y-94153750D01*
X139673000Y-94153750D01*
X139514250Y-93995000D01*
X138950000Y-93991928D01*
X138825518Y-94004188D01*
X138705820Y-94040498D01*
X138595506Y-94099463D01*
X138498815Y-94178815D01*
X138419463Y-94275506D01*
X138360498Y-94385820D01*
X138324188Y-94505518D01*
X138311928Y-94630000D01*
X123108017Y-94630000D01*
X123108072Y-94620000D01*
X123095812Y-94495518D01*
X123059502Y-94375820D01*
X123000537Y-94265506D01*
X122921185Y-94168815D01*
X122824494Y-94089463D01*
X122714180Y-94030498D01*
X122594482Y-93994188D01*
X122470000Y-93981928D01*
X121905750Y-93985000D01*
X121747000Y-94143750D01*
X121493000Y-94143750D01*
X121334250Y-93985000D01*
X120770000Y-93981928D01*
X120645518Y-93994188D01*
X120525820Y-94030498D01*
X120415506Y-94089463D01*
X120318815Y-94168815D01*
X120239463Y-94265506D01*
X120180498Y-94375820D01*
X120144188Y-94495518D01*
X120131928Y-94620000D01*
X119508072Y-94620000D01*
X119495812Y-94495518D01*
X119459502Y-94375820D01*
X119400537Y-94265506D01*
X119321185Y-94168815D01*
X119224494Y-94089463D01*
X119114180Y-94030498D01*
X118994482Y-93994188D01*
X118870000Y-93981928D01*
X118305750Y-93985000D01*
X118147000Y-94143750D01*
X117893000Y-94143750D01*
X117734250Y-93985000D01*
X117170000Y-93981928D01*
X117045518Y-93994188D01*
X116925820Y-94030498D01*
X116815506Y-94089463D01*
X116718815Y-94168815D01*
X116639463Y-94265506D01*
X116580498Y-94375820D01*
X116544188Y-94495518D01*
X116531928Y-94620000D01*
X115908072Y-94620000D01*
X115895812Y-94495518D01*
X115859502Y-94375820D01*
X115800537Y-94265506D01*
X115721185Y-94168815D01*
X115624494Y-94089463D01*
X115514180Y-94030498D01*
X115394482Y-93994188D01*
X115270000Y-93981928D01*
X114705750Y-93985000D01*
X114547000Y-94143750D01*
X114293000Y-94143750D01*
X114134250Y-93985000D01*
X113570000Y-93981928D01*
X113445518Y-93994188D01*
X113325820Y-94030498D01*
X113215506Y-94089463D01*
X113118815Y-94168815D01*
X113039463Y-94265506D01*
X112980498Y-94375820D01*
X112944188Y-94495518D01*
X112931928Y-94620000D01*
X112660000Y-94620000D01*
X112660000Y-88723740D01*
X112935000Y-88723740D01*
X112935000Y-89016260D01*
X112992068Y-89303158D01*
X113104010Y-89573411D01*
X113266525Y-89816632D01*
X113473368Y-90023475D01*
X113716589Y-90185990D01*
X113986842Y-90297932D01*
X114273740Y-90355000D01*
X114566260Y-90355000D01*
X114853158Y-90297932D01*
X115123411Y-90185990D01*
X115366632Y-90023475D01*
X115573475Y-89816632D01*
X115695195Y-89634466D01*
X115764822Y-89751355D01*
X115959731Y-89967588D01*
X116193080Y-90141641D01*
X116455901Y-90266825D01*
X116603110Y-90311476D01*
X116833000Y-90190155D01*
X116833000Y-88997000D01*
X116813000Y-88997000D01*
X116813000Y-88743000D01*
X116833000Y-88743000D01*
X116833000Y-88723000D01*
X117087000Y-88723000D01*
X117087000Y-88743000D01*
X117107000Y-88743000D01*
X117107000Y-88997000D01*
X117087000Y-88997000D01*
X117087000Y-90190155D01*
X117316890Y-90311476D01*
X117464099Y-90266825D01*
X117726920Y-90141641D01*
X117960269Y-89967588D01*
X118155178Y-89751355D01*
X118224805Y-89634466D01*
X118346525Y-89816632D01*
X118553368Y-90023475D01*
X118796589Y-90185990D01*
X119066842Y-90297932D01*
X119353740Y-90355000D01*
X119646260Y-90355000D01*
X119933158Y-90297932D01*
X120203411Y-90185990D01*
X120446632Y-90023475D01*
X120653475Y-89816632D01*
X120770000Y-89642240D01*
X120886525Y-89816632D01*
X121093368Y-90023475D01*
X121336589Y-90185990D01*
X121606842Y-90297932D01*
X121893740Y-90355000D01*
X122186260Y-90355000D01*
X122473158Y-90297932D01*
X122743411Y-90185990D01*
X122986632Y-90023475D01*
X123193475Y-89816632D01*
X123310000Y-89642240D01*
X123426525Y-89816632D01*
X123633368Y-90023475D01*
X123876589Y-90185990D01*
X124146842Y-90297932D01*
X124433740Y-90355000D01*
X124726260Y-90355000D01*
X125013158Y-90297932D01*
X125283411Y-90185990D01*
X125526632Y-90023475D01*
X125733475Y-89816632D01*
X125850000Y-89642240D01*
X125966525Y-89816632D01*
X126173368Y-90023475D01*
X126416589Y-90185990D01*
X126686842Y-90297932D01*
X126973740Y-90355000D01*
X127266260Y-90355000D01*
X127553158Y-90297932D01*
X127823411Y-90185990D01*
X128066632Y-90023475D01*
X128273475Y-89816632D01*
X128390000Y-89642240D01*
X128506525Y-89816632D01*
X128713368Y-90023475D01*
X128956589Y-90185990D01*
X129226842Y-90297932D01*
X129513740Y-90355000D01*
X129806260Y-90355000D01*
X130093158Y-90297932D01*
X130363411Y-90185990D01*
X130606632Y-90023475D01*
X130738487Y-89891620D01*
X130760498Y-89964180D01*
X130819463Y-90074494D01*
X130898815Y-90171185D01*
X130995506Y-90250537D01*
X131105820Y-90309502D01*
X131225518Y-90345812D01*
X131350000Y-90358072D01*
X131914250Y-90355000D01*
X132073000Y-90196250D01*
X132073000Y-88997000D01*
X132327000Y-88997000D01*
X132327000Y-90196250D01*
X132485750Y-90355000D01*
X133050000Y-90358072D01*
X133174482Y-90345812D01*
X133294180Y-90309502D01*
X133404494Y-90250537D01*
X133501185Y-90171185D01*
X133580537Y-90074494D01*
X133639502Y-89964180D01*
X133675812Y-89844482D01*
X133688072Y-89720000D01*
X133685000Y-89155750D01*
X133526250Y-88997000D01*
X132327000Y-88997000D01*
X132073000Y-88997000D01*
X132053000Y-88997000D01*
X132053000Y-88743000D01*
X132073000Y-88743000D01*
X132073000Y-87543750D01*
X132327000Y-87543750D01*
X132327000Y-88743000D01*
X133526250Y-88743000D01*
X133685000Y-88584250D01*
X133688072Y-88020000D01*
X133675812Y-87895518D01*
X133639502Y-87775820D01*
X133580537Y-87665506D01*
X133501185Y-87568815D01*
X133404494Y-87489463D01*
X133294180Y-87430498D01*
X133174482Y-87394188D01*
X133050000Y-87381928D01*
X132485750Y-87385000D01*
X132327000Y-87543750D01*
X132073000Y-87543750D01*
X131914250Y-87385000D01*
X131350000Y-87381928D01*
X131225518Y-87394188D01*
X131105820Y-87430498D01*
X130995506Y-87489463D01*
X130898815Y-87568815D01*
X130819463Y-87665506D01*
X130760498Y-87775820D01*
X130738487Y-87848380D01*
X130606632Y-87716525D01*
X130363411Y-87554010D01*
X130093158Y-87442068D01*
X129806260Y-87385000D01*
X129513740Y-87385000D01*
X129226842Y-87442068D01*
X128956589Y-87554010D01*
X128713368Y-87716525D01*
X128506525Y-87923368D01*
X128390000Y-88097760D01*
X128273475Y-87923368D01*
X128066632Y-87716525D01*
X127823411Y-87554010D01*
X127553158Y-87442068D01*
X127266260Y-87385000D01*
X126973740Y-87385000D01*
X126783082Y-87422925D01*
X125390157Y-86030000D01*
X129491928Y-86030000D01*
X129504188Y-86154482D01*
X129540498Y-86274180D01*
X129599463Y-86384494D01*
X129678815Y-86481185D01*
X129775506Y-86560537D01*
X129885820Y-86619502D01*
X130005518Y-86655812D01*
X130130000Y-86668072D01*
X130644250Y-86665000D01*
X130803000Y-86506250D01*
X130803000Y-85357000D01*
X131057000Y-85357000D01*
X131057000Y-86506250D01*
X131215750Y-86665000D01*
X131730000Y-86668072D01*
X131854482Y-86655812D01*
X131974180Y-86619502D01*
X132084494Y-86560537D01*
X132181185Y-86481185D01*
X132260537Y-86384494D01*
X132319502Y-86274180D01*
X132355812Y-86154482D01*
X132368072Y-86030000D01*
X132365000Y-85515750D01*
X132206250Y-85357000D01*
X131057000Y-85357000D01*
X130803000Y-85357000D01*
X129653750Y-85357000D01*
X129495000Y-85515750D01*
X129491928Y-86030000D01*
X125390157Y-86030000D01*
X124533897Y-85173740D01*
X138285000Y-85173740D01*
X138285000Y-85466260D01*
X138342068Y-85753158D01*
X138454010Y-86023411D01*
X138616525Y-86266632D01*
X138823368Y-86473475D01*
X139066589Y-86635990D01*
X139336842Y-86747932D01*
X139623740Y-86805000D01*
X139916260Y-86805000D01*
X140106918Y-86767076D01*
X140340059Y-87000216D01*
X140364637Y-87030165D01*
X140394585Y-87054743D01*
X140394588Y-87054746D01*
X140423244Y-87078263D01*
X140484168Y-87128263D01*
X140620541Y-87201155D01*
X140768513Y-87246042D01*
X140782891Y-87247458D01*
X140883840Y-87257401D01*
X140883847Y-87257401D01*
X140922400Y-87261198D01*
X140960953Y-87257401D01*
X142147244Y-87257401D01*
X142284843Y-87395000D01*
X142212998Y-87395000D01*
X142212998Y-87559844D01*
X141983110Y-87438524D01*
X141835901Y-87483175D01*
X141573080Y-87608359D01*
X141339731Y-87782412D01*
X141144822Y-87998645D01*
X141075195Y-88115534D01*
X140953475Y-87933368D01*
X140746632Y-87726525D01*
X140503411Y-87564010D01*
X140233158Y-87452068D01*
X139946260Y-87395000D01*
X139653740Y-87395000D01*
X139366842Y-87452068D01*
X139096589Y-87564010D01*
X138853368Y-87726525D01*
X138646525Y-87933368D01*
X138484010Y-88176589D01*
X138372068Y-88446842D01*
X138315000Y-88733740D01*
X138315000Y-89026260D01*
X138372068Y-89313158D01*
X138484010Y-89583411D01*
X138646525Y-89826632D01*
X138853368Y-90033475D01*
X139096589Y-90195990D01*
X139366842Y-90307932D01*
X139653740Y-90365000D01*
X139946260Y-90365000D01*
X140233158Y-90307932D01*
X140503411Y-90195990D01*
X140746632Y-90033475D01*
X140953475Y-89826632D01*
X141075195Y-89644466D01*
X141144822Y-89761355D01*
X141339731Y-89977588D01*
X141573080Y-90151641D01*
X141835901Y-90276825D01*
X141983110Y-90321476D01*
X142213000Y-90200155D01*
X142213000Y-89007000D01*
X142193000Y-89007000D01*
X142193000Y-88753000D01*
X142213000Y-88753000D01*
X142213000Y-88733000D01*
X142467000Y-88733000D01*
X142467000Y-88753000D01*
X142487000Y-88753000D01*
X142487000Y-89007000D01*
X142467000Y-89007000D01*
X142467000Y-90200155D01*
X142696890Y-90321476D01*
X142844099Y-90276825D01*
X143106920Y-90151641D01*
X143340269Y-89977588D01*
X143535178Y-89761355D01*
X143604805Y-89644466D01*
X143726525Y-89826632D01*
X143933368Y-90033475D01*
X144176589Y-90195990D01*
X144446842Y-90307932D01*
X144733740Y-90365000D01*
X145026260Y-90365000D01*
X145313158Y-90307932D01*
X145583411Y-90195990D01*
X145826632Y-90033475D01*
X146033475Y-89826632D01*
X146150000Y-89652240D01*
X146266525Y-89826632D01*
X146473368Y-90033475D01*
X146716589Y-90195990D01*
X146986842Y-90307932D01*
X147273740Y-90365000D01*
X147566260Y-90365000D01*
X147853158Y-90307932D01*
X148123411Y-90195990D01*
X148366632Y-90033475D01*
X148573475Y-89826632D01*
X148690000Y-89652240D01*
X148806525Y-89826632D01*
X149013368Y-90033475D01*
X149256589Y-90195990D01*
X149526842Y-90307932D01*
X149813740Y-90365000D01*
X150106260Y-90365000D01*
X150393158Y-90307932D01*
X150663411Y-90195990D01*
X150906632Y-90033475D01*
X151113475Y-89826632D01*
X151230000Y-89652240D01*
X151346525Y-89826632D01*
X151553368Y-90033475D01*
X151796589Y-90195990D01*
X152066842Y-90307932D01*
X152353740Y-90365000D01*
X152646260Y-90365000D01*
X152933158Y-90307932D01*
X153203411Y-90195990D01*
X153446632Y-90033475D01*
X153653475Y-89826632D01*
X153770000Y-89652240D01*
X153886525Y-89826632D01*
X154093368Y-90033475D01*
X154336589Y-90195990D01*
X154606842Y-90307932D01*
X154893740Y-90365000D01*
X155186260Y-90365000D01*
X155473158Y-90307932D01*
X155743411Y-90195990D01*
X155986632Y-90033475D01*
X156118487Y-89901620D01*
X156140498Y-89974180D01*
X156199463Y-90084494D01*
X156278815Y-90181185D01*
X156375506Y-90260537D01*
X156485820Y-90319502D01*
X156605518Y-90355812D01*
X156730000Y-90368072D01*
X157294250Y-90365000D01*
X157453000Y-90206250D01*
X157453000Y-89007000D01*
X157433000Y-89007000D01*
X157433000Y-88753000D01*
X157453000Y-88753000D01*
X157453000Y-87553750D01*
X157707000Y-87553750D01*
X157707000Y-88753000D01*
X158906250Y-88753000D01*
X159065000Y-88594250D01*
X159068072Y-88030000D01*
X159055812Y-87905518D01*
X159019502Y-87785820D01*
X158960537Y-87675506D01*
X158881185Y-87578815D01*
X158784494Y-87499463D01*
X158674180Y-87440498D01*
X158554482Y-87404188D01*
X158430000Y-87391928D01*
X157865750Y-87395000D01*
X157707000Y-87553750D01*
X157453000Y-87553750D01*
X157294250Y-87395000D01*
X156730000Y-87391928D01*
X156605518Y-87404188D01*
X156485820Y-87440498D01*
X156375506Y-87499463D01*
X156278815Y-87578815D01*
X156199463Y-87675506D01*
X156140498Y-87785820D01*
X156118487Y-87858380D01*
X155986632Y-87726525D01*
X155743411Y-87564010D01*
X155473158Y-87452068D01*
X155186260Y-87395000D01*
X154893740Y-87395000D01*
X154606842Y-87452068D01*
X154336589Y-87564010D01*
X154093368Y-87726525D01*
X153886525Y-87933368D01*
X153770000Y-88107760D01*
X153653475Y-87933368D01*
X153446632Y-87726525D01*
X153203411Y-87564010D01*
X152933158Y-87452068D01*
X152646260Y-87395000D01*
X152353740Y-87395000D01*
X152163082Y-87432924D01*
X150760158Y-86030000D01*
X154871928Y-86030000D01*
X154884188Y-86154482D01*
X154920498Y-86274180D01*
X154979463Y-86384494D01*
X155058815Y-86481185D01*
X155155506Y-86560537D01*
X155265820Y-86619502D01*
X155385518Y-86655812D01*
X155510000Y-86668072D01*
X156024250Y-86665000D01*
X156183000Y-86506250D01*
X156183000Y-85357000D01*
X156437000Y-85357000D01*
X156437000Y-86506250D01*
X156595750Y-86665000D01*
X157110000Y-86668072D01*
X157234482Y-86655812D01*
X157354180Y-86619502D01*
X157464494Y-86560537D01*
X157561185Y-86481185D01*
X157640537Y-86384494D01*
X157699502Y-86274180D01*
X157735812Y-86154482D01*
X157748072Y-86030000D01*
X157745000Y-85515750D01*
X157586250Y-85357000D01*
X156437000Y-85357000D01*
X156183000Y-85357000D01*
X155033750Y-85357000D01*
X154875000Y-85515750D01*
X154871928Y-86030000D01*
X150760158Y-86030000D01*
X149522347Y-84792190D01*
X149497764Y-84762236D01*
X149378233Y-84664138D01*
X149241860Y-84591246D01*
X149093887Y-84546359D01*
X148978561Y-84535000D01*
X148978553Y-84535000D01*
X148940000Y-84531203D01*
X148901447Y-84535000D01*
X148878072Y-84535000D01*
X148878072Y-84470000D01*
X148874133Y-84430000D01*
X154871928Y-84430000D01*
X154875000Y-84944250D01*
X155033750Y-85103000D01*
X156183000Y-85103000D01*
X156183000Y-85083000D01*
X156437000Y-85083000D01*
X156437000Y-85103000D01*
X157586250Y-85103000D01*
X157745000Y-84944250D01*
X157748072Y-84430000D01*
X157735812Y-84305518D01*
X157699502Y-84185820D01*
X157640537Y-84075506D01*
X157561185Y-83978815D01*
X157464494Y-83899463D01*
X157354180Y-83840498D01*
X157258057Y-83811339D01*
X157424637Y-83644759D01*
X157581680Y-83409727D01*
X157689853Y-83148574D01*
X157745000Y-82871335D01*
X157745000Y-82588665D01*
X157689853Y-82311426D01*
X157581680Y-82050273D01*
X157424637Y-81815241D01*
X157224759Y-81615363D01*
X156989727Y-81458320D01*
X156728574Y-81350147D01*
X156451335Y-81295000D01*
X156168665Y-81295000D01*
X155891426Y-81350147D01*
X155630273Y-81458320D01*
X155395241Y-81615363D01*
X155195363Y-81815241D01*
X155038320Y-82050273D01*
X154930147Y-82311426D01*
X154875000Y-82588665D01*
X154875000Y-82871335D01*
X154930147Y-83148574D01*
X155038320Y-83409727D01*
X155195363Y-83644759D01*
X155361943Y-83811339D01*
X155265820Y-83840498D01*
X155155506Y-83899463D01*
X155058815Y-83978815D01*
X154979463Y-84075506D01*
X154920498Y-84185820D01*
X154884188Y-84305518D01*
X154871928Y-84430000D01*
X148874133Y-84430000D01*
X148865812Y-84345518D01*
X148829502Y-84225820D01*
X148770537Y-84115506D01*
X148691185Y-84018815D01*
X148594494Y-83939463D01*
X148484180Y-83880498D01*
X148364482Y-83844188D01*
X148240000Y-83831928D01*
X146540000Y-83831928D01*
X146415518Y-83844188D01*
X146295820Y-83880498D01*
X146185506Y-83939463D01*
X146088815Y-84018815D01*
X146009463Y-84115506D01*
X145950498Y-84225820D01*
X145928487Y-84298380D01*
X145796632Y-84166525D01*
X145553411Y-84004010D01*
X145283158Y-83892068D01*
X144996260Y-83835000D01*
X144703740Y-83835000D01*
X144416842Y-83892068D01*
X144146589Y-84004010D01*
X143903368Y-84166525D01*
X143696525Y-84373368D01*
X143580000Y-84547760D01*
X143463475Y-84373368D01*
X143256632Y-84166525D01*
X143013411Y-84004010D01*
X142743158Y-83892068D01*
X142456260Y-83835000D01*
X142163740Y-83835000D01*
X141876842Y-83892068D01*
X141606589Y-84004010D01*
X141363368Y-84166525D01*
X141156525Y-84373368D01*
X141040000Y-84547760D01*
X140923475Y-84373368D01*
X140716632Y-84166525D01*
X140473411Y-84004010D01*
X140203158Y-83892068D01*
X139916260Y-83835000D01*
X139623740Y-83835000D01*
X139336842Y-83892068D01*
X139066589Y-84004010D01*
X138823368Y-84166525D01*
X138616525Y-84373368D01*
X138454010Y-84616589D01*
X138342068Y-84886842D01*
X138285000Y-85173740D01*
X124533897Y-85173740D01*
X124102347Y-84742190D01*
X124077764Y-84712236D01*
X123958233Y-84614138D01*
X123821860Y-84541246D01*
X123673887Y-84496359D01*
X123558561Y-84485000D01*
X123558553Y-84485000D01*
X123538072Y-84482983D01*
X123538072Y-84430000D01*
X129491928Y-84430000D01*
X129495000Y-84944250D01*
X129653750Y-85103000D01*
X130803000Y-85103000D01*
X130803000Y-85083000D01*
X131057000Y-85083000D01*
X131057000Y-85103000D01*
X132206250Y-85103000D01*
X132365000Y-84944250D01*
X132368072Y-84430000D01*
X132355812Y-84305518D01*
X132319502Y-84185820D01*
X132260537Y-84075506D01*
X132181185Y-83978815D01*
X132084494Y-83899463D01*
X131974180Y-83840498D01*
X131878057Y-83811339D01*
X132044637Y-83644759D01*
X132201680Y-83409727D01*
X132309853Y-83148574D01*
X132365000Y-82871335D01*
X132365000Y-82588665D01*
X132309853Y-82311426D01*
X132201680Y-82050273D01*
X132044637Y-81815241D01*
X131844759Y-81615363D01*
X131609727Y-81458320D01*
X131348574Y-81350147D01*
X131071335Y-81295000D01*
X130788665Y-81295000D01*
X130511426Y-81350147D01*
X130250273Y-81458320D01*
X130015241Y-81615363D01*
X129815363Y-81815241D01*
X129658320Y-82050273D01*
X129550147Y-82311426D01*
X129495000Y-82588665D01*
X129495000Y-82871335D01*
X129550147Y-83148574D01*
X129554537Y-83159172D01*
X129548309Y-83222410D01*
X129565395Y-83395900D01*
X129616002Y-83562723D01*
X129698180Y-83716469D01*
X129808773Y-83851227D01*
X129831245Y-83869669D01*
X129775506Y-83899463D01*
X129678815Y-83978815D01*
X129599463Y-84075506D01*
X129540498Y-84185820D01*
X129504188Y-84305518D01*
X129491928Y-84430000D01*
X123538072Y-84430000D01*
X123538072Y-84420000D01*
X123525812Y-84295518D01*
X123489502Y-84175820D01*
X123430537Y-84065506D01*
X123351185Y-83968815D01*
X123254494Y-83889463D01*
X123144180Y-83830498D01*
X123024482Y-83794188D01*
X122900000Y-83781928D01*
X121200000Y-83781928D01*
X121075518Y-83794188D01*
X120955820Y-83830498D01*
X120845506Y-83889463D01*
X120748815Y-83968815D01*
X120669463Y-84065506D01*
X120610498Y-84175820D01*
X120588487Y-84248380D01*
X120456632Y-84116525D01*
X120213411Y-83954010D01*
X119943158Y-83842068D01*
X119656260Y-83785000D01*
X119363740Y-83785000D01*
X119076842Y-83842068D01*
X118806589Y-83954010D01*
X118563368Y-84116525D01*
X118356525Y-84323368D01*
X118240000Y-84497760D01*
X118123475Y-84323368D01*
X117916632Y-84116525D01*
X117673411Y-83954010D01*
X117403158Y-83842068D01*
X117116260Y-83785000D01*
X116823740Y-83785000D01*
X116536842Y-83842068D01*
X116266589Y-83954010D01*
X116023368Y-84116525D01*
X115816525Y-84323368D01*
X115700000Y-84497760D01*
X115583475Y-84323368D01*
X115376632Y-84116525D01*
X115133411Y-83954010D01*
X114863158Y-83842068D01*
X114576260Y-83785000D01*
X114283740Y-83785000D01*
X113996842Y-83842068D01*
X113726589Y-83954010D01*
X113483368Y-84116525D01*
X113276525Y-84323368D01*
X113114010Y-84566589D01*
X113002068Y-84836842D01*
X112945000Y-85123740D01*
X112945000Y-85416260D01*
X113002068Y-85703158D01*
X113114010Y-85973411D01*
X113276525Y-86216632D01*
X113483368Y-86423475D01*
X113726589Y-86585990D01*
X113996842Y-86697932D01*
X114283740Y-86755000D01*
X114576260Y-86755000D01*
X114766918Y-86717076D01*
X115000059Y-86950216D01*
X115024637Y-86980165D01*
X115054585Y-87004743D01*
X115054588Y-87004746D01*
X115083960Y-87028851D01*
X115144168Y-87078263D01*
X115237711Y-87128262D01*
X115280541Y-87151155D01*
X115428513Y-87196042D01*
X115442891Y-87197458D01*
X115543840Y-87207401D01*
X115543847Y-87207401D01*
X115582400Y-87211198D01*
X115620953Y-87207401D01*
X116727244Y-87207401D01*
X116904843Y-87385000D01*
X116832998Y-87385000D01*
X116832998Y-87549844D01*
X116603110Y-87428524D01*
X116455901Y-87473175D01*
X116193080Y-87598359D01*
X115959731Y-87772412D01*
X115764822Y-87988645D01*
X115695195Y-88105534D01*
X115573475Y-87923368D01*
X115366632Y-87716525D01*
X115123411Y-87554010D01*
X114853158Y-87442068D01*
X114566260Y-87385000D01*
X114273740Y-87385000D01*
X113986842Y-87442068D01*
X113760934Y-87535642D01*
X113746312Y-87537082D01*
X113588914Y-87584828D01*
X113443855Y-87662364D01*
X113316710Y-87766710D01*
X113212364Y-87893855D01*
X113134828Y-88038914D01*
X113087082Y-88196312D01*
X113085642Y-88210934D01*
X112992068Y-88436842D01*
X112935000Y-88723740D01*
X112660000Y-88723740D01*
X112660000Y-82820000D01*
X121851928Y-82820000D01*
X121864188Y-82944482D01*
X121900498Y-83064180D01*
X121959463Y-83174494D01*
X122038815Y-83271185D01*
X122135506Y-83350537D01*
X122245820Y-83409502D01*
X122365518Y-83445812D01*
X122490000Y-83458072D01*
X123954250Y-83455000D01*
X124113000Y-83296250D01*
X124113000Y-81197000D01*
X124367000Y-81197000D01*
X124367000Y-83296250D01*
X124525750Y-83455000D01*
X125990000Y-83458072D01*
X126114482Y-83445812D01*
X126234180Y-83409502D01*
X126344494Y-83350537D01*
X126441185Y-83271185D01*
X126520537Y-83174494D01*
X126579502Y-83064180D01*
X126615812Y-82944482D01*
X126628072Y-82820000D01*
X126625000Y-81355750D01*
X126466250Y-81197000D01*
X124367000Y-81197000D01*
X124113000Y-81197000D01*
X122013750Y-81197000D01*
X121855000Y-81355750D01*
X121851928Y-82820000D01*
X112660000Y-82820000D01*
X112660000Y-78120000D01*
X119101928Y-78120000D01*
X119114188Y-78244482D01*
X119150498Y-78364180D01*
X119209463Y-78474494D01*
X119288815Y-78571185D01*
X119385506Y-78650537D01*
X119495820Y-78709502D01*
X119615518Y-78745812D01*
X119740000Y-78758072D01*
X120954250Y-78755000D01*
X121113000Y-78596250D01*
X121113000Y-76497000D01*
X121367000Y-76497000D01*
X121367000Y-78596250D01*
X121525750Y-78755000D01*
X122196805Y-78756698D01*
X122135506Y-78789463D01*
X122038815Y-78868815D01*
X121959463Y-78965506D01*
X121900498Y-79075820D01*
X121864188Y-79195518D01*
X121851928Y-79320000D01*
X121855000Y-80784250D01*
X122013750Y-80943000D01*
X124113000Y-80943000D01*
X124113000Y-78843750D01*
X124367000Y-78843750D01*
X124367000Y-80943000D01*
X126466250Y-80943000D01*
X126625000Y-80784250D01*
X126628072Y-79320000D01*
X126615812Y-79195518D01*
X126579502Y-79075820D01*
X126520537Y-78965506D01*
X126441185Y-78868815D01*
X126344494Y-78789463D01*
X126285767Y-78758072D01*
X128990000Y-78758072D01*
X129114482Y-78745812D01*
X129234180Y-78709502D01*
X129344494Y-78650537D01*
X129441185Y-78571185D01*
X129520537Y-78474494D01*
X129579502Y-78364180D01*
X129615812Y-78244482D01*
X129628072Y-78120000D01*
X129628072Y-74620000D01*
X129615812Y-74495518D01*
X129579502Y-74375820D01*
X129520537Y-74265506D01*
X129441185Y-74168815D01*
X129344494Y-74089463D01*
X129234180Y-74030498D01*
X129114482Y-73994188D01*
X128990000Y-73981928D01*
X125490000Y-73981928D01*
X125365518Y-73994188D01*
X125245820Y-74030498D01*
X125135506Y-74089463D01*
X125038815Y-74168815D01*
X124959463Y-74265506D01*
X124900498Y-74375820D01*
X124864188Y-74495518D01*
X124851928Y-74620000D01*
X124851928Y-78120000D01*
X124864188Y-78244482D01*
X124900498Y-78364180D01*
X124959463Y-78474494D01*
X125038815Y-78571185D01*
X125135506Y-78650537D01*
X125197345Y-78683591D01*
X124525750Y-78685000D01*
X124367000Y-78843750D01*
X124113000Y-78843750D01*
X123954250Y-78685000D01*
X123033633Y-78683069D01*
X123094494Y-78650537D01*
X123191185Y-78571185D01*
X123270537Y-78474494D01*
X123329502Y-78364180D01*
X123365812Y-78244482D01*
X123378072Y-78120000D01*
X123375000Y-76655750D01*
X123216250Y-76497000D01*
X121367000Y-76497000D01*
X121113000Y-76497000D01*
X119263750Y-76497000D01*
X119105000Y-76655750D01*
X119101928Y-78120000D01*
X112660000Y-78120000D01*
X112660000Y-74620000D01*
X119101928Y-74620000D01*
X119105000Y-76084250D01*
X119263750Y-76243000D01*
X121113000Y-76243000D01*
X121113000Y-74143750D01*
X121367000Y-74143750D01*
X121367000Y-76243000D01*
X123216250Y-76243000D01*
X123375000Y-76084250D01*
X123378072Y-74620000D01*
X123365812Y-74495518D01*
X123329502Y-74375820D01*
X123270537Y-74265506D01*
X123191185Y-74168815D01*
X123094494Y-74089463D01*
X122984180Y-74030498D01*
X122864482Y-73994188D01*
X122740000Y-73981928D01*
X121525750Y-73985000D01*
X121367000Y-74143750D01*
X121113000Y-74143750D01*
X120954250Y-73985000D01*
X119740000Y-73981928D01*
X119615518Y-73994188D01*
X119495820Y-74030498D01*
X119385506Y-74089463D01*
X119288815Y-74168815D01*
X119209463Y-74265506D01*
X119150498Y-74375820D01*
X119114188Y-74495518D01*
X119101928Y-74620000D01*
X112660000Y-74620000D01*
X112660000Y-73032279D01*
X112673950Y-72890000D01*
X131616928Y-72890000D01*
X131616928Y-74890000D01*
X131629188Y-75014482D01*
X131665498Y-75134180D01*
X131724463Y-75244494D01*
X131803815Y-75341185D01*
X131900506Y-75420537D01*
X132010820Y-75479502D01*
X132130518Y-75515812D01*
X132255000Y-75528072D01*
X134255000Y-75528072D01*
X134379482Y-75515812D01*
X134499180Y-75479502D01*
X134609494Y-75420537D01*
X134706185Y-75341185D01*
X134785537Y-75244494D01*
X134844502Y-75134180D01*
X134860037Y-75082967D01*
X134934956Y-75289814D01*
X135224571Y-75430704D01*
X135536108Y-75512384D01*
X135857595Y-75531718D01*
X136176675Y-75487961D01*
X136481088Y-75382795D01*
X136655044Y-75289814D01*
X136750808Y-75025413D01*
X135795000Y-74069605D01*
X135780858Y-74083748D01*
X135601253Y-73904143D01*
X135615395Y-73890000D01*
X135974605Y-73890000D01*
X136930413Y-74845808D01*
X136992280Y-74823400D01*
X137065013Y-74932252D01*
X137292748Y-75159987D01*
X137560537Y-75338918D01*
X137858088Y-75462168D01*
X138173967Y-75525000D01*
X138496033Y-75525000D01*
X138811912Y-75462168D01*
X139109463Y-75338918D01*
X139377252Y-75159987D01*
X139604987Y-74932252D01*
X139783918Y-74664463D01*
X139907168Y-74366912D01*
X139958536Y-74108665D01*
X142240000Y-74108665D01*
X142240000Y-74391335D01*
X142295147Y-74668574D01*
X142403320Y-74929727D01*
X142560363Y-75164759D01*
X142760241Y-75364637D01*
X142995273Y-75521680D01*
X143256426Y-75629853D01*
X143533665Y-75685000D01*
X143816335Y-75685000D01*
X144093574Y-75629853D01*
X144354727Y-75521680D01*
X144589759Y-75364637D01*
X144756339Y-75198057D01*
X144785498Y-75294180D01*
X144844463Y-75404494D01*
X144923815Y-75501185D01*
X145020506Y-75580537D01*
X145130820Y-75639502D01*
X145250518Y-75675812D01*
X145375000Y-75688072D01*
X146975000Y-75688072D01*
X147099482Y-75675812D01*
X147219180Y-75639502D01*
X147329494Y-75580537D01*
X147426185Y-75501185D01*
X147505537Y-75404494D01*
X147564502Y-75294180D01*
X147600812Y-75174482D01*
X147613072Y-75050000D01*
X147613072Y-73450000D01*
X147608641Y-73405000D01*
X148676928Y-73405000D01*
X148676928Y-75435000D01*
X148689188Y-75559482D01*
X148725498Y-75679180D01*
X148784463Y-75789494D01*
X148863815Y-75886185D01*
X148960506Y-75965537D01*
X149070820Y-76024502D01*
X149190518Y-76060812D01*
X149315000Y-76073072D01*
X151045000Y-76073072D01*
X151169482Y-76060812D01*
X151289180Y-76024502D01*
X151399494Y-75965537D01*
X151496185Y-75886185D01*
X151575537Y-75789494D01*
X151634502Y-75679180D01*
X151649430Y-75629970D01*
X151654208Y-75635792D01*
X151882614Y-75823238D01*
X152143199Y-75962524D01*
X152425950Y-76048295D01*
X152720000Y-76077257D01*
X153014051Y-76048295D01*
X153296802Y-75962524D01*
X153557387Y-75823238D01*
X153785792Y-75635792D01*
X153973238Y-75407387D01*
X153993598Y-75369296D01*
X154142190Y-75571972D01*
X154359143Y-75770793D01*
X154610716Y-75923469D01*
X154887241Y-76024131D01*
X154900754Y-76026346D01*
X155133000Y-75905224D01*
X155133000Y-74547000D01*
X155387000Y-74547000D01*
X155387000Y-75905224D01*
X155619246Y-76026346D01*
X155632759Y-76024131D01*
X155909284Y-75923469D01*
X156160857Y-75770793D01*
X156377810Y-75571972D01*
X156551807Y-75334645D01*
X156676160Y-75067934D01*
X156746091Y-74782087D01*
X156602222Y-74547000D01*
X155387000Y-74547000D01*
X155133000Y-74547000D01*
X155113000Y-74547000D01*
X155113000Y-74293000D01*
X155133000Y-74293000D01*
X155133000Y-72934776D01*
X155387000Y-72934776D01*
X155387000Y-74293000D01*
X156602222Y-74293000D01*
X156746091Y-74057913D01*
X156676160Y-73772066D01*
X156551807Y-73505355D01*
X156400603Y-73299117D01*
X162711000Y-73299117D01*
X162711000Y-73640883D01*
X162777675Y-73976081D01*
X162908463Y-74291831D01*
X163098337Y-74575998D01*
X163340002Y-74817663D01*
X163624169Y-75007537D01*
X163939919Y-75138325D01*
X164275117Y-75205000D01*
X164616883Y-75205000D01*
X164952081Y-75138325D01*
X165267831Y-75007537D01*
X165551998Y-74817663D01*
X165793663Y-74575998D01*
X165983537Y-74291831D01*
X166114325Y-73976081D01*
X166181000Y-73640883D01*
X166181000Y-73299117D01*
X166114325Y-72963919D01*
X165983537Y-72648169D01*
X165793663Y-72364002D01*
X165551998Y-72122337D01*
X165267831Y-71932463D01*
X164952081Y-71801675D01*
X164616883Y-71735000D01*
X164275117Y-71735000D01*
X163939919Y-71801675D01*
X163624169Y-71932463D01*
X163340002Y-72122337D01*
X163098337Y-72364002D01*
X162908463Y-72648169D01*
X162777675Y-72963919D01*
X162711000Y-73299117D01*
X156400603Y-73299117D01*
X156377810Y-73268028D01*
X156160857Y-73069207D01*
X155909284Y-72916531D01*
X155632759Y-72815869D01*
X155619246Y-72813654D01*
X155387000Y-72934776D01*
X155133000Y-72934776D01*
X154900754Y-72813654D01*
X154887241Y-72815869D01*
X154610716Y-72916531D01*
X154359143Y-73069207D01*
X154142190Y-73268028D01*
X153993598Y-73470703D01*
X153973238Y-73432613D01*
X153785792Y-73204208D01*
X153557386Y-73016762D01*
X153296801Y-72877476D01*
X153014050Y-72791705D01*
X152720000Y-72762743D01*
X152425949Y-72791705D01*
X152143198Y-72877476D01*
X151882613Y-73016762D01*
X151654208Y-73204208D01*
X151649430Y-73210030D01*
X151634502Y-73160820D01*
X151575537Y-73050506D01*
X151496185Y-72953815D01*
X151399494Y-72874463D01*
X151289180Y-72815498D01*
X151169482Y-72779188D01*
X151045000Y-72766928D01*
X149315000Y-72766928D01*
X149190518Y-72779188D01*
X149070820Y-72815498D01*
X148960506Y-72874463D01*
X148863815Y-72953815D01*
X148784463Y-73050506D01*
X148725498Y-73160820D01*
X148689188Y-73280518D01*
X148676928Y-73405000D01*
X147608641Y-73405000D01*
X147600812Y-73325518D01*
X147564502Y-73205820D01*
X147505537Y-73095506D01*
X147426185Y-72998815D01*
X147329494Y-72919463D01*
X147219180Y-72860498D01*
X147099482Y-72824188D01*
X146975000Y-72811928D01*
X145375000Y-72811928D01*
X145250518Y-72824188D01*
X145130820Y-72860498D01*
X145020506Y-72919463D01*
X144923815Y-72998815D01*
X144844463Y-73095506D01*
X144785498Y-73205820D01*
X144756339Y-73301943D01*
X144589759Y-73135363D01*
X144354727Y-72978320D01*
X144093574Y-72870147D01*
X143816335Y-72815000D01*
X143533665Y-72815000D01*
X143256426Y-72870147D01*
X142995273Y-72978320D01*
X142760241Y-73135363D01*
X142560363Y-73335241D01*
X142403320Y-73570273D01*
X142295147Y-73831426D01*
X142240000Y-74108665D01*
X139958536Y-74108665D01*
X139970000Y-74051033D01*
X139970000Y-73728967D01*
X139907168Y-73413088D01*
X139783918Y-73115537D01*
X139604987Y-72847748D01*
X139377252Y-72620013D01*
X139109463Y-72441082D01*
X138811912Y-72317832D01*
X138496033Y-72255000D01*
X138173967Y-72255000D01*
X137858088Y-72317832D01*
X137560537Y-72441082D01*
X137292748Y-72620013D01*
X137065013Y-72847748D01*
X136992280Y-72956600D01*
X136930413Y-72934192D01*
X135974605Y-73890000D01*
X135615395Y-73890000D01*
X135601253Y-73875858D01*
X135780858Y-73696253D01*
X135795000Y-73710395D01*
X136750808Y-72754587D01*
X136655044Y-72490186D01*
X136365429Y-72349296D01*
X136053892Y-72267616D01*
X135732405Y-72248282D01*
X135413325Y-72292039D01*
X135108912Y-72397205D01*
X134934956Y-72490186D01*
X134860037Y-72697033D01*
X134844502Y-72645820D01*
X134785537Y-72535506D01*
X134706185Y-72438815D01*
X134609494Y-72359463D01*
X134499180Y-72300498D01*
X134379482Y-72264188D01*
X134255000Y-72251928D01*
X132255000Y-72251928D01*
X132130518Y-72264188D01*
X132010820Y-72300498D01*
X131900506Y-72359463D01*
X131803815Y-72438815D01*
X131724463Y-72535506D01*
X131665498Y-72645820D01*
X131629188Y-72765518D01*
X131616928Y-72890000D01*
X112673950Y-72890000D01*
X112688625Y-72740341D01*
X112764035Y-72490571D01*
X112886522Y-72260208D01*
X113051422Y-72058020D01*
X113252450Y-71891714D01*
X113481954Y-71767622D01*
X113731195Y-71690469D01*
X114021088Y-71660000D01*
X164867721Y-71660000D01*
X165159659Y-71688625D01*
G37*
X165159659Y-71688625D02*
X165409429Y-71764035D01*
X165639792Y-71886522D01*
X165841980Y-72051422D01*
X166008286Y-72252450D01*
X166132378Y-72481954D01*
X166209531Y-72731195D01*
X166240000Y-73021088D01*
X166240000Y-99004843D01*
X165738072Y-98502914D01*
X165738072Y-97275000D01*
X165725812Y-97150518D01*
X165689502Y-97030820D01*
X165630537Y-96920506D01*
X165551185Y-96823815D01*
X165454494Y-96744463D01*
X165344180Y-96685498D01*
X165224482Y-96649188D01*
X165100000Y-96636928D01*
X163400000Y-96636928D01*
X163275518Y-96649188D01*
X163155820Y-96685498D01*
X163045506Y-96744463D01*
X162948815Y-96823815D01*
X162869463Y-96920506D01*
X162810498Y-97030820D01*
X162774188Y-97150518D01*
X162761928Y-97275000D01*
X162761928Y-98975000D01*
X162774188Y-99099482D01*
X162810498Y-99219180D01*
X162869463Y-99329494D01*
X162948815Y-99426185D01*
X163045506Y-99505537D01*
X163155820Y-99564502D01*
X163228380Y-99586513D01*
X163096525Y-99718368D01*
X162988526Y-99880000D01*
X161793556Y-99880000D01*
X161755000Y-99876203D01*
X161716444Y-99880000D01*
X161716439Y-99880000D01*
X161678904Y-99883697D01*
X161601113Y-99891358D01*
X161453575Y-99936114D01*
X161453140Y-99936246D01*
X161316767Y-100009138D01*
X161197236Y-100107236D01*
X161172653Y-100137190D01*
X157737244Y-103572599D01*
X156697558Y-103572599D01*
X157243082Y-103027075D01*
X157433740Y-103065000D01*
X157726260Y-103065000D01*
X158013158Y-103007932D01*
X158283411Y-102895990D01*
X158526632Y-102733475D01*
X158733475Y-102526632D01*
X158895990Y-102283411D01*
X159007932Y-102013158D01*
X159065000Y-101726260D01*
X159065000Y-101433740D01*
X159007932Y-101146842D01*
X158895990Y-100876589D01*
X158733475Y-100633368D01*
X158526632Y-100426525D01*
X158283411Y-100264010D01*
X158013158Y-100152068D01*
X157726260Y-100095000D01*
X157433740Y-100095000D01*
X157146842Y-100152068D01*
X156876589Y-100264010D01*
X156633368Y-100426525D01*
X156426525Y-100633368D01*
X156310000Y-100807760D01*
X156193475Y-100633368D01*
X155986632Y-100426525D01*
X155743411Y-100264010D01*
X155473158Y-100152068D01*
X155186260Y-100095000D01*
X154893740Y-100095000D01*
X154606842Y-100152068D01*
X154336589Y-100264010D01*
X154093368Y-100426525D01*
X153886525Y-100633368D01*
X153770000Y-100807760D01*
X153653475Y-100633368D01*
X153446632Y-100426525D01*
X153203411Y-100264010D01*
X152933158Y-100152068D01*
X152646260Y-100095000D01*
X152353740Y-100095000D01*
X152066842Y-100152068D01*
X151796589Y-100264010D01*
X151553368Y-100426525D01*
X151346525Y-100633368D01*
X151238526Y-100795000D01*
X151221474Y-100795000D01*
X151113475Y-100633368D01*
X150906632Y-100426525D01*
X150695024Y-100285133D01*
X156965087Y-94015070D01*
X162877304Y-94015070D01*
X162921955Y-94162279D01*
X163047139Y-94425100D01*
X163221192Y-94658449D01*
X163437425Y-94853358D01*
X163687528Y-95002337D01*
X163961889Y-95099661D01*
X164191780Y-94978994D01*
X164191780Y-93785180D01*
X164445780Y-93785180D01*
X164445780Y-94978994D01*
X164675671Y-95099661D01*
X164950032Y-95002337D01*
X165200135Y-94853358D01*
X165416368Y-94658449D01*
X165590421Y-94425100D01*
X165715605Y-94162279D01*
X165760256Y-94015070D01*
X165638935Y-93785180D01*
X164445780Y-93785180D01*
X164191780Y-93785180D01*
X162998625Y-93785180D01*
X162877304Y-94015070D01*
X156965087Y-94015070D01*
X161616977Y-89363180D01*
X162830708Y-89363180D01*
X162830708Y-89428180D01*
X162842968Y-89552662D01*
X162879278Y-89672360D01*
X162938243Y-89782674D01*
X163017595Y-89879365D01*
X163114286Y-89958717D01*
X163224600Y-90017682D01*
X163297160Y-90039693D01*
X163165305Y-90171548D01*
X163002790Y-90414769D01*
X162890848Y-90685022D01*
X162833780Y-90971920D01*
X162833780Y-91264440D01*
X162890848Y-91551338D01*
X163002790Y-91821591D01*
X163165305Y-92064812D01*
X163372148Y-92271655D01*
X163554314Y-92393375D01*
X163437425Y-92463002D01*
X163221192Y-92657911D01*
X163047139Y-92891260D01*
X162921955Y-93154081D01*
X162877304Y-93301290D01*
X162998625Y-93531180D01*
X164191780Y-93531180D01*
X164191780Y-93511180D01*
X164445780Y-93511180D01*
X164445780Y-93531180D01*
X165638935Y-93531180D01*
X165760256Y-93301290D01*
X165715605Y-93154081D01*
X165590421Y-92891260D01*
X165416368Y-92657911D01*
X165200135Y-92463002D01*
X165083246Y-92393375D01*
X165265412Y-92271655D01*
X165472255Y-92064812D01*
X165634770Y-91821591D01*
X165746712Y-91551338D01*
X165803780Y-91264440D01*
X165803780Y-90971920D01*
X165746712Y-90685022D01*
X165634770Y-90414769D01*
X165472255Y-90171548D01*
X165340400Y-90039693D01*
X165412960Y-90017682D01*
X165523274Y-89958717D01*
X165619965Y-89879365D01*
X165699317Y-89782674D01*
X165758282Y-89672360D01*
X165794592Y-89552662D01*
X165806852Y-89428180D01*
X165806852Y-87728180D01*
X165794592Y-87603698D01*
X165758282Y-87484000D01*
X165699317Y-87373686D01*
X165619965Y-87276995D01*
X165523274Y-87197643D01*
X165412960Y-87138678D01*
X165293262Y-87102368D01*
X165168780Y-87090108D01*
X163468780Y-87090108D01*
X163344298Y-87102368D01*
X163224600Y-87138678D01*
X163114286Y-87197643D01*
X163017595Y-87276995D01*
X162938243Y-87373686D01*
X162879278Y-87484000D01*
X162842968Y-87603698D01*
X162830708Y-87728180D01*
X162830708Y-87793180D01*
X161330376Y-87793180D01*
X161291820Y-87789383D01*
X161253264Y-87793180D01*
X161253259Y-87793180D01*
X161212846Y-87797160D01*
X161137933Y-87804538D01*
X160989960Y-87849426D01*
X160853587Y-87922318D01*
X160734056Y-88020416D01*
X160709473Y-88050370D01*
X159067865Y-89691978D01*
X159065000Y-89165750D01*
X158906250Y-89007000D01*
X157707000Y-89007000D01*
X157707000Y-90206250D01*
X157865750Y-90365000D01*
X158391978Y-90367865D01*
X148346662Y-100413181D01*
X148123411Y-100264010D01*
X147853158Y-100152068D01*
X147785000Y-100138510D01*
X147785000Y-99281474D01*
X147946632Y-99173475D01*
X148153475Y-98966632D01*
X148315990Y-98723411D01*
X148427932Y-98453158D01*
X148485000Y-98166260D01*
X148485000Y-97873740D01*
X148427932Y-97586842D01*
X148315990Y-97316589D01*
X148153475Y-97073368D01*
X148021620Y-96941513D01*
X148094180Y-96919502D01*
X148204494Y-96860537D01*
X148301185Y-96781185D01*
X148380537Y-96684494D01*
X148439502Y-96574180D01*
X148475812Y-96454482D01*
X148488072Y-96330000D01*
X148485000Y-95765750D01*
X148326250Y-95607000D01*
X147127000Y-95607000D01*
X147127000Y-95627000D01*
X146873000Y-95627000D01*
X146873000Y-95607000D01*
X145673750Y-95607000D01*
X145515000Y-95765750D01*
X145511928Y-96330000D01*
X145524188Y-96454482D01*
X145560498Y-96574180D01*
X145619463Y-96684494D01*
X145698815Y-96781185D01*
X145795506Y-96860537D01*
X145905820Y-96919502D01*
X145978380Y-96941513D01*
X145846525Y-97073368D01*
X145684010Y-97316589D01*
X145572068Y-97586842D01*
X145515000Y-97873740D01*
X145515000Y-98166260D01*
X145572068Y-98453158D01*
X145684010Y-98723411D01*
X145846525Y-98966632D01*
X146053368Y-99173475D01*
X146215000Y-99281474D01*
X146215001Y-100710479D01*
X146150000Y-100807760D01*
X146033475Y-100633368D01*
X145826632Y-100426525D01*
X145583411Y-100264010D01*
X145313158Y-100152068D01*
X145026260Y-100095000D01*
X144733740Y-100095000D01*
X144543082Y-100132925D01*
X144185000Y-99774843D01*
X144185000Y-99281474D01*
X144346632Y-99173475D01*
X144553475Y-98966632D01*
X144715990Y-98723411D01*
X144827932Y-98453158D01*
X144885000Y-98166260D01*
X144885000Y-97873740D01*
X144827932Y-97586842D01*
X144715990Y-97316589D01*
X144553475Y-97073368D01*
X144421620Y-96941513D01*
X144494180Y-96919502D01*
X144604494Y-96860537D01*
X144701185Y-96781185D01*
X144780537Y-96684494D01*
X144839502Y-96574180D01*
X144875812Y-96454482D01*
X144888072Y-96330000D01*
X144885000Y-95765750D01*
X144726250Y-95607000D01*
X143527000Y-95607000D01*
X143527000Y-95627000D01*
X143273000Y-95627000D01*
X143273000Y-95607000D01*
X142073750Y-95607000D01*
X141915000Y-95765750D01*
X141911928Y-96330000D01*
X141924188Y-96454482D01*
X141960498Y-96574180D01*
X142019463Y-96684494D01*
X142098815Y-96781185D01*
X142195506Y-96860537D01*
X142305820Y-96919502D01*
X142378380Y-96941513D01*
X142246525Y-97073368D01*
X142084010Y-97316589D01*
X141972068Y-97586842D01*
X141915000Y-97873740D01*
X141915000Y-98166260D01*
X141972068Y-98453158D01*
X142084010Y-98723411D01*
X142246525Y-98966632D01*
X142453368Y-99173475D01*
X142615001Y-99281474D01*
X142615001Y-99724843D01*
X141247075Y-98356918D01*
X141285000Y-98166260D01*
X141285000Y-97873740D01*
X141227932Y-97586842D01*
X141115990Y-97316589D01*
X140953475Y-97073368D01*
X140821620Y-96941513D01*
X140894180Y-96919502D01*
X141004494Y-96860537D01*
X141101185Y-96781185D01*
X141180537Y-96684494D01*
X141239502Y-96574180D01*
X141275812Y-96454482D01*
X141288072Y-96330000D01*
X141285000Y-95765750D01*
X141126250Y-95607000D01*
X139927000Y-95607000D01*
X139927000Y-95627000D01*
X139673000Y-95627000D01*
X139673000Y-95607000D01*
X138473750Y-95607000D01*
X138315000Y-95765750D01*
X138311928Y-96330000D01*
X138324188Y-96454482D01*
X138360498Y-96574180D01*
X138419463Y-96684494D01*
X138498815Y-96781185D01*
X138595506Y-96860537D01*
X138705820Y-96919502D01*
X138778380Y-96941513D01*
X138646525Y-97073368D01*
X138484010Y-97316589D01*
X138372068Y-97586842D01*
X138315000Y-97873740D01*
X138315000Y-98166260D01*
X138372068Y-98453158D01*
X138484010Y-98723411D01*
X138646525Y-98966632D01*
X138853368Y-99173475D01*
X139096589Y-99335990D01*
X139366842Y-99447932D01*
X139653740Y-99505000D01*
X139946260Y-99505000D01*
X140136918Y-99467075D01*
X141244868Y-100575025D01*
X141186525Y-100633368D01*
X141070000Y-100807760D01*
X140953475Y-100633368D01*
X140746632Y-100426525D01*
X140503411Y-100264010D01*
X140233158Y-100152068D01*
X139946260Y-100095000D01*
X139653740Y-100095000D01*
X139366842Y-100152068D01*
X139096589Y-100264010D01*
X138853368Y-100426525D01*
X138646525Y-100633368D01*
X138538526Y-100795000D01*
X136868552Y-100795000D01*
X136829999Y-100791203D01*
X136791446Y-100795000D01*
X136791439Y-100795000D01*
X136690490Y-100804943D01*
X136676112Y-100806359D01*
X136643266Y-100816323D01*
X136528140Y-100851246D01*
X136391767Y-100924138D01*
X136339711Y-100966860D01*
X136302187Y-100997655D01*
X136302184Y-100997658D01*
X136272236Y-101022236D01*
X136247658Y-101052184D01*
X135368795Y-101931047D01*
X135307764Y-101856682D01*
X135277811Y-101832100D01*
X133177901Y-99732190D01*
X133153318Y-99702236D01*
X133033787Y-99604138D01*
X132897414Y-99531246D01*
X132749441Y-99486359D01*
X132634115Y-99475000D01*
X132634107Y-99475000D01*
X132595554Y-99471203D01*
X132557001Y-99475000D01*
X124222998Y-99475000D01*
X124184445Y-99471203D01*
X124145892Y-99475000D01*
X124145885Y-99475000D01*
X124044936Y-99484943D01*
X124030558Y-99486359D01*
X124002073Y-99495000D01*
X123882586Y-99531246D01*
X123746213Y-99604138D01*
X123688177Y-99651768D01*
X123656633Y-99677655D01*
X123656630Y-99677658D01*
X123626682Y-99702236D01*
X123602103Y-99732185D01*
X122945349Y-100388940D01*
X122743411Y-100254010D01*
X122473158Y-100142068D01*
X122405000Y-100128510D01*
X122405000Y-99271474D01*
X122566632Y-99163475D01*
X122773475Y-98956632D01*
X122935990Y-98713411D01*
X123047932Y-98443158D01*
X123105000Y-98156260D01*
X123105000Y-97863740D01*
X123047932Y-97576842D01*
X122935990Y-97306589D01*
X122773475Y-97063368D01*
X122641620Y-96931513D01*
X122714180Y-96909502D01*
X122824494Y-96850537D01*
X122921185Y-96771185D01*
X123000537Y-96674494D01*
X123059502Y-96564180D01*
X123095812Y-96444482D01*
X123108072Y-96320000D01*
X123105000Y-95755750D01*
X122946250Y-95597000D01*
X121747000Y-95597000D01*
X121747000Y-95617000D01*
X121493000Y-95617000D01*
X121493000Y-95597000D01*
X120293750Y-95597000D01*
X120135000Y-95755750D01*
X120131928Y-96320000D01*
X120144188Y-96444482D01*
X120180498Y-96564180D01*
X120239463Y-96674494D01*
X120318815Y-96771185D01*
X120415506Y-96850537D01*
X120525820Y-96909502D01*
X120598380Y-96931513D01*
X120466525Y-97063368D01*
X120304010Y-97306589D01*
X120192068Y-97576842D01*
X120135000Y-97863740D01*
X120135000Y-98156260D01*
X120192068Y-98443158D01*
X120304010Y-98713411D01*
X120466525Y-98956632D01*
X120673368Y-99163475D01*
X120835000Y-99271474D01*
X120835001Y-100700479D01*
X120770000Y-100797760D01*
X120653475Y-100623368D01*
X120446632Y-100416525D01*
X120203411Y-100254010D01*
X119933158Y-100142068D01*
X119646260Y-100085000D01*
X119353740Y-100085000D01*
X119163082Y-100122925D01*
X118805000Y-99764843D01*
X118805000Y-99271474D01*
X118966632Y-99163475D01*
X119173475Y-98956632D01*
X119335990Y-98713411D01*
X119447932Y-98443158D01*
X119505000Y-98156260D01*
X119505000Y-97863740D01*
X119447932Y-97576842D01*
X119335990Y-97306589D01*
X119173475Y-97063368D01*
X119041620Y-96931513D01*
X119114180Y-96909502D01*
X119224494Y-96850537D01*
X119321185Y-96771185D01*
X119400537Y-96674494D01*
X119459502Y-96564180D01*
X119495812Y-96444482D01*
X119508072Y-96320000D01*
X119505000Y-95755750D01*
X119346250Y-95597000D01*
X118147000Y-95597000D01*
X118147000Y-95617000D01*
X117893000Y-95617000D01*
X117893000Y-95597000D01*
X116693750Y-95597000D01*
X116535000Y-95755750D01*
X116531928Y-96320000D01*
X116544188Y-96444482D01*
X116580498Y-96564180D01*
X116639463Y-96674494D01*
X116718815Y-96771185D01*
X116815506Y-96850537D01*
X116925820Y-96909502D01*
X116998380Y-96931513D01*
X116866525Y-97063368D01*
X116704010Y-97306589D01*
X116592068Y-97576842D01*
X116535000Y-97863740D01*
X116535000Y-98156260D01*
X116592068Y-98443158D01*
X116704010Y-98713411D01*
X116866525Y-98956632D01*
X117073368Y-99163475D01*
X117235001Y-99271474D01*
X117235001Y-99714843D01*
X115867075Y-98346918D01*
X115905000Y-98156260D01*
X115905000Y-97863740D01*
X115847932Y-97576842D01*
X115735990Y-97306589D01*
X115573475Y-97063368D01*
X115441620Y-96931513D01*
X115514180Y-96909502D01*
X115624494Y-96850537D01*
X115721185Y-96771185D01*
X115800537Y-96674494D01*
X115859502Y-96564180D01*
X115895812Y-96444482D01*
X115908072Y-96320000D01*
X115905000Y-95755750D01*
X115746250Y-95597000D01*
X114547000Y-95597000D01*
X114547000Y-95617000D01*
X114293000Y-95617000D01*
X114293000Y-95597000D01*
X113093750Y-95597000D01*
X112935000Y-95755750D01*
X112931928Y-96320000D01*
X112944188Y-96444482D01*
X112980498Y-96564180D01*
X113039463Y-96674494D01*
X113118815Y-96771185D01*
X113215506Y-96850537D01*
X113325820Y-96909502D01*
X113398380Y-96931513D01*
X113266525Y-97063368D01*
X113104010Y-97306589D01*
X112992068Y-97576842D01*
X112935000Y-97863740D01*
X112935000Y-98156260D01*
X112992068Y-98443158D01*
X113104010Y-98713411D01*
X113266525Y-98956632D01*
X113473368Y-99163475D01*
X113716589Y-99325990D01*
X113986842Y-99437932D01*
X114273740Y-99495000D01*
X114566260Y-99495000D01*
X114756918Y-99457075D01*
X115864868Y-100565025D01*
X115806525Y-100623368D01*
X115690000Y-100797760D01*
X115573475Y-100623368D01*
X115366632Y-100416525D01*
X115123411Y-100254010D01*
X114853158Y-100142068D01*
X114566260Y-100085000D01*
X114273740Y-100085000D01*
X113986842Y-100142068D01*
X113716589Y-100254010D01*
X113473368Y-100416525D01*
X113266525Y-100623368D01*
X113104010Y-100866589D01*
X112992068Y-101136842D01*
X112935000Y-101423740D01*
X112935000Y-101716260D01*
X112992068Y-102003158D01*
X113104010Y-102273411D01*
X113266525Y-102516632D01*
X113473368Y-102723475D01*
X113716589Y-102885990D01*
X113986842Y-102997932D01*
X114273740Y-103055000D01*
X114566260Y-103055000D01*
X114756918Y-103017076D01*
X114990059Y-103250216D01*
X115014637Y-103280165D01*
X115044585Y-103304743D01*
X115044588Y-103304746D01*
X115056773Y-103314746D01*
X115134168Y-103378263D01*
X115270541Y-103451155D01*
X115418513Y-103496042D01*
X115432891Y-103497458D01*
X115518586Y-103505899D01*
X114787375Y-104237110D01*
X114757427Y-104261688D01*
X114732849Y-104291636D01*
X114732845Y-104291640D01*
X114712967Y-104315862D01*
X114659329Y-104381219D01*
X114631651Y-104433001D01*
X114586436Y-104517593D01*
X114541549Y-104665566D01*
X114526393Y-104819452D01*
X114530191Y-104858015D01*
X114530189Y-124735000D01*
X114279117Y-124735000D01*
X113943919Y-124801675D01*
X113628169Y-124932463D01*
X113344002Y-125122337D01*
X113102337Y-125364002D01*
X112912463Y-125648169D01*
X112781675Y-125963919D01*
X112715000Y-126299117D01*
X112715000Y-126640883D01*
X112781675Y-126976081D01*
X112912463Y-127291831D01*
X113102337Y-127575998D01*
X113344002Y-127817663D01*
X113628169Y-128007537D01*
X113943919Y-128138325D01*
X114279117Y-128205000D01*
X114620883Y-128205000D01*
X114956081Y-128138325D01*
X115271831Y-128007537D01*
X115555998Y-127817663D01*
X115797663Y-127575998D01*
X115987537Y-127291831D01*
X116092982Y-127037265D01*
X117325716Y-128270000D01*
X114032279Y-128270000D01*
X113740340Y-128241375D01*
X113490571Y-128165965D01*
X113260206Y-128043477D01*
X113058021Y-127878579D01*
X112891712Y-127677546D01*
X112767622Y-127448046D01*
X112690469Y-127198805D01*
X112660000Y-126908911D01*
X112660000Y-94620000D01*
X112931928Y-94620000D01*
X112935000Y-95184250D01*
X113093750Y-95343000D01*
X114293000Y-95343000D01*
X114293000Y-94143750D01*
X114547000Y-94143750D01*
X114547000Y-95343000D01*
X115746250Y-95343000D01*
X115905000Y-95184250D01*
X115908072Y-94620000D01*
X116531928Y-94620000D01*
X116535000Y-95184250D01*
X116693750Y-95343000D01*
X117893000Y-95343000D01*
X117893000Y-94143750D01*
X118147000Y-94143750D01*
X118147000Y-95343000D01*
X119346250Y-95343000D01*
X119505000Y-95184250D01*
X119508072Y-94620000D01*
X120131928Y-94620000D01*
X120135000Y-95184250D01*
X120293750Y-95343000D01*
X121493000Y-95343000D01*
X121493000Y-94143750D01*
X121747000Y-94143750D01*
X121747000Y-95343000D01*
X122946250Y-95343000D01*
X123105000Y-95184250D01*
X123108017Y-94630000D01*
X138311928Y-94630000D01*
X138315000Y-95194250D01*
X138473750Y-95353000D01*
X139673000Y-95353000D01*
X139673000Y-94153750D01*
X139927000Y-94153750D01*
X139927000Y-95353000D01*
X141126250Y-95353000D01*
X141285000Y-95194250D01*
X141288072Y-94630000D01*
X141911928Y-94630000D01*
X141915000Y-95194250D01*
X142073750Y-95353000D01*
X143273000Y-95353000D01*
X143273000Y-94153750D01*
X143527000Y-94153750D01*
X143527000Y-95353000D01*
X144726250Y-95353000D01*
X144885000Y-95194250D01*
X144888072Y-94630000D01*
X145511928Y-94630000D01*
X145515000Y-95194250D01*
X145673750Y-95353000D01*
X146873000Y-95353000D01*
X146873000Y-94153750D01*
X147127000Y-94153750D01*
X147127000Y-95353000D01*
X148326250Y-95353000D01*
X148485000Y-95194250D01*
X148488072Y-94630000D01*
X148475812Y-94505518D01*
X148439502Y-94385820D01*
X148380537Y-94275506D01*
X148301185Y-94178815D01*
X148204494Y-94099463D01*
X148094180Y-94040498D01*
X147974482Y-94004188D01*
X147850000Y-93991928D01*
X147285750Y-93995000D01*
X147127000Y-94153750D01*
X146873000Y-94153750D01*
X146714250Y-93995000D01*
X146150000Y-93991928D01*
X146025518Y-94004188D01*
X145905820Y-94040498D01*
X145795506Y-94099463D01*
X145698815Y-94178815D01*
X145619463Y-94275506D01*
X145560498Y-94385820D01*
X145524188Y-94505518D01*
X145511928Y-94630000D01*
X144888072Y-94630000D01*
X144875812Y-94505518D01*
X144839502Y-94385820D01*
X144780537Y-94275506D01*
X144701185Y-94178815D01*
X144604494Y-94099463D01*
X144494180Y-94040498D01*
X144374482Y-94004188D01*
X144250000Y-93991928D01*
X143685750Y-93995000D01*
X143527000Y-94153750D01*
X143273000Y-94153750D01*
X143114250Y-93995000D01*
X142550000Y-93991928D01*
X142425518Y-94004188D01*
X142305820Y-94040498D01*
X142195506Y-94099463D01*
X142098815Y-94178815D01*
X142019463Y-94275506D01*
X141960498Y-94385820D01*
X141924188Y-94505518D01*
X141911928Y-94630000D01*
X141288072Y-94630000D01*
X141275812Y-94505518D01*
X141239502Y-94385820D01*
X141180537Y-94275506D01*
X141101185Y-94178815D01*
X141004494Y-94099463D01*
X140894180Y-94040498D01*
X140774482Y-94004188D01*
X140650000Y-93991928D01*
X140085750Y-93995000D01*
X139927000Y-94153750D01*
X139673000Y-94153750D01*
X139514250Y-93995000D01*
X138950000Y-93991928D01*
X138825518Y-94004188D01*
X138705820Y-94040498D01*
X138595506Y-94099463D01*
X138498815Y-94178815D01*
X138419463Y-94275506D01*
X138360498Y-94385820D01*
X138324188Y-94505518D01*
X138311928Y-94630000D01*
X123108017Y-94630000D01*
X123108072Y-94620000D01*
X123095812Y-94495518D01*
X123059502Y-94375820D01*
X123000537Y-94265506D01*
X122921185Y-94168815D01*
X122824494Y-94089463D01*
X122714180Y-94030498D01*
X122594482Y-93994188D01*
X122470000Y-93981928D01*
X121905750Y-93985000D01*
X121747000Y-94143750D01*
X121493000Y-94143750D01*
X121334250Y-93985000D01*
X120770000Y-93981928D01*
X120645518Y-93994188D01*
X120525820Y-94030498D01*
X120415506Y-94089463D01*
X120318815Y-94168815D01*
X120239463Y-94265506D01*
X120180498Y-94375820D01*
X120144188Y-94495518D01*
X120131928Y-94620000D01*
X119508072Y-94620000D01*
X119495812Y-94495518D01*
X119459502Y-94375820D01*
X119400537Y-94265506D01*
X119321185Y-94168815D01*
X119224494Y-94089463D01*
X119114180Y-94030498D01*
X118994482Y-93994188D01*
X118870000Y-93981928D01*
X118305750Y-93985000D01*
X118147000Y-94143750D01*
X117893000Y-94143750D01*
X117734250Y-93985000D01*
X117170000Y-93981928D01*
X117045518Y-93994188D01*
X116925820Y-94030498D01*
X116815506Y-94089463D01*
X116718815Y-94168815D01*
X116639463Y-94265506D01*
X116580498Y-94375820D01*
X116544188Y-94495518D01*
X116531928Y-94620000D01*
X115908072Y-94620000D01*
X115895812Y-94495518D01*
X115859502Y-94375820D01*
X115800537Y-94265506D01*
X115721185Y-94168815D01*
X115624494Y-94089463D01*
X115514180Y-94030498D01*
X115394482Y-93994188D01*
X115270000Y-93981928D01*
X114705750Y-93985000D01*
X114547000Y-94143750D01*
X114293000Y-94143750D01*
X114134250Y-93985000D01*
X113570000Y-93981928D01*
X113445518Y-93994188D01*
X113325820Y-94030498D01*
X113215506Y-94089463D01*
X113118815Y-94168815D01*
X113039463Y-94265506D01*
X112980498Y-94375820D01*
X112944188Y-94495518D01*
X112931928Y-94620000D01*
X112660000Y-94620000D01*
X112660000Y-88723740D01*
X112935000Y-88723740D01*
X112935000Y-89016260D01*
X112992068Y-89303158D01*
X113104010Y-89573411D01*
X113266525Y-89816632D01*
X113473368Y-90023475D01*
X113716589Y-90185990D01*
X113986842Y-90297932D01*
X114273740Y-90355000D01*
X114566260Y-90355000D01*
X114853158Y-90297932D01*
X115123411Y-90185990D01*
X115366632Y-90023475D01*
X115573475Y-89816632D01*
X115695195Y-89634466D01*
X115764822Y-89751355D01*
X115959731Y-89967588D01*
X116193080Y-90141641D01*
X116455901Y-90266825D01*
X116603110Y-90311476D01*
X116833000Y-90190155D01*
X116833000Y-88997000D01*
X116813000Y-88997000D01*
X116813000Y-88743000D01*
X116833000Y-88743000D01*
X116833000Y-88723000D01*
X117087000Y-88723000D01*
X117087000Y-88743000D01*
X117107000Y-88743000D01*
X117107000Y-88997000D01*
X117087000Y-88997000D01*
X117087000Y-90190155D01*
X117316890Y-90311476D01*
X117464099Y-90266825D01*
X117726920Y-90141641D01*
X117960269Y-89967588D01*
X118155178Y-89751355D01*
X118224805Y-89634466D01*
X118346525Y-89816632D01*
X118553368Y-90023475D01*
X118796589Y-90185990D01*
X119066842Y-90297932D01*
X119353740Y-90355000D01*
X119646260Y-90355000D01*
X119933158Y-90297932D01*
X120203411Y-90185990D01*
X120446632Y-90023475D01*
X120653475Y-89816632D01*
X120770000Y-89642240D01*
X120886525Y-89816632D01*
X121093368Y-90023475D01*
X121336589Y-90185990D01*
X121606842Y-90297932D01*
X121893740Y-90355000D01*
X122186260Y-90355000D01*
X122473158Y-90297932D01*
X122743411Y-90185990D01*
X122986632Y-90023475D01*
X123193475Y-89816632D01*
X123310000Y-89642240D01*
X123426525Y-89816632D01*
X123633368Y-90023475D01*
X123876589Y-90185990D01*
X124146842Y-90297932D01*
X124433740Y-90355000D01*
X124726260Y-90355000D01*
X125013158Y-90297932D01*
X125283411Y-90185990D01*
X125526632Y-90023475D01*
X125733475Y-89816632D01*
X125850000Y-89642240D01*
X125966525Y-89816632D01*
X126173368Y-90023475D01*
X126416589Y-90185990D01*
X126686842Y-90297932D01*
X126973740Y-90355000D01*
X127266260Y-90355000D01*
X127553158Y-90297932D01*
X127823411Y-90185990D01*
X128066632Y-90023475D01*
X128273475Y-89816632D01*
X128390000Y-89642240D01*
X128506525Y-89816632D01*
X128713368Y-90023475D01*
X128956589Y-90185990D01*
X129226842Y-90297932D01*
X129513740Y-90355000D01*
X129806260Y-90355000D01*
X130093158Y-90297932D01*
X130363411Y-90185990D01*
X130606632Y-90023475D01*
X130738487Y-89891620D01*
X130760498Y-89964180D01*
X130819463Y-90074494D01*
X130898815Y-90171185D01*
X130995506Y-90250537D01*
X131105820Y-90309502D01*
X131225518Y-90345812D01*
X131350000Y-90358072D01*
X131914250Y-90355000D01*
X132073000Y-90196250D01*
X132073000Y-88997000D01*
X132327000Y-88997000D01*
X132327000Y-90196250D01*
X132485750Y-90355000D01*
X133050000Y-90358072D01*
X133174482Y-90345812D01*
X133294180Y-90309502D01*
X133404494Y-90250537D01*
X133501185Y-90171185D01*
X133580537Y-90074494D01*
X133639502Y-89964180D01*
X133675812Y-89844482D01*
X133688072Y-89720000D01*
X133685000Y-89155750D01*
X133526250Y-88997000D01*
X132327000Y-88997000D01*
X132073000Y-88997000D01*
X132053000Y-88997000D01*
X132053000Y-88743000D01*
X132073000Y-88743000D01*
X132073000Y-87543750D01*
X132327000Y-87543750D01*
X132327000Y-88743000D01*
X133526250Y-88743000D01*
X133685000Y-88584250D01*
X133688072Y-88020000D01*
X133675812Y-87895518D01*
X133639502Y-87775820D01*
X133580537Y-87665506D01*
X133501185Y-87568815D01*
X133404494Y-87489463D01*
X133294180Y-87430498D01*
X133174482Y-87394188D01*
X133050000Y-87381928D01*
X132485750Y-87385000D01*
X132327000Y-87543750D01*
X132073000Y-87543750D01*
X131914250Y-87385000D01*
X131350000Y-87381928D01*
X131225518Y-87394188D01*
X131105820Y-87430498D01*
X130995506Y-87489463D01*
X130898815Y-87568815D01*
X130819463Y-87665506D01*
X130760498Y-87775820D01*
X130738487Y-87848380D01*
X130606632Y-87716525D01*
X130363411Y-87554010D01*
X130093158Y-87442068D01*
X129806260Y-87385000D01*
X129513740Y-87385000D01*
X129226842Y-87442068D01*
X128956589Y-87554010D01*
X128713368Y-87716525D01*
X128506525Y-87923368D01*
X128390000Y-88097760D01*
X128273475Y-87923368D01*
X128066632Y-87716525D01*
X127823411Y-87554010D01*
X127553158Y-87442068D01*
X127266260Y-87385000D01*
X126973740Y-87385000D01*
X126783082Y-87422925D01*
X125390157Y-86030000D01*
X129491928Y-86030000D01*
X129504188Y-86154482D01*
X129540498Y-86274180D01*
X129599463Y-86384494D01*
X129678815Y-86481185D01*
X129775506Y-86560537D01*
X129885820Y-86619502D01*
X130005518Y-86655812D01*
X130130000Y-86668072D01*
X130644250Y-86665000D01*
X130803000Y-86506250D01*
X130803000Y-85357000D01*
X131057000Y-85357000D01*
X131057000Y-86506250D01*
X131215750Y-86665000D01*
X131730000Y-86668072D01*
X131854482Y-86655812D01*
X131974180Y-86619502D01*
X132084494Y-86560537D01*
X132181185Y-86481185D01*
X132260537Y-86384494D01*
X132319502Y-86274180D01*
X132355812Y-86154482D01*
X132368072Y-86030000D01*
X132365000Y-85515750D01*
X132206250Y-85357000D01*
X131057000Y-85357000D01*
X130803000Y-85357000D01*
X129653750Y-85357000D01*
X129495000Y-85515750D01*
X129491928Y-86030000D01*
X125390157Y-86030000D01*
X124533897Y-85173740D01*
X138285000Y-85173740D01*
X138285000Y-85466260D01*
X138342068Y-85753158D01*
X138454010Y-86023411D01*
X138616525Y-86266632D01*
X138823368Y-86473475D01*
X139066589Y-86635990D01*
X139336842Y-86747932D01*
X139623740Y-86805000D01*
X139916260Y-86805000D01*
X140106918Y-86767076D01*
X140340059Y-87000216D01*
X140364637Y-87030165D01*
X140394585Y-87054743D01*
X140394588Y-87054746D01*
X140423244Y-87078263D01*
X140484168Y-87128263D01*
X140620541Y-87201155D01*
X140768513Y-87246042D01*
X140782891Y-87247458D01*
X140883840Y-87257401D01*
X140883847Y-87257401D01*
X140922400Y-87261198D01*
X140960953Y-87257401D01*
X142147244Y-87257401D01*
X142284843Y-87395000D01*
X142212998Y-87395000D01*
X142212998Y-87559844D01*
X141983110Y-87438524D01*
X141835901Y-87483175D01*
X141573080Y-87608359D01*
X141339731Y-87782412D01*
X141144822Y-87998645D01*
X141075195Y-88115534D01*
X140953475Y-87933368D01*
X140746632Y-87726525D01*
X140503411Y-87564010D01*
X140233158Y-87452068D01*
X139946260Y-87395000D01*
X139653740Y-87395000D01*
X139366842Y-87452068D01*
X139096589Y-87564010D01*
X138853368Y-87726525D01*
X138646525Y-87933368D01*
X138484010Y-88176589D01*
X138372068Y-88446842D01*
X138315000Y-88733740D01*
X138315000Y-89026260D01*
X138372068Y-89313158D01*
X138484010Y-89583411D01*
X138646525Y-89826632D01*
X138853368Y-90033475D01*
X139096589Y-90195990D01*
X139366842Y-90307932D01*
X139653740Y-90365000D01*
X139946260Y-90365000D01*
X140233158Y-90307932D01*
X140503411Y-90195990D01*
X140746632Y-90033475D01*
X140953475Y-89826632D01*
X141075195Y-89644466D01*
X141144822Y-89761355D01*
X141339731Y-89977588D01*
X141573080Y-90151641D01*
X141835901Y-90276825D01*
X141983110Y-90321476D01*
X142213000Y-90200155D01*
X142213000Y-89007000D01*
X142193000Y-89007000D01*
X142193000Y-88753000D01*
X142213000Y-88753000D01*
X142213000Y-88733000D01*
X142467000Y-88733000D01*
X142467000Y-88753000D01*
X142487000Y-88753000D01*
X142487000Y-89007000D01*
X142467000Y-89007000D01*
X142467000Y-90200155D01*
X142696890Y-90321476D01*
X142844099Y-90276825D01*
X143106920Y-90151641D01*
X143340269Y-89977588D01*
X143535178Y-89761355D01*
X143604805Y-89644466D01*
X143726525Y-89826632D01*
X143933368Y-90033475D01*
X144176589Y-90195990D01*
X144446842Y-90307932D01*
X144733740Y-90365000D01*
X145026260Y-90365000D01*
X145313158Y-90307932D01*
X145583411Y-90195990D01*
X145826632Y-90033475D01*
X146033475Y-89826632D01*
X146150000Y-89652240D01*
X146266525Y-89826632D01*
X146473368Y-90033475D01*
X146716589Y-90195990D01*
X146986842Y-90307932D01*
X147273740Y-90365000D01*
X147566260Y-90365000D01*
X147853158Y-90307932D01*
X148123411Y-90195990D01*
X148366632Y-90033475D01*
X148573475Y-89826632D01*
X148690000Y-89652240D01*
X148806525Y-89826632D01*
X149013368Y-90033475D01*
X149256589Y-90195990D01*
X149526842Y-90307932D01*
X149813740Y-90365000D01*
X150106260Y-90365000D01*
X150393158Y-90307932D01*
X150663411Y-90195990D01*
X150906632Y-90033475D01*
X151113475Y-89826632D01*
X151230000Y-89652240D01*
X151346525Y-89826632D01*
X151553368Y-90033475D01*
X151796589Y-90195990D01*
X152066842Y-90307932D01*
X152353740Y-90365000D01*
X152646260Y-90365000D01*
X152933158Y-90307932D01*
X153203411Y-90195990D01*
X153446632Y-90033475D01*
X153653475Y-89826632D01*
X153770000Y-89652240D01*
X153886525Y-89826632D01*
X154093368Y-90033475D01*
X154336589Y-90195990D01*
X154606842Y-90307932D01*
X154893740Y-90365000D01*
X155186260Y-90365000D01*
X155473158Y-90307932D01*
X155743411Y-90195990D01*
X155986632Y-90033475D01*
X156118487Y-89901620D01*
X156140498Y-89974180D01*
X156199463Y-90084494D01*
X156278815Y-90181185D01*
X156375506Y-90260537D01*
X156485820Y-90319502D01*
X156605518Y-90355812D01*
X156730000Y-90368072D01*
X157294250Y-90365000D01*
X157453000Y-90206250D01*
X157453000Y-89007000D01*
X157433000Y-89007000D01*
X157433000Y-88753000D01*
X157453000Y-88753000D01*
X157453000Y-87553750D01*
X157707000Y-87553750D01*
X157707000Y-88753000D01*
X158906250Y-88753000D01*
X159065000Y-88594250D01*
X159068072Y-88030000D01*
X159055812Y-87905518D01*
X159019502Y-87785820D01*
X158960537Y-87675506D01*
X158881185Y-87578815D01*
X158784494Y-87499463D01*
X158674180Y-87440498D01*
X158554482Y-87404188D01*
X158430000Y-87391928D01*
X157865750Y-87395000D01*
X157707000Y-87553750D01*
X157453000Y-87553750D01*
X157294250Y-87395000D01*
X156730000Y-87391928D01*
X156605518Y-87404188D01*
X156485820Y-87440498D01*
X156375506Y-87499463D01*
X156278815Y-87578815D01*
X156199463Y-87675506D01*
X156140498Y-87785820D01*
X156118487Y-87858380D01*
X155986632Y-87726525D01*
X155743411Y-87564010D01*
X155473158Y-87452068D01*
X155186260Y-87395000D01*
X154893740Y-87395000D01*
X154606842Y-87452068D01*
X154336589Y-87564010D01*
X154093368Y-87726525D01*
X153886525Y-87933368D01*
X153770000Y-88107760D01*
X153653475Y-87933368D01*
X153446632Y-87726525D01*
X153203411Y-87564010D01*
X152933158Y-87452068D01*
X152646260Y-87395000D01*
X152353740Y-87395000D01*
X152163082Y-87432924D01*
X150760158Y-86030000D01*
X154871928Y-86030000D01*
X154884188Y-86154482D01*
X154920498Y-86274180D01*
X154979463Y-86384494D01*
X155058815Y-86481185D01*
X155155506Y-86560537D01*
X155265820Y-86619502D01*
X155385518Y-86655812D01*
X155510000Y-86668072D01*
X156024250Y-86665000D01*
X156183000Y-86506250D01*
X156183000Y-85357000D01*
X156437000Y-85357000D01*
X156437000Y-86506250D01*
X156595750Y-86665000D01*
X157110000Y-86668072D01*
X157234482Y-86655812D01*
X157354180Y-86619502D01*
X157464494Y-86560537D01*
X157561185Y-86481185D01*
X157640537Y-86384494D01*
X157699502Y-86274180D01*
X157735812Y-86154482D01*
X157748072Y-86030000D01*
X157745000Y-85515750D01*
X157586250Y-85357000D01*
X156437000Y-85357000D01*
X156183000Y-85357000D01*
X155033750Y-85357000D01*
X154875000Y-85515750D01*
X154871928Y-86030000D01*
X150760158Y-86030000D01*
X149522347Y-84792190D01*
X149497764Y-84762236D01*
X149378233Y-84664138D01*
X149241860Y-84591246D01*
X149093887Y-84546359D01*
X148978561Y-84535000D01*
X148978553Y-84535000D01*
X148940000Y-84531203D01*
X148901447Y-84535000D01*
X148878072Y-84535000D01*
X148878072Y-84470000D01*
X148874133Y-84430000D01*
X154871928Y-84430000D01*
X154875000Y-84944250D01*
X155033750Y-85103000D01*
X156183000Y-85103000D01*
X156183000Y-85083000D01*
X156437000Y-85083000D01*
X156437000Y-85103000D01*
X157586250Y-85103000D01*
X157745000Y-84944250D01*
X157748072Y-84430000D01*
X157735812Y-84305518D01*
X157699502Y-84185820D01*
X157640537Y-84075506D01*
X157561185Y-83978815D01*
X157464494Y-83899463D01*
X157354180Y-83840498D01*
X157258057Y-83811339D01*
X157424637Y-83644759D01*
X157581680Y-83409727D01*
X157689853Y-83148574D01*
X157745000Y-82871335D01*
X157745000Y-82588665D01*
X157689853Y-82311426D01*
X157581680Y-82050273D01*
X157424637Y-81815241D01*
X157224759Y-81615363D01*
X156989727Y-81458320D01*
X156728574Y-81350147D01*
X156451335Y-81295000D01*
X156168665Y-81295000D01*
X155891426Y-81350147D01*
X155630273Y-81458320D01*
X155395241Y-81615363D01*
X155195363Y-81815241D01*
X155038320Y-82050273D01*
X154930147Y-82311426D01*
X154875000Y-82588665D01*
X154875000Y-82871335D01*
X154930147Y-83148574D01*
X155038320Y-83409727D01*
X155195363Y-83644759D01*
X155361943Y-83811339D01*
X155265820Y-83840498D01*
X155155506Y-83899463D01*
X155058815Y-83978815D01*
X154979463Y-84075506D01*
X154920498Y-84185820D01*
X154884188Y-84305518D01*
X154871928Y-84430000D01*
X148874133Y-84430000D01*
X148865812Y-84345518D01*
X148829502Y-84225820D01*
X148770537Y-84115506D01*
X148691185Y-84018815D01*
X148594494Y-83939463D01*
X148484180Y-83880498D01*
X148364482Y-83844188D01*
X148240000Y-83831928D01*
X146540000Y-83831928D01*
X146415518Y-83844188D01*
X146295820Y-83880498D01*
X146185506Y-83939463D01*
X146088815Y-84018815D01*
X146009463Y-84115506D01*
X145950498Y-84225820D01*
X145928487Y-84298380D01*
X145796632Y-84166525D01*
X145553411Y-84004010D01*
X145283158Y-83892068D01*
X144996260Y-83835000D01*
X144703740Y-83835000D01*
X144416842Y-83892068D01*
X144146589Y-84004010D01*
X143903368Y-84166525D01*
X143696525Y-84373368D01*
X143580000Y-84547760D01*
X143463475Y-84373368D01*
X143256632Y-84166525D01*
X143013411Y-84004010D01*
X142743158Y-83892068D01*
X142456260Y-83835000D01*
X142163740Y-83835000D01*
X141876842Y-83892068D01*
X141606589Y-84004010D01*
X141363368Y-84166525D01*
X141156525Y-84373368D01*
X141040000Y-84547760D01*
X140923475Y-84373368D01*
X140716632Y-84166525D01*
X140473411Y-84004010D01*
X140203158Y-83892068D01*
X139916260Y-83835000D01*
X139623740Y-83835000D01*
X139336842Y-83892068D01*
X139066589Y-84004010D01*
X138823368Y-84166525D01*
X138616525Y-84373368D01*
X138454010Y-84616589D01*
X138342068Y-84886842D01*
X138285000Y-85173740D01*
X124533897Y-85173740D01*
X124102347Y-84742190D01*
X124077764Y-84712236D01*
X123958233Y-84614138D01*
X123821860Y-84541246D01*
X123673887Y-84496359D01*
X123558561Y-84485000D01*
X123558553Y-84485000D01*
X123538072Y-84482983D01*
X123538072Y-84430000D01*
X129491928Y-84430000D01*
X129495000Y-84944250D01*
X129653750Y-85103000D01*
X130803000Y-85103000D01*
X130803000Y-85083000D01*
X131057000Y-85083000D01*
X131057000Y-85103000D01*
X132206250Y-85103000D01*
X132365000Y-84944250D01*
X132368072Y-84430000D01*
X132355812Y-84305518D01*
X132319502Y-84185820D01*
X132260537Y-84075506D01*
X132181185Y-83978815D01*
X132084494Y-83899463D01*
X131974180Y-83840498D01*
X131878057Y-83811339D01*
X132044637Y-83644759D01*
X132201680Y-83409727D01*
X132309853Y-83148574D01*
X132365000Y-82871335D01*
X132365000Y-82588665D01*
X132309853Y-82311426D01*
X132201680Y-82050273D01*
X132044637Y-81815241D01*
X131844759Y-81615363D01*
X131609727Y-81458320D01*
X131348574Y-81350147D01*
X131071335Y-81295000D01*
X130788665Y-81295000D01*
X130511426Y-81350147D01*
X130250273Y-81458320D01*
X130015241Y-81615363D01*
X129815363Y-81815241D01*
X129658320Y-82050273D01*
X129550147Y-82311426D01*
X129495000Y-82588665D01*
X129495000Y-82871335D01*
X129550147Y-83148574D01*
X129554537Y-83159172D01*
X129548309Y-83222410D01*
X129565395Y-83395900D01*
X129616002Y-83562723D01*
X129698180Y-83716469D01*
X129808773Y-83851227D01*
X129831245Y-83869669D01*
X129775506Y-83899463D01*
X129678815Y-83978815D01*
X129599463Y-84075506D01*
X129540498Y-84185820D01*
X129504188Y-84305518D01*
X129491928Y-84430000D01*
X123538072Y-84430000D01*
X123538072Y-84420000D01*
X123525812Y-84295518D01*
X123489502Y-84175820D01*
X123430537Y-84065506D01*
X123351185Y-83968815D01*
X123254494Y-83889463D01*
X123144180Y-83830498D01*
X123024482Y-83794188D01*
X122900000Y-83781928D01*
X121200000Y-83781928D01*
X121075518Y-83794188D01*
X120955820Y-83830498D01*
X120845506Y-83889463D01*
X120748815Y-83968815D01*
X120669463Y-84065506D01*
X120610498Y-84175820D01*
X120588487Y-84248380D01*
X120456632Y-84116525D01*
X120213411Y-83954010D01*
X119943158Y-83842068D01*
X119656260Y-83785000D01*
X119363740Y-83785000D01*
X119076842Y-83842068D01*
X118806589Y-83954010D01*
X118563368Y-84116525D01*
X118356525Y-84323368D01*
X118240000Y-84497760D01*
X118123475Y-84323368D01*
X117916632Y-84116525D01*
X117673411Y-83954010D01*
X117403158Y-83842068D01*
X117116260Y-83785000D01*
X116823740Y-83785000D01*
X116536842Y-83842068D01*
X116266589Y-83954010D01*
X116023368Y-84116525D01*
X115816525Y-84323368D01*
X115700000Y-84497760D01*
X115583475Y-84323368D01*
X115376632Y-84116525D01*
X115133411Y-83954010D01*
X114863158Y-83842068D01*
X114576260Y-83785000D01*
X114283740Y-83785000D01*
X113996842Y-83842068D01*
X113726589Y-83954010D01*
X113483368Y-84116525D01*
X113276525Y-84323368D01*
X113114010Y-84566589D01*
X113002068Y-84836842D01*
X112945000Y-85123740D01*
X112945000Y-85416260D01*
X113002068Y-85703158D01*
X113114010Y-85973411D01*
X113276525Y-86216632D01*
X113483368Y-86423475D01*
X113726589Y-86585990D01*
X113996842Y-86697932D01*
X114283740Y-86755000D01*
X114576260Y-86755000D01*
X114766918Y-86717076D01*
X115000059Y-86950216D01*
X115024637Y-86980165D01*
X115054585Y-87004743D01*
X115054588Y-87004746D01*
X115083960Y-87028851D01*
X115144168Y-87078263D01*
X115237711Y-87128262D01*
X115280541Y-87151155D01*
X115428513Y-87196042D01*
X115442891Y-87197458D01*
X115543840Y-87207401D01*
X115543847Y-87207401D01*
X115582400Y-87211198D01*
X115620953Y-87207401D01*
X116727244Y-87207401D01*
X116904843Y-87385000D01*
X116832998Y-87385000D01*
X116832998Y-87549844D01*
X116603110Y-87428524D01*
X116455901Y-87473175D01*
X116193080Y-87598359D01*
X115959731Y-87772412D01*
X115764822Y-87988645D01*
X115695195Y-88105534D01*
X115573475Y-87923368D01*
X115366632Y-87716525D01*
X115123411Y-87554010D01*
X114853158Y-87442068D01*
X114566260Y-87385000D01*
X114273740Y-87385000D01*
X113986842Y-87442068D01*
X113760934Y-87535642D01*
X113746312Y-87537082D01*
X113588914Y-87584828D01*
X113443855Y-87662364D01*
X113316710Y-87766710D01*
X113212364Y-87893855D01*
X113134828Y-88038914D01*
X113087082Y-88196312D01*
X113085642Y-88210934D01*
X112992068Y-88436842D01*
X112935000Y-88723740D01*
X112660000Y-88723740D01*
X112660000Y-82820000D01*
X121851928Y-82820000D01*
X121864188Y-82944482D01*
X121900498Y-83064180D01*
X121959463Y-83174494D01*
X122038815Y-83271185D01*
X122135506Y-83350537D01*
X122245820Y-83409502D01*
X122365518Y-83445812D01*
X122490000Y-83458072D01*
X123954250Y-83455000D01*
X124113000Y-83296250D01*
X124113000Y-81197000D01*
X124367000Y-81197000D01*
X124367000Y-83296250D01*
X124525750Y-83455000D01*
X125990000Y-83458072D01*
X126114482Y-83445812D01*
X126234180Y-83409502D01*
X126344494Y-83350537D01*
X126441185Y-83271185D01*
X126520537Y-83174494D01*
X126579502Y-83064180D01*
X126615812Y-82944482D01*
X126628072Y-82820000D01*
X126625000Y-81355750D01*
X126466250Y-81197000D01*
X124367000Y-81197000D01*
X124113000Y-81197000D01*
X122013750Y-81197000D01*
X121855000Y-81355750D01*
X121851928Y-82820000D01*
X112660000Y-82820000D01*
X112660000Y-78120000D01*
X119101928Y-78120000D01*
X119114188Y-78244482D01*
X119150498Y-78364180D01*
X119209463Y-78474494D01*
X119288815Y-78571185D01*
X119385506Y-78650537D01*
X119495820Y-78709502D01*
X119615518Y-78745812D01*
X119740000Y-78758072D01*
X120954250Y-78755000D01*
X121113000Y-78596250D01*
X121113000Y-76497000D01*
X121367000Y-76497000D01*
X121367000Y-78596250D01*
X121525750Y-78755000D01*
X122196805Y-78756698D01*
X122135506Y-78789463D01*
X122038815Y-78868815D01*
X121959463Y-78965506D01*
X121900498Y-79075820D01*
X121864188Y-79195518D01*
X121851928Y-79320000D01*
X121855000Y-80784250D01*
X122013750Y-80943000D01*
X124113000Y-80943000D01*
X124113000Y-78843750D01*
X124367000Y-78843750D01*
X124367000Y-80943000D01*
X126466250Y-80943000D01*
X126625000Y-80784250D01*
X126628072Y-79320000D01*
X126615812Y-79195518D01*
X126579502Y-79075820D01*
X126520537Y-78965506D01*
X126441185Y-78868815D01*
X126344494Y-78789463D01*
X126285767Y-78758072D01*
X128990000Y-78758072D01*
X129114482Y-78745812D01*
X129234180Y-78709502D01*
X129344494Y-78650537D01*
X129441185Y-78571185D01*
X129520537Y-78474494D01*
X129579502Y-78364180D01*
X129615812Y-78244482D01*
X129628072Y-78120000D01*
X129628072Y-74620000D01*
X129615812Y-74495518D01*
X129579502Y-74375820D01*
X129520537Y-74265506D01*
X129441185Y-74168815D01*
X129344494Y-74089463D01*
X129234180Y-74030498D01*
X129114482Y-73994188D01*
X128990000Y-73981928D01*
X125490000Y-73981928D01*
X125365518Y-73994188D01*
X125245820Y-74030498D01*
X125135506Y-74089463D01*
X125038815Y-74168815D01*
X124959463Y-74265506D01*
X124900498Y-74375820D01*
X124864188Y-74495518D01*
X124851928Y-74620000D01*
X124851928Y-78120000D01*
X124864188Y-78244482D01*
X124900498Y-78364180D01*
X124959463Y-78474494D01*
X125038815Y-78571185D01*
X125135506Y-78650537D01*
X125197345Y-78683591D01*
X124525750Y-78685000D01*
X124367000Y-78843750D01*
X124113000Y-78843750D01*
X123954250Y-78685000D01*
X123033633Y-78683069D01*
X123094494Y-78650537D01*
X123191185Y-78571185D01*
X123270537Y-78474494D01*
X123329502Y-78364180D01*
X123365812Y-78244482D01*
X123378072Y-78120000D01*
X123375000Y-76655750D01*
X123216250Y-76497000D01*
X121367000Y-76497000D01*
X121113000Y-76497000D01*
X119263750Y-76497000D01*
X119105000Y-76655750D01*
X119101928Y-78120000D01*
X112660000Y-78120000D01*
X112660000Y-74620000D01*
X119101928Y-74620000D01*
X119105000Y-76084250D01*
X119263750Y-76243000D01*
X121113000Y-76243000D01*
X121113000Y-74143750D01*
X121367000Y-74143750D01*
X121367000Y-76243000D01*
X123216250Y-76243000D01*
X123375000Y-76084250D01*
X123378072Y-74620000D01*
X123365812Y-74495518D01*
X123329502Y-74375820D01*
X123270537Y-74265506D01*
X123191185Y-74168815D01*
X123094494Y-74089463D01*
X122984180Y-74030498D01*
X122864482Y-73994188D01*
X122740000Y-73981928D01*
X121525750Y-73985000D01*
X121367000Y-74143750D01*
X121113000Y-74143750D01*
X120954250Y-73985000D01*
X119740000Y-73981928D01*
X119615518Y-73994188D01*
X119495820Y-74030498D01*
X119385506Y-74089463D01*
X119288815Y-74168815D01*
X119209463Y-74265506D01*
X119150498Y-74375820D01*
X119114188Y-74495518D01*
X119101928Y-74620000D01*
X112660000Y-74620000D01*
X112660000Y-73032279D01*
X112673950Y-72890000D01*
X131616928Y-72890000D01*
X131616928Y-74890000D01*
X131629188Y-75014482D01*
X131665498Y-75134180D01*
X131724463Y-75244494D01*
X131803815Y-75341185D01*
X131900506Y-75420537D01*
X132010820Y-75479502D01*
X132130518Y-75515812D01*
X132255000Y-75528072D01*
X134255000Y-75528072D01*
X134379482Y-75515812D01*
X134499180Y-75479502D01*
X134609494Y-75420537D01*
X134706185Y-75341185D01*
X134785537Y-75244494D01*
X134844502Y-75134180D01*
X134860037Y-75082967D01*
X134934956Y-75289814D01*
X135224571Y-75430704D01*
X135536108Y-75512384D01*
X135857595Y-75531718D01*
X136176675Y-75487961D01*
X136481088Y-75382795D01*
X136655044Y-75289814D01*
X136750808Y-75025413D01*
X135795000Y-74069605D01*
X135780858Y-74083748D01*
X135601253Y-73904143D01*
X135615395Y-73890000D01*
X135974605Y-73890000D01*
X136930413Y-74845808D01*
X136992280Y-74823400D01*
X137065013Y-74932252D01*
X137292748Y-75159987D01*
X137560537Y-75338918D01*
X137858088Y-75462168D01*
X138173967Y-75525000D01*
X138496033Y-75525000D01*
X138811912Y-75462168D01*
X139109463Y-75338918D01*
X139377252Y-75159987D01*
X139604987Y-74932252D01*
X139783918Y-74664463D01*
X139907168Y-74366912D01*
X139958536Y-74108665D01*
X142240000Y-74108665D01*
X142240000Y-74391335D01*
X142295147Y-74668574D01*
X142403320Y-74929727D01*
X142560363Y-75164759D01*
X142760241Y-75364637D01*
X142995273Y-75521680D01*
X143256426Y-75629853D01*
X143533665Y-75685000D01*
X143816335Y-75685000D01*
X144093574Y-75629853D01*
X144354727Y-75521680D01*
X144589759Y-75364637D01*
X144756339Y-75198057D01*
X144785498Y-75294180D01*
X144844463Y-75404494D01*
X144923815Y-75501185D01*
X145020506Y-75580537D01*
X145130820Y-75639502D01*
X145250518Y-75675812D01*
X145375000Y-75688072D01*
X146975000Y-75688072D01*
X147099482Y-75675812D01*
X147219180Y-75639502D01*
X147329494Y-75580537D01*
X147426185Y-75501185D01*
X147505537Y-75404494D01*
X147564502Y-75294180D01*
X147600812Y-75174482D01*
X147613072Y-75050000D01*
X147613072Y-73450000D01*
X147608641Y-73405000D01*
X148676928Y-73405000D01*
X148676928Y-75435000D01*
X148689188Y-75559482D01*
X148725498Y-75679180D01*
X148784463Y-75789494D01*
X148863815Y-75886185D01*
X148960506Y-75965537D01*
X149070820Y-76024502D01*
X149190518Y-76060812D01*
X149315000Y-76073072D01*
X151045000Y-76073072D01*
X151169482Y-76060812D01*
X151289180Y-76024502D01*
X151399494Y-75965537D01*
X151496185Y-75886185D01*
X151575537Y-75789494D01*
X151634502Y-75679180D01*
X151649430Y-75629970D01*
X151654208Y-75635792D01*
X151882614Y-75823238D01*
X152143199Y-75962524D01*
X152425950Y-76048295D01*
X152720000Y-76077257D01*
X153014051Y-76048295D01*
X153296802Y-75962524D01*
X153557387Y-75823238D01*
X153785792Y-75635792D01*
X153973238Y-75407387D01*
X153993598Y-75369296D01*
X154142190Y-75571972D01*
X154359143Y-75770793D01*
X154610716Y-75923469D01*
X154887241Y-76024131D01*
X154900754Y-76026346D01*
X155133000Y-75905224D01*
X155133000Y-74547000D01*
X155387000Y-74547000D01*
X155387000Y-75905224D01*
X155619246Y-76026346D01*
X155632759Y-76024131D01*
X155909284Y-75923469D01*
X156160857Y-75770793D01*
X156377810Y-75571972D01*
X156551807Y-75334645D01*
X156676160Y-75067934D01*
X156746091Y-74782087D01*
X156602222Y-74547000D01*
X155387000Y-74547000D01*
X155133000Y-74547000D01*
X155113000Y-74547000D01*
X155113000Y-74293000D01*
X155133000Y-74293000D01*
X155133000Y-72934776D01*
X155387000Y-72934776D01*
X155387000Y-74293000D01*
X156602222Y-74293000D01*
X156746091Y-74057913D01*
X156676160Y-73772066D01*
X156551807Y-73505355D01*
X156400603Y-73299117D01*
X162711000Y-73299117D01*
X162711000Y-73640883D01*
X162777675Y-73976081D01*
X162908463Y-74291831D01*
X163098337Y-74575998D01*
X163340002Y-74817663D01*
X163624169Y-75007537D01*
X163939919Y-75138325D01*
X164275117Y-75205000D01*
X164616883Y-75205000D01*
X164952081Y-75138325D01*
X165267831Y-75007537D01*
X165551998Y-74817663D01*
X165793663Y-74575998D01*
X165983537Y-74291831D01*
X166114325Y-73976081D01*
X166181000Y-73640883D01*
X166181000Y-73299117D01*
X166114325Y-72963919D01*
X165983537Y-72648169D01*
X165793663Y-72364002D01*
X165551998Y-72122337D01*
X165267831Y-71932463D01*
X164952081Y-71801675D01*
X164616883Y-71735000D01*
X164275117Y-71735000D01*
X163939919Y-71801675D01*
X163624169Y-71932463D01*
X163340002Y-72122337D01*
X163098337Y-72364002D01*
X162908463Y-72648169D01*
X162777675Y-72963919D01*
X162711000Y-73299117D01*
X156400603Y-73299117D01*
X156377810Y-73268028D01*
X156160857Y-73069207D01*
X155909284Y-72916531D01*
X155632759Y-72815869D01*
X155619246Y-72813654D01*
X155387000Y-72934776D01*
X155133000Y-72934776D01*
X154900754Y-72813654D01*
X154887241Y-72815869D01*
X154610716Y-72916531D01*
X154359143Y-73069207D01*
X154142190Y-73268028D01*
X153993598Y-73470703D01*
X153973238Y-73432613D01*
X153785792Y-73204208D01*
X153557386Y-73016762D01*
X153296801Y-72877476D01*
X153014050Y-72791705D01*
X152720000Y-72762743D01*
X152425949Y-72791705D01*
X152143198Y-72877476D01*
X151882613Y-73016762D01*
X151654208Y-73204208D01*
X151649430Y-73210030D01*
X151634502Y-73160820D01*
X151575537Y-73050506D01*
X151496185Y-72953815D01*
X151399494Y-72874463D01*
X151289180Y-72815498D01*
X151169482Y-72779188D01*
X151045000Y-72766928D01*
X149315000Y-72766928D01*
X149190518Y-72779188D01*
X149070820Y-72815498D01*
X148960506Y-72874463D01*
X148863815Y-72953815D01*
X148784463Y-73050506D01*
X148725498Y-73160820D01*
X148689188Y-73280518D01*
X148676928Y-73405000D01*
X147608641Y-73405000D01*
X147600812Y-73325518D01*
X147564502Y-73205820D01*
X147505537Y-73095506D01*
X147426185Y-72998815D01*
X147329494Y-72919463D01*
X147219180Y-72860498D01*
X147099482Y-72824188D01*
X146975000Y-72811928D01*
X145375000Y-72811928D01*
X145250518Y-72824188D01*
X145130820Y-72860498D01*
X145020506Y-72919463D01*
X144923815Y-72998815D01*
X144844463Y-73095506D01*
X144785498Y-73205820D01*
X144756339Y-73301943D01*
X144589759Y-73135363D01*
X144354727Y-72978320D01*
X144093574Y-72870147D01*
X143816335Y-72815000D01*
X143533665Y-72815000D01*
X143256426Y-72870147D01*
X142995273Y-72978320D01*
X142760241Y-73135363D01*
X142560363Y-73335241D01*
X142403320Y-73570273D01*
X142295147Y-73831426D01*
X142240000Y-74108665D01*
X139958536Y-74108665D01*
X139970000Y-74051033D01*
X139970000Y-73728967D01*
X139907168Y-73413088D01*
X139783918Y-73115537D01*
X139604987Y-72847748D01*
X139377252Y-72620013D01*
X139109463Y-72441082D01*
X138811912Y-72317832D01*
X138496033Y-72255000D01*
X138173967Y-72255000D01*
X137858088Y-72317832D01*
X137560537Y-72441082D01*
X137292748Y-72620013D01*
X137065013Y-72847748D01*
X136992280Y-72956600D01*
X136930413Y-72934192D01*
X135974605Y-73890000D01*
X135615395Y-73890000D01*
X135601253Y-73875858D01*
X135780858Y-73696253D01*
X135795000Y-73710395D01*
X136750808Y-72754587D01*
X136655044Y-72490186D01*
X136365429Y-72349296D01*
X136053892Y-72267616D01*
X135732405Y-72248282D01*
X135413325Y-72292039D01*
X135108912Y-72397205D01*
X134934956Y-72490186D01*
X134860037Y-72697033D01*
X134844502Y-72645820D01*
X134785537Y-72535506D01*
X134706185Y-72438815D01*
X134609494Y-72359463D01*
X134499180Y-72300498D01*
X134379482Y-72264188D01*
X134255000Y-72251928D01*
X132255000Y-72251928D01*
X132130518Y-72264188D01*
X132010820Y-72300498D01*
X131900506Y-72359463D01*
X131803815Y-72438815D01*
X131724463Y-72535506D01*
X131665498Y-72645820D01*
X131629188Y-72765518D01*
X131616928Y-72890000D01*
X112673950Y-72890000D01*
X112688625Y-72740341D01*
X112764035Y-72490571D01*
X112886522Y-72260208D01*
X113051422Y-72058020D01*
X113252450Y-71891714D01*
X113481954Y-71767622D01*
X113731195Y-71690469D01*
X114021088Y-71660000D01*
X164867721Y-71660000D01*
X165159659Y-71688625D01*
%TD*%
M02*
