M48
; DRILL file {KiCad (5.1.6-0-10_14)} date Wednesday, May 27, 2020 at 03:33:51 PM
; FORMAT={-:-/ absolute / inch / decimal}
; #@! TF.CreationDate,2020-05-27T15:33:51+01:00
; #@! TF.GenerationSoftware,Kicad,Pcbnew,(5.1.6-0-10_14)
; #@! TF.FileFunction,Plated,1,2,PTH
FMAT,2
INCH
T1C0.0130
T2C0.0315
T3C0.0394
T4C0.0402
%
G90
G05
T1
X4.7563Y-4.6177
X4.7614Y-4.8335
X5.7008Y-4.6811
X5.7181Y-4.2661
X6.1024Y-4.6504
X6.3425Y-4.6811
T2
X5.6565Y-2.9232
X5.7549Y-2.9232
X5.1547Y-3.2571
X5.1547Y-3.3555
X6.1539Y-3.2571
X6.1539Y-3.3555
T3
X4.6031Y-4.7531
X4.7031Y-4.7531
X4.8031Y-4.7531
X4.9031Y-4.7531
X5.0031Y-4.7531
X5.1031Y-4.7531
X5.2031Y-4.7531
X5.3031Y-4.7531
X5.4031Y-4.7531
X5.5031Y-4.7531
X5.6031Y-4.7531
X5.7031Y-4.7531
X5.8031Y-4.7531
X5.9031Y-4.7531
X6.0031Y-4.7531
X5.6457Y-3.7591
X5.6457Y-3.8591
X4.7882Y-3.7587
X4.7882Y-3.8587
X4.6051Y-4.1539
X4.7051Y-4.1539
X4.8051Y-4.1539
X4.9051Y-4.1539
X5.0051Y-4.1539
X5.1051Y-4.1539
X5.2051Y-4.1539
X5.3051Y-4.1539
X5.4051Y-4.1539
X5.5051Y-4.1539
X5.6051Y-4.1539
X5.7051Y-4.1539
X5.8051Y-4.1539
X5.9051Y-4.1539
X6.0051Y-4.1539
X6.4665Y-3.8632
X6.4665Y-3.9632
X6.4665Y-4.0632
X6.4665Y-4.1632
X6.4665Y-4.2632
X6.4665Y-4.3632
X6.4665Y-4.4632
X6.4665Y-4.5632
X6.4665Y-4.6632
X5.5028Y-3.3591
X5.6028Y-3.3591
X5.7028Y-3.3591
X5.8028Y-3.3591
X4.5047Y-3.9988
X4.6047Y-3.9988
X4.7047Y-3.9988
X4.8047Y-3.9988
X4.9047Y-3.9988
X5.0047Y-3.9988
X5.1047Y-3.9988
X5.2047Y-3.9988
X6.4692Y-3.4873
X6.4692Y-3.5873
X6.4692Y-3.6873
X5.5039Y-3.7591
X5.5039Y-3.8591
X5.7874Y-3.7591
X5.7874Y-3.8591
X4.5051Y-3.3571
X4.6051Y-3.3571
X4.7051Y-3.3571
X4.8051Y-3.3571
X4.7126Y-4.9862
X4.8126Y-4.9862
X4.9126Y-4.9862
X5.0126Y-4.9862
X5.1126Y-4.9862
X5.2126Y-4.9862
X5.3126Y-4.9862
X5.4126Y-4.9862
X5.5126Y-4.9862
X5.6126Y-4.9862
X5.7126Y-4.9862
X5.8126Y-4.9862
X5.9126Y-4.9862
X6.0126Y-4.9862
X4.6465Y-3.7587
X4.6465Y-3.8587
X5.5039Y-3.9992
X5.6039Y-3.9992
X5.7039Y-3.9992
X5.8039Y-3.9992
X5.9039Y-3.9992
X6.0039Y-3.9992
X6.1039Y-3.9992
X6.2039Y-3.9992
X5.2463Y-2.9091
X5.3463Y-2.9091
X5.4463Y-2.9091
X4.5047Y-3.7587
X4.5047Y-3.8587
X5.5039Y-3.4992
X5.6039Y-3.4992
X5.7039Y-3.4992
X5.8039Y-3.4992
X5.9039Y-3.4992
X6.0039Y-3.4992
X6.1039Y-3.4992
X6.2039Y-3.4992
X4.5047Y-3.4988
X4.6047Y-3.4988
X4.7047Y-3.4988
X4.8047Y-3.4988
X4.9047Y-3.4988
X5.0047Y-3.4988
X5.1047Y-3.4988
X5.2047Y-3.4988
T4
X5.9126Y-2.9299
X6.0126Y-2.9299
X6.1126Y-2.9299
T3
G00X4.7732Y-2.9673
M15
G01X4.7732Y-3.0461
M16
G05
G00X4.852Y-3.1917
M15
G01X4.9307Y-3.1917
M16
G05
G00X5.0094Y-2.9673
M15
G01X5.0094Y-3.0461
M16
G05
T0
M30
